<?xml version="1.0" standalone="no"?>
<!DOCTYPE svg PUBLIC "-//W3C//DTD SVG 20010904//EN"
 "http://www.w3.org/TR/2001/REC-SVG-20010904/DTD/svg10.dtd">
<svg version="1.0" xmlns="http://www.w3.org/2000/svg"
 width="260.000000pt" height="260.000000pt" viewBox="0 0 260.000000 260.000000"
 preserveAspectRatio="xMidYMid meet">
<metadata>
Created by potrace 1.11, written by Peter Selinger 2001-2013
</metadata>
<g transform="translate(0.000000,260.000000) scale(0.100000,-0.100000)"
fill="#000000" stroke="none">
<path d="M1075 2420 c-64 -13 -156 -50 -210 -85 -53 -34 -160 -143 -177 -181
-6 -13 -20 -27 -32 -30 -12 -4 -51 -26 -88 -51 -160 -105 -250 -278 -244 -470
l2 -78 -51 -62 c-218 -266 -274 -580 -144 -809 38 -68 116 -145 187 -187 54
-32 120 -59 132 -55 3 1 14 -4 26 -10 42 -22 252 -34 343 -19 26 4 46 -1 85
-23 54 -31 158 -60 216 -60 20 0 45 -7 58 -15 89 -63 223 -119 342 -144 91
-19 297 -17 297 3 0 8 -44 11 -143 11 -78 0 -140 3 -138 7 4 7 -6 9 -41 8 -3
0 -21 6 -40 14 -20 9 -38 15 -41 15 -8 -1 -139 55 -144 62 -3 3 -18 13 -35 22
-16 9 -24 16 -17 17 15 0 21 2 112 24 72 18 189 75 265 129 16 12 72 43 125
69 323 160 503 495 456 853 -10 80 -96 337 -147 444 -145 300 -411 530 -686
594 -66 16 -208 19 -268 7z m235 -14 c65 -12 89 -19 159 -48 223 -93 431 -302
550 -553 52 -108 61 -142 21 -80 -47 73 -176 194 -260 244 -41 23 -119 58
-174 76 -56 19 -130 46 -166 61 -213 88 -454 112 -645 64 -48 -12 -89 -19 -92
-17 -3 3 30 41 74 85 87 89 162 132 277 162 67 17 182 20 256 6z m-162 -246
c20 -5 53 -11 72 -14 42 -6 172 -45 182 -54 4 -4 -33 -8 -82 -9 -93 -2 -219
-30 -300 -66 -73 -33 -179 -105 -239 -162 -45 -42 -176 -125 -199 -125 -9 0 9
140 28 207 34 122 55 162 97 179 102 43 337 66 441 44z m-515 -107 c-9 -21
-22 -60 -30 -88 -8 -27 -15 -54 -17 -60 -6 -20 -18 -107 -21 -143 -1 -20 -3
-40 -4 -43 0 -3 -28 -25 -61 -48 -33 -23 -65 -47 -73 -54 -7 -7 -28 -25 -46
-42 l-32 -30 2 85 c3 138 55 263 147 353 38 37 130 105 144 106 4 1 0 -16 -9
-36z m43 -315 c-13 -18 -38 -61 -56 -95 -17 -35 -33 -63 -36 -63 -2 0 -4 29
-4 64 l0 64 53 31 c66 39 74 39 43 -1z m-109 -120 c1 -47 -4 -106 -12 -138
-22 -86 -27 -128 -28 -228 l0 -92 -35 47 c-47 66 -111 202 -125 269 l-11 55
35 34 c28 26 167 135 173 135 1 0 2 -37 3 -82z m-222 -165 c11 -60 87 -212
143 -286 29 -37 55 -80 58 -95 3 -15 15 -51 25 -80 11 -30 22 -77 25 -105 19
-193 81 -338 186 -438 36 -34 45 -48 35 -52 -9 -3 -65 -6 -126 -6 -213 1 -362
57 -480 180 -158 165 -179 434 -55 682 56 110 158 252 174 242 4 -3 11 -22 15
-42z m306 -630 c19 -34 75 -100 135 -159 114 -113 208 -221 196 -228 -4 -2
-33 -11 -64 -19 -55 -14 -58 -14 -86 7 -118 89 -191 230 -217 424 -3 17 -3 32
-1 32 3 0 19 -26 37 -57z m419 -340 l25 -11 -35 -9 c-39 -11 -55 -2 -92 49
l-19 28 48 -23 c26 -13 59 -28 73 -34z m80 -23 c108 -31 248 -33 395 -5 29 6
29 5 10 -10 -56 -46 -212 -110 -294 -121 -25 -3 -50 -8 -54 -11 -11 -7 -82 41
-131 88 l-40 37 35 15 c43 19 38 19 79 7z m-74 -98 c65 -59 69 -56 -41 -37
-54 9 -164 61 -145 68 58 21 107 32 116 28 6 -3 38 -30 70 -59z"/>
<path d="M2430 410 c-6 -11 -8 -20 -6 -20 3 0 10 9 16 20 6 11 8 20 6 20 -3 0
-10 -9 -16 -20z"/>
<path d="M2330 349 c-7 -11 -14 -18 -17 -15 -3 3 -17 -3 -31 -14 -13 -11 -29
-17 -35 -13 -6 3 -7 1 -3 -5 4 -7 1 -12 -8 -12 -9 0 -16 -6 -16 -12 0 -9 -4
-8 -10 2 -6 10 -10 11 -10 2 0 -6 -3 -12 -7 -11 -16 2 -53 -14 -53 -23 0 -5
-4 -6 -10 -3 -5 3 -10 1 -10 -4 0 -6 -3 -10 -7 -9 -19 4 -85 -16 -89 -27 -3
-7 -14 -11 -25 -8 -10 3 -19 1 -19 -3 0 -8 -17 -11 -72 -14 -10 -1 -20 -6 -23
-11 -4 -5 -10 -7 -15 -4 -14 8 -52 -14 -44 -26 3 -6 11 -6 17 -1 7 4 19 8 27
7 8 0 21 6 28 15 8 8 11 9 7 3 -9 -19 15 -16 38 5 11 9 17 11 13 5 -9 -15 10
-18 19 -3 4 6 10 8 15 5 14 -9 40 6 40 24 0 14 2 14 10 1 9 -13 10 -13 10 0 0
13 1 13 10 0 8 -12 10 -12 10 5 0 17 2 17 10 5 6 -10 10 -11 10 -3 0 7 3 13 8
12 15 -2 52 14 52 23 0 6 7 7 16 4 8 -3 12 -2 9 3 -3 5 -1 12 5 16 5 3 10 0
10 -7 0 -10 2 -10 9 0 4 8 10 12 12 11 7 -5 89 44 89 53 0 5 4 7 9 3 5 -3 16
4 24 15 7 11 17 17 22 12 5 -4 5 -1 1 6 -10 17 -13 15 -26 -9z"/>
</g>
</svg>
