<?xml version="1.0" encoding="UTF-8"?>
<svg width="6px" height="10px" viewBox="0 0 6 10" version="1.1" xmlns="http://www.w3.org/2000/svg" xmlns:xlink="http://www.w3.org/1999/xlink">
    <!-- Generator: Sketch 49.1 (51147) - http://www.bohemiancoding.com/sketch -->
    <title>arrow</title>
    <desc>Created with Sketch.</desc>
    <defs></defs>
    <g id="Symbols" stroke="none" stroke-width="1" fill="none" fill-rule="evenodd">
        <g id="button/big/main" transform="translate(-123.000000, -19.000000)" fill="#FFFFFF">
            <g id="Group" transform="translate(0.000000, -1.000000)">
                <path d="M124,22 C123.447715,22 123,21.5522847 123,21 C123,20.4477153 123.447715,20 124,20 C124.552285,20 125,20.4477153 125,21 C125,21.5522847 124.552285,22 124,22 Z M126,24 C125.447715,24 125,23.5522847 125,23 C125,22.4477153 125.447715,22 126,22 C126.552285,22 127,22.4477153 127,23 C127,23.5522847 126.552285,24 126,24 Z M128,26 C127.447715,26 127,25.5522847 127,25 C127,24.4477153 127.447715,24 128,24 C128.552285,24 129,24.4477153 129,25 C129,25.5522847 128.552285,26 128,26 Z M126,28 C125.447715,28 125,27.5522847 125,27 C125,26.4477153 125.447715,26 126,26 C126.552285,26 127,26.4477153 127,27 C127,27.5522847 126.552285,28 126,28 Z M124,30 C123.447715,30 123,29.5522847 123,29 C123,28.4477153 123.447715,28 124,28 C124.552285,28 125,28.4477153 125,29 C125,29.5522847 124.552285,30 124,30 Z" id="arrow"></path>
            </g>
        </g>
    </g>
</svg>