<?xml version="1.0" encoding="utf-8"?>
<!-- Generator: Adobe Illustrator 22.1.0, SVG Export Plug-In . SVG Version: 6.00 Build 0)  -->
<svg version="1.1" id="Calque_1" xmlns="http://www.w3.org/2000/svg" xmlns:xlink="http://www.w3.org/1999/xlink" x="0px" y="0px"
	 viewBox="0 0 6 10" style="enable-background:new 0 0 6 10;" xml:space="preserve">
<style type="text/css">
	.st0{fill:#C5143A;}
</style>
<title>arrow</title>
<desc>Created with Sketch.</desc>
<g id="Symbols">
	<g id="button_x2F_big_x2F_main" transform="translate(-123.000000, -19.000000)">
		<g id="Group" transform="translate(0.000000, -1.000000)">
			<path id="arrow" class="st0" d="M124,22c-0.6,0-1-0.4-1-1s0.4-1,1-1s1,0.4,1,1S124.6,22,124,22z M126,24c-0.6,0-1-0.4-1-1
				s0.4-1,1-1s1,0.4,1,1S126.6,24,126,24z M128,26c-0.6,0-1-0.4-1-1s0.4-1,1-1c0.6,0,1,0.4,1,1S128.6,26,128,26z M126,28
				c-0.6,0-1-0.4-1-1s0.4-1,1-1s1,0.4,1,1S126.6,28,126,28z M124,30c-0.6,0-1-0.4-1-1s0.4-1,1-1s1,0.4,1,1S124.6,30,124,30z"/>
		</g>
	</g>
</g>
</svg>
