<?xml version="1.0" encoding="UTF-8"?>
<svg width="82px" height="28px" viewBox="0 0 82 28" version="1.1" xmlns="http://www.w3.org/2000/svg" xmlns:xlink="http://www.w3.org/1999/xlink">
    <!-- Generator: Sketch 49.2 (51160) - http://www.bohemiancoding.com/sketch -->
    <title>car</title>
    <desc>Created with Sketch.</desc>
    <defs></defs>
    <g id="Pages" stroke="none" stroke-width="1" fill="none" fill-rule="evenodd">
        <g id="Plan-your-trip" transform="translate(-687.000000, -2359.000000)" fill="#000000">
            <g id="Easy-access" transform="translate(-1.000000, 937.000000)">
                <g id="Transport" transform="translate(252.000000, 198.000000)">
                    <g id="car" transform="translate(436.000000, 1224.000000)">
                        <path d="M35.8688,9.7935 C35.1148,9.7515 33.0408,9.6685 33.0408,9.6685 L32.9608,11.6665 C32.9608,11.6665 35.0128,11.7495 35.7578,11.7905 C35.7768,11.7915 35.7958,11.7925 35.8138,11.7925 C36.3418,11.7925 36.7818,11.3795 36.8108,10.8475 C36.8428,10.2955 36.4198,9.8245 35.8688,9.7935" id="Fill-1"></path>
                        <path d="M79.5600435,21.1011077 C79.5504099,21.2793292 79.5417396,21.4575507 79.5349961,21.6367356 C79.0774003,21.8997328 77.6757122,22.4498111 74.1700467,22.3833393 C74.3848759,21.7244013 74.5052958,21.0230756 74.5052958,20.2938124 C74.5052958,16.5752444 71.4793834,13.5502954 67.7617789,13.5502954 C64.0441743,13.5502954 61.0182619,16.5752444 61.0182619,20.2938124 C61.0182619,20.9566037 61.117488,21.5953111 61.2966728,22.2003009 L22.8750034,21.565447 C22.9539988,21.1531291 22.9992767,20.7292509 22.9992767,20.2938124 C22.9992767,16.5752444 19.9733643,13.5502954 16.2557598,13.5502954 C12.5381552,13.5502954 9.51224284,16.5752444 9.51224284,20.2938124 C9.51224284,20.5818569 9.53632683,20.8650846 9.57197113,21.1444589 C6.52004803,20.5664431 3.44404095,19.9325525 2.70129072,19.6907493 C2.40842942,19.1088801 2.29282627,16.6561667 2.91322983,13.9471996 C4.5268571,13.1890356 8.8889492,11.0715713 9.88506299,9.89916267 C10.2299457,9.49455165 10.179851,8.88570841 9.77524,8.54178904 C9.37159234,8.19690632 8.76178574,8.24603766 8.41690302,8.65161204 C8.03541263,9.10053759 6.45068615,10.0109124 4.72241909,10.9058734 L5.11354307,8.04084207 C10.1644373,7.19019558 14.3935858,6.32220861 18.3722608,5.32127802 C22.6216398,4.25194891 26.5193926,3.31941685 30.4826538,2.8155798 C30.7687716,4.03133957 31.0414024,5.24709934 31.2071002,6.06499161 C30.4874706,6.03127402 29.7957785,6.00044651 29.1512909,5.97058237 C26.5010888,5.85016242 24.4077084,5.75575319 24.1138838,5.72781576 C23.5782558,5.6767577 23.1139165,6.06595497 23.0638218,6.59483937 C23.0137271,7.12468713 23.401961,7.59480659 23.9318088,7.64586465 C24.2583877,7.67669216 25.8286638,7.74894412 29.0636252,7.89537478 C37.0412057,8.25759797 53.6427811,9.01190851 57.5771416,9.605338 L57.5790683,9.605338 L58.0279938,9.67180981 C69.198148,11.3008508 72.1306145,11.9434117 72.8839617,12.1813615 C73.2269177,12.2892577 73.567947,12.4038975 73.9060862,12.5223908 C73.8656251,14.0348653 74.805864,15.813227 75.8405122,16.7361255 C76.8520397,17.6387934 78.2026698,18.2139191 79.5638969,18.3420459 C79.6457825,19.2109962 79.6072481,20.1242611 79.5600435,21.1011077 M67.7617789,25.1106102 C65.1057966,25.1106102 62.9449811,22.9497947 62.9449811,20.2938124 C62.9449811,17.63783 65.1057966,15.4770145 67.7617789,15.4770145 C70.4177612,15.4770145 72.5785767,17.63783 72.5785767,20.2938124 C72.5785767,22.9497947 70.4177612,25.1106102 67.7617789,25.1106102 M16.2557598,25.1106102 C13.5997775,25.1106102 11.438962,22.9497947 11.438962,20.2938124 C11.438962,17.63783 13.5997775,15.4770145 16.2557598,15.4770145 C18.9117421,15.4770145 21.0725576,17.63783 21.0725576,20.2938124 C21.0725576,22.9497947 18.9117421,25.1106102 16.2557598,25.1106102 M40.4331948,2.68841633 C41.4678429,2.81750652 42.4957476,3.00632499 43.4889713,3.2490916 C46.8019648,4.05831363 49.6669962,5.58812862 52.6900185,7.21427957 C47.3125454,6.82893574 39.4014367,6.44262855 33.1829507,6.1555474 C33.0114727,5.20760159 32.6771869,3.73077138 32.4132264,2.60267733 L32.4267134,2.60171397 C35.2657341,2.34931377 37.958324,2.37725119 40.4331948,2.68841633 M78.599574,15.4972451 C78.7749054,15.7544621 78.9126658,16.0155325 79.0350125,16.2794931 C78.3307967,16.0993448 77.656445,15.7746927 77.1237071,15.298793 C76.6468441,14.8739515 76.1709445,14.0926669 75.9503352,13.3701472 C77.0408582,13.9163721 77.9839872,14.5916871 78.599574,15.4972451 M80.1929707,14.4134656 C78.712287,12.236273 76.0842422,11.1707973 73.4639041,10.3432714 C71.6730187,9.77874273 64.2329928,8.62945477 58.3064048,7.76532124 L57.8651861,7.70077615 L57.8642227,7.70077615 C57.8642227,7.70077615 57.8632594,7.69981279 57.8632594,7.69981279 C57.2871703,7.61407378 56.53864,7.16611159 55.8787387,6.77113417 C55.5935842,6.60061952 55.3199901,6.4368484 55.0646998,6.30197806 L53.7150331,5.57849503 C50.5388366,3.86949516 47.5398983,2.25586789 43.9456037,1.37728397 C42.8820548,1.11717688 41.7799714,0.914871376 40.6730713,0.776147599 C38.0642936,0.449568707 35.2320165,0.416814482 32.2552354,0.682701721 C27.4702285,1.10947001 22.9241347,2.18939608 17.9021413,3.45236047 C13.7934127,4.48604528 9.40723665,5.37715288 4.09719873,6.25766352 C3.68006404,6.32702541 3.35637523,6.65938446 3.29953701,7.07748251 L2.63578227,11.9463017 C2.30438658,12.1052561 1.98358785,12.2555402 1.68301966,12.3952273 C1.4200225,12.5166106 1.22638723,12.7497436 1.1531719,13.0300813 C0.544328659,15.4066893 -0.0953420919,20.584747 1.82367016,21.418053 C2.76583581,21.8274808 8.67315666,22.9391977 10.1894846,23.2204987 C11.2819344,25.4747601 13.5872538,27.0373293 16.2557598,27.0373293 C18.8346733,27.0373293 21.0783378,25.5807297 22.212212,23.4478516 C22.2690502,23.4594119 22.3210716,23.4844592 22.3807999,23.4854226 L62.2330583,24.1433972 C63.4526716,25.8899681 65.4747633,27.0373293 67.7617789,27.0373293 C70.069025,27.0373293 72.1084572,25.8707009 73.324217,24.0981193 C73.4793179,24.2156492 73.6604295,24.3013882 73.8694785,24.3071683 C74.1825704,24.3158385 74.4831386,24.3206553 74.7711831,24.3206553 C79.8114803,24.3206553 81.0339836,23.0278268 81.2960174,22.6126188 C81.3865732,22.4690783 81.4366679,22.3043438 81.4424481,22.1338291 C81.4540084,21.8178472 81.4684588,21.503792 81.4838725,21.1945536 C81.5917688,18.9537792 81.7044819,16.6368995 80.1929707,14.4134656" id="Fill-3"></path>
                    </g>
                </g>
            </g>
        </g>
    </g>
</svg>