<?xml version="1.0" encoding="UTF-8"?>
<svg width="294px" height="292px" viewBox="0 0 294 292" version="1.1" xmlns="http://www.w3.org/2000/svg" xmlns:xlink="http://www.w3.org/1999/xlink">
    <!-- Generator: Sketch 49.1 (51147) - http://www.bohemiancoding.com/sketch -->
    <title>Line 3</title>
    <desc>Created with Sketch.</desc>
    <defs></defs>
    <g id="Pages" stroke="none" stroke-width="1" fill="none" fill-rule="evenodd" opacity="0.19921875" stroke-linecap="square">
        <g id="Home" transform="translate(-367.000000, -3807.000000)" stroke="#252525" stroke-width="0.719999992">
            <g id="Speakers-2018" transform="translate(0.000000, 3474.000000)">
                <g id="Ash-booth" transform="translate(367.000000, 333.000000)">
                    <g id="Image">
                        <path d="M147,0 L147,7.5463765 M156.117756,0.284358551 L155.591347,7.81235246 M165.134682,1.12772922 L164.21501,8.61785617 M174.146719,2.53944609 L172.706802,9.9471744 M182.989251,4.49349745 L181.163618,11.8157143 M191.756384,7.0107699 L189.424426,14.1878004 M200.287922,10.0453154 L197.583543,17.0904648 M208.674749,13.6292659 L205.485512,20.4686057 M216.821368,17.7288499 L213.162812,24.3290595 M224.640487,22.2927038 L220.641517,28.692394 M232.215098,27.3698762 L227.779449,33.475023 M239.406989,32.867266 L234.6579,38.731902 M246.292606,38.8436138 L241.145989,44.3626842 M252.746167,45.1896149 L247.317758,50.4317685 M258.836446,51.9728378 L253.055587,56.8235551 M264.451982,59.069416 L258.425178,63.6109387 M269.652864,66.5547516 L263.32394,70.6648029 M274.376052,74.3495935 L267.775843,78.0081495 M278.574786,82.3641199 L271.792148,85.6722336 M282.293509,90.683903 L275.29663,93.5108254 M285.464402,99.1567472 L278.329163,101.613607 M288.121226,107.872979 L280.831986,109.826124 M290.215294,116.67325 L282.833824,118.24223 M291.769187,125.651314 L284.296251,126.701567 M292.759247,134.708716 L285.231254,135.235125 M293.181044,143.744301 L285.635816,143.876004 M293.038676,152.854417 L285.502642,152.45947 M292.334989,161.872472 L284.829952,161.083661 M291.062392,170.894602 L283.630662,169.584187 M289.244092,179.755814 L281.891128,178.058249 M286.86092,188.550618 L279.644284,186.344271 M283.956096,197.118098 L276.864822,194.537085 M280.499156,205.549746 L273.605198,202.480358 M276.522275,213.749555 L269.85922,210.206746 M272.075365,221.629414 L265.606858,217.742743 M267.110911,229.273228 L260.929281,224.944804 M261.719665,236.541252 L255.773039,231.895239 M255.844308,243.511018 L250.236258,238.461506 M249.592012,250.054929 L244.255918,244.718835 M242.896495,256.243004 L237.945626,250.547681 M235.827489,262.0018 L231.285967,255.974995 M228.467465,267.272524 L224.247584,261.016294 M220.737896,272.111106 L216.964708,265.575753 M212.780093,276.429214 L209.354109,269.705344 M204.509339,280.272855 L201.560734,273.326379 M196.07669,283.57164 L193.495677,276.480366 M187.392487,286.360976 L185.312424,279.106933 M178.55097,288.603731 L176.98199,281.222261 M169.651731,290.281431 L168.471218,282.827963 M160.599973,291.411536 L159.942263,283.893875 M151.561101,291.973664 L151.297736,284.431884 M142.438899,291.973664 L142.702264,284.431884 M133.400027,291.411536 L134.057737,283.893875 M124.348269,290.281431 L125.528782,282.827963 M115.44903,288.603731 L117.01801,281.222261 M106.607513,286.360976 L108.687576,279.106933 M97.92331,283.57164 L100.504323,276.480366 M89.4906613,280.272855 L92.4392655,273.326379 M81.2199075,276.429214 L84.6458907,269.705344 M73.2621038,272.111106 L77.0352921,265.575753 M65.5325354,267.272524 L69.7524156,261.016294 M58.1725106,262.0018 L62.7140333,255.974995 M51.1035053,256.243004 L56.0543738,250.547681 M44.4079881,250.054929 L49.7440821,244.718835 M38.1556917,243.511018 L43.7637423,238.461506 M32.2803353,236.541252 L38.2269611,231.895239 M26.8890895,229.273228 L33.0707192,224.944804 M21.9246349,221.629414 L28.393142,217.742743 M17.4777247,213.749555 L24.1407797,210.206746 M13.5008444,205.549746 L20.3948024,202.480358 M10.0439041,197.118098 L17.1351784,194.537085 M7.13908031,188.550618 L14.355716,186.344271 M4.75590831,179.755814 L12.1088717,178.058249 M2.93760792,170.894602 L10.369338,169.584187 M1.66501106,161.872472 L9.17004772,161.083661 M0.961323665,152.854417 L8.49735812,152.45947 M0.818956358,143.744301 L8.36418351,143.876004 M1.24075257,134.708716 L8.76874648,135.235125 M2.23081331,125.651314 L9.703749,126.701567 M3.78470594,116.67325 L11.166176,118.24223 M5.87877424,107.872979 L13.1680142,109.826124 M8.53559815,99.1567472 L15.6708373,101.613607 M11.7064915,90.683903 L18.7033699,93.5108254 M15.425214,82.3641199 L22.2078523,85.6722336 M19.6239478,74.3495935 L26.2241574,78.0081495 M24.3471358,66.5547516 L30.6760597,70.6648029 M29.5480182,59.069416 L35.5748224,63.6109387 M35.1635536,51.9728378 L40.9444134,56.8235551 M41.2538332,45.1896149 L46.6822421,50.4317685 M47.7073943,38.8436138 L52.8540107,44.3626842 M54.5930112,32.867266 L59.3420998,38.731902 M61.7849021,27.3698762 L66.2205509,33.475023 M69.3595127,22.2927038 L73.358483,28.692394 M77.1786316,17.7288499 L80.8371875,24.3290595 M85.3252512,13.6292659 L88.5144877,20.4686057 M93.7120779,10.0453154 L96.4164574,17.0904648 M102.243616,7.0107699 L104.575574,14.1878004 M111.010749,4.49349745 L112.836382,11.8157143 M119.853281,2.53944609 L121.293198,9.9471744 M128.865318,1.12772922 L129.78499,8.61785617 M137.882244,0.284358551 L138.408653,7.81235246" id="Line-3"></path>
                    </g>
                </g>
            </g>
        </g>
    </g>
</svg>