<?xml version="1.0" encoding="UTF-8"?>
<svg width="412px" height="279px" viewBox="0 0 412 279" version="1.1" xmlns="http://www.w3.org/2000/svg" xmlns:xlink="http://www.w3.org/1999/xlink">
    <!-- Generator: Sketch 49.1 (51147) - http://www.bohemiancoding.com/sketch -->
    <title>Text</title>
    <desc>Created with Sketch.</desc>
    <defs></defs>
    <g id="Pages" stroke="none" stroke-width="1" fill="none" fill-rule="evenodd">
        <g id="Enterprise-security" transform="translate(-249.000000, -1530.000000)">
            <g id="Top-3-functions" transform="translate(228.000000, 1396.000000)">
                <g id="Text" transform="translate(21.000000, 134.000000)">
                    <g id="Group-18">
                        <g id="Group-14" transform="translate(227.000000, 25.000000)">
                            <path d="M37.4970703,31 L37.4970703,27.0830078 L47.15625,16.7265625 C48.5507882,15.1269451 49.5419892,13.776861 50.1298828,12.6762695 C50.7177764,11.5756781 51.0117188,10.5537157 51.0117188,9.61035156 C51.0117188,8.35253277 50.6733432,7.32373447 49.996582,6.52392578 C49.3198208,5.72411709 48.3593812,5.32421875 47.1152344,5.32421875 C45.7343681,5.32421875 44.6850622,5.79247579 43.9672852,6.72900391 C43.2495081,7.66553203 42.890625,8.91307814 42.890625,10.4716797 L37.0664062,10.4716797 L37.0253906,10.3486328 C36.9570309,7.65525997 37.842276,5.37549761 39.6811523,3.50927734 C41.5200287,1.64305708 43.9980313,0.709960938 47.1152344,0.709960938 C50.1914216,0.709960938 52.6113193,1.50975763 54.375,3.109375 C56.1386807,4.70899237 57.0205078,6.84178354 57.0205078,9.5078125 C57.0205078,11.312509 56.5249073,12.9804611 55.5336914,14.5117188 C54.5424755,16.0429764 52.898449,18.0390502 50.6015625,20.5 L45.2900391,26.3037109 L45.3310547,26.40625 L53.0830078,26.40625 L53.3291016,23.453125 L57.8818359,23.453125 L57.8818359,31 L37.4970703,31 Z M69.4892578,26.8369141 C71.0888752,26.8369141 72.3808545,26.2251038 73.3652344,25.0014648 C74.3496143,23.7778259 74.8417969,21.942395 74.8417969,19.4951172 L74.8417969,19.0439453 C74.1718717,19.9052777 73.372075,20.5581032 72.4423828,21.0024414 C71.5126907,21.4467796 70.5146538,21.6689453 69.4482422,21.6689453 C66.6591657,21.6689453 64.4716876,20.7563568 62.8857422,18.9311523 C61.2997968,17.1059479 60.5068359,14.5869301 60.5068359,11.3740234 C60.5068359,8.35252396 61.4536038,5.81983444 63.347168,3.77587891 C65.2407321,1.73192337 67.6367043,0.709960938 70.5351562,0.709960938 C73.5839996,0.709960938 76.0585842,1.75926685 77.9589844,3.85791016 C79.8593845,5.95655346 80.8095703,8.906231 80.8095703,12.7070312 L80.8095703,19.1875 C80.8095703,23.05666 79.7534285,26.0644424 77.6411133,28.2109375 C75.528798,30.3574326 72.81154,31.4306641 69.4892578,31.4306641 C68.4501901,31.4306641 67.3803766,31.3247081 66.2797852,31.112793 C65.1791937,30.9008778 64.1640671,30.5898458 63.234375,30.1796875 L63.9111328,25.8525391 C64.827153,26.1943376 65.715816,26.4438469 66.5771484,26.6010742 C67.4384809,26.7583016 68.4091743,26.8369141 69.4892578,26.8369141 Z M70.453125,17.2802734 C71.4511769,17.2802734 72.3227502,17.092287 73.0678711,16.7163086 C73.812992,16.3403302 74.4042947,15.8378938 74.8417969,15.2089844 L74.8417969,12.0097656 C74.8417969,9.82225469 74.4589882,8.16113849 73.6933594,7.02636719 C72.9277305,5.89159589 71.8886784,5.32421875 70.5761719,5.32421875 C69.3730409,5.32421875 68.3920936,5.91552143 67.6333008,7.09814453 C66.8745079,8.28076763 66.4951172,9.70604635 66.4951172,11.3740234 C66.4951172,13.17872 66.8334927,14.6142525 67.5102539,15.6806641 C68.1870151,16.7470756 69.1679623,17.2802734 70.453125,17.2802734 Z M83.6191406,6.8828125 C83.6191406,5.11913181 84.1899357,3.64941994 85.331543,2.47363281 C86.4731502,1.29784568 88.0624898,0.709960938 90.0996094,0.709960938 C92.1640728,0.709960938 93.7636662,1.29442775 94.8984375,2.46337891 C96.0332088,3.63233006 96.6005859,5.10545986 96.6005859,6.8828125 L96.6005859,8.46191406 C96.6005859,10.2255948 96.0332088,11.6884708 94.8984375,12.8505859 C93.7636662,14.0127011 92.1777446,14.59375 90.140625,14.59375 C88.0898335,14.59375 86.4902401,14.0127011 85.3417969,12.8505859 C84.1933536,11.6884708 83.6191406,10.2255948 83.6191406,8.46191406 L83.6191406,6.8828125 Z M87.5976562,8.46191406 C87.5976562,9.25488678 87.8164041,9.92138402 88.2539062,10.4614258 C88.6914084,11.0014675 89.3203084,11.2714844 90.140625,11.2714844 C90.9335977,11.2714844 91.5488259,11.0014675 91.9863281,10.4614258 C92.4238303,9.92138402 92.6425781,9.25488678 92.6425781,8.46191406 L92.6425781,6.8828125 C92.6425781,6.08983979 92.4204124,5.41650667 91.9760742,4.86279297 C91.5317361,4.30907926 90.906254,4.03222656 90.0996094,4.03222656 C89.2929647,4.03222656 88.6743186,4.30907926 88.2436523,4.86279297 C87.8129861,5.41650667 87.5976562,6.08983979 87.5976562,6.8828125 L87.5976562,8.46191406 Z M97.8925781,23.6787109 C97.8925781,21.9287022 98.4667911,20.4658262 99.6152344,19.2900391 C100.763678,18.1142519 102.356435,17.5263672 104.393555,17.5263672 C106.444346,17.5263672 108.040522,18.110834 109.182129,19.2797852 C110.323736,20.4487363 110.894531,21.9150302 110.894531,23.6787109 L110.894531,25.2578125 C110.894531,27.0351651 110.327154,28.504877 109.192383,29.6669922 C108.057612,30.8291074 106.47169,31.4101562 104.43457,31.4101562 C102.383779,31.4101562 100.780767,30.8256894 99.6254883,29.6567383 C98.4702091,28.4877871 97.8925781,27.0214932 97.8925781,25.2578125 L97.8925781,23.6787109 Z M101.871094,25.2578125 C101.871094,26.0371133 102.106931,26.7036105 102.578613,27.2573242 C103.050295,27.8110379 103.668941,28.0878906 104.43457,28.0878906 C105.323247,28.0878906 105.958982,27.8315455 106.341797,27.3188477 C106.724611,26.8061498 106.916016,26.1191449 106.916016,25.2578125 L106.916016,23.6787109 C106.916016,22.8994102 106.697268,22.2329129 106.259766,21.6791992 C105.822263,21.1254855 105.200199,20.8486328 104.393555,20.8486328 C103.573238,20.8486328 102.947756,21.1254855 102.51709,21.6791992 C102.086424,22.2329129 101.871094,22.8994102 101.871094,23.6787109 L101.871094,25.2578125 Z M91.8427734,28.7646484 L88.9306641,27.2265625 L103.511719,3.88867188 L106.423828,5.42675781 L91.8427734,28.7646484 Z" id="29%" fill="#252525"></path>
                            <path d="M37.5439453,55 L37.5439453,42.9140625 L41.2294922,42.9140625 C42.7070386,42.9140625 43.9286247,43.4065706 44.8942871,44.3916016 C45.8599495,45.3766325 46.3427734,46.6411056 46.3427734,48.1850586 L46.3427734,49.7373047 C46.3427734,51.2812577 45.8599495,52.5443473 44.8942871,53.5266113 C43.9286247,54.5088754 42.7070386,55 41.2294922,55 L37.5439453,55 Z M38.5400391,43.7607422 L38.5400391,54.1616211 L41.2294922,54.1616211 C42.4248107,54.1616211 43.4098269,53.7438193 44.1845703,52.9082031 C44.9593138,52.072587 45.3466797,51.0156314 45.3466797,49.7373047 L45.3466797,48.1601562 C45.3466797,46.8984312 44.9579303,45.8497763 44.1804199,45.0141602 C43.4029095,44.178544 42.4192768,43.7607422 41.2294922,43.7607422 L38.5400391,43.7607422 Z M49.8623047,55 L48.8745117,55 L48.8745117,46.0185547 L49.8623047,46.0185547 L49.8623047,55 Z M49.8623047,43.4453125 L48.8745117,43.4453125 L48.8745117,42.0507812 L49.8623047,42.0507812 L49.8623047,43.4453125 Z M56.7104492,46.8735352 L56.0048828,46.8237305 C55.3795542,46.8237305 54.8662943,46.9994286 54.4650879,47.3508301 C54.0638815,47.7022316 53.7775074,48.1850555 53.605957,48.7993164 L53.605957,55 L52.6098633,55 L52.6098633,46.0185547 L53.4814453,46.0185547 L53.605957,47.5126953 L53.605957,47.6123047 C53.8660495,47.0589165 54.2146788,46.6272802 54.6518555,46.3173828 C55.0890321,46.0074854 55.6092092,45.8525391 56.2124023,45.8525391 C56.3341477,45.8525391 56.4503575,45.8622232 56.5610352,45.8815918 C56.6717128,45.9009604 56.7630205,45.9217121 56.8349609,45.9438477 L56.7104492,46.8735352 Z M61.8237305,55.1743164 C60.6616153,55.1743164 59.7181026,54.7634318 58.9931641,53.9416504 C58.2682255,53.1198689 57.9057617,52.0642968 57.9057617,50.7749023 L57.9057617,50.3183594 C57.9057617,49.023431 58.2723759,47.9554079 59.0056152,47.1142578 C59.7388546,46.2731078 60.647781,45.8525391 61.7324219,45.8525391 C62.8225966,45.8525391 63.6651175,46.2025518 64.2600098,46.9025879 C64.8549021,47.6026239 65.1523438,48.5447532 65.1523438,49.7290039 L65.1523438,50.5009766 L58.9018555,50.5009766 L58.9018555,50.7749023 C58.9018555,51.7986705 59.1605606,52.6481086 59.6779785,53.3232422 C60.1953965,53.9983758 60.91064,54.3359375 61.8237305,54.3359375 C62.3715848,54.3359375 62.8751605,54.2460133 63.3344727,54.0661621 C63.7937848,53.8863109 64.175617,53.6442073 64.4799805,53.3398438 L64.9033203,54.0205078 C64.587889,54.3525407 64.1742376,54.6278472 63.6623535,54.8464355 C63.1504694,55.0650239 62.5376012,55.1743164 61.8237305,55.1743164 Z M61.7324219,46.6992188 C60.9687462,46.6992188 60.34066,46.9731418 59.8481445,47.5209961 C59.355629,48.0688504 59.0678715,48.7633421 58.9848633,49.6044922 L59.0097656,49.6542969 L64.15625,49.6542969 L64.15625,49.4467773 C64.15625,48.6498984 63.9473491,47.9927597 63.529541,47.4753418 C63.1117329,46.9579238 62.5126992,46.6992188 61.7324219,46.6992188 Z M70.4482422,54.3359375 C71.0846386,54.3359375 71.6477026,54.1477883 72.1374512,53.7714844 C72.6271997,53.3951804 72.8720703,52.8722364 72.8720703,52.2026367 L73.7602539,52.2026367 L73.7768555,52.2524414 C73.798991,53.0825237 73.4724969,53.7770154 72.7973633,54.3359375 C72.1222297,54.8948596 71.3391972,55.1743164 70.4482422,55.1743164 C69.2529237,55.1743164 68.3218621,54.7537477 67.6550293,53.9125977 C66.9881965,53.0714476 66.6547852,51.9951237 66.6547852,50.6835938 L66.6547852,50.3349609 C66.6547852,49.0289648 66.9868131,47.9554079 67.6508789,47.1142578 C68.3149447,46.2731078 69.2446229,45.8525391 70.4399414,45.8525391 C71.4028368,45.8525391 72.2052377,46.1430635 72.847168,46.7241211 C73.4890983,47.3051787 73.798991,48.0688429 73.7768555,49.0151367 L73.7602539,49.0649414 L72.8720703,49.0649414 C72.8720703,48.3455368 72.6368839,47.7714051 72.1665039,47.3425293 C71.696124,46.9136535 71.1206089,46.6992188 70.4399414,46.6992188 C69.4991815,46.6992188 68.7991559,47.0450812 68.3398438,47.7368164 C67.8805316,48.4285516 67.6508789,49.2945912 67.6508789,50.3349609 L67.6508789,50.6835938 C67.6508789,51.7405652 67.8805316,52.6135219 68.3398438,53.3024902 C68.7991559,53.9914585 69.5019484,54.3359375 70.4482422,54.3359375 Z M77.4624023,43.7192383 L77.4624023,46.0185547 L79.4379883,46.0185547 L79.4379883,46.8320312 L77.4624023,46.8320312 L77.4624023,52.684082 C77.4624023,53.2706735 77.568928,53.6870919 77.7819824,53.9333496 C77.9950369,54.1796074 78.2786441,54.3027344 78.6328125,54.3027344 C78.7545579,54.3027344 78.8721511,54.2958171 78.9855957,54.2819824 C79.0990403,54.2681477 79.2332349,54.2446291 79.3881836,54.2114258 L79.5375977,54.9501953 C79.4047845,55.0166019 79.240154,55.0705564 79.0437012,55.1120605 C78.8472484,55.1535647 78.652182,55.1743164 78.4584961,55.1743164 C77.8276336,55.1743164 77.3365089,54.9750996 76.9851074,54.5766602 C76.6337059,54.1782207 76.4580078,53.5473676 76.4580078,52.684082 L76.4580078,46.8320312 L74.9057617,46.8320312 L74.9057617,46.0185547 L76.4580078,46.0185547 L76.4580078,43.7192383 L77.4624023,43.7192383 Z M80.8242188,50.3764648 C80.8242188,49.0538671 81.1866826,47.9692425 81.9116211,47.1225586 C82.6365596,46.2758747 83.5966737,45.8525391 84.7919922,45.8525391 C85.9928445,45.8525391 86.9557255,46.2758747 87.6806641,47.1225586 C88.4056026,47.9692425 88.7680664,49.0538671 88.7680664,50.3764648 L88.7680664,50.6503906 C88.7680664,51.9785223 88.406986,53.0645303 87.6848145,53.9084473 C86.9626429,54.7523642 86.0039122,55.1743164 84.8085938,55.1743164 C83.6022075,55.1743164 82.6365596,54.7523642 81.9116211,53.9084473 C81.1866826,53.0645303 80.8242188,51.9785223 80.8242188,50.6503906 L80.8242188,50.3764648 Z M81.8203125,50.6503906 C81.8203125,51.6907604 82.0831679,52.5651006 82.6088867,53.2734375 C83.1346055,53.9817744 83.8678338,54.3359375 84.8085938,54.3359375 C85.732752,54.3359375 86.4590631,53.9817744 86.9875488,53.2734375 C87.5160345,52.5651006 87.7802734,51.6907604 87.7802734,50.6503906 L87.7802734,50.3764648 C87.7802734,49.3526967 87.5146511,48.4838903 86.9833984,47.7700195 C86.4521458,47.0561488 85.7216843,46.6992188 84.7919922,46.6992188 C83.8623,46.6992188 83.1346055,47.0561488 82.6088867,47.7700195 C82.0831679,48.4838903 81.8203125,49.3526967 81.8203125,50.3764648 L81.8203125,50.6503906 Z M94.9438477,46.8735352 L94.2382812,46.8237305 C93.6129526,46.8237305 93.0996928,46.9994286 92.6984863,47.3508301 C92.2972799,47.7022316 92.0109058,48.1850555 91.8393555,48.7993164 L91.8393555,55 L90.8432617,55 L90.8432617,46.0185547 L91.7148438,46.0185547 L91.8393555,47.5126953 L91.8393555,47.6123047 C92.0994479,47.0589165 92.4480772,46.6272802 92.8852539,46.3173828 C93.3224306,46.0074854 93.8426077,45.8525391 94.4458008,45.8525391 C94.5675462,45.8525391 94.683756,45.8622232 94.7944336,45.8815918 C94.9051112,45.9009604 94.9964189,45.9217121 95.0683594,45.9438477 L94.9438477,46.8735352 Z M97.5834961,54.8505859 L96.7036133,57.1416016 L96.0229492,57.1416016 L96.5957031,54.8256836 L96.5957031,53.4394531 L97.5834961,53.4394531 L97.5834961,54.8505859 Z M46.4008789,80 L45.4047852,80 L45.4047852,74.4384766 L38.5400391,74.4384766 L38.5400391,80 L37.5439453,80 L37.5439453,67.9140625 L38.5400391,67.9140625 L38.5400391,73.5917969 L45.4047852,73.5917969 L45.4047852,67.9140625 L46.4008789,67.9140625 L46.4008789,80 Z M52.6679688,80.1743164 C51.5058536,80.1743164 50.5623409,79.7634318 49.8374023,78.9416504 C49.1124638,78.1198689 48.75,77.0642968 48.75,75.7749023 L48.75,75.3183594 C48.75,74.023431 49.1166142,72.9554079 49.8498535,72.1142578 C50.5830929,71.2731078 51.4920193,70.8525391 52.5766602,70.8525391 C53.6668349,70.8525391 54.5093557,71.2025518 55.104248,71.9025879 C55.6991403,72.6026239 55.996582,73.5447532 55.996582,74.7290039 L55.996582,75.5009766 L49.7460938,75.5009766 L49.7460938,75.7749023 C49.7460938,76.7986705 50.0047988,77.6481086 50.5222168,78.3232422 C51.0396347,78.9983758 51.7548782,79.3359375 52.6679688,79.3359375 C53.2158231,79.3359375 53.7193987,79.2460133 54.1787109,79.0661621 C54.6380231,78.8863109 55.0198552,78.6442073 55.3242188,78.3398438 L55.7475586,79.0205078 C55.4321273,79.3525407 55.0184759,79.6278472 54.5065918,79.8464355 C53.9947077,80.0650239 53.3818395,80.1743164 52.6679688,80.1743164 Z M52.5766602,71.6992188 C51.8129845,71.6992188 51.1848983,71.9731418 50.6923828,72.5209961 C50.1998673,73.0688504 49.9121098,73.7633421 49.8291016,74.6044922 L49.8540039,74.6542969 L55.0004883,74.6542969 L55.0004883,74.4467773 C55.0004883,73.6498984 54.7915874,72.9927597 54.3737793,72.4753418 C53.9559712,71.9579238 53.3569375,71.6992188 52.5766602,71.6992188 Z M63.6914062,80 C63.6305335,79.6845687 63.5848797,79.4134126 63.5544434,79.1865234 C63.524007,78.9596343 63.5087891,78.7272147 63.5087891,78.4892578 C63.1988917,78.9762394 62.7644885,79.3788233 62.2055664,79.6970215 C61.6466443,80.0152197 61.0047237,80.1743164 60.2797852,80.1743164 C59.3998979,80.1743164 58.7178572,79.9405134 58.2336426,79.4729004 C57.7494279,79.0052874 57.5073242,78.370284 57.5073242,77.5678711 C57.5073242,76.7654582 57.8587204,76.1152369 58.5615234,75.6171875 C59.2643264,75.1191381 60.1774032,74.8701172 61.3007812,74.8701172 L63.5087891,74.8701172 L63.5087891,73.7578125 C63.5087891,73.1158822 63.305422,72.6123065 62.8986816,72.2470703 C62.4919413,71.8818341 61.9178097,71.6992188 61.1762695,71.6992188 C60.4956021,71.6992188 59.9463725,71.8652327 59.5285645,72.1972656 C59.1107564,72.5292985 58.9018555,72.9471003 58.9018555,73.4506836 L57.9804688,73.4506836 L57.9638672,73.4008789 C57.9306639,72.7257453 58.2198049,72.1322454 58.8312988,71.6203613 C59.4427928,71.1084773 60.2410433,70.8525391 61.2260742,70.8525391 C62.2111052,70.8525391 63.0024384,71.1043269 63.6000977,71.6079102 C64.1977569,72.1114934 64.496582,72.8336542 64.496582,73.7744141 L64.496582,78.1904297 C64.496582,78.505861 64.5145669,78.8129868 64.5505371,79.1118164 C64.5865073,79.410646 64.6459957,79.7067043 64.7290039,80 L63.6914062,80 Z M60.3876953,79.2944336 C61.151371,79.2944336 61.81266,79.1132017 62.371582,78.7507324 C62.9305041,78.3882632 63.3095693,77.9220406 63.5087891,77.3520508 L63.5087891,75.6337891 L61.2924805,75.6337891 C60.4845337,75.6337891 59.817711,75.8260886 59.2919922,76.2106934 C58.7662734,76.5952981 58.503418,77.0587538 58.503418,77.6010742 C58.503418,78.1101913 58.6708154,78.5196925 59.0056152,78.8295898 C59.3404151,79.1394872 59.8011038,79.2944336 60.3876953,79.2944336 Z M66.7543945,75.5839844 C66.7543945,74.150709 67.05737,73.0038292 67.6633301,72.1433105 C68.2692901,71.2827919 69.1145779,70.8525391 70.1992188,70.8525391 C70.8134796,70.8525391 71.3516416,70.9825833 71.8137207,71.2426758 C72.2757998,71.5027682 72.6590154,71.8707658 72.9633789,72.3466797 L72.9633789,67.0507812 L73.9594727,67.0507812 L73.9594727,80 L73.1459961,80 L73.0048828,78.6967773 C72.7005193,79.1726912 72.3131534,79.5379219 71.8427734,79.7924805 C71.3723935,80.047039 70.8190136,80.1743164 70.1826172,80.1743164 C69.1090441,80.1743164 68.2692901,79.7744994 67.6633301,78.9748535 C67.05737,78.1752076 66.7543945,77.1030341 66.7543945,75.7583008 L66.7543945,75.5839844 Z M67.7504883,75.7583008 C67.7504883,76.8429416 67.9676899,77.7062142 68.4020996,78.3481445 C68.8365093,78.9900748 69.490881,79.3110352 70.3652344,79.3110352 C71.0071647,79.3110352 71.5411763,79.1685398 71.9672852,78.8835449 C72.3933941,78.59855 72.725422,78.2042668 72.9633789,77.7006836 L72.9633789,73.4423828 C72.7364898,72.9332657 72.4155294,72.5182308 72.0004883,72.1972656 C71.5854471,71.8763005 71.0459018,71.7158203 70.3818359,71.7158203 C69.5074826,71.7158203 68.850344,72.0741338 68.4104004,72.7907715 C67.9704568,73.5074092 67.7504883,74.4384708 67.7504883,75.5839844 L67.7504883,75.7583008 Z M80.1850586,75.3764648 C80.1850586,74.0538671 80.5475224,72.9692425 81.2724609,72.1225586 C81.9973995,71.2758747 82.9575136,70.8525391 84.152832,70.8525391 C85.3536844,70.8525391 86.3165654,71.2758747 87.0415039,72.1225586 C87.7664424,72.9692425 88.1289062,74.0538671 88.1289062,75.3764648 L88.1289062,75.6503906 C88.1289062,76.9785223 87.7678259,78.0645303 87.0456543,78.9084473 C86.3234827,79.7523642 85.3647521,80.1743164 84.1694336,80.1743164 C82.9630474,80.1743164 81.9973995,79.7523642 81.2724609,78.9084473 C80.5475224,78.0645303 80.1850586,76.9785223 80.1850586,75.6503906 L80.1850586,75.3764648 Z M81.1811523,75.6503906 C81.1811523,76.6907604 81.4440078,77.5651006 81.9697266,78.2734375 C82.4954453,78.9817744 83.2286737,79.3359375 84.1694336,79.3359375 C85.0935919,79.3359375 85.819903,78.9817744 86.3483887,78.2734375 C86.8768744,77.5651006 87.1411133,76.6907604 87.1411133,75.6503906 L87.1411133,75.3764648 C87.1411133,74.3526967 86.8754909,73.4838903 86.3442383,72.7700195 C85.8129856,72.0561488 85.0825242,71.6992188 84.152832,71.6992188 C83.2231399,71.6992188 82.4954453,72.0561488 81.9697266,72.7700195 C81.4440078,73.4838903 81.1811523,74.3526967 81.1811523,75.3764648 L81.1811523,75.6503906 Z M90.8847656,80 L90.8847656,71.8320312 L89.3989258,71.8320312 L89.3989258,71.0185547 L90.8847656,71.0185547 L90.8847656,69.7070312 C90.8847656,68.8050085 91.1116514,68.1077499 91.5654297,67.6152344 C92.019208,67.1227189 92.652828,66.8764648 93.4663086,66.8764648 C93.6433928,66.8764648 93.8260082,66.8902993 94.0141602,66.9179688 C94.2023121,66.9456382 94.3959951,66.9843748 94.5952148,67.0341797 L94.4624023,67.855957 C94.3295892,67.8227537 94.1940111,67.7964682 94.0556641,67.7770996 C93.917317,67.757731 93.75407,67.7480469 93.565918,67.7480469 C93.0235975,67.7480469 92.6071792,67.9195946 92.3166504,68.2626953 C92.0261216,68.605796 91.8808594,69.0872365 91.8808594,69.7070312 L91.8808594,71.0185547 L93.9145508,71.0185547 L93.9145508,71.8320312 L91.8808594,71.8320312 L91.8808594,80 L90.8847656,80 Z M99.409668,75.5839844 C99.409668,74.150709 99.7126435,73.0038292 100.318604,72.1433105 C100.924564,71.2827919 101.769851,70.8525391 102.854492,70.8525391 C103.468753,70.8525391 104.006915,70.9825833 104.468994,71.2426758 C104.931073,71.5027682 105.314289,71.8707658 105.618652,72.3466797 L105.618652,67.0507812 L106.614746,67.0507812 L106.614746,80 L105.80127,80 L105.660156,78.6967773 C105.355793,79.1726912 104.968427,79.5379219 104.498047,79.7924805 C104.027667,80.047039 103.474287,80.1743164 102.837891,80.1743164 C101.764318,80.1743164 100.924564,79.7744994 100.318604,78.9748535 C99.7126435,78.1752076 99.409668,77.1030341 99.409668,75.7583008 L99.409668,75.5839844 Z M100.405762,75.7583008 C100.405762,76.8429416 100.622963,77.7062142 101.057373,78.3481445 C101.491783,78.9900748 102.146154,79.3110352 103.020508,79.3110352 C103.662438,79.3110352 104.19645,79.1685398 104.622559,78.8835449 C105.048667,78.59855 105.380695,78.2042668 105.618652,77.7006836 L105.618652,73.4423828 C105.391763,72.9332657 105.070803,72.5182308 104.655762,72.1972656 C104.240721,71.8763005 103.701175,71.7158203 103.037109,71.7158203 C102.162756,71.7158203 101.505617,72.0741338 101.065674,72.7907715 C100.62573,73.5074092 100.405762,74.4384708 100.405762,75.5839844 L100.405762,75.7583008 Z M112.674316,80.1743164 C111.512201,80.1743164 110.568689,79.7634318 109.84375,78.9416504 C109.118811,78.1198689 108.756348,77.0642968 108.756348,75.7749023 L108.756348,75.3183594 C108.756348,74.023431 109.122962,72.9554079 109.856201,72.1142578 C110.589441,71.2731078 111.498367,70.8525391 112.583008,70.8525391 C113.673183,70.8525391 114.515703,71.2025518 115.110596,71.9025879 C115.705488,72.6026239 116.00293,73.5447532 116.00293,74.7290039 L116.00293,75.5009766 L109.752441,75.5009766 L109.752441,75.7749023 C109.752441,76.7986705 110.011147,77.6481086 110.528564,78.3232422 C111.045982,78.9983758 111.761226,79.3359375 112.674316,79.3359375 C113.222171,79.3359375 113.725746,79.2460133 114.185059,79.0661621 C114.644371,78.8863109 115.026203,78.6442073 115.330566,78.3398438 L115.753906,79.0205078 C115.438475,79.3525407 115.024824,79.6278472 114.512939,79.8464355 C114.001055,80.0650239 113.388187,80.1743164 112.674316,80.1743164 Z M112.583008,71.6992188 C111.819332,71.6992188 111.191246,71.9731418 110.69873,72.5209961 C110.206215,73.0688504 109.918457,73.7633421 109.835449,74.6044922 L109.860352,74.6542969 L115.006836,74.6542969 L115.006836,74.4467773 C115.006836,73.6498984 114.797935,72.9927597 114.380127,72.4753418 C113.962319,71.9579238 113.363285,71.6992188 112.583008,71.6992188 Z M125.241699,75.7583008 C125.241699,77.1030341 124.93734,78.1752076 124.328613,78.9748535 C123.719886,79.7744994 122.881516,80.1743164 121.813477,80.1743164 C121.188148,80.1743164 120.638918,80.0553397 120.165771,79.8173828 C119.692625,79.5794259 119.306642,79.2418642 119.007812,78.8046875 L119.007812,83.453125 L118.011719,83.453125 L118.011719,71.0185547 L118.775391,71.0185547 L118.958008,72.4213867 C119.256837,71.9233374 119.644203,71.5373549 120.120117,71.2634277 C120.596031,70.9895006 121.154945,70.8525391 121.796875,70.8525391 C122.875982,70.8525391 123.719886,71.2827919 124.328613,72.1433105 C124.93734,73.0038292 125.241699,74.150709 125.241699,75.5839844 L125.241699,75.7583008 Z M124.245605,75.5839844 C124.245605,74.4440047 124.01872,73.5143265 123.564941,72.7949219 C123.111163,72.0755172 122.447107,71.7158203 121.572754,71.7158203 C120.914222,71.7158203 120.37606,71.8735336 119.958252,72.1889648 C119.540444,72.5043961 119.223634,72.9138972 119.007812,73.4174805 L119.007812,77.7670898 C119.240236,78.2540714 119.569497,78.637287 119.995605,78.916748 C120.421714,79.1962091 120.952959,79.3359375 121.589355,79.3359375 C122.458175,79.3359375 123.11808,79.0094434 123.569092,78.3564453 C124.020103,77.7034473 124.245605,76.8374077 124.245605,75.7583008 L124.245605,75.5839844 Z M133.160645,80 C133.099772,79.6845687 133.054118,79.4134126 133.023682,79.1865234 C132.993245,78.9596343 132.978027,78.7272147 132.978027,78.4892578 C132.66813,78.9762394 132.233727,79.3788233 131.674805,79.6970215 C131.115883,80.0152197 130.473962,80.1743164 129.749023,80.1743164 C128.869136,80.1743164 128.187096,79.9405134 127.702881,79.4729004 C127.218666,79.0052874 126.976562,78.370284 126.976562,77.5678711 C126.976562,76.7654582 127.327959,76.1152369 128.030762,75.6171875 C128.733565,75.1191381 129.646642,74.8701172 130.77002,74.8701172 L132.978027,74.8701172 L132.978027,73.7578125 C132.978027,73.1158822 132.77466,72.6123065 132.36792,72.2470703 C131.96118,71.8818341 131.387048,71.6992188 130.645508,71.6992188 C129.96484,71.6992188 129.415611,71.8652327 128.997803,72.1972656 C128.579995,72.5292985 128.371094,72.9471003 128.371094,73.4506836 L127.449707,73.4506836 L127.433105,73.4008789 C127.399902,72.7257453 127.689043,72.1322454 128.300537,71.6203613 C128.912031,71.1084773 129.710282,70.8525391 130.695312,70.8525391 C131.680343,70.8525391 132.471677,71.1043269 133.069336,71.6079102 C133.666995,72.1114934 133.96582,72.8336542 133.96582,73.7744141 L133.96582,78.1904297 C133.96582,78.505861 133.983805,78.8129868 134.019775,79.1118164 C134.055746,79.410646 134.115234,79.7067043 134.198242,80 L133.160645,80 Z M129.856934,79.2944336 C130.620609,79.2944336 131.281898,79.1132017 131.84082,78.7507324 C132.399742,78.3882632 132.778808,77.9220406 132.978027,77.3520508 L132.978027,75.6337891 L130.761719,75.6337891 C129.953772,75.6337891 129.286949,75.8260886 128.76123,76.2106934 C128.235512,76.5952981 127.972656,77.0587538 127.972656,77.6010742 C127.972656,78.1101913 128.140054,78.5196925 128.474854,78.8295898 C128.809653,79.1394872 129.270342,79.2944336 129.856934,79.2944336 Z M140.714355,71.8735352 L140.008789,71.8237305 C139.38346,71.8237305 138.870201,71.9994286 138.468994,72.3508301 C138.067788,72.7022316 137.781414,73.1850555 137.609863,73.7993164 L137.609863,80 L136.61377,80 L136.61377,71.0185547 L137.485352,71.0185547 L137.609863,72.5126953 L137.609863,72.6123047 C137.869956,72.0589165 138.218585,71.6272802 138.655762,71.3173828 C139.092938,71.0074854 139.613115,70.8525391 140.216309,70.8525391 C140.338054,70.8525391 140.454264,70.8622232 140.564941,70.8815918 C140.675619,70.9009604 140.766927,70.9217121 140.838867,70.9438477 L140.714355,71.8735352 Z M143.968262,68.7192383 L143.968262,71.0185547 L145.943848,71.0185547 L145.943848,71.8320312 L143.968262,71.8320312 L143.968262,77.684082 C143.968262,78.2706735 144.074787,78.6870919 144.287842,78.9333496 C144.500896,79.1796074 144.784503,79.3027344 145.138672,79.3027344 C145.260417,79.3027344 145.378011,79.2958171 145.491455,79.2819824 C145.6049,79.2681477 145.739094,79.2446291 145.894043,79.2114258 L146.043457,79.9501953 C145.910644,80.0166019 145.746013,80.0705564 145.549561,80.1120605 C145.353108,80.1535647 145.158041,80.1743164 144.964355,80.1743164 C144.333493,80.1743164 143.842368,79.9750996 143.490967,79.5766602 C143.139565,79.1782207 142.963867,78.5473676 142.963867,77.684082 L142.963867,71.8320312 L141.411621,71.8320312 L141.411621,71.0185547 L142.963867,71.0185547 L142.963867,68.7192383 L143.968262,68.7192383 Z M148.73291,71.0185547 L148.824219,72.4960938 C149.111981,71.9759089 149.495196,71.5719415 149.973877,71.2841797 C150.452558,70.9964178 151.021156,70.8525391 151.679688,70.8525391 C152.365889,70.8525391 152.938637,71.0171696 153.397949,71.3464355 C153.857261,71.6757015 154.186522,72.1778938 154.385742,72.8530273 C154.656902,72.2276987 155.042885,71.7379575 155.543701,71.3837891 C156.044517,71.0296206 156.649085,70.8525391 157.357422,70.8525391 C158.314783,70.8525391 159.054929,71.1707325 159.577881,71.8071289 C160.100833,72.4435253 160.362305,73.4285415 160.362305,74.762207 L160.362305,80 L159.366211,80 L159.366211,74.7456055 C159.366211,73.6388291 159.169761,72.85718 158.776855,72.4006348 C158.38395,71.9440895 157.841638,71.7158203 157.149902,71.7158203 C156.391761,71.7158203 155.805178,71.9468564 155.390137,72.4089355 C154.975096,72.8710147 154.71224,73.4672815 154.601562,74.1977539 C154.601562,74.2586266 154.602946,74.3194984 154.605713,74.3803711 C154.60848,74.4412438 154.609863,74.518717 154.609863,74.612793 L154.609863,80 L153.605469,80 L153.605469,74.7456055 C153.605469,73.6609646 153.407635,72.8848493 153.011963,72.4172363 C152.61629,71.9496233 152.072595,71.7158203 151.380859,71.7158203 C150.68359,71.7158203 150.128827,71.8915184 149.716553,72.2429199 C149.304279,72.5943214 149.015138,73.0688447 148.849121,73.6665039 L148.849121,80 L147.853027,80 L147.853027,71.0185547 L148.73291,71.0185547 Z M166.36377,80.1743164 C165.201654,80.1743164 164.258142,79.7634318 163.533203,78.9416504 C162.808265,78.1198689 162.445801,77.0642968 162.445801,75.7749023 L162.445801,75.3183594 C162.445801,74.023431 162.812415,72.9554079 163.545654,72.1142578 C164.278894,71.2731078 165.18782,70.8525391 166.272461,70.8525391 C167.362636,70.8525391 168.205157,71.2025518 168.800049,71.9025879 C169.394941,72.6026239 169.692383,73.5447532 169.692383,74.7290039 L169.692383,75.5009766 L163.441895,75.5009766 L163.441895,75.7749023 C163.441895,76.7986705 163.7006,77.6481086 164.218018,78.3232422 C164.735436,78.9983758 165.450679,79.3359375 166.36377,79.3359375 C166.911624,79.3359375 167.4152,79.2460133 167.874512,79.0661621 C168.333824,78.8863109 168.715656,78.6442073 169.02002,78.3398438 L169.443359,79.0205078 C169.127928,79.3525407 168.714277,79.6278472 168.202393,79.8464355 C167.690509,80.0650239 167.07764,80.1743164 166.36377,80.1743164 Z M166.272461,71.6992188 C165.508785,71.6992188 164.880699,71.9731418 164.388184,72.5209961 C163.895668,73.0688504 163.607911,73.7633421 163.524902,74.6044922 L163.549805,74.6542969 L168.696289,74.6542969 L168.696289,74.4467773 C168.696289,73.6498984 168.487388,72.9927597 168.06958,72.4753418 C167.651772,71.9579238 167.052738,71.6992188 166.272461,71.6992188 Z M172.581055,71.0185547 L172.672363,72.5791016 C172.965659,72.0312473 173.355792,71.6065282 173.842773,71.3049316 C174.329755,71.0033351 174.908037,70.8525391 175.577637,70.8525391 C176.5516,70.8525391 177.293129,71.1499807 177.802246,71.744873 C178.311363,72.3397653 178.565918,73.2680601 178.565918,74.5297852 L178.565918,80 L177.569824,80 L177.569824,74.5380859 C177.569824,73.5087839 177.377525,72.7810894 176.99292,72.3549805 C176.608315,71.9288716 176.061852,71.7158203 175.353516,71.7158203 C174.645179,71.7158203 174.073814,71.890135 173.639404,72.2387695 C173.204995,72.5874041 172.890951,73.0550101 172.697266,73.6416016 L172.697266,80 L171.701172,80 L171.701172,71.0185547 L172.581055,71.0185547 Z M182.716309,68.7192383 L182.716309,71.0185547 L184.691895,71.0185547 L184.691895,71.8320312 L182.716309,71.8320312 L182.716309,77.684082 C182.716309,78.2706735 182.822834,78.6870919 183.035889,78.9333496 C183.248943,79.1796074 183.53255,79.3027344 183.886719,79.3027344 C184.008464,79.3027344 184.126057,79.2958171 184.239502,79.2819824 C184.352947,79.2681477 184.487141,79.2446291 184.64209,79.2114258 L184.791504,79.9501953 C184.658691,80.0166019 184.49406,80.0705564 184.297607,80.1120605 C184.101155,80.1535647 183.906088,80.1743164 183.712402,80.1743164 C183.08154,80.1743164 182.590415,79.9750996 182.239014,79.5766602 C181.887612,79.1782207 181.711914,78.5473676 181.711914,77.684082 L181.711914,71.8320312 L180.159668,71.8320312 L180.159668,71.0185547 L181.711914,71.0185547 L181.711914,68.7192383 L182.716309,68.7192383 Z" id="Director,-Head-of-de" fill="#575757"></path>
                            <path d="M0,41.5 L18,30" id="Line-2" stroke="#252525" opacity="0.253000453" stroke-linecap="square"></path>
                            <ellipse id="Oval" fill="#252525" transform="translate(19.500000, 28.437500) rotate(90.000000) translate(-19.500000, -28.437500) " cx="19.5" cy="28.4375" rx="2.4375" ry="2.5"></ellipse>
                        </g>
                        <g id="Group-16" transform="translate(110.000000, 150.000000)">
                            <path d="M0.497070313,76 L0.497070313,72.0830078 L10.15625,61.7265625 C11.5507882,60.1269451 12.5419892,58.776861 13.1298828,57.6762695 C13.7177764,56.5756781 14.0117188,55.5537157 14.0117188,54.6103516 C14.0117188,53.3525328 13.6733432,52.3237345 12.996582,51.5239258 C12.3198208,50.7241171 11.3593812,50.3242188 10.1152344,50.3242188 C8.7343681,50.3242188 7.68506218,50.7924758 6.96728516,51.7290039 C6.24950813,52.665532 5.890625,53.9130781 5.890625,55.4716797 L0.06640625,55.4716797 L0.025390625,55.3486328 C-0.0429690918,52.65526 0.842275962,50.3754976 2.68115234,48.5092773 C4.52002873,46.6430571 6.99803129,45.7099609 10.1152344,45.7099609 C13.1914216,45.7099609 15.6113193,46.5097576 17.375,48.109375 C19.1386807,49.7089924 20.0205078,51.8417835 20.0205078,54.5078125 C20.0205078,56.312509 19.5249073,57.9804611 18.5336914,59.5117188 C17.5424755,61.0429764 15.898449,63.0390502 13.6015625,65.5 L8.29003906,71.3037109 L8.33105469,71.40625 L16.0830078,71.40625 L16.3291016,68.453125 L20.8818359,68.453125 L20.8818359,76 L0.497070313,76 Z M43.2558594,54.0566406 C43.2558594,55.5468825 42.859379,56.8662052 42.0664063,58.0146484 C41.2734335,59.1630917 40.1865303,60.0585905 38.8056641,60.7011719 C40.3916095,61.3710971 41.6425735,62.3281188 42.5585938,63.5722656 C43.474614,64.8164125 43.9326172,66.2382733 43.9326172,67.8378906 C43.9326172,70.5996232 42.9961031,72.7221606 41.1230469,74.2055664 C39.2499906,75.6889723 36.8027495,76.4306641 33.78125,76.4306641 C30.7460786,76.4306641 28.2885836,75.6889723 26.4086914,74.2055664 C24.5287992,72.7221606 23.5888672,70.5996232 23.5888672,67.8378906 C23.5888672,66.2246013 24.0434525,64.7993226 24.9526367,63.5620117 C25.861821,62.3247008 27.1093671,61.3710971 28.6953125,60.7011719 C27.3007743,60.0585905 26.2138711,59.1630917 25.4345703,58.0146484 C24.6552695,56.8662052 24.265625,55.5468825 24.265625,54.0566406 C24.265625,51.4042836 25.1337804,49.3501049 26.8701172,47.894043 C28.606454,46.437981 30.8964702,45.7099609 33.7402344,45.7099609 C36.5839986,45.7099609 38.8808506,46.437981 40.6308594,47.894043 C42.3808681,49.3501049 43.2558594,51.4042836 43.2558594,54.0566406 Z M37.9648438,67.4277344 C37.9648438,66.0878839 37.5717813,65.0146525 36.7856445,64.2080078 C35.9995078,63.4013632 34.9843812,62.9980469 33.7402344,62.9980469 C32.4960875,62.9980469 31.4912148,63.4013632 30.7255859,64.2080078 C29.9599571,65.0146525 29.5771484,66.0878839 29.5771484,67.4277344 C29.5771484,68.7949287 29.9599571,69.8715781 30.7255859,70.6577148 C31.4912148,71.4438516 32.5097593,71.8369141 33.78125,71.8369141 C35.0253968,71.8369141 36.0336875,71.4404337 36.8061523,70.6474609 C37.5786171,69.8544882 37.9648438,68.7812568 37.9648438,67.4277344 Z M37.2675781,54.3232422 C37.2675781,53.1201112 36.9497102,52.1528357 36.3139648,51.4213867 C35.6782195,50.6899377 34.8203179,50.3242188 33.7402344,50.3242188 C32.6464789,50.3242188 31.7954132,50.6831019 31.1870117,51.4008789 C30.5786102,52.1186559 30.2744141,53.0927673 30.2744141,54.3232422 C30.2744141,55.567389 30.5820282,56.5551721 31.1972656,57.2866211 C31.8125031,58.0180701 32.6738226,58.3837891 33.78125,58.3837891 C34.8613335,58.3837891 35.7123992,58.0180701 36.3344727,57.2866211 C36.9565461,56.5551721 37.2675781,55.567389 37.2675781,54.3232422 Z M46.0859375,51.8828125 C46.0859375,50.1191318 46.6567326,48.6494199 47.7983398,47.4736328 C48.9399471,46.2978457 50.5292867,45.7099609 52.5664063,45.7099609 C54.6308697,45.7099609 56.2304631,46.2944277 57.3652344,47.4633789 C58.5000057,48.6323301 59.0673828,50.1054599 59.0673828,51.8828125 L59.0673828,53.4619141 C59.0673828,55.2255948 58.5000057,56.6884708 57.3652344,57.8505859 C56.2304631,59.0127011 54.6445414,59.59375 52.6074219,59.59375 C50.5566304,59.59375 48.957037,59.0127011 47.8085938,57.8505859 C46.6601505,56.6884708 46.0859375,55.2255948 46.0859375,53.4619141 L46.0859375,51.8828125 Z M50.0644531,53.4619141 C50.0644531,54.2548868 50.2832009,54.921384 50.7207031,55.4614258 C51.1582053,56.0014675 51.7871053,56.2714844 52.6074219,56.2714844 C53.4003946,56.2714844 54.0156228,56.0014675 54.453125,55.4614258 C54.8906272,54.921384 55.109375,54.2548868 55.109375,53.4619141 L55.109375,51.8828125 C55.109375,51.0898398 54.8872093,50.4165067 54.4428711,49.862793 C53.9985329,49.3090793 53.3730509,49.0322266 52.5664063,49.0322266 C51.7597616,49.0322266 51.1411154,49.3090793 50.7104492,49.862793 C50.279783,50.4165067 50.0644531,51.0898398 50.0644531,51.8828125 L50.0644531,53.4619141 Z M60.359375,68.6787109 C60.359375,66.9287022 60.933588,65.4658262 62.0820313,64.2900391 C63.2304745,63.1142519 64.823232,62.5263672 66.8603516,62.5263672 C68.9111431,62.5263672 70.5073185,63.110834 71.6489258,64.2797852 C72.7905331,65.4487363 73.3613281,66.9150302 73.3613281,68.6787109 L73.3613281,70.2578125 C73.3613281,72.0351651 72.793951,73.504877 71.6591797,74.6669922 C70.5244084,75.8291074 68.9384867,76.4101562 66.9013672,76.4101562 C64.8505757,76.4101562 63.2475644,75.8256894 62.0922852,74.6567383 C60.9370059,73.4877871 60.359375,72.0214932 60.359375,70.2578125 L60.359375,68.6787109 Z M64.3378906,70.2578125 C64.3378906,71.0371133 64.5737281,71.7036105 65.0454102,72.2573242 C65.5170922,72.8110379 66.1357384,73.0878906 66.9013672,73.0878906 C67.7900435,73.0878906 68.4257793,72.8315455 68.8085938,72.3188477 C69.1914082,71.8061498 69.3828125,71.1191449 69.3828125,70.2578125 L69.3828125,68.6787109 C69.3828125,67.8994102 69.1640647,67.2329129 68.7265625,66.6791992 C68.2890603,66.1254855 67.6669962,65.8486328 66.8603516,65.8486328 C66.040035,65.8486328 65.4145529,66.1254855 64.9838867,66.6791992 C64.5532205,67.2329129 64.3378906,67.8994102 64.3378906,68.6787109 L64.3378906,70.2578125 Z M54.3095703,73.7646484 L51.3974609,72.2265625 L65.9785156,48.8886719 L68.890625,50.4267578 L54.3095703,73.7646484 Z" id="28%" fill="#252525"></path>
                            <path d="M1.54003906,94.9780273 L1.54003906,100 L0.543945312,100 L0.543945312,87.9140625 L4.7109375,87.9140625 C5.97819644,87.9140625 6.95906228,88.2377897 7.65356445,88.8852539 C8.34806662,89.5327181 8.6953125,90.3849231 8.6953125,91.4418945 C8.6953125,92.5154676 8.34806662,93.3732064 7.65356445,94.0151367 C6.95906228,94.657067 5.97819644,94.9780273 4.7109375,94.9780273 L1.54003906,94.9780273 Z M1.54003906,94.1313477 L4.7109375,94.1313477 C5.70703623,94.1313477 6.45409907,93.8781764 6.95214844,93.3718262 C7.4501978,92.865476 7.69921875,92.2277057 7.69921875,91.4584961 C7.69921875,90.6837526 7.4501978,90.0404485 6.95214844,89.5285645 C6.45409907,89.0166804 5.70703623,88.7607422 4.7109375,88.7607422 L1.54003906,88.7607422 L1.54003906,94.1313477 Z M14.8959961,91.8735352 L14.1904297,91.8237305 C13.565101,91.8237305 13.0518412,91.9994286 12.6506348,92.3508301 C12.2494283,92.7022316 11.9630542,93.1850555 11.7915039,93.7993164 L11.7915039,100 L10.7954102,100 L10.7954102,91.0185547 L11.6669922,91.0185547 L11.7915039,92.5126953 L11.7915039,92.6123047 C12.0515964,92.0589165 12.4002257,91.6272802 12.8374023,91.3173828 C13.274579,91.0074854 13.7947561,90.8525391 14.3979492,90.8525391 C14.5196946,90.8525391 14.6359044,90.8622232 14.746582,90.8815918 C14.8572597,90.9009604 14.9485673,90.9217121 15.0205078,90.9438477 L14.8959961,91.8735352 Z M16.0415039,95.3764648 C16.0415039,94.0538671 16.4039677,92.9692425 17.1289062,92.1225586 C17.8538448,91.2758747 18.8139589,90.8525391 20.0092773,90.8525391 C21.2101297,90.8525391 22.1730107,91.2758747 22.8979492,92.1225586 C23.6228877,92.9692425 23.9853516,94.0538671 23.9853516,95.3764648 L23.9853516,95.6503906 C23.9853516,96.9785223 23.6242712,98.0645303 22.9020996,98.9084473 C22.179928,99.7523642 21.2211974,100.174316 20.0258789,100.174316 C18.8194927,100.174316 17.8538448,99.7523642 17.1289062,98.9084473 C16.4039677,98.0645303 16.0415039,96.9785223 16.0415039,95.6503906 L16.0415039,95.3764648 Z M17.0375977,95.6503906 C17.0375977,96.6907604 17.3004531,97.5651006 17.8261719,98.2734375 C18.3518906,98.9817744 19.085119,99.3359375 20.0258789,99.3359375 C20.9500372,99.3359375 21.6763483,98.9817744 22.204834,98.2734375 C22.7333197,97.5651006 22.9975586,96.6907604 22.9975586,95.6503906 L22.9975586,95.3764648 C22.9975586,94.3526967 22.7319363,93.4838903 22.2006836,92.7700195 C21.6694309,92.0561488 20.9389695,91.6992188 20.0092773,91.6992188 C19.0795852,91.6992188 18.3518906,92.0561488 17.8261719,92.7700195 C17.3004531,93.4838903 17.0375977,94.3526967 17.0375977,95.3764648 L17.0375977,95.6503906 Z M25.6704102,95.5839844 C25.6704102,94.150709 25.9733856,93.0038292 26.5793457,92.1433105 C27.1853058,91.2827919 28.0305935,90.8525391 29.1152344,90.8525391 C29.7294953,90.8525391 30.2676572,90.9825833 30.7297363,91.2426758 C31.1918155,91.5027682 31.575031,91.8707658 31.8793945,92.3466797 L31.8793945,87.0507812 L32.8754883,87.0507812 L32.8754883,100 L32.0620117,100 L31.9208984,98.6967773 C31.6165349,99.1726912 31.229169,99.5379219 30.7587891,99.7924805 C30.2884091,100.047039 29.7350292,100.174316 29.0986328,100.174316 C28.0250597,100.174316 27.1853058,99.7744994 26.5793457,98.9748535 C25.9733856,98.1752076 25.6704102,97.1030341 25.6704102,95.7583008 L25.6704102,95.5839844 Z M26.6665039,95.7583008 C26.6665039,96.8429416 26.8837055,97.7062142 27.3181152,98.3481445 C27.752525,98.9900748 28.4068967,99.3110352 29.28125,99.3110352 C29.9231803,99.3110352 30.4571919,99.1685398 30.8833008,98.8835449 C31.3094097,98.59855 31.6414376,98.2042668 31.8793945,97.7006836 L31.8793945,93.4423828 C31.6525054,92.9332657 31.331545,92.5182308 30.9165039,92.1972656 C30.5014628,91.8763005 29.9619174,91.7158203 29.2978516,91.7158203 C28.4234982,91.7158203 27.7663596,92.0741338 27.326416,92.7907715 C26.8864724,93.5074092 26.6665039,94.4384708 26.6665039,95.5839844 L26.6665039,95.7583008 Z M41.4003906,98.5390625 C41.1126288,99.0647813 40.7266463,99.4687486 40.2424316,99.7509766 C39.758217,100.033205 39.1840854,100.174316 38.5200195,100.174316 C37.5737257,100.174316 36.8321967,99.8533561 36.2954102,99.2114258 C35.7586236,98.5694955 35.4902344,97.5734117 35.4902344,96.2231445 L35.4902344,91.0185547 L36.4863281,91.0185547 L36.4863281,96.2397461 C36.4863281,97.3354547 36.6730938,98.1212541 37.0466309,98.597168 C37.4201679,99.0730818 37.9500291,99.3110352 38.6362305,99.3110352 C39.3833045,99.3110352 39.9795713,99.1436377 40.4250488,98.8088379 C40.8705263,98.474038 41.1845694,98.0161162 41.3671875,97.4350586 L41.3671875,91.0185547 L42.3632812,91.0185547 L42.3632812,100 L41.4833984,100 L41.4003906,98.5390625 Z M48.2734375,99.3359375 C48.9098339,99.3359375 49.4728979,99.1477883 49.9626465,98.7714844 C50.452395,98.3951804 50.6972656,97.8722364 50.6972656,97.2026367 L51.5854492,97.2026367 L51.6020508,97.2524414 C51.6241863,98.0825237 51.2976922,98.7770154 50.6225586,99.3359375 C49.947425,99.8948596 49.1643925,100.174316 48.2734375,100.174316 C47.078119,100.174316 46.1470574,99.7537477 45.4802246,98.9125977 C44.8133918,98.0714476 44.4799805,96.9951237 44.4799805,95.6835938 L44.4799805,95.3349609 C44.4799805,94.0289648 44.8120084,92.9554079 45.4760742,92.1142578 C46.14014,91.2731078 47.0698182,90.8525391 48.2651367,90.8525391 C49.2280322,90.8525391 50.030433,91.1430635 50.6723633,91.7241211 C51.3142936,92.3051787 51.6241863,93.0688429 51.6020508,94.0151367 L51.5854492,94.0649414 L50.6972656,94.0649414 C50.6972656,93.3455368 50.4620792,92.7714051 49.9916992,92.3425293 C49.5213193,91.9136535 48.9458042,91.6992188 48.2651367,91.6992188 C47.3243768,91.6992188 46.6243513,92.0450812 46.1650391,92.7368164 C45.7057269,93.4285516 45.4760742,94.2945912 45.4760742,95.3349609 L45.4760742,95.6835938 C45.4760742,96.7405652 45.7057269,97.6135219 46.1650391,98.3024902 C46.6243513,98.9914585 47.3271437,99.3359375 48.2734375,99.3359375 Z M55.2875977,88.7192383 L55.2875977,91.0185547 L57.2631836,91.0185547 L57.2631836,91.8320312 L55.2875977,91.8320312 L55.2875977,97.684082 C55.2875977,98.2706735 55.3941233,98.6870919 55.6071777,98.9333496 C55.8202322,99.1796074 56.1038394,99.3027344 56.4580078,99.3027344 C56.5797532,99.3027344 56.6973464,99.2958171 56.810791,99.2819824 C56.9242356,99.2681477 57.0584302,99.2446291 57.2133789,99.2114258 L57.362793,99.9501953 C57.2299798,100.016602 57.0653493,100.070556 56.8688965,100.112061 C56.6724437,100.153565 56.4773773,100.174316 56.2836914,100.174316 C55.6528289,100.174316 55.1617042,99.9750996 54.8103027,99.5766602 C54.4589012,99.1782207 54.2832031,98.5473676 54.2832031,97.684082 L54.2832031,91.8320312 L52.730957,91.8320312 L52.730957,91.0185547 L54.2832031,91.0185547 L54.2832031,88.7192383 L55.2875977,88.7192383 Z M59.0478516,101.037598 L58.1430664,101.037598 L63.1899414,87.9140625 L64.0864258,87.9140625 L59.0478516,101.037598 Z M67.1826172,94.9780273 L67.1826172,100 L66.1865234,100 L66.1865234,87.9140625 L70.3535156,87.9140625 C71.6207746,87.9140625 72.6016404,88.2377897 73.2961426,88.8852539 C73.9906447,89.5327181 74.3378906,90.3849231 74.3378906,91.4418945 C74.3378906,92.5154676 73.9906447,93.3732064 73.2961426,94.0151367 C72.6016404,94.657067 71.6207746,94.9780273 70.3535156,94.9780273 L67.1826172,94.9780273 Z M67.1826172,94.1313477 L70.3535156,94.1313477 C71.3496144,94.1313477 72.0966772,93.8781764 72.5947266,93.3718262 C73.0927759,92.865476 73.3417969,92.2277057 73.3417969,91.4584961 C73.3417969,90.6837526 73.0927759,90.0404485 72.5947266,89.5285645 C72.0966772,89.0166804 71.3496144,88.7607422 70.3535156,88.7607422 L67.1826172,88.7607422 L67.1826172,94.1313477 Z M80.5385742,91.8735352 L79.8330078,91.8237305 C79.2076792,91.8237305 78.6944193,91.9994286 78.2932129,92.3508301 C77.8920065,92.7022316 77.6056324,93.1850555 77.434082,93.7993164 L77.434082,100 L76.4379883,100 L76.4379883,91.0185547 L77.3095703,91.0185547 L77.434082,92.5126953 L77.434082,92.6123047 C77.6941745,92.0589165 78.0428038,91.6272802 78.4799805,91.3173828 C78.9171571,91.0074854 79.4373342,90.8525391 80.0405273,90.8525391 C80.1622727,90.8525391 80.2784825,90.8622232 80.3891602,90.8815918 C80.4998378,90.9009604 80.5911455,90.9217121 80.6630859,90.9438477 L80.5385742,91.8735352 Z M81.684082,95.3764648 C81.684082,94.0538671 82.0465459,92.9692425 82.7714844,92.1225586 C83.4964229,91.2758747 84.456537,90.8525391 85.6518555,90.8525391 C86.8527078,90.8525391 87.8155888,91.2758747 88.5405273,92.1225586 C89.2654659,92.9692425 89.6279297,94.0538671 89.6279297,95.3764648 L89.6279297,95.6503906 C89.6279297,96.9785223 89.2668493,98.0645303 88.5446777,98.9084473 C87.8225062,99.7523642 86.8637755,100.174316 85.668457,100.174316 C84.4620708,100.174316 83.4964229,99.7523642 82.7714844,98.9084473 C82.0465459,98.0645303 81.684082,96.9785223 81.684082,95.6503906 L81.684082,95.3764648 Z M82.6801758,95.6503906 C82.6801758,96.6907604 82.9430312,97.5651006 83.46875,98.2734375 C83.9944688,98.9817744 84.7276971,99.3359375 85.668457,99.3359375 C86.5926153,99.3359375 87.3189264,98.9817744 87.8474121,98.2734375 C88.3758978,97.5651006 88.6401367,96.6907604 88.6401367,95.6503906 L88.6401367,95.3764648 C88.6401367,94.3526967 88.3745144,93.4838903 87.8432617,92.7700195 C87.3120091,92.0561488 86.5815476,91.6992188 85.6518555,91.6992188 C84.7221633,91.6992188 83.9944688,92.0561488 83.46875,92.7700195 C82.9430312,93.4838903 82.6801758,94.3526967 82.6801758,95.3764648 L82.6801758,95.6503906 Z M92.8735352,91.0185547 L92.8735352,100.73877 C92.8735352,101.662928 92.6521832,102.375404 92.2094727,102.876221 C91.7667621,103.377037 91.1525104,103.627441 90.3666992,103.627441 C90.2006828,103.627441 90.0443529,103.613607 89.8977051,103.585938 C89.7510572,103.558268 89.5974943,103.519531 89.4370117,103.469727 L89.5449219,102.631348 C89.633464,102.659017 89.7552076,102.686686 89.9101562,102.714355 C90.0651049,102.742025 90.200683,102.755859 90.3168945,102.755859 C90.80941,102.755859 91.194009,102.585695 91.4707031,102.245361 C91.7473972,101.905028 91.8857422,101.402835 91.8857422,100.73877 L91.8857422,91.0185547 L92.8735352,91.0185547 Z M92.8237305,88.4121094 L91.8359375,88.4121094 L91.8359375,87.0507812 L92.8237305,87.0507812 L92.8237305,88.4121094 Z M99.1323242,100.174316 C97.970209,100.174316 97.0266963,99.7634318 96.3017578,98.9416504 C95.5768193,98.1198689 95.2143555,97.0642968 95.2143555,95.7749023 L95.2143555,95.3183594 C95.2143555,94.023431 95.5809696,92.9554079 96.314209,92.1142578 C97.0474483,91.2731078 97.9563748,90.8525391 99.0410156,90.8525391 C100.13119,90.8525391 100.973711,91.2025518 101.568604,91.9025879 C102.163496,92.6026239 102.460938,93.5447532 102.460938,94.7290039 L102.460938,95.5009766 L96.2104492,95.5009766 L96.2104492,95.7749023 C96.2104492,96.7986705 96.4691543,97.6481086 96.9865723,98.3232422 C97.5039902,98.9983758 98.2192337,99.3359375 99.1323242,99.3359375 C99.6801785,99.3359375 100.183754,99.2460133 100.643066,99.0661621 C101.102379,98.8863109 101.484211,98.6442073 101.788574,98.3398438 L102.211914,99.0205078 C101.896483,99.3525407 101.482831,99.6278472 100.970947,99.8464355 C100.459063,100.065024 99.846195,100.174316 99.1323242,100.174316 Z M99.0410156,91.6992188 C98.2773399,91.6992188 97.6492538,91.9731418 97.1567383,92.5209961 C96.6642228,93.0688504 96.3764653,93.7633421 96.293457,94.6044922 L96.3183594,94.6542969 L101.464844,94.6542969 L101.464844,94.4467773 C101.464844,93.6498984 101.255943,92.9927597 100.838135,92.4753418 C100.420327,91.9579238 99.821293,91.6992188 99.0410156,91.6992188 Z M107.756836,99.3359375 C108.393232,99.3359375 108.956296,99.1477883 109.446045,98.7714844 C109.935793,98.3951804 110.180664,97.8722364 110.180664,97.2026367 L111.068848,97.2026367 L111.085449,97.2524414 C111.107585,98.0825237 110.781091,98.7770154 110.105957,99.3359375 C109.430823,99.8948596 108.647791,100.174316 107.756836,100.174316 C106.561517,100.174316 105.630456,99.7537477 104.963623,98.9125977 C104.29679,98.0714476 103.963379,96.9951237 103.963379,95.6835938 L103.963379,95.3349609 C103.963379,94.0289648 104.295407,92.9554079 104.959473,92.1142578 C105.623538,91.2731078 106.553217,90.8525391 107.748535,90.8525391 C108.711431,90.8525391 109.513831,91.1430635 110.155762,91.7241211 C110.797692,92.3051787 111.107585,93.0688429 111.085449,94.0151367 L111.068848,94.0649414 L110.180664,94.0649414 C110.180664,93.3455368 109.945478,92.7714051 109.475098,92.3425293 C109.004718,91.9136535 108.429203,91.6992188 107.748535,91.6992188 C106.807775,91.6992188 106.10775,92.0450812 105.648438,92.7368164 C105.189125,93.4285516 104.959473,94.2945912 104.959473,95.3349609 L104.959473,95.6835938 C104.959473,96.7405652 105.189125,97.6135219 105.648438,98.3024902 C106.10775,98.9914585 106.810542,99.3359375 107.756836,99.3359375 Z M114.770996,88.7192383 L114.770996,91.0185547 L116.746582,91.0185547 L116.746582,91.8320312 L114.770996,91.8320312 L114.770996,97.684082 C114.770996,98.2706735 114.877522,98.6870919 115.090576,98.9333496 C115.303631,99.1796074 115.587238,99.3027344 115.941406,99.3027344 C116.063152,99.3027344 116.180745,99.2958171 116.294189,99.2819824 C116.407634,99.2681477 116.541829,99.2446291 116.696777,99.2114258 L116.846191,99.9501953 C116.713378,100.016602 116.548748,100.070556 116.352295,100.112061 C116.155842,100.153565 115.960776,100.174316 115.76709,100.174316 C115.136227,100.174316 114.645103,99.9750996 114.293701,99.5766602 C113.9423,99.1782207 113.766602,98.5473676 113.766602,97.684082 L113.766602,91.8320312 L112.214355,91.8320312 L112.214355,91.0185547 L113.766602,91.0185547 L113.766602,88.7192383 L114.770996,88.7192383 Z M6.35449219,123.555664 L6.40429687,123.555664 L10.9033203,112.914062 L12.1152344,112.914062 L12.1152344,125 L11.1191406,125 L11.1191406,114.848145 L11.0693359,114.839844 L6.73632812,125 L6.02246094,125 L1.58984375,114.59082 L1.54003906,114.599121 L1.54003906,125 L0.543945312,125 L0.543945312,112.914062 L1.87207031,112.914062 L6.35449219,123.555664 Z M20.6567383,125 C20.5958656,124.684569 20.5502117,124.413413 20.5197754,124.186523 C20.489339,123.959634 20.4741211,123.727215 20.4741211,123.489258 C20.1642237,123.976239 19.7298205,124.378823 19.1708984,124.697021 C18.6119764,125.01522 17.9700557,125.174316 17.2451172,125.174316 C16.36523,125.174316 15.6831893,124.940513 15.1989746,124.4729 C14.7147599,124.005287 14.4726562,123.370284 14.4726562,122.567871 C14.4726562,121.765458 14.8240525,121.115237 15.5268555,120.617188 C16.2296585,120.119138 17.1427353,119.870117 18.2661133,119.870117 L20.4741211,119.870117 L20.4741211,118.757812 C20.4741211,118.115882 20.270754,117.612307 19.8640137,117.24707 C19.4572734,116.881834 18.8831417,116.699219 18.1416016,116.699219 C17.4609341,116.699219 16.9117046,116.865233 16.4938965,117.197266 C16.0760884,117.529299 15.8671875,117.9471 15.8671875,118.450684 L14.9458008,118.450684 L14.9291992,118.400879 C14.8959959,117.725745 15.1851369,117.132245 15.7966309,116.620361 C16.4081248,116.108477 17.2063753,115.852539 18.1914062,115.852539 C19.1764372,115.852539 19.9677704,116.104327 20.5654297,116.60791 C21.1630889,117.111493 21.4619141,117.833654 21.4619141,118.774414 L21.4619141,123.19043 C21.4619141,123.505861 21.4798989,123.812987 21.5158691,124.111816 C21.5518394,124.410646 21.6113277,124.706704 21.6943359,125 L20.6567383,125 Z M17.3530273,124.294434 C18.116703,124.294434 18.777992,124.113202 19.3369141,123.750732 C19.8958361,123.388263 20.2749013,122.922041 20.4741211,122.352051 L20.4741211,120.633789 L18.2578125,120.633789 C17.4498658,120.633789 16.783043,120.826089 16.2573242,121.210693 C15.7316054,121.595298 15.46875,122.058754 15.46875,122.601074 C15.46875,123.110191 15.6361474,123.519692 15.9709473,123.82959 C16.3057471,124.139487 16.7664359,124.294434 17.3530273,124.294434 Z M24.9897461,116.018555 L25.0810547,117.579102 C25.3743504,117.031247 25.7644832,116.606528 26.2514648,116.304932 C26.7384464,116.003335 27.3167284,115.852539 27.9863281,115.852539 C28.9602913,115.852539 29.7018204,116.149981 30.2109375,116.744873 C30.7200546,117.339765 30.9746094,118.26806 30.9746094,119.529785 L30.9746094,125 L29.9785156,125 L29.9785156,119.538086 C29.9785156,118.508784 29.7862161,117.781089 29.4016113,117.35498 C29.0170065,116.928872 28.4705439,116.71582 27.762207,116.71582 C27.0538702,116.71582 26.4825054,116.890135 26.0480957,117.23877 C25.613686,117.587404 25.2996429,118.05501 25.105957,118.641602 L25.105957,125 L24.1098633,125 L24.1098633,116.018555 L24.9897461,116.018555 Z M39.2587891,125 C39.1979164,124.684569 39.1522625,124.413413 39.1218262,124.186523 C39.0913898,123.959634 39.0761719,123.727215 39.0761719,123.489258 C38.7662745,123.976239 38.3318713,124.378823 37.7729492,124.697021 C37.2140272,125.01522 36.5721065,125.174316 35.847168,125.174316 C34.9672808,125.174316 34.2852401,124.940513 33.8010254,124.4729 C33.3168107,124.005287 33.074707,123.370284 33.074707,122.567871 C33.074707,121.765458 33.4261033,121.115237 34.1289062,120.617188 C34.8317092,120.119138 35.744786,119.870117 36.8681641,119.870117 L39.0761719,119.870117 L39.0761719,118.757812 C39.0761719,118.115882 38.8728048,117.612307 38.4660645,117.24707 C38.0593241,116.881834 37.4851925,116.699219 36.7436523,116.699219 C36.0629849,116.699219 35.5137553,116.865233 35.0959473,117.197266 C34.6781392,117.529299 34.4692383,117.9471 34.4692383,118.450684 L33.5478516,118.450684 L33.53125,118.400879 C33.4980467,117.725745 33.7871877,117.132245 34.3986816,116.620361 C35.0101756,116.108477 35.8084261,115.852539 36.793457,115.852539 C37.778488,115.852539 38.5698212,116.104327 39.1674805,116.60791 C39.7651397,117.111493 40.0639648,117.833654 40.0639648,118.774414 L40.0639648,123.19043 C40.0639648,123.505861 40.0819497,123.812987 40.1179199,124.111816 C40.1538902,124.410646 40.2133785,124.706704 40.2963867,125 L39.2587891,125 Z M35.9550781,124.294434 C36.7187538,124.294434 37.3800428,124.113202 37.9389648,123.750732 C38.4978869,123.388263 38.8769521,122.922041 39.0761719,122.352051 L39.0761719,120.633789 L36.8598633,120.633789 C36.0519165,120.633789 35.3850938,120.826089 34.859375,121.210693 C34.3336562,121.595298 34.0708008,122.058754 34.0708008,122.601074 C34.0708008,123.110191 34.2381982,123.519692 34.572998,123.82959 C34.9077979,124.139487 35.3684867,124.294434 35.9550781,124.294434 Z M42.3549805,120.583984 C42.3549805,119.150709 42.657956,118.003829 43.263916,117.143311 C43.8698761,116.282792 44.7151638,115.852539 45.7998047,115.852539 C46.4362011,115.852539 46.989581,115.989501 47.4599609,116.263428 C47.9303409,116.537355 48.3177068,116.926104 48.6220703,117.429688 L48.7631836,116.018555 L49.5683594,116.018555 L49.5683594,125.049805 C49.5683594,126.195318 49.2529328,127.077959 48.6220703,127.697754 C47.9912078,128.317549 47.0974993,128.627441 45.940918,128.627441 C45.5092752,128.627441 45.0485864,128.57487 44.5588379,128.469727 C44.0690893,128.364583 43.6416034,128.220704 43.2763672,128.038086 L43.4672852,127.199707 C43.8269875,127.376791 44.210203,127.510986 44.6169434,127.602295 C45.0236837,127.693604 45.4594703,127.739258 45.9243164,127.739258 C46.8097375,127.739258 47.4710265,127.512372 47.9082031,127.058594 C48.3453798,126.604815 48.5639648,125.935226 48.5639648,125.049805 L48.5639648,123.779785 C48.2596013,124.22803 47.8736189,124.572509 47.4060059,124.813232 C46.9383928,125.053956 46.397464,125.174316 45.7832031,125.174316 C44.70963,125.174316 43.8698761,124.773116 43.263916,123.970703 C42.657956,123.16829 42.3549805,122.0975 42.3549805,120.758301 L42.3549805,120.583984 Z M43.3510742,120.758301 C43.3510742,121.842942 43.5696593,122.706214 44.0068359,123.348145 C44.4440126,123.990075 45.0997678,124.311035 45.9741211,124.311035 C46.6049836,124.311035 47.1348449,124.16854 47.5637207,123.883545 C47.9925965,123.59855 48.3260079,123.207034 48.5639648,122.708984 L48.5639648,118.425781 C48.3370757,117.922198 48.0147319,117.511313 47.5969238,117.193115 C47.1791157,116.874917 46.6437207,116.71582 45.9907227,116.71582 C45.1163693,116.71582 44.4578473,117.075517 44.0151367,117.794922 C43.5724262,118.514327 43.3510742,119.444005 43.3510742,120.583984 L43.3510742,120.758301 Z M55.5864258,125.174316 C54.4243106,125.174316 53.4807979,124.763432 52.7558594,123.94165 C52.0309209,123.119869 51.668457,122.064297 51.668457,120.774902 L51.668457,120.318359 C51.668457,119.023431 52.0350712,117.955408 52.7683105,117.114258 C53.5015499,116.273108 54.4104763,115.852539 55.4951172,115.852539 C56.5852919,115.852539 57.4278128,116.202552 58.0227051,116.902588 C58.6175974,117.602624 58.9150391,118.544753 58.9150391,119.729004 L58.9150391,120.500977 L52.6645508,120.500977 L52.6645508,120.774902 C52.6645508,121.79867 52.9232559,122.648109 53.4406738,123.323242 C53.9580918,123.998376 54.6733353,124.335938 55.5864258,124.335938 C56.1342801,124.335938 56.6378558,124.246013 57.097168,124.066162 C57.5564802,123.886311 57.9383123,123.644207 58.2426758,123.339844 L58.6660156,124.020508 C58.3505844,124.352541 57.9369329,124.627847 57.4250488,124.846436 C56.9131648,125.065024 56.3002965,125.174316 55.5864258,125.174316 Z M55.4951172,116.699219 C54.7314415,116.699219 54.1033553,116.973142 53.6108398,117.520996 C53.1183244,118.06885 52.8305668,118.763342 52.7475586,119.604492 L52.7724609,119.654297 L57.9189453,119.654297 L57.9189453,119.446777 C57.9189453,118.649898 57.7100444,117.99276 57.2922363,117.475342 C56.8744282,116.957924 56.2753945,116.699219 55.4951172,116.699219 Z M65.0244141,116.873535 L64.3188477,116.82373 C63.693519,116.82373 63.1802592,116.999429 62.7790527,117.35083 C62.3778463,117.702232 62.0914722,118.185056 61.9199219,118.799316 L61.9199219,125 L60.9238281,125 L60.9238281,116.018555 L61.7954102,116.018555 L61.9199219,117.512695 L61.9199219,117.612305 C62.1800143,117.058917 62.5286436,116.62728 62.9658203,116.317383 C63.402997,116.007485 63.9231741,115.852539 64.5263672,115.852539 C64.6481126,115.852539 64.7643224,115.862223 64.875,115.881592 C64.9856776,115.90096 65.0769853,115.921712 65.1489258,115.943848 L65.0244141,116.873535 Z" id="Product/Project-Mana" fill="#575757"></path>
                            <path d="M29.5,24.5 L14.5,0.5" id="Line-2" stroke="#252525" opacity="0.253000453" stroke-linecap="square" transform="translate(22.000000, 12.500000) scale(-1, 1) translate(-22.000000, -12.500000) "></path>
                            <ellipse id="Oval-Copy" fill="#252525" transform="translate(13.500000, 26.437500) rotate(90.000000) translate(-13.500000, -26.437500) " cx="13.5" cy="26.4375" rx="2.4375" ry="2.5"></ellipse>
                        </g>
                        <g id="Group-17">
                            <path d="M1.31054688,31 L1.31054688,27.0830078 L10.9697266,16.7265625 C12.3642648,15.1269451 13.3554658,13.776861 13.9433594,12.6762695 C14.5312529,11.5756781 14.8251953,10.5537157 14.8251953,9.61035156 C14.8251953,8.35253277 14.4868198,7.32373447 13.8100586,6.52392578 C13.1332974,5.72411709 12.1728578,5.32421875 10.9287109,5.32421875 C9.54784466,5.32421875 8.49853875,5.79247579 7.78076172,6.72900391 C7.06298469,7.66553203 6.70410156,8.91307814 6.70410156,10.4716797 L0.879882813,10.4716797 L0.838867188,10.3486328 C0.770507471,7.65525997 1.65575252,5.37549761 3.49462891,3.50927734 C5.33350529,1.64305708 7.81150785,0.709960938 10.9287109,0.709960938 C14.0048982,0.709960938 16.4247959,1.50975763 18.1884766,3.109375 C19.9521573,4.70899237 20.8339844,6.84178354 20.8339844,9.5078125 C20.8339844,11.312509 20.3383839,12.9804611 19.347168,14.5117187 C18.3559521,16.0429764 16.7119255,18.0390502 14.4150391,20.5 L9.10351563,26.3037109 L9.14453125,26.40625 L16.8964844,26.40625 L17.1425781,23.453125 L21.6953125,23.453125 L21.6953125,31 L1.31054688,31 Z M42.203125,19.8847656 L45.5869141,19.8847656 L45.5869141,23.8632812 L42.203125,23.8632812 L42.203125,26.7958984 L45.3818359,27.4111328 L45.3818359,31 L33.0361328,31 L33.0361328,27.4111328 L36.2353516,26.7958984 L36.2353516,23.8632812 L24.0537109,23.8632812 L23.7666016,20.9306641 L36.1738281,1.140625 L42.203125,1.140625 L42.203125,19.8847656 Z M29.3652344,19.8847656 L36.2353516,19.8847656 L36.2353516,9.11816406 L36.1123047,9.07714844 L35.6201172,9.93847656 L29.3652344,19.8847656 Z M47.6992188,6.8828125 C47.6992188,5.11913181 48.2700138,3.64941994 49.4116211,2.47363281 C50.5532284,1.29784568 52.1425679,0.709960938 54.1796875,0.709960938 C56.2441509,0.709960938 57.8437443,1.29442775 58.9785156,2.46337891 C60.1132869,3.63233006 60.6806641,5.10545986 60.6806641,6.8828125 L60.6806641,8.46191406 C60.6806641,10.2255948 60.1132869,11.6884708 58.9785156,12.8505859 C57.8437443,14.0127011 56.2578227,14.59375 54.2207031,14.59375 C52.1699116,14.59375 50.5703182,14.0127011 49.421875,12.8505859 C48.2734318,11.6884708 47.6992188,10.2255948 47.6992188,8.46191406 L47.6992188,6.8828125 Z M51.6777344,8.46191406 C51.6777344,9.25488678 51.8964822,9.92138402 52.3339844,10.4614258 C52.7714866,11.0014675 53.4003865,11.2714844 54.2207031,11.2714844 C55.0136758,11.2714844 55.6289041,11.0014675 56.0664063,10.4614258 C56.5039084,9.92138402 56.7226563,9.25488678 56.7226563,8.46191406 L56.7226563,6.8828125 C56.7226563,6.08983979 56.5004905,5.41650667 56.0561523,4.86279297 C55.6118142,4.30907926 54.9863322,4.03222656 54.1796875,4.03222656 C53.3730428,4.03222656 52.7543967,4.30907926 52.3237305,4.86279297 C51.8930643,5.41650667 51.6777344,6.08983979 51.6777344,6.8828125 L51.6777344,8.46191406 Z M61.9726563,23.6787109 C61.9726563,21.9287022 62.5468693,20.4658262 63.6953125,19.2900391 C64.8437557,18.1142519 66.4365133,17.5263672 68.4736328,17.5263672 C70.5244243,17.5263672 72.1205998,18.110834 73.262207,19.2797852 C74.4038143,20.4487363 74.9746094,21.9150302 74.9746094,23.6787109 L74.9746094,25.2578125 C74.9746094,27.0351651 74.4072322,28.504877 73.2724609,29.6669922 C72.1376896,30.8291074 70.551768,31.4101562 68.5146484,31.4101562 C66.4638569,31.4101562 64.8608456,30.8256894 63.7055664,29.6567383 C62.5502872,28.4877871 61.9726563,27.0214932 61.9726563,25.2578125 L61.9726563,23.6787109 Z M65.9511719,25.2578125 C65.9511719,26.0371133 66.1870094,26.7036105 66.6586914,27.2573242 C67.1303735,27.8110379 67.7490196,28.0878906 68.5146484,28.0878906 C69.4033248,28.0878906 70.0390606,27.8315455 70.421875,27.3188477 C70.8046894,26.8061498 70.9960938,26.1191449 70.9960938,25.2578125 L70.9960938,23.6787109 C70.9960938,22.8994102 70.7773459,22.2329129 70.3398438,21.6791992 C69.9023416,21.1254855 69.2802775,20.8486328 68.4736328,20.8486328 C67.6533162,20.8486328 67.0278342,21.1254855 66.597168,21.6791992 C66.1665018,22.2329129 65.9511719,22.8994102 65.9511719,23.6787109 L65.9511719,25.2578125 Z M55.9228516,28.7646484 L53.0107422,27.2265625 L67.5917969,3.88867188 L70.5039063,5.42675781 L55.9228516,28.7646484 Z" id="24%" fill="#252525"></path>
                            <path d="M45.5029297,51.2231445 L45.5195312,51.2729492 C45.5416668,52.4571999 45.1543009,53.4034795 44.3574219,54.1118164 C43.5605429,54.8201533 42.5146549,55.1743164 41.2197266,55.1743164 C39.8749933,55.1743164 38.7903687,54.6887256 37.9658203,53.7175293 C37.1412719,52.746333 36.7290039,51.4887773 36.7290039,49.9448242 L36.7290039,47.9775391 C36.7290039,46.4391199 37.1412719,45.1815641 37.9658203,44.204834 C38.7903687,43.2281038 39.8749933,42.7397461 41.2197266,42.7397461 C42.5312566,42.7397461 43.5812949,43.0856085 44.369873,43.7773438 C45.1584512,44.469079 45.5416668,45.4208924 45.5195312,46.6328125 L45.5029297,46.6826172 L44.5732422,46.6826172 C44.5732422,45.708654 44.2758005,44.9491401 43.6809082,44.4040527 C43.0860159,43.8589654 42.2656302,43.5864258 41.2197266,43.5864258 C40.1627551,43.5864258 39.3147005,43.9959269 38.6755371,44.8149414 C38.0363738,45.6339559 37.7167969,46.6826108 37.7167969,47.9609375 L37.7167969,49.9448242 C37.7167969,51.2397526 38.0363738,52.2953247 38.6755371,53.1115723 C39.3147005,53.9278198 40.1627551,54.3359375 41.2197266,54.3359375 C42.2656302,54.3359375 43.0860159,54.0703152 43.6809082,53.5390625 C44.2758005,53.0078098 44.5732422,52.2358449 44.5732422,51.2231445 L45.5029297,51.2231445 Z M54.4926758,49.1479492 L49.0722656,49.1479492 L49.0722656,54.1616211 L55.3393555,54.1616211 L55.3393555,55 L48.0761719,55 L48.0761719,42.9140625 L55.2978516,42.9140625 L55.2978516,43.7607422 L49.0722656,43.7607422 L49.0722656,48.3012695 L54.4926758,48.3012695 L54.4926758,49.1479492 Z M66.3129883,49.9448242 C66.3129883,51.5053789 65.8855023,52.767085 65.0305176,53.7299805 C64.1755328,54.6928759 63.028653,55.1743164 61.5898438,55.1743164 C60.17317,55.1743164 59.0428916,54.6928759 58.1989746,53.7299805 C57.3550576,52.767085 56.9331055,51.5053789 56.9331055,49.9448242 L56.9331055,47.9775391 C56.9331055,46.4225183 57.3536742,45.1608121 58.1948242,44.1923828 C59.0359743,43.2239535 60.1648692,42.7397461 61.581543,42.7397461 C63.0203522,42.7397461 64.1686155,43.2239535 65.0263672,44.1923828 C65.8841189,45.1608121 66.3129883,46.4225183 66.3129883,47.9775391 L66.3129883,49.9448242 Z M65.3251953,47.9609375 C65.3251953,46.6549414 64.9945508,45.6035196 64.333252,44.8066406 C63.6719531,44.0097616 62.7547259,43.6113281 61.581543,43.6113281 C60.4304955,43.6113281 59.5340201,44.0097616 58.8920898,44.8066406 C58.2501596,45.6035196 57.9291992,46.6549414 57.9291992,47.9609375 L57.9291992,49.9448242 C57.9291992,51.2618881 58.251543,52.3188437 58.8962402,53.1157227 C59.5409375,53.9126016 60.4387963,54.3110352 61.5898438,54.3110352 C62.7685606,54.3110352 63.6857877,53.9139851 64.3415527,53.119873 C64.9973177,52.325761 65.3251953,51.267422 65.3251953,49.9448242 L65.3251953,47.9609375 Z M74.0327148,52.7006836 C74.0327148,52.2801086 73.8597836,51.9134944 73.513916,51.6008301 C73.1680484,51.2881658 72.5441126,51.0322276 71.6420898,50.8330078 C70.5795845,50.6116525 69.7896347,50.3086771 69.2722168,49.9240723 C68.7547988,49.5394675 68.4960938,49.0013055 68.4960938,48.3095703 C68.4960938,47.623369 68.7852347,47.0423201 69.3635254,46.5664062 C69.941816,46.0904924 70.7068637,45.8525391 71.6586914,45.8525391 C72.660324,45.8525391 73.4599579,46.1057104 74.0576172,46.6120605 C74.6552764,47.1184107 74.9402671,47.7423466 74.9125977,48.4838867 L74.8959961,48.5336914 L73.9746094,48.5336914 C73.9746094,48.0411759 73.7629416,47.6123065 73.3395996,47.2470703 C72.9162576,46.8818341 72.3559605,46.6992188 71.6586914,46.6992188 C70.9392868,46.6992188 70.3969745,46.856932 70.0317383,47.1723633 C69.6665021,47.4877945 69.4838867,47.8557922 69.4838867,48.2763672 C69.4838867,48.6858744 69.6402165,49.0248196 69.9528809,49.2932129 C70.2655452,49.5616062 70.889481,49.7981761 71.824707,50.0029297 C72.8761446,50.2353527 73.6716282,50.55908 74.2111816,50.9741211 C74.7507351,51.3891622 75.0205078,51.9480759 75.0205078,52.6508789 C75.0205078,53.397953 74.7175323,54.0052874 74.1115723,54.4729004 C73.5056122,54.9405134 72.7045948,55.1743164 71.7084961,55.1743164 C70.6183214,55.1743164 69.761966,54.9142279 69.1394043,54.394043 C68.5168426,53.8738581 68.2221678,53.2540726 68.2553711,52.534668 L68.2719727,52.4848633 L69.1850586,52.4848633 C69.2237958,53.1323275 69.4880347,53.6027004 69.9777832,53.8959961 C70.4675317,54.1892918 71.0444303,54.3359375 71.7084961,54.3359375 C72.4279007,54.3359375 72.9951151,54.1754573 73.4101562,53.8544922 C73.8251974,53.533527 74.0327148,53.148928 74.0327148,52.7006836 Z" id="CEOs" fill="#575757"></path>
                            <path d="M93.5,32.5 L115.167439,52.0443305" id="Line-2-Copy" stroke="#252525" opacity="0.253000453" stroke-linecap="square"></path>
                            <ellipse id="Oval-Copy" fill="#252525" transform="translate(91.500000, 30.437500) rotate(90.000000) translate(-91.500000, -30.437500) " cx="91.5" cy="30.4375" rx="2.4375" ry="2.5"></ellipse>
                        </g>
                    </g>
                    <g id="Donut-chart" transform="translate(112.000000, 37.000000)" stroke-width="22">
                        <path d="M1.70912188,68 C-5.70586176,38.8690744 11.6945299,9.19041961 40.5739845,1.71086918 C44.9604687,0.574804431 49.4712363,0 54,0" id="donut_3" stroke="#5E091C"></path>
                        <path d="M96,89.2129778 C76.9718901,112.434579 42.9005372,115.686154 19.8995035,96.4755754 C11.1045093,89.1299521 4.83866127,79.1618752 2,68" id="donut_2" stroke="#910F2B"></path>
                        <path d="M54,0 C83.9736958,0 108.272177,24.457622 108.272177,54.6276278 C108.272177,67.3396908 103.867681,79.6537753 95.8174312,89.4485882" id="donut_1" stroke="#C5143A"></path>
                    </g>
                </g>
            </g>
        </g>
    </g>
</svg>