<?xml version="1.0" encoding="UTF-8"?>
<svg width="408px" height="273px" viewBox="0 0 408 273" version="1.1" xmlns="http://www.w3.org/2000/svg" xmlns:xlink="http://www.w3.org/1999/xlink">
    <!-- Generator: Sketch 49.1 (51147) - http://www.bohemiancoding.com/sketch -->
    <title>text</title>
    <desc>Created with Sketch.</desc>
    <defs></defs>
    <g id="Pages" stroke="none" stroke-width="1" fill="none" fill-rule="evenodd">
        <g id="Why-attend" transform="translate(-208.000000, -3162.000000)">
            <g id="top-3-function" transform="translate(195.000000, 2992.000000)">
                <g id="text" transform="translate(13.000000, 170.000000)">
                    <g id="Group-18">
                        <g id="Group-14" transform="translate(221.000000, 0.000000)">
                            <path d="M39.4970703,31 L39.4970703,27.0830078 L49.15625,16.7265625 C50.5507882,15.1269451 51.5419892,13.776861 52.1298828,12.6762695 C52.7177764,11.5756781 53.0117188,10.5537157 53.0117188,9.61035156 C53.0117188,8.35253277 52.6733432,7.32373447 51.996582,6.52392578 C51.3198208,5.72411709 50.3593812,5.32421875 49.1152344,5.32421875 C47.7343681,5.32421875 46.6850622,5.79247579 45.9672852,6.72900391 C45.2495081,7.66553203 44.890625,8.91307814 44.890625,10.4716797 L39.0664062,10.4716797 L39.0253906,10.3486328 C38.9570309,7.65525997 39.842276,5.37549761 41.6811523,3.50927734 C43.5200287,1.64305708 45.9980313,0.709960938 49.1152344,0.709960938 C52.1914216,0.709960938 54.6113193,1.50975763 56.375,3.109375 C58.1386807,4.70899237 59.0205078,6.84178354 59.0205078,9.5078125 C59.0205078,11.312509 58.5249073,12.9804611 57.5336914,14.5117187 C56.5424755,16.0429764 54.898449,18.0390502 52.6015625,20.5 L47.2900391,26.3037109 L47.3310547,26.40625 L55.0830078,26.40625 L55.3291016,23.453125 L59.8818359,23.453125 L59.8818359,31 L39.4970703,31 Z M83.3222656,5.75488281 C80.1230309,9.50099529 77.9389707,12.9941244 76.7700195,16.234375 C75.6010684,19.4746256 74.7636744,23.3847427 74.2578125,27.9648437 L73.9707031,31 L67.9824219,31 L68.2695312,27.9648437 C68.7343773,23.5761499 69.7324142,19.5464051 71.2636719,15.8754883 C72.7949295,12.2045715 74.8935414,8.83107007 77.5595703,5.75488281 L67.0390625,5.75488281 L66.8134766,8.70800781 L62.2197266,8.70800781 L62.2197266,1.140625 L83.3222656,1.140625 L83.3222656,5.75488281 Z M84.921875,6.8828125 C84.921875,5.11913181 85.4926701,3.64941994 86.6342773,2.47363281 C87.7758846,1.29784568 89.3652242,0.709960938 91.4023438,0.709960938 C93.4668072,0.709960938 95.0664006,1.29442775 96.2011719,2.46337891 C97.3359432,3.63233006 97.9033203,5.10545986 97.9033203,6.8828125 L97.9033203,8.46191406 C97.9033203,10.2255948 97.3359432,11.6884708 96.2011719,12.8505859 C95.0664006,14.0127011 93.4804789,14.59375 91.4433594,14.59375 C89.3925679,14.59375 87.7929745,14.0127011 86.6445312,12.8505859 C85.496088,11.6884708 84.921875,10.2255948 84.921875,8.46191406 L84.921875,6.8828125 Z M88.9003906,8.46191406 C88.9003906,9.25488678 89.1191384,9.92138402 89.5566406,10.4614258 C89.9941428,11.0014675 90.6230428,11.2714844 91.4433594,11.2714844 C92.2363321,11.2714844 92.8515603,11.0014675 93.2890625,10.4614258 C93.7265647,9.92138402 93.9453125,9.25488678 93.9453125,8.46191406 L93.9453125,6.8828125 C93.9453125,6.08983979 93.7231468,5.41650667 93.2788086,4.86279297 C92.8344704,4.30907926 92.2089884,4.03222656 91.4023438,4.03222656 C90.5956991,4.03222656 89.9770529,4.30907926 89.5463867,4.86279297 C89.1157205,5.41650667 88.9003906,6.08983979 88.9003906,6.8828125 L88.9003906,8.46191406 Z M99.1953125,23.6787109 C99.1953125,21.9287022 99.7695255,20.4658262 100.917969,19.2900391 C102.066412,18.1142519 103.65917,17.5263672 105.696289,17.5263672 C107.747081,17.5263672 109.343256,18.110834 110.484863,19.2797852 C111.626471,20.4487363 112.197266,21.9150302 112.197266,23.6787109 L112.197266,25.2578125 C112.197266,27.0351651 111.629888,28.504877 110.495117,29.6669922 C109.360346,30.8291074 107.774424,31.4101562 105.737305,31.4101562 C103.686513,31.4101562 102.083502,30.8256894 100.928223,29.6567383 C99.7729434,28.4877871 99.1953125,27.0214932 99.1953125,25.2578125 L99.1953125,23.6787109 Z M103.173828,25.2578125 C103.173828,26.0371133 103.409666,26.7036105 103.881348,27.2573242 C104.35303,27.8110379 104.971676,28.0878906 105.737305,28.0878906 C106.625981,28.0878906 107.261717,27.8315455 107.644531,27.3188477 C108.027346,26.8061498 108.21875,26.1191449 108.21875,25.2578125 L108.21875,23.6787109 C108.21875,22.8994102 108.000002,22.2329129 107.5625,21.6791992 C107.124998,21.1254855 106.502934,20.8486328 105.696289,20.8486328 C104.875972,20.8486328 104.25049,21.1254855 103.819824,21.6791992 C103.389158,22.2329129 103.173828,22.8994102 103.173828,23.6787109 L103.173828,25.2578125 Z M93.1455078,28.7646484 L90.2333984,27.2265625 L104.814453,3.88867188 L107.726562,5.42675781 L93.1455078,28.7646484 Z" id="27%" fill="#252525"></path>
                            <path d="M39.5439453,56 L39.5439453,43.9140625 L43.2294922,43.9140625 C44.7070386,43.9140625 45.9286247,44.4065706 46.8942871,45.3916016 C47.8599495,46.3766325 48.3427734,47.6411056 48.3427734,49.1850586 L48.3427734,50.7373047 C48.3427734,52.2812577 47.8599495,53.5443473 46.8942871,54.5266113 C45.9286247,55.5088754 44.7070386,56 43.2294922,56 L39.5439453,56 Z M40.5400391,44.7607422 L40.5400391,55.1616211 L43.2294922,55.1616211 C44.4248107,55.1616211 45.4098269,54.7438193 46.1845703,53.9082031 C46.9593138,53.072587 47.3466797,52.0156314 47.3466797,50.7373047 L47.3466797,49.1601562 C47.3466797,47.8984312 46.9579303,46.8497763 46.1804199,46.0141602 C45.4029095,45.178544 44.4192768,44.7607422 43.2294922,44.7607422 L40.5400391,44.7607422 Z M51.8623047,56 L50.8745117,56 L50.8745117,47.0185547 L51.8623047,47.0185547 L51.8623047,56 Z M51.8623047,44.4453125 L50.8745117,44.4453125 L50.8745117,43.0507812 L51.8623047,43.0507812 L51.8623047,44.4453125 Z M58.7104492,47.8735352 L58.0048828,47.8237305 C57.3795542,47.8237305 56.8662943,47.9994286 56.4650879,48.3508301 C56.0638815,48.7022316 55.7775074,49.1850555 55.605957,49.7993164 L55.605957,56 L54.6098633,56 L54.6098633,47.0185547 L55.4814453,47.0185547 L55.605957,48.5126953 L55.605957,48.6123047 C55.8660495,48.0589165 56.2146788,47.6272802 56.6518555,47.3173828 C57.0890321,47.0074854 57.6092092,46.8525391 58.2124023,46.8525391 C58.3341477,46.8525391 58.4503575,46.8622232 58.5610352,46.8815918 C58.6717128,46.9009604 58.7630205,46.9217121 58.8349609,46.9438477 L58.7104492,47.8735352 Z M63.8237305,56.1743164 C62.6616153,56.1743164 61.7181026,55.7634318 60.9931641,54.9416504 C60.2682255,54.1198689 59.9057617,53.0642968 59.9057617,51.7749023 L59.9057617,51.3183594 C59.9057617,50.023431 60.2723759,48.9554079 61.0056152,48.1142578 C61.7388546,47.2731078 62.647781,46.8525391 63.7324219,46.8525391 C64.8225966,46.8525391 65.6651175,47.2025518 66.2600098,47.9025879 C66.8549021,48.6026239 67.1523438,49.5447532 67.1523438,50.7290039 L67.1523438,51.5009766 L60.9018555,51.5009766 L60.9018555,51.7749023 C60.9018555,52.7986705 61.1605606,53.6481086 61.6779785,54.3232422 C62.1953965,54.9983758 62.91064,55.3359375 63.8237305,55.3359375 C64.3715848,55.3359375 64.8751605,55.2460133 65.3344727,55.0661621 C65.7937848,54.8863109 66.175617,54.6442073 66.4799805,54.3398438 L66.9033203,55.0205078 C66.587889,55.3525407 66.1742376,55.6278472 65.6623535,55.8464355 C65.1504694,56.0650239 64.5376012,56.1743164 63.8237305,56.1743164 Z M63.7324219,47.6992188 C62.9687462,47.6992188 62.34066,47.9731418 61.8481445,48.5209961 C61.355629,49.0688504 61.0678715,49.7633421 60.9848633,50.6044922 L61.0097656,50.6542969 L66.15625,50.6542969 L66.15625,50.4467773 C66.15625,49.6498984 65.9473491,48.9927597 65.529541,48.4753418 C65.1117329,47.9579238 64.5126992,47.6992188 63.7324219,47.6992188 Z M72.4482422,55.3359375 C73.0846386,55.3359375 73.6477026,55.1477883 74.1374512,54.7714844 C74.6271997,54.3951804 74.8720703,53.8722364 74.8720703,53.2026367 L75.7602539,53.2026367 L75.7768555,53.2524414 C75.798991,54.0825237 75.4724969,54.7770154 74.7973633,55.3359375 C74.1222297,55.8948596 73.3391972,56.1743164 72.4482422,56.1743164 C71.2529237,56.1743164 70.3218621,55.7537477 69.6550293,54.9125977 C68.9881965,54.0714476 68.6547852,52.9951237 68.6547852,51.6835938 L68.6547852,51.3349609 C68.6547852,50.0289648 68.9868131,48.9554079 69.6508789,48.1142578 C70.3149447,47.2731078 71.2446229,46.8525391 72.4399414,46.8525391 C73.4028368,46.8525391 74.2052377,47.1430635 74.847168,47.7241211 C75.4890983,48.3051787 75.798991,49.0688429 75.7768555,50.0151367 L75.7602539,50.0649414 L74.8720703,50.0649414 C74.8720703,49.3455368 74.6368839,48.7714051 74.1665039,48.3425293 C73.696124,47.9136535 73.1206089,47.6992188 72.4399414,47.6992188 C71.4991815,47.6992188 70.7991559,48.0450812 70.3398438,48.7368164 C69.8805316,49.4285516 69.6508789,50.2945912 69.6508789,51.3349609 L69.6508789,51.6835938 C69.6508789,52.7405652 69.8805316,53.6135219 70.3398438,54.3024902 C70.7991559,54.9914585 71.5019484,55.3359375 72.4482422,55.3359375 Z M79.4624023,44.7192383 L79.4624023,47.0185547 L81.4379883,47.0185547 L81.4379883,47.8320312 L79.4624023,47.8320312 L79.4624023,53.684082 C79.4624023,54.2706735 79.568928,54.6870919 79.7819824,54.9333496 C79.9950369,55.1796074 80.2786441,55.3027344 80.6328125,55.3027344 C80.7545579,55.3027344 80.8721511,55.2958171 80.9855957,55.2819824 C81.0990403,55.2681477 81.2332349,55.2446291 81.3881836,55.2114258 L81.5375977,55.9501953 C81.4047845,56.0166019 81.240154,56.0705564 81.0437012,56.1120605 C80.8472484,56.1535647 80.652182,56.1743164 80.4584961,56.1743164 C79.8276336,56.1743164 79.3365089,55.9750996 78.9851074,55.5766602 C78.6337059,55.1782207 78.4580078,54.5473676 78.4580078,53.684082 L78.4580078,47.8320312 L76.9057617,47.8320312 L76.9057617,47.0185547 L78.4580078,47.0185547 L78.4580078,44.7192383 L79.4624023,44.7192383 Z M82.8242188,51.3764648 C82.8242188,50.0538671 83.1866826,48.9692425 83.9116211,48.1225586 C84.6365596,47.2758747 85.5966737,46.8525391 86.7919922,46.8525391 C87.9928445,46.8525391 88.9557255,47.2758747 89.6806641,48.1225586 C90.4056026,48.9692425 90.7680664,50.0538671 90.7680664,51.3764648 L90.7680664,51.6503906 C90.7680664,52.9785223 90.406986,54.0645303 89.6848145,54.9084473 C88.9626429,55.7523642 88.0039122,56.1743164 86.8085938,56.1743164 C85.6022075,56.1743164 84.6365596,55.7523642 83.9116211,54.9084473 C83.1866826,54.0645303 82.8242188,52.9785223 82.8242188,51.6503906 L82.8242188,51.3764648 Z M83.8203125,51.6503906 C83.8203125,52.6907604 84.0831679,53.5651006 84.6088867,54.2734375 C85.1346055,54.9817744 85.8678338,55.3359375 86.8085938,55.3359375 C87.732752,55.3359375 88.4590631,54.9817744 88.9875488,54.2734375 C89.5160345,53.5651006 89.7802734,52.6907604 89.7802734,51.6503906 L89.7802734,51.3764648 C89.7802734,50.3526967 89.5146511,49.4838903 88.9833984,48.7700195 C88.4521458,48.0561488 87.7216843,47.6992188 86.7919922,47.6992188 C85.8623,47.6992188 85.1346055,48.0561488 84.6088867,48.7700195 C84.0831679,49.4838903 83.8203125,50.3526967 83.8203125,51.3764648 L83.8203125,51.6503906 Z M96.9438477,47.8735352 L96.2382812,47.8237305 C95.6129526,47.8237305 95.0996928,47.9994286 94.6984863,48.3508301 C94.2972799,48.7022316 94.0109058,49.1850555 93.8393555,49.7993164 L93.8393555,56 L92.8432617,56 L92.8432617,47.0185547 L93.7148438,47.0185547 L93.8393555,48.5126953 L93.8393555,48.6123047 C94.0994479,48.0589165 94.4480772,47.6272802 94.8852539,47.3173828 C95.3224306,47.0074854 95.8426077,46.8525391 96.4458008,46.8525391 C96.5675462,46.8525391 96.683756,46.8622232 96.7944336,46.8815918 C96.9051112,46.9009604 96.9964189,46.9217121 97.0683594,46.9438477 L96.9438477,47.8735352 Z M99.5834961,55.8505859 L98.7036133,58.1416016 L98.0229492,58.1416016 L98.5957031,55.8256836 L98.5957031,54.4394531 L99.5834961,54.4394531 L99.5834961,55.8505859 Z M48.4008789,81 L47.4047852,81 L47.4047852,75.4384766 L40.5400391,75.4384766 L40.5400391,81 L39.5439453,81 L39.5439453,68.9140625 L40.5400391,68.9140625 L40.5400391,74.5917969 L47.4047852,74.5917969 L47.4047852,68.9140625 L48.4008789,68.9140625 L48.4008789,81 Z M54.6679688,81.1743164 C53.5058536,81.1743164 52.5623409,80.7634318 51.8374023,79.9416504 C51.1124638,79.1198689 50.75,78.0642968 50.75,76.7749023 L50.75,76.3183594 C50.75,75.023431 51.1166142,73.9554079 51.8498535,73.1142578 C52.5830929,72.2731078 53.4920193,71.8525391 54.5766602,71.8525391 C55.6668349,71.8525391 56.5093557,72.2025518 57.104248,72.9025879 C57.6991403,73.6026239 57.996582,74.5447532 57.996582,75.7290039 L57.996582,76.5009766 L51.7460938,76.5009766 L51.7460938,76.7749023 C51.7460938,77.7986705 52.0047988,78.6481086 52.5222168,79.3232422 C53.0396347,79.9983758 53.7548782,80.3359375 54.6679688,80.3359375 C55.2158231,80.3359375 55.7193987,80.2460133 56.1787109,80.0661621 C56.6380231,79.8863109 57.0198552,79.6442073 57.3242188,79.3398438 L57.7475586,80.0205078 C57.4321273,80.3525407 57.0184759,80.6278472 56.5065918,80.8464355 C55.9947077,81.0650239 55.3818395,81.1743164 54.6679688,81.1743164 Z M54.5766602,72.6992188 C53.8129845,72.6992188 53.1848983,72.9731418 52.6923828,73.5209961 C52.1998673,74.0688504 51.9121098,74.7633421 51.8291016,75.6044922 L51.8540039,75.6542969 L57.0004883,75.6542969 L57.0004883,75.4467773 C57.0004883,74.6498984 56.7915874,73.9927597 56.3737793,73.4753418 C55.9559712,72.9579238 55.3569375,72.6992188 54.5766602,72.6992188 Z M65.6914062,81 C65.6305335,80.6845687 65.5848797,80.4134126 65.5544434,80.1865234 C65.524007,79.9596343 65.5087891,79.7272147 65.5087891,79.4892578 C65.1988917,79.9762394 64.7644885,80.3788233 64.2055664,80.6970215 C63.6466443,81.0152197 63.0047237,81.1743164 62.2797852,81.1743164 C61.3998979,81.1743164 60.7178572,80.9405134 60.2336426,80.4729004 C59.7494279,80.0052874 59.5073242,79.370284 59.5073242,78.5678711 C59.5073242,77.7654582 59.8587204,77.1152369 60.5615234,76.6171875 C61.2643264,76.1191381 62.1774032,75.8701172 63.3007812,75.8701172 L65.5087891,75.8701172 L65.5087891,74.7578125 C65.5087891,74.1158822 65.305422,73.6123065 64.8986816,73.2470703 C64.4919413,72.8818341 63.9178097,72.6992188 63.1762695,72.6992188 C62.4956021,72.6992188 61.9463725,72.8652327 61.5285645,73.1972656 C61.1107564,73.5292985 60.9018555,73.9471003 60.9018555,74.4506836 L59.9804688,74.4506836 L59.9638672,74.4008789 C59.9306639,73.7257453 60.2198049,73.1322454 60.8312988,72.6203613 C61.4427928,72.1084773 62.2410433,71.8525391 63.2260742,71.8525391 C64.2111052,71.8525391 65.0024384,72.1043269 65.6000977,72.6079102 C66.1977569,73.1114934 66.496582,73.8336542 66.496582,74.7744141 L66.496582,79.1904297 C66.496582,79.505861 66.5145669,79.8129868 66.5505371,80.1118164 C66.5865073,80.410646 66.6459957,80.7067043 66.7290039,81 L65.6914062,81 Z M62.3876953,80.2944336 C63.151371,80.2944336 63.81266,80.1132017 64.371582,79.7507324 C64.9305041,79.3882632 65.3095693,78.9220406 65.5087891,78.3520508 L65.5087891,76.6337891 L63.2924805,76.6337891 C62.4845337,76.6337891 61.817711,76.8260886 61.2919922,77.2106934 C60.7662734,77.5952981 60.503418,78.0587538 60.503418,78.6010742 C60.503418,79.1101913 60.6708154,79.5196925 61.0056152,79.8295898 C61.3404151,80.1394872 61.8011038,80.2944336 62.3876953,80.2944336 Z M68.7543945,76.5839844 C68.7543945,75.150709 69.05737,74.0038292 69.6633301,73.1433105 C70.2692901,72.2827919 71.1145779,71.8525391 72.1992188,71.8525391 C72.8134796,71.8525391 73.3516416,71.9825833 73.8137207,72.2426758 C74.2757998,72.5027682 74.6590154,72.8707658 74.9633789,73.3466797 L74.9633789,68.0507812 L75.9594727,68.0507812 L75.9594727,81 L75.1459961,81 L75.0048828,79.6967773 C74.7005193,80.1726912 74.3131534,80.5379219 73.8427734,80.7924805 C73.3723935,81.047039 72.8190136,81.1743164 72.1826172,81.1743164 C71.1090441,81.1743164 70.2692901,80.7744994 69.6633301,79.9748535 C69.05737,79.1752076 68.7543945,78.1030341 68.7543945,76.7583008 L68.7543945,76.5839844 Z M69.7504883,76.7583008 C69.7504883,77.8429416 69.9676899,78.7062142 70.4020996,79.3481445 C70.8365093,79.9900748 71.490881,80.3110352 72.3652344,80.3110352 C73.0071647,80.3110352 73.5411763,80.1685398 73.9672852,79.8835449 C74.3933941,79.59855 74.725422,79.2042668 74.9633789,78.7006836 L74.9633789,74.4423828 C74.7364898,73.9332657 74.4155294,73.5182308 74.0004883,73.1972656 C73.5854471,72.8763005 73.0459018,72.7158203 72.3818359,72.7158203 C71.5074826,72.7158203 70.850344,73.0741338 70.4104004,73.7907715 C69.9704568,74.5074092 69.7504883,75.4384708 69.7504883,76.5839844 L69.7504883,76.7583008 Z M82.1850586,76.3764648 C82.1850586,75.0538671 82.5475224,73.9692425 83.2724609,73.1225586 C83.9973995,72.2758747 84.9575136,71.8525391 86.152832,71.8525391 C87.3536844,71.8525391 88.3165654,72.2758747 89.0415039,73.1225586 C89.7664424,73.9692425 90.1289062,75.0538671 90.1289062,76.3764648 L90.1289062,76.6503906 C90.1289062,77.9785223 89.7678259,79.0645303 89.0456543,79.9084473 C88.3234827,80.7523642 87.3647521,81.1743164 86.1694336,81.1743164 C84.9630474,81.1743164 83.9973995,80.7523642 83.2724609,79.9084473 C82.5475224,79.0645303 82.1850586,77.9785223 82.1850586,76.6503906 L82.1850586,76.3764648 Z M83.1811523,76.6503906 C83.1811523,77.6907604 83.4440078,78.5651006 83.9697266,79.2734375 C84.4954453,79.9817744 85.2286737,80.3359375 86.1694336,80.3359375 C87.0935919,80.3359375 87.819903,79.9817744 88.3483887,79.2734375 C88.8768744,78.5651006 89.1411133,77.6907604 89.1411133,76.6503906 L89.1411133,76.3764648 C89.1411133,75.3526967 88.8754909,74.4838903 88.3442383,73.7700195 C87.8129856,73.0561488 87.0825242,72.6992188 86.152832,72.6992188 C85.2231399,72.6992188 84.4954453,73.0561488 83.9697266,73.7700195 C83.4440078,74.4838903 83.1811523,75.3526967 83.1811523,76.3764648 L83.1811523,76.6503906 Z M92.8847656,81 L92.8847656,72.8320312 L91.3989258,72.8320312 L91.3989258,72.0185547 L92.8847656,72.0185547 L92.8847656,70.7070312 C92.8847656,69.8050085 93.1116514,69.1077499 93.5654297,68.6152344 C94.019208,68.1227189 94.652828,67.8764648 95.4663086,67.8764648 C95.6433928,67.8764648 95.8260082,67.8902993 96.0141602,67.9179688 C96.2023121,67.9456382 96.3959951,67.9843748 96.5952148,68.0341797 L96.4624023,68.855957 C96.3295892,68.8227537 96.1940111,68.7964682 96.0556641,68.7770996 C95.917317,68.757731 95.75407,68.7480469 95.565918,68.7480469 C95.0235975,68.7480469 94.6071792,68.9195946 94.3166504,69.2626953 C94.0261216,69.605796 93.8808594,70.0872365 93.8808594,70.7070312 L93.8808594,72.0185547 L95.9145508,72.0185547 L95.9145508,72.8320312 L93.8808594,72.8320312 L93.8808594,81 L92.8847656,81 Z M101.409668,76.5839844 C101.409668,75.150709 101.712643,74.0038292 102.318604,73.1433105 C102.924564,72.2827919 103.769851,71.8525391 104.854492,71.8525391 C105.468753,71.8525391 106.006915,71.9825833 106.468994,72.2426758 C106.931073,72.5027682 107.314289,72.8707658 107.618652,73.3466797 L107.618652,68.0507812 L108.614746,68.0507812 L108.614746,81 L107.80127,81 L107.660156,79.6967773 C107.355793,80.1726912 106.968427,80.5379219 106.498047,80.7924805 C106.027667,81.047039 105.474287,81.1743164 104.837891,81.1743164 C103.764318,81.1743164 102.924564,80.7744994 102.318604,79.9748535 C101.712643,79.1752076 101.409668,78.1030341 101.409668,76.7583008 L101.409668,76.5839844 Z M102.405762,76.7583008 C102.405762,77.8429416 102.622963,78.7062142 103.057373,79.3481445 C103.491783,79.9900748 104.146154,80.3110352 105.020508,80.3110352 C105.662438,80.3110352 106.19645,80.1685398 106.622559,79.8835449 C107.048667,79.59855 107.380695,79.2042668 107.618652,78.7006836 L107.618652,74.4423828 C107.391763,73.9332657 107.070803,73.5182308 106.655762,73.1972656 C106.240721,72.8763005 105.701175,72.7158203 105.037109,72.7158203 C104.162756,72.7158203 103.505617,73.0741338 103.065674,73.7907715 C102.62573,74.5074092 102.405762,75.4384708 102.405762,76.5839844 L102.405762,76.7583008 Z M114.674316,81.1743164 C113.512201,81.1743164 112.568689,80.7634318 111.84375,79.9416504 C111.118811,79.1198689 110.756348,78.0642968 110.756348,76.7749023 L110.756348,76.3183594 C110.756348,75.023431 111.122962,73.9554079 111.856201,73.1142578 C112.589441,72.2731078 113.498367,71.8525391 114.583008,71.8525391 C115.673183,71.8525391 116.515703,72.2025518 117.110596,72.9025879 C117.705488,73.6026239 118.00293,74.5447532 118.00293,75.7290039 L118.00293,76.5009766 L111.752441,76.5009766 L111.752441,76.7749023 C111.752441,77.7986705 112.011147,78.6481086 112.528564,79.3232422 C113.045982,79.9983758 113.761226,80.3359375 114.674316,80.3359375 C115.222171,80.3359375 115.725746,80.2460133 116.185059,80.0661621 C116.644371,79.8863109 117.026203,79.6442073 117.330566,79.3398438 L117.753906,80.0205078 C117.438475,80.3525407 117.024824,80.6278472 116.512939,80.8464355 C116.001055,81.0650239 115.388187,81.1743164 114.674316,81.1743164 Z M114.583008,72.6992188 C113.819332,72.6992188 113.191246,72.9731418 112.69873,73.5209961 C112.206215,74.0688504 111.918457,74.7633421 111.835449,75.6044922 L111.860352,75.6542969 L117.006836,75.6542969 L117.006836,75.4467773 C117.006836,74.6498984 116.797935,73.9927597 116.380127,73.4753418 C115.962319,72.9579238 115.363285,72.6992188 114.583008,72.6992188 Z M127.241699,76.7583008 C127.241699,78.1030341 126.93734,79.1752076 126.328613,79.9748535 C125.719886,80.7744994 124.881516,81.1743164 123.813477,81.1743164 C123.188148,81.1743164 122.638918,81.0553397 122.165771,80.8173828 C121.692625,80.5794259 121.306642,80.2418642 121.007812,79.8046875 L121.007812,84.453125 L120.011719,84.453125 L120.011719,72.0185547 L120.775391,72.0185547 L120.958008,73.4213867 C121.256837,72.9233374 121.644203,72.5373549 122.120117,72.2634277 C122.596031,71.9895006 123.154945,71.8525391 123.796875,71.8525391 C124.875982,71.8525391 125.719886,72.2827919 126.328613,73.1433105 C126.93734,74.0038292 127.241699,75.150709 127.241699,76.5839844 L127.241699,76.7583008 Z M126.245605,76.5839844 C126.245605,75.4440047 126.01872,74.5143265 125.564941,73.7949219 C125.111163,73.0755172 124.447107,72.7158203 123.572754,72.7158203 C122.914222,72.7158203 122.37606,72.8735336 121.958252,73.1889648 C121.540444,73.5043961 121.223634,73.9138972 121.007812,74.4174805 L121.007812,78.7670898 C121.240236,79.2540714 121.569497,79.637287 121.995605,79.916748 C122.421714,80.1962091 122.952959,80.3359375 123.589355,80.3359375 C124.458175,80.3359375 125.11808,80.0094434 125.569092,79.3564453 C126.020103,78.7034473 126.245605,77.8374077 126.245605,76.7583008 L126.245605,76.5839844 Z M135.160645,81 C135.099772,80.6845687 135.054118,80.4134126 135.023682,80.1865234 C134.993245,79.9596343 134.978027,79.7272147 134.978027,79.4892578 C134.66813,79.9762394 134.233727,80.3788233 133.674805,80.6970215 C133.115883,81.0152197 132.473962,81.1743164 131.749023,81.1743164 C130.869136,81.1743164 130.187096,80.9405134 129.702881,80.4729004 C129.218666,80.0052874 128.976562,79.370284 128.976562,78.5678711 C128.976562,77.7654582 129.327959,77.1152369 130.030762,76.6171875 C130.733565,76.1191381 131.646642,75.8701172 132.77002,75.8701172 L134.978027,75.8701172 L134.978027,74.7578125 C134.978027,74.1158822 134.77466,73.6123065 134.36792,73.2470703 C133.96118,72.8818341 133.387048,72.6992188 132.645508,72.6992188 C131.96484,72.6992188 131.415611,72.8652327 130.997803,73.1972656 C130.579995,73.5292985 130.371094,73.9471003 130.371094,74.4506836 L129.449707,74.4506836 L129.433105,74.4008789 C129.399902,73.7257453 129.689043,73.1322454 130.300537,72.6203613 C130.912031,72.1084773 131.710282,71.8525391 132.695312,71.8525391 C133.680343,71.8525391 134.471677,72.1043269 135.069336,72.6079102 C135.666995,73.1114934 135.96582,73.8336542 135.96582,74.7744141 L135.96582,79.1904297 C135.96582,79.505861 135.983805,79.8129868 136.019775,80.1118164 C136.055746,80.410646 136.115234,80.7067043 136.198242,81 L135.160645,81 Z M131.856934,80.2944336 C132.620609,80.2944336 133.281898,80.1132017 133.84082,79.7507324 C134.399742,79.3882632 134.778808,78.9220406 134.978027,78.3520508 L134.978027,76.6337891 L132.761719,76.6337891 C131.953772,76.6337891 131.286949,76.8260886 130.76123,77.2106934 C130.235512,77.5952981 129.972656,78.0587538 129.972656,78.6010742 C129.972656,79.1101913 130.140054,79.5196925 130.474854,79.8295898 C130.809653,80.1394872 131.270342,80.2944336 131.856934,80.2944336 Z M142.714355,72.8735352 L142.008789,72.8237305 C141.38346,72.8237305 140.870201,72.9994286 140.468994,73.3508301 C140.067788,73.7022316 139.781414,74.1850555 139.609863,74.7993164 L139.609863,81 L138.61377,81 L138.61377,72.0185547 L139.485352,72.0185547 L139.609863,73.5126953 L139.609863,73.6123047 C139.869956,73.0589165 140.218585,72.6272802 140.655762,72.3173828 C141.092938,72.0074854 141.613115,71.8525391 142.216309,71.8525391 C142.338054,71.8525391 142.454264,71.8622232 142.564941,71.8815918 C142.675619,71.9009604 142.766927,71.9217121 142.838867,71.9438477 L142.714355,72.8735352 Z M145.968262,69.7192383 L145.968262,72.0185547 L147.943848,72.0185547 L147.943848,72.8320312 L145.968262,72.8320312 L145.968262,78.684082 C145.968262,79.2706735 146.074787,79.6870919 146.287842,79.9333496 C146.500896,80.1796074 146.784503,80.3027344 147.138672,80.3027344 C147.260417,80.3027344 147.378011,80.2958171 147.491455,80.2819824 C147.6049,80.2681477 147.739094,80.2446291 147.894043,80.2114258 L148.043457,80.9501953 C147.910644,81.0166019 147.746013,81.0705564 147.549561,81.1120605 C147.353108,81.1535647 147.158041,81.1743164 146.964355,81.1743164 C146.333493,81.1743164 145.842368,80.9750996 145.490967,80.5766602 C145.139565,80.1782207 144.963867,79.5473676 144.963867,78.684082 L144.963867,72.8320312 L143.411621,72.8320312 L143.411621,72.0185547 L144.963867,72.0185547 L144.963867,69.7192383 L145.968262,69.7192383 Z M150.73291,72.0185547 L150.824219,73.4960938 C151.111981,72.9759089 151.495196,72.5719415 151.973877,72.2841797 C152.452558,71.9964178 153.021156,71.8525391 153.679688,71.8525391 C154.365889,71.8525391 154.938637,72.0171696 155.397949,72.3464355 C155.857261,72.6757015 156.186522,73.1778938 156.385742,73.8530273 C156.656902,73.2276987 157.042885,72.7379575 157.543701,72.3837891 C158.044517,72.0296206 158.649085,71.8525391 159.357422,71.8525391 C160.314783,71.8525391 161.054929,72.1707325 161.577881,72.8071289 C162.100833,73.4435253 162.362305,74.4285415 162.362305,75.762207 L162.362305,81 L161.366211,81 L161.366211,75.7456055 C161.366211,74.6388291 161.169761,73.85718 160.776855,73.4006348 C160.38395,72.9440895 159.841638,72.7158203 159.149902,72.7158203 C158.391761,72.7158203 157.805178,72.9468564 157.390137,73.4089355 C156.975096,73.8710147 156.71224,74.4672815 156.601562,75.1977539 C156.601562,75.2586266 156.602946,75.3194984 156.605713,75.3803711 C156.60848,75.4412438 156.609863,75.518717 156.609863,75.612793 L156.609863,81 L155.605469,81 L155.605469,75.7456055 C155.605469,74.6609646 155.407635,73.8848493 155.011963,73.4172363 C154.61629,72.9496233 154.072595,72.7158203 153.380859,72.7158203 C152.68359,72.7158203 152.128827,72.8915184 151.716553,73.2429199 C151.304279,73.5943214 151.015138,74.0688447 150.849121,74.6665039 L150.849121,81 L149.853027,81 L149.853027,72.0185547 L150.73291,72.0185547 Z M168.36377,81.1743164 C167.201654,81.1743164 166.258142,80.7634318 165.533203,79.9416504 C164.808265,79.1198689 164.445801,78.0642968 164.445801,76.7749023 L164.445801,76.3183594 C164.445801,75.023431 164.812415,73.9554079 165.545654,73.1142578 C166.278894,72.2731078 167.18782,71.8525391 168.272461,71.8525391 C169.362636,71.8525391 170.205157,72.2025518 170.800049,72.9025879 C171.394941,73.6026239 171.692383,74.5447532 171.692383,75.7290039 L171.692383,76.5009766 L165.441895,76.5009766 L165.441895,76.7749023 C165.441895,77.7986705 165.7006,78.6481086 166.218018,79.3232422 C166.735436,79.9983758 167.450679,80.3359375 168.36377,80.3359375 C168.911624,80.3359375 169.4152,80.2460133 169.874512,80.0661621 C170.333824,79.8863109 170.715656,79.6442073 171.02002,79.3398438 L171.443359,80.0205078 C171.127928,80.3525407 170.714277,80.6278472 170.202393,80.8464355 C169.690509,81.0650239 169.07764,81.1743164 168.36377,81.1743164 Z M168.272461,72.6992188 C167.508785,72.6992188 166.880699,72.9731418 166.388184,73.5209961 C165.895668,74.0688504 165.607911,74.7633421 165.524902,75.6044922 L165.549805,75.6542969 L170.696289,75.6542969 L170.696289,75.4467773 C170.696289,74.6498984 170.487388,73.9927597 170.06958,73.4753418 C169.651772,72.9579238 169.052738,72.6992188 168.272461,72.6992188 Z M174.581055,72.0185547 L174.672363,73.5791016 C174.965659,73.0312473 175.355792,72.6065282 175.842773,72.3049316 C176.329755,72.0033351 176.908037,71.8525391 177.577637,71.8525391 C178.5516,71.8525391 179.293129,72.1499807 179.802246,72.744873 C180.311363,73.3397653 180.565918,74.2680601 180.565918,75.5297852 L180.565918,81 L179.569824,81 L179.569824,75.5380859 C179.569824,74.5087839 179.377525,73.7810894 178.99292,73.3549805 C178.608315,72.9288716 178.061852,72.7158203 177.353516,72.7158203 C176.645179,72.7158203 176.073814,72.890135 175.639404,73.2387695 C175.204995,73.5874041 174.890951,74.0550101 174.697266,74.6416016 L174.697266,81 L173.701172,81 L173.701172,72.0185547 L174.581055,72.0185547 Z M184.716309,69.7192383 L184.716309,72.0185547 L186.691895,72.0185547 L186.691895,72.8320312 L184.716309,72.8320312 L184.716309,78.684082 C184.716309,79.2706735 184.822834,79.6870919 185.035889,79.9333496 C185.248943,80.1796074 185.53255,80.3027344 185.886719,80.3027344 C186.008464,80.3027344 186.126057,80.2958171 186.239502,80.2819824 C186.352947,80.2681477 186.487141,80.2446291 186.64209,80.2114258 L186.791504,80.9501953 C186.658691,81.0166019 186.49406,81.0705564 186.297607,81.1120605 C186.101155,81.1535647 185.906088,81.1743164 185.712402,81.1743164 C185.08154,81.1743164 184.590415,80.9750996 184.239014,80.5766602 C183.887612,80.1782207 183.711914,79.5473676 183.711914,78.684082 L183.711914,72.8320312 L182.159668,72.8320312 L182.159668,72.0185547 L183.711914,72.0185547 L183.711914,69.7192383 L184.716309,69.7192383 Z" id="Director,-Head-of-de" fill="#575757"></path>
                            <path d="M0,41.5 L18,30" id="Line-2" stroke="#252525" opacity="0.253000453" stroke-linecap="square"></path>
                            <ellipse id="Oval" fill="#252525" transform="translate(19.500000, 28.437500) rotate(90.000000) translate(-19.500000, -28.437500) " cx="19.5" cy="28.4375" rx="2.4375" ry="2.5"></ellipse>
                        </g>
                        <g id="Group-16" transform="translate(142.000000, 146.000000)">
                            <path d="M0.497070313,73 L0.497070313,69.0830078 L10.15625,58.7265625 C11.5507882,57.1269451 12.5419892,55.776861 13.1298828,54.6762695 C13.7177764,53.5756781 14.0117188,52.5537157 14.0117188,51.6103516 C14.0117188,50.3525328 13.6733432,49.3237345 12.996582,48.5239258 C12.3198208,47.7241171 11.3593812,47.3242188 10.1152344,47.3242188 C8.7343681,47.3242188 7.68506218,47.7924758 6.96728516,48.7290039 C6.24950813,49.665532 5.890625,50.9130781 5.890625,52.4716797 L0.06640625,52.4716797 L0.025390625,52.3486328 C-0.0429690918,49.65526 0.842275962,47.3754976 2.68115234,45.5092773 C4.52002873,43.6430571 6.99803129,42.7099609 10.1152344,42.7099609 C13.1914216,42.7099609 15.6113193,43.5097576 17.375,45.109375 C19.1386807,46.7089924 20.0205078,48.8417835 20.0205078,51.5078125 C20.0205078,53.312509 19.5249073,54.9804611 18.5336914,56.5117188 C17.5424755,58.0429764 15.898449,60.0390502 13.6015625,62.5 L8.29003906,68.3037109 L8.33105469,68.40625 L16.0830078,68.40625 L16.3291016,65.453125 L20.8818359,65.453125 L20.8818359,73 L0.497070313,73 Z M39.3183594,49.9492188 L38.7851563,47.9394531 L30.7460938,47.9394531 L29.9052734,54.8300781 C30.4658231,54.4199198 31.1357383,54.0815443 31.9150391,53.8149414 C32.6943398,53.5483385 33.5556593,53.4082032 34.4990234,53.3945312 C37.3701315,53.3535154 39.591789,54.2216708 41.1640625,55.9990234 C42.736336,57.7763761 43.5224609,60.2509607 43.5224609,63.4228516 C43.5224609,66.2939597 42.6577235,68.679678 40.9282227,70.5800781 C39.1987218,72.4804783 36.7070475,73.4306641 33.453125,73.4306641 C30.7187363,73.4306641 28.3740332,72.6821364 26.4189453,71.1850586 C24.4638574,69.6879808 23.5205075,67.6269663 23.5888672,65.0019531 L23.6298828,64.8994141 L29.3720703,64.6123047 C29.3720703,65.9384832 29.7480431,66.9741174 30.5,67.7192383 C31.2519569,68.4643592 32.236322,68.8369141 33.453125,68.8369141 C34.8476632,68.8369141 35.8798795,68.3378956 36.5498047,67.3398438 C37.2197299,66.3417919 37.5546875,65.0498126 37.5546875,63.4638672 C37.5546875,61.7412023 37.1992223,60.3603568 36.4882813,59.3212891 C35.7773402,58.2822214 34.7177805,57.7626953 33.3095703,57.7626953 C32.174799,57.7626953 31.3032257,57.9746073 30.6948242,58.3984375 C30.0864227,58.8222677 29.652345,59.3964808 29.3925781,60.1210938 L24.1015625,59.7724609 L25.8242188,43.140625 L43.0097656,43.140625 L43.0097656,49.9492188 L39.3183594,49.9492188 Z M45.6142578,48.8828125 C45.6142578,47.1191318 46.1850529,45.6494199 47.3266602,44.4736328 C48.4682674,43.2978457 50.057607,42.7099609 52.0947266,42.7099609 C54.15919,42.7099609 55.7587834,43.2944277 56.8935547,44.4633789 C58.028326,45.6323301 58.5957031,47.1054599 58.5957031,48.8828125 L58.5957031,50.4619141 C58.5957031,52.2255948 58.028326,53.6884708 56.8935547,54.8505859 C55.7587834,56.0127011 54.1728617,56.59375 52.1357422,56.59375 C50.0849507,56.59375 48.4853573,56.0127011 47.3369141,54.8505859 C46.1884708,53.6884708 45.6142578,52.2255948 45.6142578,50.4619141 L45.6142578,48.8828125 Z M49.5927734,50.4619141 C49.5927734,51.2548868 49.8115213,51.921384 50.2490234,52.4614258 C50.6865256,53.0014675 51.3154256,53.2714844 52.1357422,53.2714844 C52.9287149,53.2714844 53.5439431,53.0014675 53.9814453,52.4614258 C54.4189475,51.921384 54.6376953,51.2548868 54.6376953,50.4619141 L54.6376953,48.8828125 C54.6376953,48.0898398 54.4155296,47.4165067 53.9711914,46.862793 C53.5268532,46.3090793 52.9013712,46.0322266 52.0947266,46.0322266 C51.2880819,46.0322266 50.6694357,46.3090793 50.2387695,46.862793 C49.8081033,47.4165067 49.5927734,48.0898398 49.5927734,48.8828125 L49.5927734,50.4619141 Z M59.8876953,65.6787109 C59.8876953,63.9287022 60.4619083,62.4658262 61.6103516,61.2900391 C62.7587948,60.1142519 64.3515523,59.5263672 66.3886719,59.5263672 C68.4394634,59.5263672 70.0356388,60.110834 71.1772461,61.2797852 C72.3188534,62.4487363 72.8896484,63.9150302 72.8896484,65.6787109 L72.8896484,67.2578125 C72.8896484,69.0351651 72.3222713,70.504877 71.1875,71.6669922 C70.0527287,72.8291074 68.4668071,73.4101562 66.4296875,73.4101562 C64.378896,73.4101562 62.7758847,72.8256894 61.6206055,71.6567383 C60.4653263,70.4877871 59.8876953,69.0214932 59.8876953,67.2578125 L59.8876953,65.6787109 Z M63.8662109,67.2578125 C63.8662109,68.0371133 64.1020484,68.7036105 64.5737305,69.2573242 C65.0454125,69.8110379 65.6640587,70.0878906 66.4296875,70.0878906 C67.3183638,70.0878906 67.9540996,69.8315455 68.3369141,69.3188477 C68.7197285,68.8061498 68.9111328,68.1191449 68.9111328,67.2578125 L68.9111328,65.6787109 C68.9111328,64.8994102 68.692385,64.2329129 68.2548828,63.6791992 C67.8173806,63.1254855 67.1953165,62.8486328 66.3886719,62.8486328 C65.5683553,62.8486328 64.9428732,63.1254855 64.512207,63.6791992 C64.0815408,64.2329129 63.8662109,64.8994102 63.8662109,65.6787109 L63.8662109,67.2578125 Z M53.8378906,70.7646484 L50.9257813,69.2265625 L65.5068359,45.8886719 L68.4189453,47.4267578 L53.8378906,70.7646484 Z" id="25%" fill="#252525"></path>
                            <path d="M1.54003906,92.9780273 L1.54003906,98 L0.543945312,98 L0.543945312,85.9140625 L4.7109375,85.9140625 C5.97819644,85.9140625 6.95906228,86.2377897 7.65356445,86.8852539 C8.34806662,87.5327181 8.6953125,88.3849231 8.6953125,89.4418945 C8.6953125,90.5154676 8.34806662,91.3732064 7.65356445,92.0151367 C6.95906228,92.657067 5.97819644,92.9780273 4.7109375,92.9780273 L1.54003906,92.9780273 Z M1.54003906,92.1313477 L4.7109375,92.1313477 C5.70703623,92.1313477 6.45409907,91.8781764 6.95214844,91.3718262 C7.4501978,90.865476 7.69921875,90.2277057 7.69921875,89.4584961 C7.69921875,88.6837526 7.4501978,88.0404485 6.95214844,87.5285645 C6.45409907,87.0166804 5.70703623,86.7607422 4.7109375,86.7607422 L1.54003906,86.7607422 L1.54003906,92.1313477 Z M14.8959961,89.8735352 L14.1904297,89.8237305 C13.565101,89.8237305 13.0518412,89.9994286 12.6506348,90.3508301 C12.2494283,90.7022316 11.9630542,91.1850555 11.7915039,91.7993164 L11.7915039,98 L10.7954102,98 L10.7954102,89.0185547 L11.6669922,89.0185547 L11.7915039,90.5126953 L11.7915039,90.6123047 C12.0515964,90.0589165 12.4002257,89.6272802 12.8374023,89.3173828 C13.274579,89.0074854 13.7947561,88.8525391 14.3979492,88.8525391 C14.5196946,88.8525391 14.6359044,88.8622232 14.746582,88.8815918 C14.8572597,88.9009604 14.9485673,88.9217121 15.0205078,88.9438477 L14.8959961,89.8735352 Z M16.0415039,93.3764648 C16.0415039,92.0538671 16.4039677,90.9692425 17.1289062,90.1225586 C17.8538448,89.2758747 18.8139589,88.8525391 20.0092773,88.8525391 C21.2101297,88.8525391 22.1730107,89.2758747 22.8979492,90.1225586 C23.6228877,90.9692425 23.9853516,92.0538671 23.9853516,93.3764648 L23.9853516,93.6503906 C23.9853516,94.9785223 23.6242712,96.0645303 22.9020996,96.9084473 C22.179928,97.7523642 21.2211974,98.1743164 20.0258789,98.1743164 C18.8194927,98.1743164 17.8538448,97.7523642 17.1289062,96.9084473 C16.4039677,96.0645303 16.0415039,94.9785223 16.0415039,93.6503906 L16.0415039,93.3764648 Z M17.0375977,93.6503906 C17.0375977,94.6907604 17.3004531,95.5651006 17.8261719,96.2734375 C18.3518906,96.9817744 19.085119,97.3359375 20.0258789,97.3359375 C20.9500372,97.3359375 21.6763483,96.9817744 22.204834,96.2734375 C22.7333197,95.5651006 22.9975586,94.6907604 22.9975586,93.6503906 L22.9975586,93.3764648 C22.9975586,92.3526967 22.7319363,91.4838903 22.2006836,90.7700195 C21.6694309,90.0561488 20.9389695,89.6992188 20.0092773,89.6992188 C19.0795852,89.6992188 18.3518906,90.0561488 17.8261719,90.7700195 C17.3004531,91.4838903 17.0375977,92.3526967 17.0375977,93.3764648 L17.0375977,93.6503906 Z M25.6704102,93.5839844 C25.6704102,92.150709 25.9733856,91.0038292 26.5793457,90.1433105 C27.1853058,89.2827919 28.0305935,88.8525391 29.1152344,88.8525391 C29.7294953,88.8525391 30.2676572,88.9825833 30.7297363,89.2426758 C31.1918155,89.5027682 31.575031,89.8707658 31.8793945,90.3466797 L31.8793945,85.0507812 L32.8754883,85.0507812 L32.8754883,98 L32.0620117,98 L31.9208984,96.6967773 C31.6165349,97.1726912 31.229169,97.5379219 30.7587891,97.7924805 C30.2884091,98.047039 29.7350292,98.1743164 29.0986328,98.1743164 C28.0250597,98.1743164 27.1853058,97.7744994 26.5793457,96.9748535 C25.9733856,96.1752076 25.6704102,95.1030341 25.6704102,93.7583008 L25.6704102,93.5839844 Z M26.6665039,93.7583008 C26.6665039,94.8429416 26.8837055,95.7062142 27.3181152,96.3481445 C27.752525,96.9900748 28.4068967,97.3110352 29.28125,97.3110352 C29.9231803,97.3110352 30.4571919,97.1685398 30.8833008,96.8835449 C31.3094097,96.59855 31.6414376,96.2042668 31.8793945,95.7006836 L31.8793945,91.4423828 C31.6525054,90.9332657 31.331545,90.5182308 30.9165039,90.1972656 C30.5014628,89.8763005 29.9619174,89.7158203 29.2978516,89.7158203 C28.4234982,89.7158203 27.7663596,90.0741338 27.326416,90.7907715 C26.8864724,91.5074092 26.6665039,92.4384708 26.6665039,93.5839844 L26.6665039,93.7583008 Z M41.4003906,96.5390625 C41.1126288,97.0647813 40.7266463,97.4687486 40.2424316,97.7509766 C39.758217,98.0332045 39.1840854,98.1743164 38.5200195,98.1743164 C37.5737257,98.1743164 36.8321967,97.8533561 36.2954102,97.2114258 C35.7586236,96.5694955 35.4902344,95.5734117 35.4902344,94.2231445 L35.4902344,89.0185547 L36.4863281,89.0185547 L36.4863281,94.2397461 C36.4863281,95.3354547 36.6730938,96.1212541 37.0466309,96.597168 C37.4201679,97.0730818 37.9500291,97.3110352 38.6362305,97.3110352 C39.3833045,97.3110352 39.9795713,97.1436377 40.4250488,96.8088379 C40.8705263,96.474038 41.1845694,96.0161162 41.3671875,95.4350586 L41.3671875,89.0185547 L42.3632812,89.0185547 L42.3632812,98 L41.4833984,98 L41.4003906,96.5390625 Z M48.2734375,97.3359375 C48.9098339,97.3359375 49.4728979,97.1477883 49.9626465,96.7714844 C50.452395,96.3951804 50.6972656,95.8722364 50.6972656,95.2026367 L51.5854492,95.2026367 L51.6020508,95.2524414 C51.6241863,96.0825237 51.2976922,96.7770154 50.6225586,97.3359375 C49.947425,97.8948596 49.1643925,98.1743164 48.2734375,98.1743164 C47.078119,98.1743164 46.1470574,97.7537477 45.4802246,96.9125977 C44.8133918,96.0714476 44.4799805,94.9951237 44.4799805,93.6835938 L44.4799805,93.3349609 C44.4799805,92.0289648 44.8120084,90.9554079 45.4760742,90.1142578 C46.14014,89.2731078 47.0698182,88.8525391 48.2651367,88.8525391 C49.2280322,88.8525391 50.030433,89.1430635 50.6723633,89.7241211 C51.3142936,90.3051787 51.6241863,91.0688429 51.6020508,92.0151367 L51.5854492,92.0649414 L50.6972656,92.0649414 C50.6972656,91.3455368 50.4620792,90.7714051 49.9916992,90.3425293 C49.5213193,89.9136535 48.9458042,89.6992188 48.2651367,89.6992188 C47.3243768,89.6992188 46.6243513,90.0450812 46.1650391,90.7368164 C45.7057269,91.4285516 45.4760742,92.2945912 45.4760742,93.3349609 L45.4760742,93.6835938 C45.4760742,94.7405652 45.7057269,95.6135219 46.1650391,96.3024902 C46.6243513,96.9914585 47.3271437,97.3359375 48.2734375,97.3359375 Z M55.2875977,86.7192383 L55.2875977,89.0185547 L57.2631836,89.0185547 L57.2631836,89.8320312 L55.2875977,89.8320312 L55.2875977,95.684082 C55.2875977,96.2706735 55.3941233,96.6870919 55.6071777,96.9333496 C55.8202322,97.1796074 56.1038394,97.3027344 56.4580078,97.3027344 C56.5797532,97.3027344 56.6973464,97.2958171 56.810791,97.2819824 C56.9242356,97.2681477 57.0584302,97.2446291 57.2133789,97.2114258 L57.362793,97.9501953 C57.2299798,98.0166019 57.0653493,98.0705564 56.8688965,98.1120605 C56.6724437,98.1535647 56.4773773,98.1743164 56.2836914,98.1743164 C55.6528289,98.1743164 55.1617042,97.9750996 54.8103027,97.5766602 C54.4589012,97.1782207 54.2832031,96.5473676 54.2832031,95.684082 L54.2832031,89.8320312 L52.730957,89.8320312 L52.730957,89.0185547 L54.2832031,89.0185547 L54.2832031,86.7192383 L55.2875977,86.7192383 Z M59.0478516,99.0375977 L58.1430664,99.0375977 L63.1899414,85.9140625 L64.0864258,85.9140625 L59.0478516,99.0375977 Z M67.1826172,92.9780273 L67.1826172,98 L66.1865234,98 L66.1865234,85.9140625 L70.3535156,85.9140625 C71.6207746,85.9140625 72.6016404,86.2377897 73.2961426,86.8852539 C73.9906447,87.5327181 74.3378906,88.3849231 74.3378906,89.4418945 C74.3378906,90.5154676 73.9906447,91.3732064 73.2961426,92.0151367 C72.6016404,92.657067 71.6207746,92.9780273 70.3535156,92.9780273 L67.1826172,92.9780273 Z M67.1826172,92.1313477 L70.3535156,92.1313477 C71.3496144,92.1313477 72.0966772,91.8781764 72.5947266,91.3718262 C73.0927759,90.865476 73.3417969,90.2277057 73.3417969,89.4584961 C73.3417969,88.6837526 73.0927759,88.0404485 72.5947266,87.5285645 C72.0966772,87.0166804 71.3496144,86.7607422 70.3535156,86.7607422 L67.1826172,86.7607422 L67.1826172,92.1313477 Z M80.5385742,89.8735352 L79.8330078,89.8237305 C79.2076792,89.8237305 78.6944193,89.9994286 78.2932129,90.3508301 C77.8920065,90.7022316 77.6056324,91.1850555 77.434082,91.7993164 L77.434082,98 L76.4379883,98 L76.4379883,89.0185547 L77.3095703,89.0185547 L77.434082,90.5126953 L77.434082,90.6123047 C77.6941745,90.0589165 78.0428038,89.6272802 78.4799805,89.3173828 C78.9171571,89.0074854 79.4373342,88.8525391 80.0405273,88.8525391 C80.1622727,88.8525391 80.2784825,88.8622232 80.3891602,88.8815918 C80.4998378,88.9009604 80.5911455,88.9217121 80.6630859,88.9438477 L80.5385742,89.8735352 Z M81.684082,93.3764648 C81.684082,92.0538671 82.0465459,90.9692425 82.7714844,90.1225586 C83.4964229,89.2758747 84.456537,88.8525391 85.6518555,88.8525391 C86.8527078,88.8525391 87.8155888,89.2758747 88.5405273,90.1225586 C89.2654659,90.9692425 89.6279297,92.0538671 89.6279297,93.3764648 L89.6279297,93.6503906 C89.6279297,94.9785223 89.2668493,96.0645303 88.5446777,96.9084473 C87.8225062,97.7523642 86.8637755,98.1743164 85.668457,98.1743164 C84.4620708,98.1743164 83.4964229,97.7523642 82.7714844,96.9084473 C82.0465459,96.0645303 81.684082,94.9785223 81.684082,93.6503906 L81.684082,93.3764648 Z M82.6801758,93.6503906 C82.6801758,94.6907604 82.9430312,95.5651006 83.46875,96.2734375 C83.9944688,96.9817744 84.7276971,97.3359375 85.668457,97.3359375 C86.5926153,97.3359375 87.3189264,96.9817744 87.8474121,96.2734375 C88.3758978,95.5651006 88.6401367,94.6907604 88.6401367,93.6503906 L88.6401367,93.3764648 C88.6401367,92.3526967 88.3745144,91.4838903 87.8432617,90.7700195 C87.3120091,90.0561488 86.5815476,89.6992188 85.6518555,89.6992188 C84.7221633,89.6992188 83.9944688,90.0561488 83.46875,90.7700195 C82.9430312,91.4838903 82.6801758,92.3526967 82.6801758,93.3764648 L82.6801758,93.6503906 Z M92.8735352,89.0185547 L92.8735352,98.7387695 C92.8735352,99.6629278 92.6521832,100.375404 92.2094727,100.876221 C91.7667621,101.377037 91.1525104,101.627441 90.3666992,101.627441 C90.2006828,101.627441 90.0443529,101.613607 89.8977051,101.585938 C89.7510572,101.558268 89.5974943,101.519531 89.4370117,101.469727 L89.5449219,100.631348 C89.633464,100.659017 89.7552076,100.686686 89.9101562,100.714355 C90.0651049,100.742025 90.200683,100.755859 90.3168945,100.755859 C90.80941,100.755859 91.194009,100.585695 91.4707031,100.245361 C91.7473972,99.9050276 91.8857422,99.4028354 91.8857422,98.7387695 L91.8857422,89.0185547 L92.8735352,89.0185547 Z M92.8237305,86.4121094 L91.8359375,86.4121094 L91.8359375,85.0507812 L92.8237305,85.0507812 L92.8237305,86.4121094 Z M99.1323242,98.1743164 C97.970209,98.1743164 97.0266963,97.7634318 96.3017578,96.9416504 C95.5768193,96.1198689 95.2143555,95.0642968 95.2143555,93.7749023 L95.2143555,93.3183594 C95.2143555,92.023431 95.5809696,90.9554079 96.314209,90.1142578 C97.0474483,89.2731078 97.9563748,88.8525391 99.0410156,88.8525391 C100.13119,88.8525391 100.973711,89.2025518 101.568604,89.9025879 C102.163496,90.6026239 102.460938,91.5447532 102.460938,92.7290039 L102.460938,93.5009766 L96.2104492,93.5009766 L96.2104492,93.7749023 C96.2104492,94.7986705 96.4691543,95.6481086 96.9865723,96.3232422 C97.5039902,96.9983758 98.2192337,97.3359375 99.1323242,97.3359375 C99.6801785,97.3359375 100.183754,97.2460133 100.643066,97.0661621 C101.102379,96.8863109 101.484211,96.6442073 101.788574,96.3398438 L102.211914,97.0205078 C101.896483,97.3525407 101.482831,97.6278472 100.970947,97.8464355 C100.459063,98.0650239 99.846195,98.1743164 99.1323242,98.1743164 Z M99.0410156,89.6992188 C98.2773399,89.6992188 97.6492538,89.9731418 97.1567383,90.5209961 C96.6642228,91.0688504 96.3764653,91.7633421 96.293457,92.6044922 L96.3183594,92.6542969 L101.464844,92.6542969 L101.464844,92.4467773 C101.464844,91.6498984 101.255943,90.9927597 100.838135,90.4753418 C100.420327,89.9579238 99.821293,89.6992188 99.0410156,89.6992188 Z M107.756836,97.3359375 C108.393232,97.3359375 108.956296,97.1477883 109.446045,96.7714844 C109.935793,96.3951804 110.180664,95.8722364 110.180664,95.2026367 L111.068848,95.2026367 L111.085449,95.2524414 C111.107585,96.0825237 110.781091,96.7770154 110.105957,97.3359375 C109.430823,97.8948596 108.647791,98.1743164 107.756836,98.1743164 C106.561517,98.1743164 105.630456,97.7537477 104.963623,96.9125977 C104.29679,96.0714476 103.963379,94.9951237 103.963379,93.6835938 L103.963379,93.3349609 C103.963379,92.0289648 104.295407,90.9554079 104.959473,90.1142578 C105.623538,89.2731078 106.553217,88.8525391 107.748535,88.8525391 C108.711431,88.8525391 109.513831,89.1430635 110.155762,89.7241211 C110.797692,90.3051787 111.107585,91.0688429 111.085449,92.0151367 L111.068848,92.0649414 L110.180664,92.0649414 C110.180664,91.3455368 109.945478,90.7714051 109.475098,90.3425293 C109.004718,89.9136535 108.429203,89.6992188 107.748535,89.6992188 C106.807775,89.6992188 106.10775,90.0450812 105.648438,90.7368164 C105.189125,91.4285516 104.959473,92.2945912 104.959473,93.3349609 L104.959473,93.6835938 C104.959473,94.7405652 105.189125,95.6135219 105.648438,96.3024902 C106.10775,96.9914585 106.810542,97.3359375 107.756836,97.3359375 Z M114.770996,86.7192383 L114.770996,89.0185547 L116.746582,89.0185547 L116.746582,89.8320312 L114.770996,89.8320312 L114.770996,95.684082 C114.770996,96.2706735 114.877522,96.6870919 115.090576,96.9333496 C115.303631,97.1796074 115.587238,97.3027344 115.941406,97.3027344 C116.063152,97.3027344 116.180745,97.2958171 116.294189,97.2819824 C116.407634,97.2681477 116.541829,97.2446291 116.696777,97.2114258 L116.846191,97.9501953 C116.713378,98.0166019 116.548748,98.0705564 116.352295,98.1120605 C116.155842,98.1535647 115.960776,98.1743164 115.76709,98.1743164 C115.136227,98.1743164 114.645103,97.9750996 114.293701,97.5766602 C113.9423,97.1782207 113.766602,96.5473676 113.766602,95.684082 L113.766602,89.8320312 L112.214355,89.8320312 L112.214355,89.0185547 L113.766602,89.0185547 L113.766602,86.7192383 L114.770996,86.7192383 Z M6.35449219,121.555664 L6.40429687,121.555664 L10.9033203,110.914062 L12.1152344,110.914062 L12.1152344,123 L11.1191406,123 L11.1191406,112.848145 L11.0693359,112.839844 L6.73632812,123 L6.02246094,123 L1.58984375,112.59082 L1.54003906,112.599121 L1.54003906,123 L0.543945312,123 L0.543945312,110.914062 L1.87207031,110.914062 L6.35449219,121.555664 Z M20.6567383,123 C20.5958656,122.684569 20.5502117,122.413413 20.5197754,122.186523 C20.489339,121.959634 20.4741211,121.727215 20.4741211,121.489258 C20.1642237,121.976239 19.7298205,122.378823 19.1708984,122.697021 C18.6119764,123.01522 17.9700557,123.174316 17.2451172,123.174316 C16.36523,123.174316 15.6831893,122.940513 15.1989746,122.4729 C14.7147599,122.005287 14.4726562,121.370284 14.4726562,120.567871 C14.4726562,119.765458 14.8240525,119.115237 15.5268555,118.617188 C16.2296585,118.119138 17.1427353,117.870117 18.2661133,117.870117 L20.4741211,117.870117 L20.4741211,116.757812 C20.4741211,116.115882 20.270754,115.612307 19.8640137,115.24707 C19.4572734,114.881834 18.8831417,114.699219 18.1416016,114.699219 C17.4609341,114.699219 16.9117046,114.865233 16.4938965,115.197266 C16.0760884,115.529299 15.8671875,115.9471 15.8671875,116.450684 L14.9458008,116.450684 L14.9291992,116.400879 C14.8959959,115.725745 15.1851369,115.132245 15.7966309,114.620361 C16.4081248,114.108477 17.2063753,113.852539 18.1914062,113.852539 C19.1764372,113.852539 19.9677704,114.104327 20.5654297,114.60791 C21.1630889,115.111493 21.4619141,115.833654 21.4619141,116.774414 L21.4619141,121.19043 C21.4619141,121.505861 21.4798989,121.812987 21.5158691,122.111816 C21.5518394,122.410646 21.6113277,122.706704 21.6943359,123 L20.6567383,123 Z M17.3530273,122.294434 C18.116703,122.294434 18.777992,122.113202 19.3369141,121.750732 C19.8958361,121.388263 20.2749013,120.922041 20.4741211,120.352051 L20.4741211,118.633789 L18.2578125,118.633789 C17.4498658,118.633789 16.783043,118.826089 16.2573242,119.210693 C15.7316054,119.595298 15.46875,120.058754 15.46875,120.601074 C15.46875,121.110191 15.6361474,121.519692 15.9709473,121.82959 C16.3057471,122.139487 16.7664359,122.294434 17.3530273,122.294434 Z M24.9897461,114.018555 L25.0810547,115.579102 C25.3743504,115.031247 25.7644832,114.606528 26.2514648,114.304932 C26.7384464,114.003335 27.3167284,113.852539 27.9863281,113.852539 C28.9602913,113.852539 29.7018204,114.149981 30.2109375,114.744873 C30.7200546,115.339765 30.9746094,116.26806 30.9746094,117.529785 L30.9746094,123 L29.9785156,123 L29.9785156,117.538086 C29.9785156,116.508784 29.7862161,115.781089 29.4016113,115.35498 C29.0170065,114.928872 28.4705439,114.71582 27.762207,114.71582 C27.0538702,114.71582 26.4825054,114.890135 26.0480957,115.23877 C25.613686,115.587404 25.2996429,116.05501 25.105957,116.641602 L25.105957,123 L24.1098633,123 L24.1098633,114.018555 L24.9897461,114.018555 Z M39.2587891,123 C39.1979164,122.684569 39.1522625,122.413413 39.1218262,122.186523 C39.0913898,121.959634 39.0761719,121.727215 39.0761719,121.489258 C38.7662745,121.976239 38.3318713,122.378823 37.7729492,122.697021 C37.2140272,123.01522 36.5721065,123.174316 35.847168,123.174316 C34.9672808,123.174316 34.2852401,122.940513 33.8010254,122.4729 C33.3168107,122.005287 33.074707,121.370284 33.074707,120.567871 C33.074707,119.765458 33.4261033,119.115237 34.1289062,118.617188 C34.8317092,118.119138 35.744786,117.870117 36.8681641,117.870117 L39.0761719,117.870117 L39.0761719,116.757812 C39.0761719,116.115882 38.8728048,115.612307 38.4660645,115.24707 C38.0593241,114.881834 37.4851925,114.699219 36.7436523,114.699219 C36.0629849,114.699219 35.5137553,114.865233 35.0959473,115.197266 C34.6781392,115.529299 34.4692383,115.9471 34.4692383,116.450684 L33.5478516,116.450684 L33.53125,116.400879 C33.4980467,115.725745 33.7871877,115.132245 34.3986816,114.620361 C35.0101756,114.108477 35.8084261,113.852539 36.793457,113.852539 C37.778488,113.852539 38.5698212,114.104327 39.1674805,114.60791 C39.7651397,115.111493 40.0639648,115.833654 40.0639648,116.774414 L40.0639648,121.19043 C40.0639648,121.505861 40.0819497,121.812987 40.1179199,122.111816 C40.1538902,122.410646 40.2133785,122.706704 40.2963867,123 L39.2587891,123 Z M35.9550781,122.294434 C36.7187538,122.294434 37.3800428,122.113202 37.9389648,121.750732 C38.4978869,121.388263 38.8769521,120.922041 39.0761719,120.352051 L39.0761719,118.633789 L36.8598633,118.633789 C36.0519165,118.633789 35.3850938,118.826089 34.859375,119.210693 C34.3336562,119.595298 34.0708008,120.058754 34.0708008,120.601074 C34.0708008,121.110191 34.2381982,121.519692 34.572998,121.82959 C34.9077979,122.139487 35.3684867,122.294434 35.9550781,122.294434 Z M42.3549805,118.583984 C42.3549805,117.150709 42.657956,116.003829 43.263916,115.143311 C43.8698761,114.282792 44.7151638,113.852539 45.7998047,113.852539 C46.4362011,113.852539 46.989581,113.989501 47.4599609,114.263428 C47.9303409,114.537355 48.3177068,114.926104 48.6220703,115.429688 L48.7631836,114.018555 L49.5683594,114.018555 L49.5683594,123.049805 C49.5683594,124.195318 49.2529328,125.077959 48.6220703,125.697754 C47.9912078,126.317549 47.0974993,126.627441 45.940918,126.627441 C45.5092752,126.627441 45.0485864,126.57487 44.5588379,126.469727 C44.0690893,126.364583 43.6416034,126.220704 43.2763672,126.038086 L43.4672852,125.199707 C43.8269875,125.376791 44.210203,125.510986 44.6169434,125.602295 C45.0236837,125.693604 45.4594703,125.739258 45.9243164,125.739258 C46.8097375,125.739258 47.4710265,125.512372 47.9082031,125.058594 C48.3453798,124.604815 48.5639648,123.935226 48.5639648,123.049805 L48.5639648,121.779785 C48.2596013,122.22803 47.8736189,122.572509 47.4060059,122.813232 C46.9383928,123.053956 46.397464,123.174316 45.7832031,123.174316 C44.70963,123.174316 43.8698761,122.773116 43.263916,121.970703 C42.657956,121.16829 42.3549805,120.0975 42.3549805,118.758301 L42.3549805,118.583984 Z M43.3510742,118.758301 C43.3510742,119.842942 43.5696593,120.706214 44.0068359,121.348145 C44.4440126,121.990075 45.0997678,122.311035 45.9741211,122.311035 C46.6049836,122.311035 47.1348449,122.16854 47.5637207,121.883545 C47.9925965,121.59855 48.3260079,121.207034 48.5639648,120.708984 L48.5639648,116.425781 C48.3370757,115.922198 48.0147319,115.511313 47.5969238,115.193115 C47.1791157,114.874917 46.6437207,114.71582 45.9907227,114.71582 C45.1163693,114.71582 44.4578473,115.075517 44.0151367,115.794922 C43.5724262,116.514327 43.3510742,117.444005 43.3510742,118.583984 L43.3510742,118.758301 Z M55.5864258,123.174316 C54.4243106,123.174316 53.4807979,122.763432 52.7558594,121.94165 C52.0309209,121.119869 51.668457,120.064297 51.668457,118.774902 L51.668457,118.318359 C51.668457,117.023431 52.0350712,115.955408 52.7683105,115.114258 C53.5015499,114.273108 54.4104763,113.852539 55.4951172,113.852539 C56.5852919,113.852539 57.4278128,114.202552 58.0227051,114.902588 C58.6175974,115.602624 58.9150391,116.544753 58.9150391,117.729004 L58.9150391,118.500977 L52.6645508,118.500977 L52.6645508,118.774902 C52.6645508,119.79867 52.9232559,120.648109 53.4406738,121.323242 C53.9580918,121.998376 54.6733353,122.335938 55.5864258,122.335938 C56.1342801,122.335938 56.6378558,122.246013 57.097168,122.066162 C57.5564802,121.886311 57.9383123,121.644207 58.2426758,121.339844 L58.6660156,122.020508 C58.3505844,122.352541 57.9369329,122.627847 57.4250488,122.846436 C56.9131648,123.065024 56.3002965,123.174316 55.5864258,123.174316 Z M55.4951172,114.699219 C54.7314415,114.699219 54.1033553,114.973142 53.6108398,115.520996 C53.1183244,116.06885 52.8305668,116.763342 52.7475586,117.604492 L52.7724609,117.654297 L57.9189453,117.654297 L57.9189453,117.446777 C57.9189453,116.649898 57.7100444,115.99276 57.2922363,115.475342 C56.8744282,114.957924 56.2753945,114.699219 55.4951172,114.699219 Z M65.0244141,114.873535 L64.3188477,114.82373 C63.693519,114.82373 63.1802592,114.999429 62.7790527,115.35083 C62.3778463,115.702232 62.0914722,116.185056 61.9199219,116.799316 L61.9199219,123 L60.9238281,123 L60.9238281,114.018555 L61.7954102,114.018555 L61.9199219,115.512695 L61.9199219,115.612305 C62.1800143,115.058917 62.5286436,114.62728 62.9658203,114.317383 C63.402997,114.007485 63.9231741,113.852539 64.5263672,113.852539 C64.6481126,113.852539 64.7643224,113.862223 64.875,113.881592 C64.9856776,113.90096 65.0769853,113.921712 65.1489258,113.943848 L65.0244141,114.873535 Z" id="Product/Project-Mana" fill="#575757"></path>
                            <path d="M25.5,23.5 L24.5,0.5" id="Line-2" stroke="#252525" opacity="0.253000453" stroke-linecap="square" transform="translate(25.000000, 12.000000) scale(-1, 1) translate(-25.000000, -12.000000) "></path>
                            <ellipse id="Oval-Copy" fill="#252525" transform="translate(24.500000, 26.437500) rotate(90.000000) translate(-24.500000, -26.437500) " cx="24.5" cy="26.4375" rx="2.4375" ry="2.5"></ellipse>
                        </g>
                        <g id="Group-17" transform="translate(0.000000, 1.000000)">
                            <path d="M1.41699219,31 L1.41699219,27.0830078 L11.0761719,16.7265625 C12.4707101,15.1269451 13.4619111,13.776861 14.0498047,12.6762695 C14.6376983,11.5756781 14.9316406,10.5537157 14.9316406,9.61035156 C14.9316406,8.35253277 14.5932651,7.32373447 13.9165039,6.52392578 C13.2397427,5.72411709 12.2793031,5.32421875 11.0351563,5.32421875 C9.65428997,5.32421875 8.60498406,5.79247579 7.88720703,6.72900391 C7.16943,7.66553203 6.81054688,8.91307814 6.81054688,10.4716797 L0.986328125,10.4716797 L0.9453125,10.3486328 C0.876952783,7.65525997 1.76219784,5.37549761 3.60107422,3.50927734 C5.4399506,1.64305708 7.91795316,0.709960938 11.0351563,0.709960938 C14.1113435,0.709960938 16.5312412,1.50975763 18.2949219,3.109375 C20.0586026,4.70899237 20.9404297,6.84178354 20.9404297,9.5078125 C20.9404297,11.312509 20.4448292,12.9804611 19.4536133,14.5117187 C18.4623974,16.0429764 16.8183709,18.0390502 14.5214844,20.5 L9.20996094,26.3037109 L9.25097656,26.40625 L17.0029297,26.40625 L17.2490234,23.453125 L21.8017578,23.453125 L21.8017578,31 L1.41699219,31 Z M24.4677734,27.4111328 L29.5126953,26.7958984 L29.5126953,6.57519531 L24.40625,6.57519531 L24.40625,3.15039062 L35.4804688,1.140625 L35.4804688,26.7958984 L40.5253906,27.4111328 L40.5253906,31 L24.4677734,31 L24.4677734,27.4111328 Z M42.6992188,6.8828125 C42.6992188,5.11913181 43.2700138,3.64941994 44.4116211,2.47363281 C45.5532284,1.29784568 47.1425679,0.709960938 49.1796875,0.709960938 C51.2441509,0.709960938 52.8437443,1.29442775 53.9785156,2.46337891 C55.1132869,3.63233006 55.6806641,5.10545986 55.6806641,6.8828125 L55.6806641,8.46191406 C55.6806641,10.2255948 55.1132869,11.6884708 53.9785156,12.8505859 C52.8437443,14.0127011 51.2578227,14.59375 49.2207031,14.59375 C47.1699116,14.59375 45.5703182,14.0127011 44.421875,12.8505859 C43.2734318,11.6884708 42.6992188,10.2255948 42.6992188,8.46191406 L42.6992188,6.8828125 Z M46.6777344,8.46191406 C46.6777344,9.25488678 46.8964822,9.92138402 47.3339844,10.4614258 C47.7714866,11.0014675 48.4003865,11.2714844 49.2207031,11.2714844 C50.0136758,11.2714844 50.6289041,11.0014675 51.0664063,10.4614258 C51.5039084,9.92138402 51.7226563,9.25488678 51.7226563,8.46191406 L51.7226563,6.8828125 C51.7226563,6.08983979 51.5004905,5.41650667 51.0561523,4.86279297 C50.6118142,4.30907926 49.9863322,4.03222656 49.1796875,4.03222656 C48.3730428,4.03222656 47.7543967,4.30907926 47.3237305,4.86279297 C46.8930643,5.41650667 46.6777344,6.08983979 46.6777344,6.8828125 L46.6777344,8.46191406 Z M56.9726563,23.6787109 C56.9726563,21.9287022 57.5468693,20.4658262 58.6953125,19.2900391 C59.8437557,18.1142519 61.4365133,17.5263672 63.4736328,17.5263672 C65.5244243,17.5263672 67.1205998,18.110834 68.262207,19.2797852 C69.4038143,20.4487363 69.9746094,21.9150302 69.9746094,23.6787109 L69.9746094,25.2578125 C69.9746094,27.0351651 69.4072322,28.504877 68.2724609,29.6669922 C67.1376896,30.8291074 65.551768,31.4101562 63.5146484,31.4101562 C61.4638569,31.4101562 59.8608456,30.8256894 58.7055664,29.6567383 C57.5502872,28.4877871 56.9726563,27.0214932 56.9726563,25.2578125 L56.9726563,23.6787109 Z M60.9511719,25.2578125 C60.9511719,26.0371133 61.1870094,26.7036105 61.6586914,27.2573242 C62.1303735,27.8110379 62.7490196,28.0878906 63.5146484,28.0878906 C64.4033248,28.0878906 65.0390606,27.8315455 65.421875,27.3188477 C65.8046894,26.8061498 65.9960938,26.1191449 65.9960938,25.2578125 L65.9960938,23.6787109 C65.9960938,22.8994102 65.7773459,22.2329129 65.3398438,21.6791992 C64.9023416,21.1254855 64.2802775,20.8486328 63.4736328,20.8486328 C62.6533162,20.8486328 62.0278342,21.1254855 61.597168,21.6791992 C61.1665018,22.2329129 60.9511719,22.8994102 60.9511719,23.6787109 L60.9511719,25.2578125 Z M50.9228516,28.7646484 L48.0107422,27.2265625 L62.5917969,3.88867188 L65.5039063,5.42675781 L50.9228516,28.7646484 Z" id="21%" fill="#252525"></path>
                            <path d="M40.5029297,52.2231445 L40.5195312,52.2729492 C40.5416668,53.4571999 40.1543009,54.4034795 39.3574219,55.1118164 C38.5605429,55.8201533 37.5146549,56.1743164 36.2197266,56.1743164 C34.8749933,56.1743164 33.7903687,55.6887256 32.9658203,54.7175293 C32.1412719,53.746333 31.7290039,52.4887773 31.7290039,50.9448242 L31.7290039,48.9775391 C31.7290039,47.4391199 32.1412719,46.1815641 32.9658203,45.204834 C33.7903687,44.2281038 34.8749933,43.7397461 36.2197266,43.7397461 C37.5312566,43.7397461 38.5812949,44.0856085 39.369873,44.7773438 C40.1584512,45.469079 40.5416668,46.4208924 40.5195312,47.6328125 L40.5029297,47.6826172 L39.5732422,47.6826172 C39.5732422,46.708654 39.2758005,45.9491401 38.6809082,45.4040527 C38.0860159,44.8589654 37.2656302,44.5864258 36.2197266,44.5864258 C35.1627551,44.5864258 34.3147005,44.9959269 33.6755371,45.8149414 C33.0363738,46.6339559 32.7167969,47.6826108 32.7167969,48.9609375 L32.7167969,50.9448242 C32.7167969,52.2397526 33.0363738,53.2953247 33.6755371,54.1115723 C34.3147005,54.9278198 35.1627551,55.3359375 36.2197266,55.3359375 C37.2656302,55.3359375 38.0860159,55.0703152 38.6809082,54.5390625 C39.2758005,54.0078098 39.5732422,53.2358449 39.5732422,52.2231445 L40.5029297,52.2231445 Z M49.4926758,50.1479492 L44.0722656,50.1479492 L44.0722656,55.1616211 L50.3393555,55.1616211 L50.3393555,56 L43.0761719,56 L43.0761719,43.9140625 L50.2978516,43.9140625 L50.2978516,44.7607422 L44.0722656,44.7607422 L44.0722656,49.3012695 L49.4926758,49.3012695 L49.4926758,50.1479492 Z M61.3129883,50.9448242 C61.3129883,52.5053789 60.8855023,53.767085 60.0305176,54.7299805 C59.1755328,55.6928759 58.028653,56.1743164 56.5898438,56.1743164 C55.17317,56.1743164 54.0428916,55.6928759 53.1989746,54.7299805 C52.3550576,53.767085 51.9331055,52.5053789 51.9331055,50.9448242 L51.9331055,48.9775391 C51.9331055,47.4225183 52.3536742,46.1608121 53.1948242,45.1923828 C54.0359743,44.2239535 55.1648692,43.7397461 56.581543,43.7397461 C58.0203522,43.7397461 59.1686155,44.2239535 60.0263672,45.1923828 C60.8841189,46.1608121 61.3129883,47.4225183 61.3129883,48.9775391 L61.3129883,50.9448242 Z M60.3251953,48.9609375 C60.3251953,47.6549414 59.9945508,46.6035196 59.333252,45.8066406 C58.6719531,45.0097616 57.7547259,44.6113281 56.581543,44.6113281 C55.4304955,44.6113281 54.5340201,45.0097616 53.8920898,45.8066406 C53.2501596,46.6035196 52.9291992,47.6549414 52.9291992,48.9609375 L52.9291992,50.9448242 C52.9291992,52.2618881 53.251543,53.3188437 53.8962402,54.1157227 C54.5409375,54.9126016 55.4387963,55.3110352 56.5898438,55.3110352 C57.7685606,55.3110352 58.6857877,54.9139851 59.3415527,54.119873 C59.9973177,53.325761 60.3251953,52.267422 60.3251953,50.9448242 L60.3251953,48.9609375 Z M69.0327148,53.7006836 C69.0327148,53.2801086 68.8597836,52.9134944 68.513916,52.6008301 C68.1680484,52.2881658 67.5441126,52.0322276 66.6420898,51.8330078 C65.5795845,51.6116525 64.7896347,51.3086771 64.2722168,50.9240723 C63.7547988,50.5394675 63.4960938,50.0013055 63.4960938,49.3095703 C63.4960938,48.623369 63.7852347,48.0423201 64.3635254,47.5664062 C64.941816,47.0904924 65.7068637,46.8525391 66.6586914,46.8525391 C67.660324,46.8525391 68.4599579,47.1057104 69.0576172,47.6120605 C69.6552764,48.1184107 69.9402671,48.7423466 69.9125977,49.4838867 L69.8959961,49.5336914 L68.9746094,49.5336914 C68.9746094,49.0411759 68.7629416,48.6123065 68.3395996,48.2470703 C67.9162576,47.8818341 67.3559605,47.6992188 66.6586914,47.6992188 C65.9392868,47.6992188 65.3969745,47.856932 65.0317383,48.1723633 C64.6665021,48.4877945 64.4838867,48.8557922 64.4838867,49.2763672 C64.4838867,49.6858744 64.6402165,50.0248196 64.9528809,50.2932129 C65.2655452,50.5616062 65.889481,50.7981761 66.824707,51.0029297 C67.8761446,51.2353527 68.6716282,51.55908 69.2111816,51.9741211 C69.7507351,52.3891622 70.0205078,52.9480759 70.0205078,53.6508789 C70.0205078,54.397953 69.7175323,55.0052874 69.1115723,55.4729004 C68.5056122,55.9405134 67.7045948,56.1743164 66.7084961,56.1743164 C65.6183214,56.1743164 64.761966,55.9142279 64.1394043,55.394043 C63.5168426,54.8738581 63.2221678,54.2540726 63.2553711,53.534668 L63.2719727,53.4848633 L64.1850586,53.4848633 C64.2237958,54.1323275 64.4880347,54.6027004 64.9777832,54.8959961 C65.4675317,55.1892918 66.0444303,55.3359375 66.7084961,55.3359375 C67.4279007,55.3359375 67.9951151,55.1754573 68.4101562,54.8544922 C68.8251974,54.533527 69.0327148,54.148928 69.0327148,53.7006836 Z" id="CEOs" fill="#575757"></path>
                            <path d="M90.5,28.5 L113.5,45.5" id="Line-2-Copy" stroke="#252525" opacity="0.253000453" stroke-linecap="square"></path>
                            <ellipse id="Oval-Copy" fill="#252525" transform="translate(88.500000, 26.437500) rotate(90.000000) translate(-88.500000, -26.437500) " cx="88.5" cy="26.4375" rx="2.4375" ry="2.5"></ellipse>
                        </g>
                    </g>
                    <g id="Donut-chart" transform="translate(114.000000, 27.000000)" stroke-width="22">
                        <path d="M1.72536314,67.4911724 C-5.76008281,38.5782265 11.8056594,9.12164992 40.9595466,1.69806716 C45.3877142,0.570503309 49.9413463,0 54.5131454,0" id="donut_3" stroke="#5E091C"></path>
                        <path d="M94.274662,91.049075 C73.6701235,112.809344 39.1796595,113.884293 17.2380546,93.4500399 C9.69906236,86.4289639 4.33003991,77.4254719 1.75808956,67.4911724" id="donut_2" stroke="#910F2B"></path>
                        <path d="M54.5,0 C84.5995189,0 109,24.1988243 109,54.0495868 C109,67.7969336 103.717919,81.0276905 94.2287902,91.049075" id="donut_1" stroke="#C5143A"></path>
                    </g>
                </g>
            </g>
        </g>
    </g>
</svg>