<?xml version="1.0" encoding="UTF-8"?>
<svg width="50px" height="61px" viewBox="0 0 50 61" version="1.1" xmlns="http://www.w3.org/2000/svg" xmlns:xlink="http://www.w3.org/1999/xlink">
    <!-- Generator: Sketch 49.1 (51147) - http://www.bohemiancoding.com/sketch -->
    <title>icon-mobilepay</title>
    <desc>Created with Sketch.</desc>
    <defs>
        <polygon id="path-1" points="0 0.0181896273 37.7104063 0.0181896273 37.7104063 60.8289367 0 60.8289367"></polygon>
    </defs>
    <g id="Pages" stroke="none" stroke-width="1" fill="none" fill-rule="evenodd">
        <g id="Enterprise-security" transform="translate(-604.000000, -6043.000000)">
            <g id="Conference" transform="translate(351.000000, 5821.000000)">
                <g id="icon/moiblepay" transform="translate(253.000000, 222.000000)">
                    <g id="Page-1">
                        <path d="M46.7081195,29.4359816 C46.6838705,32.2073894 45.6126356,34.8510031 43.6914972,36.8798975 C41.7627514,38.9165191 39.1786884,40.1164757 36.4152542,40.2586541 C33.7385933,40.3971472 31.0934324,39.5035397 28.9661776,37.7448554 C26.8309587,35.9796328 25.4673095,33.5439371 25.1262783,30.8865335 C24.7379378,27.8600131 25.6160129,24.8071017 27.5353682,22.5106124 C29.2162751,20.4993119 31.6220366,19.1474289 34.3095144,18.7038943 C34.8481036,18.6150923 35.3902588,18.5711073 35.9318196,18.5711073 C37.9935783,18.5711073 40.0451144,19.2079379 41.8415606,20.4256075 C44.0730623,21.938095 45.679558,24.1735997 46.3648298,26.7203277 C46.5872311,27.5462935 46.699561,28.4346704 46.7081195,29.4359816 M49.6789777,29.3657246 C49.5923232,22.8895962 44.9915523,17.2433566 38.7160556,15.9245217 C35.8103369,15.3137254 32.7039696,15.6936602 29.9694202,16.9938312 C27.2393878,18.2918624 24.9807844,20.4581801 23.6098842,23.0935912 C21.9646376,26.2564649 21.6285989,30.0625887 22.6880659,33.5357345 C23.5552051,36.378707 25.4528076,38.9566999 28.0312838,40.7949137 C30.2557723,42.3807491 33.0320442,43.2401197 35.9017461,43.2400008 C36.079572,43.2400008 36.2579923,43.2366722 36.4364126,43.2301339 C39.4397217,43.1186261 42.3252329,41.9941571 44.7812755,39.9784581 C47.8007505,37.5004418 49.629291,33.5831669 49.6793343,29.4907844 C49.6796909,29.475568 49.6799286,29.4603516 49.6798097,29.4448975 C49.6799286,29.4426388 49.6799286,29.4403801 49.6799286,29.4381214 C49.6801663,29.4137514 49.6798097,29.3895002 49.6789777,29.3657246" id="Fill-1" fill="#C5143A"></path>
                        <path d="M36.1074305,28.0800696 C36.0357021,28.0697855 35.9622334,28.0630047 35.8869,28.0610835 C35.2816221,28.0456009 34.7571474,27.7210302 34.51797,27.2139449 C34.2856298,26.7213252 34.3827179,26.1888123 34.7779076,25.7895406 C35.1875175,25.3756903 35.7747701,25.2431271 36.3483483,25.4349086 C36.9525073,25.6368612 37.3541612,26.1377308 37.3718136,26.7109281 C37.4000326,27.6343499 38.2180093,28.0991686 39.0112478,28.0770182 C40.0482632,28.0506864 40.4991449,27.3439088 40.4793792,26.6983838 C40.4281624,25.0279521 39.3710084,23.540035 37.7862717,22.9076193 C37.660716,22.857555 37.5336686,22.8142713 37.4058753,22.7747171 L37.4058753,22.5726515 C37.4058753,21.8068816 36.6943101,21.1600004 35.8519682,21.1600004 C35.0097505,21.1600004 34.2980611,21.8068816 34.2980611,22.5726515 L34.2980611,22.8082817 C33.7232397,22.9997242 33.1783778,23.2929905 32.6949262,23.6886459 C31.4091613,24.7405624 30.9346602,26.6138507 31.5666653,28.1430173 C32.2096099,29.6985157 33.7991947,30.7513363 35.6530681,30.8732763 C35.7246721,30.8834474 35.7978922,30.8902282 35.872977,30.8921494 C36.4782549,30.907519 37.0028539,31.2320897 37.2421556,31.739175 C37.4743715,32.2317947 37.3771591,32.7641946 36.9819694,33.1635793 C36.5722352,33.5775426 35.9851069,33.7099928 35.4115287,33.5184373 C34.807494,33.3163717 34.4058401,32.8153891 34.3881877,32.2419657 C34.3598444,31.318431 33.5371438,30.8551944 32.7486292,30.8758756 C31.7117381,30.9022074 31.2608564,31.608985 31.2806221,32.2545101 C31.3318389,33.9250548 32.3888686,35.4130849 33.9734809,36.0456136 C34.0807627,36.0884452 34.1891632,36.1259652 34.2980611,36.1611119 L34.2980611,36.3073496 C34.2980611,37.0731195 35.0097505,37.7200007 35.8519682,37.7200007 C36.6943101,37.7200007 37.4058753,37.0731195 37.4058753,36.3073496 L37.4058753,36.1650674 C38.0014568,35.974303 38.5655872,35.6731257 39.0649508,35.264587 C40.3509643,34.2124445 40.8253411,32.3390431 40.1932117,30.8099896 C39.5503914,29.2547172 37.9610552,28.2021226 36.1074305,28.0800696" id="Fill-3" fill="#C5143A"></path>
                        <g id="Group-7">
                            <mask id="mask-2" fill="white">
                                <use xlink:href="#path-1"></use>
                            </mask>
                            <g id="Clip-6"></g>
                            <path d="M34.6773223,54.3430353 C34.6773223,56.0983343 33.6436978,57.4186178 31.9796794,57.7886704 C31.5587338,57.8823352 31.0312564,57.8657991 30.5208915,57.8498537 C30.3278326,57.843948 30.1456197,57.8382785 29.9679862,57.8382785 L6.53603254,57.8382785 C4.94130804,57.8382785 3.66015364,56.9924608 3.19232922,55.6308373 C3.02252896,55.1365282 3.02361356,54.6348961 3.02493919,54.1038535 L3.02471104,50.7895616 L34.6773223,50.7895616 L34.6773223,54.3430353 Z M3.02518021,6.41691074 C3.02518021,5.13277029 3.59085971,4.08001609 4.61821755,3.45259206 C5.34634613,3.0078911 6.11436391,2.98863845 6.99518015,2.98863845 C7.03675651,2.98863845 7.0786944,2.98863845 7.12075281,2.98875656 L31.3807388,2.98875656 C33.166594,2.98875656 34.6451458,4.4386116 34.6773223,6.22119507 L34.6773223,8.12543645 L3.02518021,8.12543645 L3.02518021,6.41691074 Z M37.6898608,51.8505839 L37.6898608,43.1459023 L34.663825,43.1459023 C34.6682839,43.1464929 34.6727428,43.1472015 34.6773223,43.147674 L34.6773223,47.8367001 L3.02493919,47.8367001 L3.02518021,11.078298 L34.6773223,11.078298 L34.6773223,15.8739815 C34.6737069,15.8744539 34.6700916,15.8749264 34.6665968,15.8753988 L37.6898608,15.8753988 L37.6898608,6.28462254 C37.6904634,6.26159022 37.6904634,6.23832167 37.6901019,6.21481689 C37.6899813,6.20902928 37.6898608,6.20324167 37.6897403,6.19757218 C37.6896198,6.18446147 37.6892583,6.17146888 37.6887762,6.15847629 C37.6480435,4.61448403 37.0483798,3.16002253 35.9965582,2.05742402 C34.9494365,0.959668201 33.4988434,0.251335766 31.9118316,0.0629431974 C31.4200255,0.00459465261 30.9123118,0.0160517555 30.4215903,0.0271545151 C30.2281698,0.0315247502 30.0359545,0.0358949853 29.8467519,0.0358949853 L6.48903318,0.0358949853 C4.15714176,0.0358949853 2.12146684,1.13376892 0.904062853,3.04816814 C-0.0361654064,4.52696121 -0.0147144156,6.22119507 0.00613401928,7.85979702 C0.00926731007,8.09779766 0.0122800897,8.3349715 0.0122800897,8.57025551 L0.0122800897,54.2050776 C0.0122800897,55.5192191 0.275476516,56.6400072 0.817053778,57.6315781 C1.86526006,59.5508201 4.08326841,60.7910219 6.46758219,60.7910219 L25.5172671,60.7910219 C26.1739326,60.7910219 26.8455414,60.8007073 27.4949762,60.8100383 C28.1506775,60.8193694 28.8165018,60.8289367 29.4850979,60.8289367 C30.2340749,60.8289367 30.9860647,60.8170071 31.7296187,60.7792105 C34.9538954,60.6158582 37.5148786,58.039073 37.686607,54.785492 C37.7215553,54.1242873 37.7105888,53.4507986 37.7001043,52.7995155 C37.6950428,52.4823781 37.6898608,52.1658314 37.6898608,51.8505839 Z" id="Fill-5" fill="#252525" mask="url(#mask-2)"></path>
                        </g>
                        <path d="M15.3089234,56.120001 L21.4912014,56.120001 C22.4818007,56.120001 23.0000004,55.1944074 23.0000004,54.280001 C23.0000004,53.3655946 22.4818007,52.440001 21.4912014,52.440001 L15.3089234,52.440001 C14.3183241,52.440001 13.8000003,53.3655946 13.8000003,54.280001 C13.8000003,55.1944074 14.3183241,56.120001 15.3089234,56.120001" id="Fill-8" fill="#252525"></path>
                    </g>
                </g>
            </g>
        </g>
    </g>
</svg>