<?xml version="1.0" encoding="UTF-8"?>
<svg width="65px" height="66px" viewBox="0 0 65 66" version="1.1" xmlns="http://www.w3.org/2000/svg" xmlns:xlink="http://www.w3.org/1999/xlink">
    <!-- Generator: Sketch 49.1 (51147) - http://www.bohemiancoding.com/sketch -->
    <title>icon-iot</title>
    <desc>Created with Sketch.</desc>
    <defs></defs>
    <g id="Pages" stroke="none" stroke-width="1" fill="none" fill-rule="evenodd">
        <g id="Enterprise-security" transform="translate(-399.000000, -6044.000000)">
            <g id="Conference" transform="translate(351.000000, 5821.000000)">
                <g id="icon/iot" transform="translate(48.000000, 223.000000)">
                    <g id="Page-1">
                        <path d="M52.8609639,34.6547434 C50.9512553,34.8873256 49.4234884,36.2828186 49.117935,38.2210033 C48.9651583,39.0738046 49.4998767,39.8490785 50.3401485,40.0041333 L50.6457019,40.0041333 C51.333197,40.0041333 52.0206921,39.4614416 52.1734688,38.7636951 C52.2498571,38.2210033 52.7074233,37.755839 53.2429056,37.755839 C54.0831774,37.6783116 54.6942842,36.9030377 54.6171319,36.0502364 C54.4651191,35.1974351 53.6248473,34.577216 52.8609639,34.6547434 Z M19.0965515,14.1875124 L24.4437357,16.900971 L24.4437357,6.43477338 L19.0965515,14.1875124 Z M27.4992695,16.9784984 L32.8464536,14.2650398 L27.4992695,6.51230077 L27.4992695,16.9784984 Z M15.3542865,15.1953685 C15.2771343,14.7302041 15.3542865,14.2650398 15.5834515,13.9549302 L24.7500529,0.697746511 C24.7500529,0.620219121 24.8256774,0.620219121 24.9028296,0.542691731 C24.979218,0.465164341 24.979218,0.465164341 25.0556063,0.387636951 C25.2076191,0.15505478 25.5895609,0 25.9715026,0 C26.3534443,0 26.735386,0.15505478 26.9653149,0.387636951 C27.0417033,0.465164341 27.0417033,0.465164341 27.1173278,0.542691731 C27.19448,0.620219121 27.19448,0.620219121 27.2708683,0.697746511 L36.4374697,13.9549302 C36.6658709,14.3425672 36.7430231,14.8077315 36.6658709,15.1953685 C36.5902464,15.6605328 36.2839292,15.9706424 35.9019874,16.2032245 L26.735386,20.8548679 C26.6597616,20.8548679 26.6597616,20.9323953 26.5833732,20.9323953 C26.5069849,20.9323953 26.4305965,21.0099227 26.3534443,21.0099227 C26.2014315,21.0099227 26.1250432,21.0099227 25.9715026,21.0099227 C25.7431014,21.0099227 25.5139364,20.9323953 25.3611597,20.8548679 L25.2847714,20.8548679 L16.11817,16.2032245 C15.7362282,15.9706424 15.4306749,15.6605328 15.3542865,15.1953685 Z M59.0484198,39.2288594 C59.0484198,36.1277638 56.5268406,33.5693599 53.4713068,33.5693599 C50.415773,33.5693599 47.8957215,36.1277638 47.8957215,39.2288594 C47.8957215,42.329955 50.415773,44.8883589 53.4713068,44.8883589 C56.5268406,44.8883589 59.0484198,42.329955 59.0484198,39.2288594 Z M62.1039536,39.2288594 C62.1039536,44.0355576 58.208148,47.9894545 53.4713068,47.9894545 C48.7359933,47.9894545 44.8401877,44.0355576 44.8401877,39.2288594 C44.8401877,34.4221612 48.7359933,30.4682643 53.4713068,30.4682643 C58.208148,30.4682643 62.1039536,34.4221612 62.1039536,39.2288594 Z M17.5687846,51.5557144 L12.2216005,54.2691731 L12.2216005,61.8668573 L17.5687846,59.1533987 L17.5687846,51.5557144 Z M9.16606668,54.2691731 L3.81888253,51.5557144 L3.81888253,59.1533987 L9.16606668,61.8668573 L9.16606668,54.2691731 Z M5.65296669,49.074838 L10.6938336,51.6332418 L15.7362282,49.074838 L10.6938336,46.5164341 L5.65296669,49.074838 Z M20.6243184,48.9973106 L20.6243184,60.1612547 C20.6243184,60.7814739 20.3195289,61.2466382 19.7848105,61.5567478 L11.3820926,65.8207542 C11.3057042,65.8207542 11.2293159,65.8982816 11.2293159,65.8982816 C11.1529275,65.8982816 11.1529275,65.8982816 11.0757753,65.975809 L10.6938336,65.975809 C10.5418208,65.975809 10.4654324,65.975809 10.3118919,65.8982816 C10.2362674,65.8982816 10.2362674,65.8982816 10.159879,65.8207542 C10.0834907,65.8207542 10.0071024,65.8207542 10.0071024,65.7432268 L1.60438441,61.4792204 C1.06966599,61.2466382 0.763348731,60.7039465 0.763348731,60.0837274 L0.763348731,49.074838 L0.763348731,48.9973106 L0.763348731,48.7647284 L0.763348731,48.687201 C0.84050096,48.4546188 0.916889305,48.2220367 1.06966599,48.0669819 L1.14529046,47.9894545 C1.22244268,47.9119271 1.29883103,47.8343997 1.37521937,47.8343997 L1.45160772,47.7568723 L1.52723218,47.7568723 C1.52723218,47.7568723 1.60438441,47.7568723 1.60438441,47.6793449 L10.0071024,43.4153385 C10.4654324,43.1827563 10.9237625,43.1827563 11.3820926,43.4153385 L19.7848105,47.6793449 C19.7848105,47.6793449 19.860435,47.6793449 19.860435,47.7568723 L19.9375872,47.7568723 L20.0139756,47.8343997 C20.0903639,47.9119271 20.1667522,47.9119271 20.2423767,47.9894545 L20.3195289,48.0669819 C20.4723056,48.2220367 20.6243184,48.4546188 20.6243184,48.687201 L20.6243184,48.7647284 L20.6243184,48.9973106 Z M54.0831774,51.1680775 C53.2429056,51.1680775 52.5554105,51.865824 52.5554105,52.7186253 L52.5554105,54.0365909 C52.5554105,54.5792827 52.0970804,55.044447 51.5615981,55.044447 L40.6388287,55.044447 C40.1033464,55.044447 39.6457802,54.5792827 39.6457802,54.0365909 C39.6457802,51.6332418 37.1249648,49.6175297 34.9860912,49.6175297 L25.437548,49.6175297 C24.5972763,49.6175297 23.9097811,50.3152762 23.9097811,51.1680775 C23.9097811,52.0208788 24.5972763,52.7186253 25.437548,52.7186253 L34.9860912,52.7186253 C35.6735863,52.7186253 36.5902464,53.5714266 36.5902464,54.0365909 C36.5902464,56.2848852 38.4235667,58.1455426 40.6388287,58.1455426 L51.5615981,58.1455426 C53.777624,58.1455426 55.6109443,56.2848852 55.6109443,54.0365909 L55.6109443,52.7186253 C55.6109443,51.865824 54.9234492,51.1680775 54.0831774,51.1680775 Z M9.16606668,39.538969 L9.16606668,34.4996886 C9.16606668,32.2513943 11.0001508,30.3907369 13.2154128,30.3907369 L24.4437357,30.3907369 L24.4437357,25.6615661 C24.4437357,24.8087648 25.1319947,24.1110183 25.9715026,24.1110183 C26.8125383,24.1110183 27.4992695,24.8087648 27.4992695,25.6615661 L27.4992695,37.0580925 C27.4992695,37.6007842 27.9583634,38.0659486 28.4930818,38.0659486 L40.5624404,38.0659486 C41.4027121,38.0659486 42.0902073,38.7636951 42.0902073,39.6164964 C42.0902073,40.4692976 41.4027121,41.1670442 40.5624404,41.1670442 L28.4930818,41.1670442 C26.2778198,41.1670442 24.4437357,39.3063868 24.4437357,37.0580925 L24.4437357,33.4143051 L13.2154128,33.4143051 C12.6806944,33.4143051 12.2216005,33.8794695 12.2216005,34.4221612 L12.2216005,39.4614416 C12.2216005,40.3142429 11.5348693,41.0119894 10.6938336,41.0119894 C9.85432567,41.0119894 9.16606668,40.3917703 9.16606668,39.538969 Z" id="Fill-1" fill="#252525"></path>
                        <path d="M48.9651583,27.8323331 C50.1109835,26.6694222 51.7151387,25.9716757 53.3956823,25.9716757 C55.0762259,25.9716757 56.6039928,26.5918948 57.8262063,27.8323331 C58.1317597,28.1424426 58.5137014,28.2974974 58.8956431,28.2974974 C59.2775849,28.2974974 59.6595266,28.1424426 59.9643161,27.8323331 C60.5761867,27.2121139 60.5761867,26.2817853 59.9643161,25.6615661 C58.208148,23.8784362 55.9164977,22.8705801 53.3956823,22.8705801 C50.9512553,22.8705801 48.5832166,23.8784362 46.8262846,25.6615661 C46.214414,26.2817853 46.214414,27.2121139 46.8262846,27.8323331 C47.3602392,28.4525522 48.3540515,28.4525522 48.9651583,27.8323331 Z" id="Path" fill="#C5143A"></path>
                        <path d="M64.0900506,21.3975597 C61.1872935,18.4515189 57.3678762,16.900971 53.319294,16.900971 C49.2699478,16.900971 45.4505305,18.5290462 42.5485373,21.3975597 C41.9374306,22.0177788 41.9374306,22.9481075 42.5485373,23.5683266 C43.1588802,24.1885457 44.0763042,24.1885457 44.6866471,23.5683266 C46.9782974,21.2425049 50.0338312,19.9245393 53.319294,19.9245393 C56.6039928,19.9245393 59.6595266,21.2425049 61.9511769,23.5683266 C62.2559664,23.8784362 62.6379082,24.0334909 63.0198499,24.0334909 C63.4017916,24.0334909 63.7837333,23.8784362 64.0900506,23.5683266 C64.7011574,22.9481075 64.7011574,22.0177788 64.0900506,21.3975597 Z" id="Path" fill="#C5143A"></path>
                    </g>
                </g>
            </g>
        </g>
    </g>
</svg>