<?xml version="1.0" encoding="utf-8"?>
<!-- Generator: Adobe Illustrator 22.1.0, SVG Export Plug-In . SVG Version: 6.00 Build 0)  -->
<svg version="1.1" id="Calque_1" xmlns="http://www.w3.org/2000/svg" xmlns:xlink="http://www.w3.org/1999/xlink" x="0px" y="0px"
	 viewBox="0 0 76 76" style="enable-background:new 0 0 76 76;" xml:space="preserve">
<style type="text/css">
	.st0{fill:#C5143A;}
	.st1{fill:#252525;}
</style>
<title>icon/budget</title>
<desc>Created with Sketch.</desc>
<g id="Pages">
	<g id="BOOK-FOR-2018" transform="translate(-1002.000000, -2658.000000)">
		<g id="_x33_--TRUSTECH-2018-OFFERS" transform="translate(0.000000, 1641.000000)">
			<g id="BLOC-MILIEU" transform="translate(137.000000, 398.000000)">
				<g id="BLOC-MEETING" transform="translate(639.000000, 571.000000)">
					<g id="icon_x2F_budget" transform="translate(226.000000, 48.000000)">
						<g id="budget">
							<path id="Shape" class="st0" d="M38.6,15.1c0-4.8-3.9-8.7-8.7-8.7c-1.7,0-3.2,0.5-4.5,1.3c-1.3-0.8-2.9-1.3-4.5-1.3
								c-4.8,0-8.7,3.9-8.7,8.7s3.9,8.7,8.7,8.7c1.7,0,3.2-0.5,4.5-1.3c1.3,0.8,2.9,1.3,4.5,1.3C34.8,23.8,38.6,19.9,38.6,15.1z
								 M23,20.3c-0.6,0.3-1.3,0.4-2.1,0.4c-3,0-5.5-2.5-5.5-5.5s2.5-5.5,5.5-5.5c0.7,0,1.4,0.1,2.1,0.4c-1.1,1.4-1.7,3.2-1.7,5.1
								S21.9,18.8,23,20.3z M25.4,18.3c-0.6-0.9-1-2-1-3.2s0.4-2.3,1-3.2c0.6,0.9,1,2,1,3.2S26.1,17.4,25.4,18.3z M27.9,20.3
								c1.1-1.4,1.7-3.2,1.7-5.1S29,11.4,27.9,10c0.6-0.3,1.3-0.4,2.1-0.4c3,0,5.5,2.5,5.5,5.5S33,20.7,30,20.7
								C29.2,20.7,28.5,20.5,27.9,20.3z"/>
							<path id="Shape_1_" class="st1" d="M25.5,30.3H11.2c-0.9,0-1.6,0.7-1.6,1.6c0,0.9,0.7,1.6,1.6,1.6h14.2
								c0.9,0,1.6-0.7,1.6-1.6C27.1,31,26.3,30.3,25.5,30.3z"/>
							<path id="Shape_2_" class="st1" d="M49.3,65.1c-0.9,0-1.6,0.8-1.6,1.7v1.7c0,0.9,0.7,1.7,1.6,1.7c0.9,0,1.6-0.8,1.6-1.7v-1.7
								C50.9,65.8,50.2,65.1,49.3,65.1z"/>
							<path id="Shape_3_" class="st1" d="M11.2,58.6c-0.9,0-1.5,0.7-1.5,1.6c0,0.9,0.7,1.6,1.5,1.6h4.6c0.9,0,1.5-0.7,1.5-1.6
								c0-0.9-0.7-1.6-1.5-1.6H11.2z"/>
							<path id="Shape_4_" class="st1" d="M27.1,50.6c0-0.9-0.7-1.6-1.6-1.6H11.2c-0.9,0-1.6,0.7-1.6,1.6c0,0.9,0.7,1.6,1.6,1.6
								h14.2C26.3,52.2,27.1,51.4,27.1,50.6z"/>
							<path id="Shape_5_" class="st1" d="M11.2,43.2h4.6c0.9,0,1.5-0.7,1.5-1.6c0-0.9-0.7-1.6-1.5-1.6h-4.6c-0.9,0-1.5,0.7-1.5,1.6
								C9.7,42.4,10.4,43.2,11.2,43.2z"/>
							<path id="Shape_6_" class="st1" d="M57.6,57.3c-0.9,0-1.6,0.8-1.6,1.7v1.7c0,0.9,0.7,1.7,1.6,1.7c0.9,0,1.6-0.8,1.6-1.7V59
								C59.3,58.1,58.5,57.3,57.6,57.3z"/>
							<path id="Shape_7_" class="st1" d="M66.7,57.3c-0.9,0-1.6,0.8-1.6,1.7v1.7c0,0.9,0.7,1.7,1.6,1.7s1.6-0.8,1.6-1.7V59
								C68.3,58.1,67.6,57.3,66.7,57.3z"/>
							<path id="Shape_8_" class="st0" d="M64.8,34.8H50.5c-2.6,0-4.8,2.2-4.8,4.8c0,2.7,2.1,4.8,4.8,4.8h14.3
								c2.6,0,4.8-2.2,4.8-4.8C69.6,36.9,67.4,34.8,64.8,34.8z M64.8,41.2H50.5c-0.9,0-1.6-0.7-1.6-1.6s0.7-1.6,1.6-1.6h14.3
								c0.9,0,1.6,0.7,1.6,1.6S65.7,41.2,64.8,41.2z"/>
							<path id="Shape_9_" class="st1" d="M66.7,48.9c-0.9,0-1.6,0.8-1.6,1.7v1.7c0,0.9,0.7,1.7,1.6,1.7s1.6-0.8,1.6-1.7v-1.7
								C68.3,49.7,67.6,48.9,66.7,48.9z"/>
							<path id="Shape_10_" class="st1" d="M49.3,57.3c-0.9,0-1.6,0.8-1.6,1.7v1.7c0,0.9,0.7,1.7,1.6,1.7c0.9,0,1.6-0.8,1.6-1.7V59
								C50.9,58.1,50.2,57.3,49.3,57.3z"/>
							<path id="Shape_11_" class="st1" d="M71.2,28.5H50.7V4.8c0-2.6-2.1-4.8-4.8-4.8H4.8C2.1,0,0,2.1,0,4.8v61.8
								c0,2.6,2.1,4.8,4.8,4.8h30.1c0.9,0,1.6-0.7,1.6-1.6c0-0.9-0.7-1.6-1.6-1.6H4.8c-0.9,0-1.6-0.7-1.6-1.6V4.8
								c0-0.9,0.7-1.6,1.6-1.6h41.2c0.9,0,1.6,0.7,1.6,1.6v23.8h-3.2c-2.6,0-4.8,2.1-4.8,4.8v38c0,2.6,2.1,4.8,4.8,4.8h26.9
								c2.6,0,4.8-2.1,4.8-4.8v-38C76,30.6,73.9,28.5,71.2,28.5z M72.8,71.2c0,0.9-0.7,1.6-1.6,1.6H44.3c-0.9,0-1.6-0.7-1.6-1.6v-38
								c0-0.9,0.7-1.6,1.6-1.6h26.9c0.9,0,1.6,0.7,1.6,1.6V71.2z"/>
							<path id="Shape_12_" class="st1" d="M49.3,48.9c-0.9,0-1.6,0.8-1.6,1.7v1.7c0,0.9,0.7,1.7,1.6,1.7c0.9,0,1.6-0.8,1.6-1.7
								v-1.7C50.9,49.7,50.2,48.9,49.3,48.9z"/>
							<path id="Shape_13_" class="st1" d="M57.6,65.1c-0.9,0-1.6,0.8-1.6,1.7v1.7c0,0.9,0.7,1.7,1.6,1.7c0.9,0,1.6-0.8,1.6-1.7
								v-1.7C59.3,65.8,58.5,65.1,57.6,65.1z"/>
							<path id="Shape_14_" class="st1" d="M57.6,48.9c-0.9,0-1.6,0.8-1.6,1.7v1.7c0,0.9,0.7,1.7,1.6,1.7c0.9,0,1.6-0.8,1.6-1.7
								v-1.7C59.3,49.7,58.5,48.9,57.6,48.9z"/>
							<path id="Shape_15_" class="st1" d="M66.7,65.1c-0.9,0-1.6,0.8-1.6,1.7v1.7c0,0.9,0.7,1.7,1.6,1.7s1.6-0.8,1.6-1.7v-1.7
								C68.3,65.8,67.6,65.1,66.7,65.1z"/>
						</g>
					</g>
				</g>
			</g>
		</g>
	</g>
</g>
</svg>
