<?xml version="1.0" encoding="UTF-8"?>
<svg width="69px" height="69px" viewBox="0 0 69 69" version="1.1" xmlns="http://www.w3.org/2000/svg" xmlns:xlink="http://www.w3.org/1999/xlink">
    <!-- Generator: Sketch 49.1 (51147) - http://www.bohemiancoding.com/sketch -->
    <title>icon/network</title>
    <desc>Created with Sketch.</desc>
    <defs></defs>
    <g id="Pages" stroke="none" stroke-width="1" fill="none" fill-rule="evenodd">
        <g id="BOOK-FOR-2018" transform="translate(-970.000000, -1148.000000)">
            <g id="icon/network" transform="translate(970.000000, 1148.000000)">
                <g id="network" stroke-width="1" fill="#000000">
                    <path d="M61.4727273,0 C57.3214364,0 53.9454545,3.37598182 53.9454545,7.52727273 C53.9454545,8.82572727 54.2754,10.0476545 54.8562545,11.1152727 L42.5253273,23.4462 C40.8254182,22.1226545 38.6977091,21.3272727 36.3818182,21.3272727 C34.0659273,21.3272727 31.9382182,22.1226545 30.2370545,23.4449455 L20.6159455,13.8238364 C21.0575455,13.0773818 21.3272727,12.2192727 21.3272727,11.2909091 C21.3272727,8.52338182 19.0766182,6.27272727 16.3090909,6.27272727 C13.5415636,6.27272727 11.2909091,8.52338182 11.2909091,11.2909091 C11.2909091,14.0584364 13.5415636,16.3090909 16.3090909,16.3090909 C17.2374545,16.3090909 18.0955636,16.0393636 18.8420182,15.5977636 L28.4631273,25.2188727 C27.1408364,26.9200364 26.3454545,29.0477455 26.3454545,31.3636364 C26.3454545,33.6795273 27.1408364,35.8072364 28.4631273,37.5071455 L12.5755636,53.3959636 C11.2382182,52.1828182 9.47056364,51.4363636 7.52727273,51.4363636 C3.37598182,51.4363636 0,54.8123455 0,58.9636364 C0,63.1149273 3.37598182,66.4909091 7.52727273,66.4909091 C11.6785636,66.4909091 15.0545455,63.1149273 15.0545455,58.9636364 C15.0545455,57.6651818 14.7246,56.4432545 14.1437455,55.3756364 L30.2383091,39.2810727 C31.6258364,40.3599818 33.2994,41.0826 35.1285273,41.3121818 L35.1285273,54.0583636 C31.5744,54.6580364 28.8558,57.7492364 28.8558,61.4727273 C28.8558,65.6240182 32.2317818,69 36.3830727,69 C40.5343636,69 43.9103455,65.6240182 43.9103455,61.4727273 C43.9103455,57.7504909 41.1917455,54.6592909 37.6376182,54.0583636 L37.6376182,41.3121818 C39.4667455,41.0826 41.1403091,40.3599818 42.5278364,39.2810727 L52.1489455,48.9021818 C51.7060909,49.6498909 51.4363636,50.508 51.4363636,51.4363636 C51.4363636,54.2038909 53.6870182,56.4545455 56.4545455,56.4545455 C59.2220727,56.4545455 61.4727273,54.2038909 61.4727273,51.4363636 C61.4727273,48.6688364 59.2220727,46.4181818 56.4545455,46.4181818 C55.5261818,46.4181818 54.6680727,46.6879091 53.9216182,47.1295091 L44.3005091,37.5084 C45.6228,35.8072364 46.4181818,33.6795273 46.4181818,31.3636364 C46.4181818,29.0477455 45.6228,26.9200364 44.3005091,25.2201273 L56.4256909,13.0949455 C57.7617818,14.3080909 59.5294364,15.0545455 61.4727273,15.0545455 C65.6240182,15.0545455 69,11.6785636 69,7.52727273 C69,3.37598182 65.6240182,0 61.4727273,0 Z M13.8,11.2909091 C13.8,9.90714545 14.9253273,8.78181818 16.3090909,8.78181818 C17.6928545,8.78181818 18.8181818,9.90714545 18.8181818,11.2909091 C18.8181818,12.6746727 17.6928545,13.8 16.3090909,13.8 C14.9253273,13.8 13.8,12.6746727 13.8,11.2909091 Z M7.52727273,63.9818182 C4.75974545,63.9818182 2.50909091,61.7311636 2.50909091,58.9636364 C2.50909091,56.1961091 4.75974545,53.9454545 7.52727273,53.9454545 C10.2948,53.9454545 12.5454545,56.1961091 12.5454545,58.9636364 C12.5454545,61.7311636 10.2948,63.9818182 7.52727273,63.9818182 Z M41.4,61.4727273 C41.4,64.2402545 39.1493455,66.4909091 36.3818182,66.4909091 C33.6142909,66.4909091 31.3636364,64.2402545 31.3636364,61.4727273 C31.3636364,58.7052 33.6142909,56.4545455 36.3818182,56.4545455 C39.1493455,56.4545455 41.4,58.7052 41.4,61.4727273 Z M58.9636364,51.4363636 C58.9636364,52.8201273 57.8383091,53.9454545 56.4545455,53.9454545 C55.0707818,53.9454545 53.9454545,52.8201273 53.9454545,51.4363636 C53.9454545,50.0526 55.0707818,48.9272727 56.4545455,48.9272727 C57.8383091,48.9272727 58.9636364,50.0526 58.9636364,51.4363636 Z M61.4727273,12.5454545 C58.7052,12.5454545 56.4545455,10.2948 56.4545455,7.52727273 C56.4545455,4.75974545 58.7052,2.50909091 61.4727273,2.50909091 C64.2402545,2.50909091 66.4909091,4.75974545 66.4909091,7.52727273 C66.4909091,10.2948 64.2402545,12.5454545 61.4727273,12.5454545 Z" id="Shape" fill-rule="nonzero"></path>
                </g>
                <circle id="Oval-4" fill="#C5143A" transform="translate(36.000000, 31.000000) rotate(-360.000000) translate(-36.000000, -31.000000) " cx="36" cy="31" r="11"></circle>
            </g>
        </g>
    </g>
</svg>