<?xml version="1.0" encoding="UTF-8"?>
<svg width="58px" height="67px" viewBox="0 0 58 67" version="1.1" xmlns="http://www.w3.org/2000/svg" xmlns:xlink="http://www.w3.org/1999/xlink">
    <!-- Generator: Sketch 49.1 (51147) - http://www.bohemiancoding.com/sketch -->
    <title>smartphone</title>
    <desc>Created with Sketch.</desc>
    <defs></defs>
    <g id="Pages" stroke="none" stroke-width="1" fill="none" fill-rule="evenodd">
        <g id="BOOK-FOR-2018" transform="translate(-373.000000, -1379.000000)">
            <g id="1-solutions-et-services-for" transform="translate(127.000000, 914.000000)">
                <g id="pictos" transform="translate(192.000000, 211.000000)">
                    <g id="smartphone" transform="translate(55.000000, 255.000000)">
                        <g id="Shape">
                            <path d="M17.2307692,53.0833333 C14.8550769,53.0833333 12.9230769,55.0268333 12.9230769,57.4166667 C12.9230769,59.8065 14.8550769,61.75 17.2307692,61.75 C19.6064615,61.75 21.5384615,59.8065 21.5384615,57.4166667 C21.5384615,55.0268333 19.6064615,53.0833333 17.2307692,53.0833333 Z M17.2307692,59.5833333 C16.0429231,59.5833333 15.0769231,58.6115833 15.0769231,57.4166667 C15.0769231,56.22175 16.0429231,55.25 17.2307692,55.25 C18.4186154,55.25 19.3846154,56.22175 19.3846154,57.4166667 C19.3846154,58.6115833 18.4186154,59.5833333 17.2307692,59.5833333 Z" fill="#000000" fill-rule="nonzero"></path>
                            <path d="M14,5.41666667 L18.3076923,5.41666667 C18.9021538,5.41666667 19.3846154,4.93241667 19.3846154,4.33333333 C19.3846154,3.73425 18.9021538,3.25 18.3076923,3.25 L14,3.25 C13.4055385,3.25 12.9230769,3.73425 12.9230769,4.33333333 C12.9230769,4.93241667 13.4055385,5.41666667 14,5.41666667 Z" fill="#000000" fill-rule="nonzero"></path>
                            <path d="M21.5384615,5.41666667 L22.6153846,5.41666667 C23.2098462,5.41666667 23.6923077,4.93241667 23.6923077,4.33333333 C23.6923077,3.73425 23.2098462,3.25 22.6153846,3.25 L21.5384615,3.25 C20.944,3.25 20.4615385,3.73425 20.4615385,4.33333333 C20.4615385,4.93241667 20.944,5.41666667 21.5384615,5.41666667 Z" fill="#000000" fill-rule="nonzero"></path>
                            <path d="M56,13 L36.6153846,13 L36.6153846,4.77208333 C36.6153846,2.14175 34.4873846,0 31.8715385,0 L4.74384615,0 C2.128,0 0,2.14175 0,4.77208333 L0,60.2268333 C0,62.85825 2.128,65 4.74384615,65 L31.8704615,65 C34.4873846,65 36.6153846,62.85825 36.6153846,60.2279167 L36.6153846,35.75 L56,35.75 L56,13 Z M4.74384615,2.16666667 L31.8704615,2.16666667 C33.2995385,2.16666667 34.4615385,3.33558333 34.4615385,4.77208333 L34.4615385,6.5 L2.15384615,6.5 L2.15384615,4.77208333 C2.15384615,3.33558333 3.31584615,2.16666667 4.74384615,2.16666667 Z M31.8715385,62.8333333 L4.74384615,62.8333333 C3.31584615,62.8333333 2.15384615,61.6644167 2.15384615,60.2279167 L2.15384615,52 L34.4615385,52 L34.4615385,60.2279167 C34.4615385,61.6644167 33.2995385,62.8333333 31.8715385,62.8333333 Z M34.4615385,49.8333333 L2.15384615,49.8333333 L2.15384615,8.66666667 L34.4615385,8.66666667 L34.4615385,13 L15.0769231,13 L15.0769231,35.75 L19.3846154,35.75 L19.3846154,43.3333333 L29.4355385,35.75 L34.4615385,35.75 L34.4615385,49.8333333 Z M53.8461538,33.5833333 L36.6153846,33.5833333 L28.7183077,33.5833333 L21.5384615,39 L21.5384615,33.5833333 L17.2307692,33.5833333 L17.2307692,15.1666667 L36.6153846,15.1666667 L53.8461538,15.1666667 L53.8461538,33.5833333 Z" stroke="#000000" stroke-width="0.5" fill="#000000" fill-rule="nonzero"></path>
                            <path d="M22.6153846,22.75 L33.3846154,22.75 C33.9790769,22.75 34.4615385,22.26575 34.4615385,21.6666667 C34.4615385,21.0675833 33.9790769,20.5833333 33.3846154,20.5833333 L22.6153846,20.5833333 C22.0209231,20.5833333 21.5384615,21.0675833 21.5384615,21.6666667 C21.5384615,22.26575 22.0209231,22.75 22.6153846,22.75 Z" fill="#D0021B" fill-rule="nonzero"></path>
                            <path d="M21.5384615,27.0833333 C21.5384615,27.6824167 22.0209231,28.1666667 22.6153846,28.1666667 L48.4615385,28.1666667 C49.056,28.1666667 49.5384615,27.6824167 49.5384615,27.0833333 C49.5384615,26.48425 49.056,26 48.4615385,26 L22.6153846,26 C22.0209231,26 21.5384615,26.48425 21.5384615,27.0833333 Z" fill="#D0021B" fill-rule="nonzero"></path>
                        </g>
                    </g>
                </g>
            </g>
        </g>
    </g>
</svg>