<?xml version="1.0" encoding="UTF-8"?>
<svg width="50px" height="62px" viewBox="0 0 50 62" version="1.1" xmlns="http://www.w3.org/2000/svg" xmlns:xlink="http://www.w3.org/1999/xlink">
    <!-- Generator: Sketch 49.1 (51147) - http://www.bohemiancoding.com/sketch -->
    <title>locked</title>
    <desc>Created with Sketch.</desc>
    <defs></defs>
    <g id="Pages" stroke="none" stroke-width="1" fill="none" fill-rule="evenodd">
        <g id="BOOK-FOR-2018" transform="translate(-778.000000, -1151.000000)">
            <g id="1-solutions-et-services-for" transform="translate(127.000000, 914.000000)">
                <g id="pictos" transform="translate(192.000000, 211.000000)">
                    <g id="icon/locked" transform="translate(460.000000, 27.000000)">
                        <g transform="translate(24.000000, 30.000000) rotate(-360.000000) translate(-24.000000, -30.000000) " id="Shape">
                            <path d="M41.4545455,22.3477778 L41.4545455,16.1111111 C41.4545455,7.22777778 33.624,0 24,0 C14.376,0 6.54545455,7.22777778 6.54545455,16.1111111 L6.54545455,22.3477778 C2.83527273,22.9988889 0,26.2922222 0,30.2555556 L0,51.9688889 C0,56.3966667 3.53781818,60 7.88618182,60 L40.1138182,60 C44.4621818,60 48,56.3966667 48,51.9677778 L48,30.2544444 C48,26.2922222 45.1647273,22.9988889 41.4545455,22.3477778 Z M8.72727273,16.1111111 C8.72727273,8.45222222 15.5781818,2.22222222 24,2.22222222 C32.4218182,2.22222222 39.2727273,8.45222222 39.2727273,16.1111111 L39.2727273,22.2222222 L8.72727273,22.2222222 L8.72727273,16.1111111 Z M45.8181818,51.9677778 C45.8181818,55.1711111 43.2589091,57.7777778 40.1138182,57.7777778 L7.88618182,57.7777778 C4.74109091,57.7777778 2.18181818,55.1711111 2.18181818,51.9677778 L2.18181818,30.2544444 C2.18181818,27.0511111 4.74109091,24.4444444 7.88618182,24.4444444 L40.1138182,24.4444444 C43.2589091,24.4444444 45.8181818,27.0511111 45.8181818,30.2544444 L45.8181818,51.9677778 Z" stroke="#000000" stroke-width="0.5" fill="#000000" fill-rule="nonzero"></path>
                            <path d="M24,30.5263158 C21.698087,30.5263158 19.826087,32.5496241 19.826087,35.037594 L19.826087,41.8045113 C19.826087,44.2924812 21.698087,46.3157895 24,46.3157895 C26.301913,46.3157895 28.173913,44.2924812 28.173913,41.8045113 L28.173913,35.037594 C28.173913,32.5496241 26.301913,30.5263158 24,30.5263158 Z M26.0869565,41.8045113 C26.0869565,43.0484962 25.1509565,44.0601504 24,44.0601504 C22.8490435,44.0601504 21.9130435,43.0484962 21.9130435,41.8045113 L21.9130435,35.037594 C21.9130435,33.793609 22.8490435,32.7819549 24,32.7819549 C25.1509565,32.7819549 26.0869565,33.793609 26.0869565,35.037594 L26.0869565,41.8045113 Z" fill="#D0021B" fill-rule="nonzero"></path>
                        </g>
                    </g>
                </g>
            </g>
        </g>
    </g>
</svg>