<?xml version="1.0" encoding="utf-8"?>
<!-- Generator: Adobe Illustrator 22.1.0, SVG Export Plug-In . SVG Version: 6.00 Build 0)  -->
<svg version="1.1" id="Calque_1" xmlns="http://www.w3.org/2000/svg" xmlns:xlink="http://www.w3.org/1999/xlink" x="0px" y="0px"
	 viewBox="0 0 95.1 74.7" style="enable-background:new 0 0 95.1 74.7;" xml:space="preserve">
<style type="text/css">
	.st0{fill:#252525;}
	.st1{fill:none;stroke:#C5143A;stroke-width:3;}
	.st2{fill:none;stroke:#C5143A;stroke-width:2.5;}
</style>
<title>auto-insurance</title>
<desc>Created with Sketch.</desc>
<g id="Pages">
	<g id="BOOK-FOR-2018" transform="translate(-565.000000, -1388.000000)">
		<g id="_x31_-solutions-et-services-for" transform="translate(127.000000, 914.000000)">
			<g id="pictos" transform="translate(192.000000, 211.000000)">
				<g id="icon_x2F_auto-insurance" transform="translate(243.000000, 258.000000)">
					<g id="auto-insurance" transform="translate(2.607143, 18.260870)">
						<path id="Shape" class="st0" d="M24.9,33.7c0,0.9-0.8,1.7-1.7,1.7h-8.6c-0.9,0-1.7-0.8-1.7-1.7s0.8-1.7,1.7-1.7h8.6
							C24.2,32,24.9,32.8,24.9,33.7z M23.2,38.1h-3.8c-0.9,0-1.7,0.8-1.7,1.7s0.8,1.7,1.7,1.7h3.8c0.9,0,1.7-0.8,1.7-1.7
							S24.2,38.1,23.2,38.1z M60,43.7c0,0.9-0.8,1.7-1.7,1.7h-9.7c-0.8,3.6-4,6.3-7.8,6.3c-3.9,0-7.2-2.8-7.8-6.5
							c-1.4-0.4-2.5-1.3-3.1-2.5c-0.3-0.6-0.5-1.2-0.5-1.9V29.4c0-0.9,0.8-1.7,1.7-1.7c0.9,0,1.7,0.8,1.7,1.7v11.2
							c0,0.1,0,0.3,0.1,0.4c0.1,0.1,0.1,0.2,0.3,0.3c1-3.3,4-5.7,7.6-5.7c3.8,0,7,2.7,7.8,6.3h9.7C59.2,42,60,42.7,60,43.7z
							 M45.4,43.7c0-2.5-2.1-4.6-4.6-4.6s-4.6,2-4.6,4.5c0,0,0,0,0,0.1c0,2.5,2.1,4.6,4.6,4.6C43.3,48.2,45.4,46.2,45.4,43.7z
							 M82.9,37v1.1c0,0.7,0,1.5,0,2.5c0,2-1.4,3.8-3.5,4.4c-0.7,3.7-3.9,6.6-7.8,6.6c-4.4,0-8-3.6-8-8s3.6-8,8-8
							c3.6,0,6.6,2.4,7.6,5.7c0.2-0.2,0.3-0.5,0.3-0.7c0-1,0-1.8,0-2.5V37c0-1.3,0-3.2,0-4c0-0.6,0-1.1-0.1-1.6H53.6
							c-0.6,0-2,0-6.4-4.3c-1.3-1.3-3.9-4.1-4.4-5.3c-0.4-0.9,0.1-1.8,0.9-2.2c0.8-0.4,1.8,0,2.2,0.9c0.2,0.4,1.6,2.1,3.6,4.1
							c2.5,2.5,3.8,3.3,4.2,3.4h23.9c-0.5-0.5-1.2-1.1-2.1-1.9c-0.5-0.4-1-0.9-1.5-1.4c-0.4-0.4-0.8-0.8-1.2-1.1
							c-0.6-0.5-1.2-1.1-1.8-1.6c-0.5-0.5-1.1-0.9-1.6-1.3c-6.3-5.3-7.9-6.7-13.2-6.7H44.5c-0.9,0-1.7-0.8-1.7-1.7s0.8-1.7,1.7-1.7
							h11.6c6.5,0,9.1,2.2,15.4,7.5c0.5,0.4,1,0.8,1.5,1.3c0.7,0.6,1.3,1.2,1.9,1.8c0.4,0.4,0.8,0.7,1.1,1.1
							c0.6,0.5,1.1,0.9,1.5,1.4c4,3.6,5.1,4.5,5.2,9.3C83,33.8,83,35.6,82.9,37z M76.2,43.6c0-2.5-2.1-4.6-4.6-4.6S67,41.1,67,43.6
							s2.1,4.6,4.6,4.6C74.1,48.2,76.2,46.2,76.2,43.6L76.2,43.6z M71.6,42L71.6,42c-0.9,0-1.7,0.8-1.7,1.7s0.8,1.7,1.7,1.7
							s1.7-0.8,1.7-1.7S72.5,42,71.6,42z M37.9,29.7c0,0.9,0.8,1.7,1.7,1.7h1.9c0.9,0,1.7-0.8,1.7-1.7c0-0.9-0.8-1.7-1.7-1.7h-1.9
							C38.7,28,37.9,28.8,37.9,29.7z M40.8,42L40.8,42c-0.9,0-1.7,0.8-1.7,1.7s0.8,1.7,1.7,1.7s1.7-0.8,1.7-1.7S41.7,42,40.8,42z"/>
					</g>
					<path id="Path" class="st1" d="M29.6,43c-0.1,0-0.2,0-0.2,0c-0.1,0-0.2,0-0.2,0c-3.3-0.6-6.4-2.4-8.6-5s-3.5-6-3.5-9.4v-8.5
						c0-1.1,0.7-2.7,4.1-3.8c2.2-0.7,5.1-1.1,8.2-1.1s6,0.4,8.2,1.1c3.4,1.1,4.1,2.7,4.1,3.8c0,0,0,2.8,0,8.5c0,3.4-1.2,6.8-3.5,9.4
						C36,40.6,33,42.4,29.6,43z"/>
					<path id="Path-3" class="st2" d="M12.6,9.9"/>
					<path id="Path-4" class="st2" d="M12.6,9.9"/>
				</g>
			</g>
		</g>
	</g>
</g>
</svg>
