<?xml version="1.0" encoding="UTF-8"?>
<svg width="25px" height="25px" viewBox="0 0 25 25" version="1.1" xmlns="http://www.w3.org/2000/svg" xmlns:xlink="http://www.w3.org/1999/xlink">
    <!-- Generator: Sketch 49.1 (51147) - http://www.bohemiancoding.com/sketch -->
    <title>icon-pdf</title>
    <desc>Created with Sketch.</desc>
    <defs>
        <polygon id="path-1" points="0 24.7550966 0 0.0341036998 19.5614855 0.0341036998 19.5614855 24.7550966"></polygon>
    </defs>
    <g id="Pages" stroke="none" stroke-width="1" fill="none" fill-rule="evenodd">
        <g id="All-in-one" transform="translate(-345.000000, -3123.000000)">
            <g id="PDF" transform="translate(324.000000, 3103.000000)">
                <g id="icon/pdf" transform="translate(21.000000, 20.000000)">
                    <g id="PDF">
                        <path d="M20.1075995,13.9362146 C20.246799,13.9362146 20.3457646,13.9362695 20.44484,13.9362146 C20.938625,13.9359401 21.4325198,13.9383553 21.9263048,13.9341288 C22.1349394,13.9323723 22.3323216,13.8528925 22.3626206,13.6370674 C22.3852899,13.4758572 22.3526856,13.2607457 22.255696,13.1428432 C22.1713859,13.0403647 21.9630807,13.0044671 21.8082926,13.0013933 C21.1135575,12.9872867 20.4183833,12.9948065 19.7233189,12.9956848 C19.2292045,12.9963434 19.0705742,13.1588709 19.0712328,13.653644 C19.0727149,14.8333817 19.0726051,16.0130646 19.0732637,17.1927476 C19.0734284,17.4945294 19.0625603,17.7968602 19.0777098,18.0978737 C19.0926397,18.3953742 19.3005058,18.5572979 19.6189741,18.5490645 C19.9144986,18.54138 20.1009579,18.3677649 20.105898,18.0720757 C20.1134727,17.6149568 20.1082033,17.1575634 20.108368,16.7003348 C20.1084229,16.5574028 20.108368,16.4144708 20.108368,16.2465641 C20.5550579,16.2465641 20.9646426,16.2449175 21.3742272,16.2472228 C21.5980662,16.2484853 21.7680586,16.1662061 21.845782,15.9470876 C21.9496328,15.6544722 21.7667962,15.3546663 21.4511822,15.3354002 C21.07755,15.312676 20.701887,15.3208545 20.3271571,15.3206349 C20.1898787,15.3205251 20.1017264,15.2933 20.1051295,15.1251189 C20.1129238,14.7423751 20.1075995,14.359302 20.1075995,13.9362146 M10.3269129,16.5922576 C10.7522509,16.5646482 11.1355984,16.5589946 11.5136766,16.5112957 C12.401787,16.3991018 12.9700569,15.7924093 13.0172069,14.9348722 C13.0683089,14.0051008 12.5931314,13.2717235 11.7091926,13.1106232 C11.069786,12.9941479 10.4021663,13.0140727 9.74700646,13.0110538 C9.43754005,13.0095169 9.28873489,13.22139 9.28846045,13.544469 C9.28719799,15.0068322 9.2866491,16.4691406 9.28862512,17.9315039 C9.28911912,18.3342274 9.47870709,18.5491743 9.81995447,18.5490096 C10.1720151,18.548845 10.3251016,18.3610135 10.3265836,17.9227216 C10.3280107,17.4851983 10.3269129,17.0477298 10.3269129,16.5922576 M14.0470966,15.7253893 C14.0470966,16.4471849 14.0469869,17.1689804 14.0471515,17.8908309 C14.0472064,18.3015682 14.1830577,18.4566857 14.5959906,18.4701336 C14.9975065,18.4831424 15.4010534,18.490772 15.8016362,18.4660718 C17.0427403,18.3897206 17.7831983,17.7584377 17.8929222,16.6068032 C17.9513245,15.9937985 17.9280514,15.3624606 17.8543898,14.749895 C17.7471908,13.8580521 17.1613563,13.2229818 16.2823575,13.0774151 C15.6942176,12.9800962 15.082146,13.005016 14.4814364,13.0151156 C14.1717505,13.0203301 14.0488531,13.2045389 14.0477553,13.5325031 C14.0451755,14.2634103 14.046932,14.9943723 14.0470966,15.7253893 M15.649373,11.0738423 C18.1738461,11.0737875 20.6982643,11.0723054 23.2227374,11.0746108 C24.007052,11.0753244 24.420424,11.4935267 24.420918,12.2807504 C24.4223452,14.5764994 24.4222903,16.8722484 24.420918,19.1679974 C24.420424,19.931948 23.9964583,20.365684 23.2372831,20.3661231 C18.1883918,20.3690871 13.1394456,20.3630493 8.09060916,20.3752347 C7.25255786,20.3772656 6.85976934,19.7915409 6.86701474,19.1549886 C6.8930872,16.8686806 6.89550234,14.5816041 6.86657562,12.295351 C6.8574091,11.5725125 7.34186291,11.0546859 8.10361794,11.0632487 C10.6185952,11.0914618 13.1341213,11.0738972 15.649373,11.0738423" id="Fill-1" fill="#2A2A2A"></path>
                        <g id="Group-5" transform="translate(0.000000, 0.020803)">
                            <mask id="mask-2" fill="white">
                                <use xlink:href="#path-1"></use>
                            </mask>
                            <g id="Clip-4"></g>
                            <path d="M19.539143,9.32837053 L17.877147,9.32837053 L17.877147,4.95061185 L17.5566478,4.95061185 C16.7699181,4.95055697 15.9831884,4.95225854 15.1964586,4.94978851 C14.8011452,4.94847117 14.623084,4.77403267 14.6214922,4.38382395 C14.6182537,3.6154273 14.6095263,2.84675619 14.6261029,2.07868887 C14.6318663,1.80962105 14.5679202,1.7187791 14.2795313,1.719822 C11.1510004,1.73118411 8.02241457,1.72783585 4.89382877,1.72816519 C3.94243087,1.72822008 2.99103297,1.72668318 2.03968996,1.72723207 C1.93260075,1.72728696 1.82551153,1.73623393 1.68938583,1.74238154 L1.68938583,2.12111838 C1.68944072,8.99123986 1.69031895,15.8613613 1.68576313,22.7314828 C1.68565335,22.9596031 1.71309805,23.0717971 1.99001505,23.071358 C7.16773179,23.0625757 12.3453936,23.0643321 17.5231104,23.0638381 L17.8718227,23.0638381 L17.8718227,22.1654634 L19.5589032,22.1654634 C19.5589032,22.3394628 19.5589581,22.5171946 19.5589032,22.6948716 C19.5588483,23.0699308 19.5615379,23.445045 19.5580249,23.8200493 C19.5522616,24.4348106 19.2273712,24.7517419 18.593728,24.7528397 C16.9378796,24.7557489 15.2820312,24.7550353 13.6261828,24.7549804 C9.42725377,24.7548157 5.22832475,24.7570662 1.02945062,24.7459785 C0.795621796,24.7453748 0.539123648,24.6743479 0.334111754,24.5616051 C0.0664161692,24.4143917 -0.000603783357,24.1279239 0.000164668188,23.8254834 C0.00384225772,22.4258587 0.000164668188,21.0262339 0.000109778792,19.6266092 C-0.000109778792,13.4884379 -0.000164668188,7.35015669 0.000988009129,1.21198531 C0.00104289853,1.03853482 -0.00329336376,0.861736074 0.0268958041,0.692347397 C0.0991302493,0.28676965 0.463650729,0.0401515932 0.978513264,0.0393831417 C2.4696386,0.037077787 3.96076393,0.0382853538 5.45188926,0.0383951325 C8.58964159,0.0387244689 11.7273939,0.0439389616 14.8651462,0.0341137597 C15.2794514,0.0327964142 15.5956143,0.160798486 15.8878455,0.454237197 C16.9917261,1.5624541 18.1104818,2.65585087 19.226987,3.75144322 C19.4321636,3.95283241 19.5621416,4.1765067 19.561483,4.47356811 C19.5579152,6.02869448 19.5594521,7.58382085 19.5581896,9.13894722 C19.5581347,9.19279372 19.5476508,9.24664022 19.539143,9.32837053" id="Fill-3" fill="#2A2A2A" mask="url(#mask-2)"></path>
                        </g>
                        <path d="M15.0764814,17.5352793 L15.0764814,13.9037969 C15.4517053,13.9447993 15.8269841,13.9430977 16.1774529,14.0353668 C16.5841284,14.1425109 16.8188355,14.4762384 16.8515496,14.8848351 C16.8951866,15.4291732 16.9148919,15.9812508 16.8755911,16.5249302 C16.8301976,17.1531394 16.4505825,17.48533 15.8194643,17.5324251 C15.5836594,17.5500446 15.3454943,17.5352793 15.0764814,17.5352793" id="Fill-6" fill="#2A2A2A"></path>
                        <path d="M10.3251455,13.8651383 C10.6862628,13.8863805 11.0068169,13.8760613 11.3161186,13.9301273 C11.7980475,14.0143277 12.0000954,14.3208849 11.9892822,14.8665953 C11.9804999,15.3122972 11.7449695,15.5850975 11.2918026,15.6744026 C11.2828557,15.6761041 11.2736343,15.6764335 11.2646873,15.6780253 C10.349187,15.8418701 10.3232244,15.8204084 10.3250357,14.907433 C10.3256944,14.5798531 10.3251455,14.2522732 10.3251455,13.8651383" id="Fill-8" fill="#2A2A2A"></path>
                    </g>
                </g>
            </g>
        </g>
    </g>
</svg>