<?xml version="1.0" encoding="UTF-8"?>
<svg width="54px" height="51px" viewBox="0 0 54 51" version="1.1" xmlns="http://www.w3.org/2000/svg" xmlns:xlink="http://www.w3.org/1999/xlink">
    <!-- Generator: Sketch 49.1 (51147) - http://www.bohemiancoding.com/sketch -->
    <title>icon-datasecure</title>
    <desc>Created with Sketch.</desc>
    <defs></defs>
    <g id="Pages" stroke="none" stroke-width="1" fill="none" fill-rule="evenodd">
        <g id="Enterprise-security" transform="translate(-989.000000, -6051.000000)">
            <g id="Conference" transform="translate(351.000000, 5821.000000)">
                <g id="icon/datasecure" transform="translate(638.000000, 230.000000)">
                    <g id="Page-1">
                        <path d="M2.68932136,22.0801384 C3.90478002,22.8970984 5.4441795,23.5498384 7.24695104,24.1287484 C11.3247944,25.4362985 16.7998027,26.2201385 22.8525963,26.2201385 C28.9053898,26.2201385 34.3803981,25.4362985 38.4575609,24.1287484 C40.261013,23.5498384 41.7997319,22.8970984 43.0151906,22.0801384 L43.0151906,27.6001385 C43.0151906,27.9561785 42.7599851,28.4916185 41.8603007,29.1740285 C40.9606163,29.8571285 39.5130908,30.5629986 37.6592782,31.1577786 C33.9536945,32.3466486 28.6780868,33.1201386 22.8525963,33.1201386 C17.0271057,33.1201386 11.751498,32.3466486 8.04523379,31.1577786 C6.1921017,30.5629986 4.7445762,29.8571285 3.8448918,29.1740285 C2.94452685,28.4916185 2.68932136,27.9561785 2.68932136,27.6001385 C2.69204356,27.5497685 2.69204356,27.4993985 2.68932136,27.4490285 L2.68932136,22.0801384 Z M2.68932136,12.4201382 C3.90478002,13.2370982 5.4441795,13.8898383 7.24695104,14.4687483 C11.3247944,15.7769883 16.7998027,16.5601383 22.8525963,16.5601383 C28.9053898,16.5601383 34.3803981,15.7769883 38.4575609,14.4687483 C40.261013,13.8898383 41.7997319,13.2370982 43.0151906,12.4201382 L43.0151906,17.9401383 C43.0151906,18.2961783 42.7599851,18.8316183 41.8603007,19.5140284 C40.9606163,20.1971284 39.5130908,20.9029984 37.6592782,21.4977784 C33.9536945,22.6866484 28.6780868,23.4601384 22.8525963,23.4601384 C17.0271057,23.4601384 11.751498,22.6866484 8.04523379,21.4977784 C6.1921017,20.9029984 4.7445762,20.1971284 3.8448918,19.5140284 C2.94452685,18.8316183 2.68932136,18.2961783 2.68932136,17.9401383 C2.69136301,17.8973583 2.69136301,17.8538883 2.68932136,17.8111083 L2.68932136,12.4201382 Z M22.8525963,2.76013805 C28.6780868,2.76013805 33.9536945,3.51154806 37.6592782,4.70041809 C39.5130908,5.2951981 40.9606163,6.02314811 41.8603007,6.70624812 C42.7599851,7.38865813 43.0151906,7.92409814 43.0151906,8.28013815 C43.0151906,8.63617816 42.7599851,9.17161817 41.8603007,9.85402818 C40.9606163,10.5371282 39.5130908,11.2429982 37.6592782,11.8377782 C33.9536945,13.0266482 28.6780868,13.8001383 22.8525963,13.8001383 C17.0271057,13.8001383 11.751498,13.0266482 8.04523379,11.8377782 C6.1921017,11.2429982 4.7445762,10.5371282 3.8448918,9.85402818 C2.94452685,9.17161817 2.68932136,8.63617816 2.68932136,8.28013815 C2.68932136,7.92409814 2.94452685,7.38865813 3.8448918,6.70624812 C4.7445762,6.02314811 6.1921017,5.2951981 8.04523379,4.70041809 C11.751498,3.51154806 17.0271057,2.76013805 22.8525963,2.76013805 Z M22.8525963,0.000138000003 C16.7998027,0.000138000003 11.3247944,0.761898014 7.24695104,2.07013804 C5.20802935,2.72425805 3.50393727,3.51706806 2.2272293,4.48513808 C1.00632626,5.4111181 0.0998363854,6.62689812 0.0222539182,8.08624815 C0.0140873427,8.11453815 0.00728186315,8.14351815 0.00115693153,8.17249815 C-0.000204164387,8.20837815 0.00115693153,8.24287815 0.00115693153,8.28013815 L0.00115693153,17.8324983 C-0.000204164387,17.8683783 -0.000204164387,17.9042583 0.00115693153,17.9401383 L0.00115693153,27.4924985 C-0.000204164387,27.5283785 -0.000204164387,27.5642585 0.00115693153,27.6001385 L0.00115693153,37.2601387 C0.00115693153,38.8091887 0.950521332,40.0870687 2.2272293,41.0551387 C3.50393727,42.0232088 5.20802935,42.7946288 7.24695104,43.4487488 C11.3247944,44.7562988 16.7998027,45.5401388 22.8525963,45.5401388 C26.8868845,45.5401388 30.4863027,45.4732088 33.8577373,44.8287488 C34.5879652,44.6803988 35.0629877,43.9524488 34.918031,43.2037988 C34.7751159,42.4613588 34.0789154,41.9755988 33.3541318,42.1115288 C30.2903049,42.6973388 26.8542182,42.7801388 22.8525963,42.7801388 C17.0271057,42.7801388 11.751498,42.0073388 8.04523379,40.8177787 C6.1921017,40.2236887 4.7445762,39.5171287 3.8448918,38.8340287 C2.94452685,38.1516187 2.68932136,37.6161787 2.68932136,37.2601387 L2.68932136,31.6752786 C3.90954385,32.5074186 5.42104087,33.2029386 7.24695104,33.7887486 C11.3247944,35.0962986 16.7998027,35.8801387 22.8525963,35.8801387 C28.9053898,35.8801387 34.3803981,35.0962986 38.4575609,33.7887486 C40.4964826,33.1346286 42.2012552,32.3632086 43.4772827,31.3951386 C44.7539906,30.4270686 45.7040356,29.1491885 45.7040356,27.6001385 L45.7040356,8.28013815 C45.7040356,8.23597815 45.7053967,8.19457815 45.7040356,8.15110815 C45.6992717,8.10763815 45.6917857,8.06416815 45.6829386,8.02138815 C45.5815369,6.59101812 44.6804914,5.3973181 43.4772827,4.48513808 C42.2012552,3.51706806 40.4964826,2.72425805 38.4575609,2.07013804 C34.3803981,0.761898014 28.9053898,0.000138000003 22.8525963,0.000138000003 Z" id="Fill-1" fill="#252525"></path>
                        <path d="M43.721191,35.8801387 L47.6697303,35.8801387 L48.6143309,37.3249987 C48.8606892,37.7107087 49.2785457,37.9459987 49.7277073,37.9501387 L50.9669851,37.9501387 L50.4422827,44.8936088 C50.2381183,45.1192388 49.7202213,45.7112588 48.7620098,46.5323588 C47.6377445,47.4942189 46.161636,48.3001389 45.6954607,48.3001389 C45.2292853,48.3001389 43.7538573,47.4942189 42.6295921,46.5323588 C41.6700195,45.7112588 41.152803,45.1192388 40.9486387,44.8936088 L40.4232556,37.9501387 L41.663214,37.9501387 C42.1123757,37.9459987 42.5302321,37.7107087 42.7759099,37.3249987 L43.721191,35.8801387 Z M42.8813949,33.1201386 C42.4805521,33.1594686 42.1185006,33.3809586 41.8932392,33.7238886 L40.9486387,35.1901386 L38.974369,35.1901386 C38.2318912,35.1887586 37.6289257,35.8056186 37.6275646,36.5673787 C37.6275646,36.5970487 37.6282452,36.6267187 37.6302868,36.6563887 L38.3019877,45.6263888 C38.3230846,45.9299888 38.4415,46.2177188 38.6381783,46.4461088 C38.6381783,46.4461088 39.612723,47.5590789 40.9064447,48.6665289 C42.2008469,49.7746689 43.7375242,51.0601389 45.6954607,51.0601389 C47.6527166,51.0601389 49.1900744,49.7746689 50.4844766,48.6665289 C51.7781983,47.5590789 52.752743,46.4461088 52.752743,46.4461088 C52.9494213,46.2177188 53.0671561,45.9299888 53.0889337,45.6263888 L53.7606345,36.6563887 C53.8069118,35.8953187 53.2434181,35.2398186 52.5023013,35.1928986 C52.4737183,35.1908286 52.4451353,35.1901386 52.4158717,35.1901386 L50.4422827,35.1901386 L49.4970016,33.7238886 C49.2458794,33.3457686 48.829384,33.1194486 48.3843056,33.1201386 L43.0066157,33.1201386 C42.9651023,33.1180686 42.9229083,33.1180686 42.8813949,33.1201386 Z" id="Fill-3" fill="#C5143A"></path>
                    </g>
                </g>
            </g>
        </g>
    </g>
</svg>