<?xml version="1.0" encoding="utf-8"?>
<!-- Generator: Adobe Illustrator 22.1.0, SVG Export Plug-In . SVG Version: 6.00 Build 0)  -->
<svg version="1.1" id="Calque_1" xmlns:sketch="http://www.bohemiancoding.com/sketch/ns"
	 xmlns="http://www.w3.org/2000/svg" xmlns:xlink="http://www.w3.org/1999/xlink" x="0px" y="0px" viewBox="0 0 100 106.7"
	 style="enable-background:new 0 0 100 106.7;" xml:space="preserve">
<style type="text/css">
	.st0{fill:#252525;}
	.st1{fill:#C5143A;}
</style>
<title>bot1_open</title>
<desc>Created with Sketch.</desc>
<g sketch:type="MSPage">
	<g sketch:type="MSArtboardGroup">
		<path sketch:type="MSShapeGroup" class="st0" d="M35,64L35,64c1.1,0,2-0.9,2-2s-0.9-2-2-2s-2,0.9-2,2S33.9,64,35,64L35,64z M35,68
			c-3.3,0-6-2.7-6-6s2.7-6,6-6s6,2.7,6,6S38.3,68,35,68z M65,64c1.1,0,2-0.9,2-2s-0.9-2-2-2s-2,0.9-2,2S63.9,64,65,64z M65,68L65,68
			c-3.3,0-6-2.7-6-6s2.7-6,6-6c3.3,0,6,2.7,6,6S68.3,68,65,68L65,68z"/>
		<path class="st0" d="M88,10c-1.1,0-2,0.9-2,2v1.9v24.7C81.4,30.6,71.4,22,50,22s-31.4,8.6-36,16.6V13.9V12c0-1.1-0.9-2-2-2
			s-2,0.9-2,2v1.9v46.1v1v11c0,0,0,20,40,20s40-20,40-20V61v-1V13.9V12C90,10.9,89.1,10,88,10z M86,72c0,0,0,0.1,0,0.3
			c-0.1,0.5-0.2,1-0.4,1.6c-0.6,1.8-1.7,3.6-3.4,5.3C76.8,84.6,66.5,88,50,88s-26.8-3.4-32.2-8.8c-1.7-1.7-2.8-3.5-3.4-5.3
			c-0.2-0.6-0.3-1.1-0.4-1.6c0-0.2,0-0.3,0-0.3V52c0,0,0-0.4,0.1-0.9c0.1-0.9,0.2-1.8,0.5-2.9c0.7-3.1,1.9-6.1,3.8-9
			C23.8,31,33.8,26,50,26s26.2,5,31.7,13.2c1.9,2.8,3.1,5.9,3.8,9c0.2,1.1,0.4,2,0.5,2.9c0,0.5,0.1,0.8,0.1,0.9V72z"/>
	</g>
</g>
<title>bot1_open</title>
<desc>Created with Sketch.</desc>
<path class="st1" d="M65,47H35c-8.3,0-15,6.7-15,15c0,8.3,6.7,15,15,15h30c8.3,0,15-6.7,15-15C80,53.7,73.3,47,65,47z M65,73H35
	c-6.1,0-11-4.9-11-11c0-6.1,4.9-11,11-11h30c6.1,0,11,4.9,11,11C76,68.1,71.1,73,65,73z"/>
</svg>
