<?xml version="1.0" encoding="utf-8"?>
<!-- Generator: Adobe Illustrator 22.1.0, SVG Export Plug-In . SVG Version: 6.00 Build 0)  -->
<svg version="1.1" id="Calque_1" xmlns="http://www.w3.org/2000/svg" xmlns:xlink="http://www.w3.org/1999/xlink" x="0px" y="0px"
	 viewBox="0 0 85.1 89.2" style="enable-background:new 0 0 85.1 89.2;" xml:space="preserve">
<style type="text/css">
	.st0{fill:#252525;}
	.st1{fill:#C5143A;}
</style>
<title>icon/package</title>
<desc>Created with Sketch.</desc>
<path class="st0" d="M85,17.7c0-0.3-0.1-0.6-0.2-0.8c-0.3-0.5-0.8-0.9-1.3-1L50.9,0.2c-0.5-0.3-1.2-0.3-1.7,0L16.2,16
	c-0.6,0.3-1.1,0.9-1.1,1.6v0c0,0,0,0,0,0.1v29.2l3.9-1.8V20.8l29.2,13.9V70l-5.8-2.8v4.2l6.9,3.3c0,0,0,0,0,0c0,0,0.1,0,0.1,0.1
	c0,0,0,0,0.1,0c0,0,0.1,0,0.1,0c0,0,0,0,0,0c0,0,0.1,0,0.2,0c0,0,0,0,0,0c0.1,0,0.1,0,0.2,0c0.1,0,0.1,0,0.2,0c0,0,0,0,0,0
	c0,0,0.1,0,0.2,0c0,0,0,0,0,0c0,0,0.1,0,0.1,0c0,0,0,0,0.1,0c0,0,0.1,0,0.1-0.1c0,0,0,0,0,0L84,59c0.7-0.3,1.1-1,1.1-1.7L85,17.7
	C85,17.7,85,17.7,85,17.7z M50,4l28.6,13.7l-10.5,5L39.5,9.1L50,4z M50,31.4L21.4,17.7L35,11.2l28.6,13.7L50,31.4z M81.2,56L51.9,70
	V34.7l13.7-6.6v9.2c0,1,0.9,1.9,1.9,1.9s1.9-0.9,1.9-1.9V26.3l11.7-5.6V56z"/>
<path class="st1" d="M42.7,54.2c0-0.1-0.1-0.3-0.1-0.4c-0.2-0.4-0.6-0.7-1.1-0.9l-19.4-9.3c-0.4-0.2-1-0.2-1.4,0L0.9,53.1
	C0.4,53.3,0,53.9,0,54.5v23.6c0,0.6,0.4,1.2,0.9,1.5L20.5,89l0.8,0.2c0.1,0,0.1,0,0.2,0c0.1,0,0.1,0,0.2,0l0.2-0.1c0,0,0,0,0.1,0
	l19.9-9.5c0.6-0.3,0.9-0.8,0.9-1.5L42.7,54.2L42.7,54.2z M19.7,65v20L3.3,77.1v-20L19.7,65z M23,65l7.2-3.4v4.7
	c0,0.9,0.7,1.6,1.6,1.6s1.6-0.7,1.6-1.6V60l6-2.9v20L23,85V65z M16.2,49.4l5.1-2.5l15.9,7.6L32.1,57L16.2,49.4z M28.3,58.8l-7,3.3
	L5.4,54.5l7-3.3L28.3,58.8z"/>
</svg>
