<?xml version="1.0" encoding="utf-8"?>
<!-- Generator: Adobe Illustrator 22.1.0, SVG Export Plug-In . SVG Version: 6.00 Build 0)  -->
<svg version="1.1" id="Calque_1" xmlns="http://www.w3.org/2000/svg" xmlns:xlink="http://www.w3.org/1999/xlink" x="0px" y="0px"
	 viewBox="0 0 57 57" style="enable-background:new 0 0 57 57;" xml:space="preserve">
<style type="text/css">
	.st0{fill:#D0021B;}
</style>
<title>online-shop</title>
<desc>Created with Sketch.</desc>
<g id="Pages">
	<g id="BOOK-FOR-2018" transform="translate(-980.000000, -1386.000000)">
		<g id="_x31_-solutions-et-services-for" transform="translate(127.000000, 914.000000)">
			<g id="pictos" transform="translate(192.000000, 211.000000)">
				<g id="icon_x2F_online-shop" transform="translate(662.000000, 262.000000)">
					<g id="online-shop">
						<path d="M24.8,11h-3.5V9.2c0-2.9-2.4-5.3-5.3-5.3c-2.9,0-5.2,2.4-5.2,5.3V11H7.2c-0.5,0-0.9,0.4-0.9,0.9v15
							c0.1,1.6,1.4,2.8,2.9,2.8H23c1.5,0,2.6-1.1,2.7-2.5V11.9C25.7,11.4,25.3,11,24.8,11z M11.7,15.7c-0.4,0-0.7-0.3-0.7-0.8
							c0-0.4,0.3-0.8,0.7-0.8c0.5,0,0.7,0.4,0.7,0.8C12.4,15.4,12.1,15.7,11.7,15.7z M20.5,15.7c-0.4,0-0.8-0.3-0.8-0.8
							c0-0.4,0.3-0.8,0.8-0.8s0.8,0.3,0.8,0.8C21.2,15.4,20.9,15.7,20.5,15.7z M10.9,13c-0.8,0.4-1.3,1.1-1.3,2c0,1.2,1,2.2,2.2,2.2
							s2.2-1,2.2-2.2c0-0.9-0.5-1.7-1.3-2v-0.1h6.9V13c-0.8,0.4-1.3,1.1-1.3,2c0,1.2,1,2.2,2.2,2.2s2.2-1,2.2-2.2
							c0-0.9-0.5-1.7-1.3-2v-0.1H24V27c0,0.5-0.4,0.9-1,0.9H9.1c-0.5,0-1-0.5-1-1V12.8h2.7V13z M12.7,11V9.2c0-1.9,1.5-3.5,3.4-3.5
							c1.9,0,3.5,1.6,3.5,3.5V11H12.7z"/>
						<path d="M52.2-0.2H2.7c-1.6,0-3,1.4-3,3v38.1c0,1.6,1.4,3,3,3h17.4l-2.3,4.3h-2.6c-0.6,0-1.1,0.4-1.1,1.1v4.9
							c0,0.6,0.4,1.1,1.1,1.1h24.5c0.6,0,1.1-0.4,1.1-1.1v-4.9c0-0.6-0.4-1.1-1.1-1.1h-2.6l-2.3-4.3h17.4c1.6,0,3-1.4,3-3V2.7
							C55.2,1.1,53.8-0.2,52.2-0.2z M16.3,53.1v-2.8h22.4v2.8H16.3z M1.9,2.8c0-0.4,0.4-0.8,0.8-0.8h49.4c0.4,0,0.8,0.4,0.8,0.8
							v30.2H1.9V2.8z M53,35v5.8c0,0.6-0.4,0.8-0.8,0.8H2.7c-0.4,0-0.8-0.3-0.8-0.8V35H53z M20.3,48.2l2.3-4.3h9.7l2.3,4.3H20.3z"/>
						<path id="Shape_2_" d="M27.5,40.7c1.4,0,2.5-1.1,2.5-2.5s-1.1-2.5-2.5-2.5S25,36.9,25,38.2S26.1,40.7,27.5,40.7z M27.5,37.2
							c0.5,0,1,0.5,1,1c0,0.5-0.5,1-1,1s-1-0.5-1-1C26.5,37.7,27,37.2,27.5,37.2z"/>
						<path id="Shape_3_" class="st0" d="M41.8,22.3l2.6-1.7c0.2-0.2,0.4-0.5,0.3-0.8c-0.1-0.3-0.2-0.6-0.6-0.6l-11.8-3.3
							c-0.2-0.1-0.6,0-0.8,0.2c-0.2,0.2-0.3,0.5-0.2,0.8l3.5,11.8c0.1,0.3,0.3,0.6,0.6,0.6c0.3,0.1,0.6-0.1,0.8-0.3l1.7-2.6l3.5,3.5
							c0.2,0.2,0.3,0.2,0.6,0.2c0.2,0,0.4-0.1,0.6-0.2l2.8-2.8c0.3-0.3,0.3-0.8,0-1.1L41.8,22.3z M41.8,28.1l-3.6-3.7
							c-0.2-0.2-0.3-0.2-0.6-0.2h-0.1c-0.2,0-0.5,0.2-0.6,0.3l-1.3,2l-2.5-8.8l8.7,2.6L40,21.5c-0.2,0.2-0.3,0.3-0.3,0.6
							s0.1,0.5,0.2,0.6l3.6,3.7L41.8,28.1z"/>
						<path id="Shape_4_" d="M46.2,6.4H32.8c-0.5,0-0.8,0.4-0.8,1s0.3,1,0.8,1h13.4c0.5,0,0.8-0.4,0.8-1S46.7,6.4,46.2,6.4z"/>
						<path id="Shape_5_" d="M46.2,11H32.8c-0.5,0-0.8,0.4-0.8,1c0,0.6,0.3,1,0.8,1h13.4c0.5,0,0.8-0.4,0.8-1S46.7,11,46.2,11z"/>
					</g>
				</g>
			</g>
		</g>
	</g>
</g>
</svg>
