<?xml version="1.0" encoding="UTF-8"?>
<svg width="66px" height="47px" viewBox="0 0 66 47" version="1.1" xmlns="http://www.w3.org/2000/svg" xmlns:xlink="http://www.w3.org/1999/xlink">
    <!-- Generator: Sketch 49.1 (51147) - http://www.bohemiancoding.com/sketch -->
    <title>icon/payment</title>
    <desc>Created with Sketch.</desc>
    <defs></defs>
    <g id="Pages" stroke="none" stroke-width="1" fill="none" fill-rule="evenodd">
        <g id="BOOK-FOR-2018" transform="translate(-364.000000, -1159.000000)">
            <g id="icon/payment" transform="translate(364.000000, 1159.000000)">
                <g id="Page-1">
                    <path d="M3.53571429,3.13333333 L62.4642857,3.13333333 C62.6740714,3.13333333 62.8571429,3.31663333 62.8571429,3.525 L62.8571429,7.05 L3.14285714,7.05 L3.14285714,3.525 C3.14285714,3.31663333 3.32671429,3.13333333 3.53571429,3.13333333 Z M3.14285714,16.45 L62.8571429,16.45 L62.8571429,10.1833333 L3.14285714,10.1833333 L3.14285714,16.45 Z M3.14285714,19.5833333 L62.8571429,19.5833333 L62.8571429,43.475 C62.8571429,43.68415 62.6740714,43.8666667 62.4642857,43.8666667 L3.53571429,43.8666667 C3.32671429,43.8666667 3.14285714,43.68415 3.14285714,43.475 L3.14285714,19.5833333 Z M62.4642857,0 L3.53571429,0 C1.58635714,0 0,1.58155 0,3.525 L0,43.475 C0,45.41845 1.58635714,47 3.53571429,47 L62.4642857,47 C64.4136429,47 66,45.41845 66,43.475 L66,3.525 C66,1.58155 64.4136429,0 62.4642857,0 Z" id="Fill-1" fill="#252525"></path>
                    <path d="M44,29.7666667 C45.0465714,29.7666667 46.0310714,30.1724333 46.7727857,30.90955 C47.8091429,31.93885 49.6147143,31.9419833 50.6565714,30.90955 C51.3975,30.1724333 52.382,29.7666667 53.4285714,29.7666667 C55.5947857,29.7666667 57.3571429,31.5236833 57.3571429,33.6833333 C57.3571429,35.8429833 55.5947857,37.6 53.4285714,37.6 C52.382,37.6 51.3975,37.19345 50.6557857,36.4563333 C50.1364286,35.9409 49.4465714,35.6573333 48.7142857,35.6573333 C47.9812143,35.6573333 47.2921429,35.9409 46.7735714,36.4563333 C46.0310714,37.19345 45.0457857,37.6 44,37.6 C41.8337857,37.6 40.0714286,35.8429833 40.0714286,33.6833333 C40.0714286,31.5236833 41.8337857,29.7666667 44,29.7666667 M44,40.7333333 C45.7552857,40.7333333 47.4155,40.09805 48.7142857,38.93715 C50.0122857,40.09805 51.6725,40.7333333 53.4285714,40.7333333 C57.3280714,40.7333333 60.5,37.5710167 60.5,33.6833333 C60.5,29.7964333 57.3280714,26.6333333 53.4285714,26.6333333 C51.6725,26.6333333 50.0122857,27.2686167 48.7142857,28.4287333 C47.4155,27.2686167 45.7552857,26.6333333 44,26.6333333 C40.1005,26.6333333 36.9285714,29.7964333 36.9285714,33.6833333 C36.9285714,37.5710167 40.1005,40.7333333 44,40.7333333" id="Fill-3" fill="#C5143A"></path>
                    <path d="M7.46428571,32.1166667 L26.3214286,32.1166667 C27.1880714,32.1166667 27.8928571,31.4140167 27.8928571,30.55 C27.8928571,29.6859833 27.1880714,28.9833333 26.3214286,28.9833333 L7.46428571,28.9833333 C6.59764286,28.9833333 5.89285714,29.6859833 5.89285714,30.55 C5.89285714,31.4140167 6.59764286,32.1166667 7.46428571,32.1166667" id="Fill-5" fill="#252525"></path>
                    <path d="M7.46428571,37.6 L16.1087143,37.6 C16.9753571,37.6 17.6801429,36.89735 17.6801429,36.0333333 C17.6801429,35.1693167 16.9753571,34.4666667 16.1087143,34.4666667 L7.46428571,34.4666667 C6.59764286,34.4666667 5.89285714,35.1693167 5.89285714,36.0333333 C5.89285714,36.89735 6.59764286,37.6 7.46428571,37.6" id="Fill-7" fill="#252525"></path>
                </g>
            </g>
        </g>
    </g>
</svg>