<?xml version="1.0" encoding="UTF-8"?>
<svg width="44px" height="47px" viewBox="0 0 44 47" version="1.1" xmlns="http://www.w3.org/2000/svg" xmlns:xlink="http://www.w3.org/1999/xlink">
    <!-- Generator: Sketch 49.1 (51147) - http://www.bohemiancoding.com/sketch -->
    <title>icon/bank</title>
    <desc>Created with Sketch.</desc>
    <defs></defs>
    <g id="Pages" stroke="none" stroke-width="1" fill="none" fill-rule="evenodd">
        <g id="Why-attend" transform="translate(-1116.000000, -2636.000000)">
            <g id="Top-3-sector" transform="translate(0.000000, 2435.000000)">
                <g id="Group-15" transform="translate(662.000000, 35.000000)">
                    <g id="Group-13" transform="translate(0.000000, 140.000000)">
                        <g id="19%" transform="translate(382.000000, 0.000000)">
                            <g id="icon/bank" transform="translate(72.000000, 26.000000)">
                                <g id="Page-1">
                                    <path d="M2.42564211,19.3070379 L5.24808552,19.3070379 L5.36576088,19.3070379 L5.36576088,19.4266702 L5.36576088,22.4697805 C5.36576088,23.0661387 5.84058094,23.551281 6.42425071,23.551281 L7.27033651,23.551281 L7.39977941,23.551281 L7.38801187,23.6817343 L6.24479579,36.4487302 C6.21537695,36.738493 6.29892645,37.0222441 6.47838137,37.2470808 C6.65783629,37.4725186 6.91260343,37.6125906 7.19561266,37.6420479 C7.2326804,37.646256 7.26857138,37.6480595 7.30505074,37.6480595 C7.85282953,37.6480595 8.3070564,37.2278434 8.36295219,36.670561 L9.64267169,22.5785918 C9.64620195,22.5371113 9.64796708,22.4962319 9.6473787,22.4553525 C9.64031818,21.8668094 9.16549812,21.38828 8.58947725,21.38828 L7.60041589,21.38828 L7.48274053,21.38828 L7.48274053,21.2680465 L7.48274053,18.2303467 C7.48274053,17.6339885 7.00733209,17.1488462 6.42425071,17.1488462 L3.60121892,17.1488462 L3.48413194,17.1488462 L3.48413194,17.0286127 L3.48413194,14.0245783 L3.48413194,13.9572476 L3.54002773,13.9217787 L21.9285672,2.38657517 L21.9903468,2.34749928 L22.051538,2.38657517 L40.4406658,13.91216 L40.49715,13.9476289 L40.49715,14.0143585 L40.49715,17.0238034 L40.49715,17.1434357 L40.3794747,17.1434357 L37.5199635,17.1434357 C36.9357054,17.1434357 36.4608853,17.6291791 36.4608853,18.2249362 L36.4608853,21.2680465 L36.4608853,21.38828 L36.3432099,21.38828 L35.3741534,21.38828 C35.3459113,21.38828 35.3153157,21.3906847 35.2858969,21.3936905 C35.0046528,21.4225466 34.7510624,21.5614163 34.5721958,21.7850506 C34.3933293,22.008685 34.3103682,22.2900314 34.3386103,22.5773895 L35.5853807,36.666954 C35.6395113,37.2188259 36.0913847,37.6372385 36.6356332,37.639042 L36.7574272,37.639042 C37.3246224,37.5789253 37.7482537,37.0468919 37.689416,36.4541407 L36.560321,23.6817343 L36.5485534,23.551281 L36.677408,23.551281 L37.5146681,23.551281 C37.8023844,23.551281 38.0677423,23.4382615 38.2677904,23.2338645 C38.4678385,23.0294675 38.577865,22.7583409 38.577865,22.4697805 L38.577865,19.4266702 L38.577865,19.3070379 L38.6955403,19.3070379 L41.5556398,19.3070379 C42.1393096,19.3070379 42.6141297,18.8212945 42.6141297,18.2249362 L42.6141297,13.341652 C42.614718,12.9689281 42.4217305,12.6160427 42.1098908,12.4206632 L22.5410675,0.158648124 C22.3739684,0.0552473005 22.1833344,-6.0116758e-05 21.9879933,-6.0116758e-05 C21.7932406,-6.0116758e-05 21.6020181,0.0552473005 21.4360959,0.158648124 L1.87080281,12.4206632 C1.55955149,12.6160427 1.36656391,12.9689281 1.36656391,13.341652 L1.36656391,18.2249362 C1.36656391,18.8212945 1.84197235,19.3070379 2.42564211,19.3070379 M30.8119387,36.6704408 C30.7560429,37.2277232 30.3012276,37.6479393 29.7540372,37.6479393 C29.7181462,37.6479393 29.6810785,37.6461358 29.6445992,37.6419276 C29.3615899,37.6124704 29.1074112,37.4723984 28.9273679,37.2469605 C28.7485013,37.022725 28.6655402,36.7407774 28.6931939,36.4534193 L29.8369984,23.6822153 L29.8481775,23.5511607 L29.7199114,23.5511607 L28.8444067,23.5511607 C28.260737,23.5511607 27.7859169,23.0660185 27.7859169,22.4696603 L27.7859169,19.42655 L27.7859169,19.3069176 L27.6682415,19.3069176 L16.2466715,19.3069176 L16.1289961,19.3069176 L16.1289961,19.42655 L16.1289961,22.4696603 C16.1289961,23.0660185 15.6541761,23.5511607 15.0705063,23.5511607 L14.2279508,23.5511607 L14.0996846,23.5511607 L14.1114522,23.6822153 L15.2405472,36.4546216 C15.2993849,37.0467717 14.8757536,37.578805 14.3085584,37.6389218 L14.186176,37.6389218 C13.6419275,37.6371183 13.1912309,37.2187056 13.1365118,36.6668338 L11.8715018,22.5778704 C11.8426713,22.2899111 11.9256324,22.0085647 12.104499,21.7849304 C12.2839539,21.561296 12.5369559,21.4224263 12.8182,21.3935703 C12.8535026,21.3899633 12.8888052,21.3881598 12.925873,21.3881598 L13.8943411,21.3881598 L14.0120165,21.3881598 L14.0120165,21.2679263 L14.0120165,18.224816 C14.0120165,17.6290589 14.4868366,17.1439167 15.0705063,17.1439167 L28.8444067,17.1439167 C29.4280765,17.1439167 29.9028966,17.6290589 29.9028966,18.224816 L29.9028966,21.2679263 L29.9028966,21.3881598 L30.0205719,21.3881598 L31.0237543,21.3881598 C31.6074241,21.3881598 32.0816558,21.8727008 32.0822441,22.4684579 C32.0822441,22.5051291 32.080479,22.5411992 32.0769488,22.5790728 L30.8119387,36.6704408 Z M43.778645,45.9544521 C43.6080157,46.1846993 43.3597207,46.3325865 43.0796534,46.3716624 C43.0314065,46.3788764 42.9831596,46.3818822 42.9337359,46.3818822 L1.06013728,46.3824834 C0.753004603,46.3824834 0.461758097,46.2466195 0.260533238,46.0103607 C0.057543249,45.7722983 -0.033066775,45.4572865 0.0110614835,45.1440782 L0.773009413,39.5490115 C0.844203003,39.0163771 1.29548799,38.6147971 1.82326196,38.6147971 L14.7504882,38.6147971 C15.334158,38.6147971 15.808978,39.0999393 15.808978,39.6962976 C15.808978,40.2926558 15.334158,40.7777981 14.7504882,40.7777981 L2.84409568,40.7777981 L2.74171812,40.7777981 L2.7270087,40.8818001 L2.29455177,44.0830174 L2.27631208,44.2188813 L2.41105037,44.2188813 L41.5698786,44.2188813 L41.7052052,44.2188813 L41.6863772,44.0824162 L41.2533318,40.9004362 L41.2397992,40.7970354 L41.1374216,40.7970354 L29.2304407,40.7970354 C28.646771,40.7970354 28.1719509,40.3118932 28.1719509,39.7155349 C28.1719509,39.1191767 28.646771,38.6340345 29.2304407,38.6340345 L42.162374,38.6340345 C42.6883828,38.6340345 43.1284886,39.0199841 43.2079195,39.5496127 L43.9845769,45.1536969 C44.0228214,45.4398526 43.9498626,45.7242049 43.778645,45.9544521 Z M20.333772,10.9675811 C20.3920213,10.0850671 21.1116061,9.38410568 21.9900526,9.38109984 C22.9108623,9.38109984 23.6575124,10.142178 23.6604543,11.0775947 C23.661631,11.5320774 23.489825,11.9595076 23.1762202,12.2823346 C22.8626154,12.6045604 22.4448678,12.7831072 22.000055,12.7837083 L21.9900526,12.7837083 C21.0751267,12.7843095 20.3278882,12.0232313 20.3249463,11.0878146 L20.3243579,10.9675811 L20.333772,10.9675811 Z M18.208555,11.0781959 C18.2073783,12.1104006 18.5992372,13.0812863 19.3129383,13.8117049 C20.0266393,14.5427247 20.975691,14.9461081 21.985934,14.9473105 C24.0711413,14.9443046 25.7674315,13.212942 25.7727269,11.0872134 C25.7750804,8.95607436 24.0805553,7.22110473 21.9947596,7.21870006 L21.9900526,7.21870006 C19.9071988,7.21870006 18.2109085,8.95006268 18.208555,11.0781959 Z" id="Fill-5" fill="#252525"></path>
                                    <path d="M26.2819082,35.5350156 C25.8429791,35.0865446 25.0757358,35.0865446 24.6385718,35.5350156 L23.1705718,37.0355299 L23.1705718,26.4207139 C23.1705718,25.7594296 22.6439746,25.2219858 21.9967601,25.2219858 C21.3495456,25.2219858 20.8241252,25.7594296 20.8241252,26.4207139 L20.8241252,37.0355299 L19.3561251,35.5350156 C18.9166077,35.0865446 18.1505411,35.0865446 17.7122004,35.5350156 C17.4927358,35.7592511 17.3715302,36.0568291 17.3715302,36.3742455 C17.3715302,36.691662 17.4927358,36.9898411 17.7122004,37.2140767 L21.1948025,40.7729887 C21.4095601,40.9912126 21.6943344,41.1120472 21.9973485,41.1120472 C22.3003625,41.1120472 22.5851369,40.9912126 22.799306,40.7729887 L26.2819082,37.2140767 C26.5013727,36.9898411 26.6225783,36.691662 26.6225783,36.3742455 C26.6225783,36.0568291 26.5013727,35.7586499 26.2819082,35.5350156" id="Path" fill="#C5143A"></path>
                                </g>
                            </g>
                        </g>
                    </g>
                </g>
            </g>
        </g>
    </g>
</svg>