<?xml version="1.0" encoding="UTF-8"?>
<svg width="65px" height="66px" viewBox="0 0 65 66" version="1.1" xmlns="http://www.w3.org/2000/svg" xmlns:xlink="http://www.w3.org/1999/xlink">
    <!-- Generator: Sketch 49.1 (51147) - http://www.bohemiancoding.com/sketch -->
    <title>government</title>
    <desc>Created with Sketch.</desc>
    <defs></defs>
    <g id="Pages" stroke="none" stroke-width="1" fill="none" fill-rule="evenodd">
        <g id="BOOK-FOR-2018" transform="translate(-567.000000, -1146.000000)">
            <g id="1-solutions-et-services-for" transform="translate(127.000000, 914.000000)">
                <g id="pictos" transform="translate(192.000000, 211.000000)">
                    <g id="icon/government" transform="translate(248.000000, 21.000000)">
                        <g id="government">
                            <path d="M63.5555698,32.8734141 L60.379597,32.8734141 L60.379597,27.3689883 C60.379597,26.5687383 59.7328871,25.920082 58.9350384,25.920082 L50.3702448,25.920082 C49.5513188,22.0766133 47.5070883,18.5774531 44.5294211,15.9632344 C41.5529105,13.3500469 37.8217336,11.787832 33.8991913,11.4863203 L33.8991913,9.77973047 L42.6568926,9.77973047 C43.4547414,9.77973047 44.1014513,9.13107422 44.1014513,8.33082422 L44.1014513,1.44890625 C44.1014513,0.64865625 43.4547414,0 42.6568926,0 L32.4546326,0 C31.6567839,0 31.0100739,0.64865625 31.0100739,1.44890625 L31.0100739,5.02283203 L31.0100739,8.33095313 L31.0100739,11.493668 C27.1206897,11.8120664 23.4240845,13.3704141 20.4705789,15.9633633 C17.4929117,18.577582 15.4485527,22.0766133 14.6297552,25.9202109 L6.06509016,25.9202109 C5.26724138,25.9202109 4.62053148,26.5688672 4.62053148,27.3691172 L4.62053148,32.873543 L1.44455868,32.873543 C0.646709902,32.873543 0,33.5221992 0,34.3224492 L0,64.5510937 C0,65.3513437 0.646709902,66 1.44455868,66 L27.790019,66 L37.209981,66 L63.5554413,66 C64.3532901,66 65,65.3513437 65,64.5510937 L65,34.3223203 C65,33.5220703 64.3534186,32.8734141 63.5555698,32.8734141 Z M33.8993198,5.02270313 L33.8993198,2.89768359 L41.212591,2.89768359 L41.212591,6.88204688 L33.8993198,6.88204688 L33.8993198,5.02270313 Z M32.5001285,14.3293477 C39.5486496,14.3293477 45.6828832,19.2072891 47.4033731,25.9202109 L17.5967554,25.9202109 C19.3175024,19.2072891 25.451736,14.3293477 32.5001285,14.3293477 Z M7.50964885,28.8177656 L15.8392518,28.8177656 L49.1611337,28.8177656 L57.4907367,28.8177656 L57.4907367,32.8734141 L7.50964885,32.8734141 L7.50964885,28.8177656 Z M35.7655509,63.1023164 L29.2347062,63.1023164 L29.2347062,52.241707 L35.7655509,52.241707 L35.7655509,63.1023164 Z M62.1111397,63.1023164 L44.7784918,63.1023164 L44.7784918,44.6071055 C44.7784918,43.8068555 44.1317819,43.1581992 43.3339331,43.1581992 C42.5360843,43.1581992 41.8893744,43.8068555 41.8893744,44.6071055 L41.8893744,63.1023164 L38.6545397,63.1023164 L38.6545397,50.7929297 C38.6545397,49.9926797 38.0078298,49.3440234 37.209981,49.3440234 L27.790019,49.3440234 C26.9921702,49.3440234 26.3454603,49.9926797 26.3454603,50.7929297 L26.3454603,63.1023164 L23.1106256,63.1023164 L23.1106256,44.6071055 C23.1106256,43.8068555 22.4639157,43.1581992 21.6660669,43.1581992 C20.8682181,43.1581992 20.2215082,43.8068555 20.2215082,44.6071055 L20.2215082,63.1023164 L2.88911737,63.1023164 L2.88911737,35.7710977 L6.06521868,35.7710977 L58.9350384,35.7710977 L62.1111397,35.7710977 L62.1111397,63.1023164 Z" id="Shape" fill="#000000" fill-rule="nonzero"></path>
                            <path d="M44.9713078,39.2069947 C44.9516904,39.1110172 44.9217972,39.016241 44.8842972,38.9264038 C44.8467972,38.8348314 44.8003559,38.7477975 44.7463078,38.666904 C44.6922598,38.5844086 44.6292705,38.5079203 44.5602758,38.4389072 C44.4912811,38.3698941 44.4148132,38.306888 44.3323399,38.2528255 C44.2513345,38.198763 44.1643238,38.1523093 44.0729093,38.1147993 C43.9829626,38.0772893 43.8884786,38.048723 43.7923932,38.0292338 C43.5988879,37.9902554 43.4009786,37.9902554 43.2074733,38.0292338 C43.1115214,38.048723 43.0170374,38.0772893 42.9269573,38.1147993 C42.8354093,38.1523093 42.748532,38.198763 42.6675267,38.2528255 C42.5850534,38.306888 42.5085854,38.3698941 42.4395907,38.4389072 C42.3705961,38.5079203 42.3076068,38.5844086 42.2535587,38.666904 C42.1995107,38.7479309 42.1530694,38.8349648 42.1155694,38.9264038 C42.0780694,39.0163745 42.0480427,39.1108837 42.0300267,39.2069947 C42.0105427,39.3029723 42,39.4020201 42,39.4995995 C42,39.597179 42.0105427,39.6960933 42.0300267,39.7936727 C42.0480427,39.8881819 42.0780694,39.9826911 42.1155694,40.0742636 C42.1530694,40.1642342 42.1995107,40.2512681 42.2535587,40.3322951 C42.3076068,40.4147904 42.3705961,40.4912788 42.4395907,40.5602919 C42.5085854,40.629305 42.5850534,40.6923111 42.6675267,40.747842 C42.748532,40.8019044 42.8355427,40.8483581 42.9269573,40.8858681 C43.0169039,40.9233781 43.1115214,40.9519445 43.2074733,40.9714337 C43.3034253,40.9909228 43.4024466,41 43.5,41 C43.5975534,41 43.6964413,40.9910563 43.7925267,40.9714337 C43.8886121,40.951811 43.9829626,40.9233781 44.0730427,40.8858681 C44.1645907,40.8483581 44.2516014,40.8019044 44.3324733,40.747842 C44.4149466,40.6923111 44.4914146,40.629305 44.5604093,40.5602919 C44.6294039,40.4912788 44.6923932,40.4147904 44.7464413,40.3322951 C44.8004893,40.2512681 44.8469306,40.1642342 44.8844306,40.0742636 C44.9219306,39.9826911 44.9519573,39.8881819 44.9714413,39.7936727 C44.9909253,39.6960933 45,39.597179 45,39.4995995 C44.9998665,39.4020201 44.9907918,39.3029723 44.9713078,39.2069947 Z" id="Shape" fill="#000000" fill-rule="nonzero"></path>
                            <path d="M22.9701029,39.2069947 C22.9519518,39.1110172 22.9220559,39.016241 22.8845526,38.9264038 C22.8470493,38.8348314 22.8006039,38.7477975 22.746551,38.666904 C22.6924982,38.5844086 22.6295033,38.5079203 22.5605025,38.4389072 C22.4915018,38.3698941 22.415027,38.306888 22.3325464,38.2528255 C22.2515339,38.198763 22.1645155,38.1523093 22.0745609,38.1147993 C21.9830048,38.0772893 21.8885124,38.048723 21.792552,38.0292338 C21.6004976,37.9902554 21.4009693,37.9902554 21.2075802,38.0292338 C21.1116198,38.048723 21.0171274,38.0772893 20.9270394,38.1147993 C20.8354832,38.1523093 20.7485983,38.198763 20.6675858,38.2528255 C20.5851052,38.306888 20.5086304,38.3698941 20.4396297,38.4389072 C20.3706289,38.5079203 20.307634,38.5844086 20.2535812,38.666904 C20.1995283,38.7479309 20.153083,38.8349648 20.1155796,38.9264038 C20.0780763,39.0163745 20.048047,39.1108837 20.0300293,39.2069947 C20.0105436,39.3029723 20,39.4020201 20,39.4995995 C20,39.8956572 20.1605569,40.2813028 20.4394962,40.5602919 C20.508497,40.629305 20.5849717,40.6923111 20.6674523,40.747842 C20.7484649,40.8019044 20.8354832,40.8483581 20.9269059,40.8858681 C21.0168605,40.9233781 21.1113529,40.9519445 21.2074468,40.9714337 C21.3034072,40.9909228 21.4024374,41 21.4999994,41 C21.5975614,41 21.6964581,40.9910563 21.792552,40.9714337 C21.8886459,40.951811 21.9830048,40.9233781 22.0745609,40.8858681 C22.1645155,40.8483581 22.2515339,40.8019044 22.3325464,40.747842 C22.415027,40.6923111 22.4915018,40.629305 22.5605025,40.5602919 C22.8395753,40.2811694 22.9999987,39.8956572 22.9999987,39.4995995 C23.0001322,39.4020201 22.9895886,39.3029723 22.9701029,39.2069947 Z" id="Shape" fill="#000000" fill-rule="nonzero"></path>
                            <path d="M16.5621082,38 L8.43789177,38 C7.64372521,38 7,38.6395707 7,39.4286118 L7,45.5713882 C7,46.3604293 7.64372521,47 8.43789177,47 L16.5621082,47 C17.3562748,47 18,46.3604293 18,45.5713882 L18,39.4286118 C17.9998721,38.6395707 17.3562748,38 16.5621082,38 Z M15.1242165,44.1427764 L9.87565562,44.1427764 L9.87565562,40.8570965 L15.1242165,40.8570965 L15.1242165,44.1427764 Z" id="Shape" fill="#C5143A" fill-rule="nonzero"></path>
                            <path d="M16.5621082,51 L8.43789177,51 C7.64372521,51 7,51.6395707 7,52.4286118 L7,58.5713882 C7,59.3604293 7.64372521,60 8.43789177,60 L16.5621082,60 C17.3562748,60 18,59.3604293 18,58.5713882 L18,52.4286118 C17.9998721,51.6395707 17.3562748,51 16.5621082,51 Z M15.1242165,57.1427764 L9.87565562,57.1427764 L9.87565562,53.8570965 L15.1242165,53.8570965 L15.1242165,57.1427764 Z" id="Shape" fill="#000000" fill-rule="nonzero"></path>
                            <path d="M36.5621249,38 L28.4378751,38 C27.6437177,38 27,38.6395707 27,39.4286118 L27,45.5713882 C27,46.3604293 27.6437177,47 28.4378751,47 L36.5621249,47 C37.3562823,47 38,46.3604293 38,45.5713882 L38,39.4286118 C38,38.6395707 37.3562823,38 36.5621249,38 Z M35.1243778,44.1427764 L29.8757501,44.1427764 L29.8757501,40.8570965 L35.1243778,40.8570965 L35.1243778,44.1427764 Z" id="Shape" fill="#000000" fill-rule="nonzero"></path>
                            <path d="M56.5621082,38 L48.4378918,38 C47.6437252,38 47,38.6395707 47,39.4286118 L47,45.5713882 C47,46.3604293 47.6437252,47 48.4378918,47 L56.5621082,47 C57.3562748,47 58,46.3604293 58,45.5713882 L58,39.4286118 C58,38.6395707 57.3562748,38 56.5621082,38 Z M55.1243444,44.1427764 L49.8757835,44.1427764 L49.8757835,40.8570965 L55.1243444,40.8570965 L55.1243444,44.1427764 Z" id="Shape" fill="#000000" fill-rule="nonzero"></path>
                            <path d="M56.5621082,51 L48.4378918,51 C47.6437252,51 47,51.6395707 47,52.4286118 L47,58.5713882 C47,59.3604293 47.6437252,60 48.4378918,60 L56.5621082,60 C57.3562748,60 58,59.3604293 58,58.5713882 L58,52.4286118 C58,51.6395707 57.3562748,51 56.5621082,51 Z M55.1243444,57.1427764 L49.8757835,57.1427764 L49.8757835,53.8570965 L55.1243444,53.8570965 L55.1243444,57.1427764 Z" id="Shape" fill="#C5143A" fill-rule="nonzero"></path>
                        </g>
                    </g>
                </g>
            </g>
        </g>
    </g>
</svg>