<?xml version="1.0" encoding="utf-8"?>
<!-- Generator: Adobe Illustrator 22.1.0, SVG Export Plug-In . SVG Version: 6.00 Build 0)  -->
<svg version="1.1" id="Calque_1" xmlns="http://www.w3.org/2000/svg" xmlns:xlink="http://www.w3.org/1999/xlink" x="0px" y="0px"
	 viewBox="0 0 97.5 97.5" style="enable-background:new 0 0 97.5 97.5;" xml:space="preserve">
<style type="text/css">
	.st0{fill:#252525;}
	.st1{fill:#C5143A;}
</style>
<title>icon/interview</title>
<desc>Created with Sketch.</desc>
<g>
	<path class="st0" d="M37.9,57.1c0-6.3-5.1-11.4-11.4-11.4s-11.4,5.1-11.4,11.4s5.1,11.4,11.4,11.4S37.9,63.3,37.9,57.1z M26.6,65.5
		c-4.7,0-8.4-3.8-8.4-8.4s3.8-8.4,8.4-8.4s8.4,3.8,8.4,8.4S31.3,65.5,26.6,65.5z"/>
	<path class="st0" d="M34,69.6H19.8C13.3,69.6,8,74.9,8,81.4V88c0,0.9,0.6,1.5,1.5,1.5h34.8c0.9,0,1.5-0.6,1.5-1.5v-6.7
		C45.8,74.9,40.5,69.6,34,69.6z M42.8,81.4v5.2H11v-5.2c0-4.8,3.9-8.7,8.8-8.7H34C38.9,72.6,42.8,76.5,42.8,81.4z"/>
	<path class="st0" d="M84.3,57c0-6.2-5.1-11.3-11.4-11.3c-6.3,0-11.4,5.1-11.4,11.3c0,6.3,5.1,11.4,11.4,11.4
		C79.2,68.4,84.3,63.3,84.3,57z M81.3,57c0,4.7-3.8,8.5-8.4,8.5s-8.4-3.8-8.4-8.5s3.8-8.5,8.4-8.5S81.3,52.3,81.3,57z"/>
	<path class="st0" d="M79.7,69.6H65.5c-6.5,0-11.8,5.3-11.8,11.7V88c0,0.9,0.6,1.5,1.5,1.5H90c0.9,0,1.5-0.6,1.5-1.5v-6.7
		C91.5,74.9,86.2,69.6,79.7,69.6z M88.5,81.4v5.2H56.7v-5.2c0-4.8,3.9-8.7,8.8-8.7h14.2C84.6,72.6,88.5,76.5,88.5,81.4z"/>
	<path class="st0" d="M45.5,8H10.7C9.2,8,8,9.2,8,10.7v24c0,1.5,1.2,2.7,2.7,2.7h3l-2.8,8c-0.1,0.6,0,1.3,0.6,1.6
		c0.3,0.2,0.6,0.3,0.9,0.3c0.3,0,0.7-0.1,0.9-0.3L25,37.4h20.2c1.5,0,2.7-1.2,2.7-2.7V10.4C47.9,9.1,46.8,8,45.5,8z M17.1,36.5
		c0.2-0.5,0.1-0.9-0.2-1.3c-0.3-0.4-0.7-0.6-1.2-0.6H11V10.9h34v23.6H24.5c-0.3,0-0.7,0.1-0.9,0.3l-8.2,6.6L17.1,36.5z"/>
	<path class="st0" d="M88.7,8H54.4c-1.6,0-2.8,1.2-2.8,2.8v23.8c0,1.6,1.2,2.8,2.8,2.8h20l11.9,9.4l0,0c0.3,0.2,0.6,0.3,1,0.3
		c0.4,0,0.7-0.1,1-0.4c0.4-0.4,0.7-1.1,0.3-1.8l-2.7-7.7h2.8c1.6,0,2.8-1.2,2.8-2.8V10.8C91.5,9.2,90.3,8,88.7,8z M82.5,35.1
		c-0.3,0.3-0.3,0.9-0.2,1.4l1.8,5l-8.2-6.6c-0.3-0.1-0.5-0.3-0.8-0.3l-20.6-0.1V10.9h33.9v23.6h-4.8C83.1,34.5,82.7,34.9,82.5,35.1z
		"/>
	<path class="st1" d="M79,15.8L68.2,25.9l-3.5-4.4c-0.5-0.7-1.4-0.8-2.1-0.3c-0.3,0.2-0.5,0.5-0.6,0.9c-0.1,0.4,0,0.8,0.3,1.2
		l4.5,5.8c0.3,0.2,0.6,0.5,1.1,0.5l0.1,0c0.3,0,0.7-0.2,0.9-0.4L81,18c0.4-0.4,0.6-0.9,0.5-1.3c0-0.3-0.2-0.6-0.4-0.9
		C80.4,15.2,79.5,15.2,79,15.8z"/>
</g>
<g>
	<path class="st1" d="M28.1,24.3V26c0,0.7-0.6,1.3-1.3,1.3c-0.7,0-1.3-0.6-1.3-1.3v-2.8c0,0,0,0,0-0.1c0,0,0,0,0-0.1
		c0-0.7,0.6-1.3,1.3-1.3c1.7,0,3-1.3,3-3c0-1.7-1.4-3-3-3c-1.1,0-2,0.6-2.5,1.5c-0.4,0.6-1.2,0.8-1.8,0.5c-0.6-0.4-0.8-1.1-0.5-1.8
		c1-1.6,2.8-2.8,4.8-2.8c3.1,0,5.6,2.5,5.6,5.6C32.4,21.5,30.5,23.7,28.1,24.3z M28.1,30.1L28.1,30.1c0,0.7-0.6,1.3-1.3,1.3
		c-0.7,0-1.3-0.6-1.3-1.3l0,0c0-0.7,0.6-1.3,1.3-1.3C27.5,28.8,28.1,29.4,28.1,30.1z"/>
</g>
</svg>
