<?xml version="1.0" encoding="utf-8"?>
<!-- Generator: Adobe Illustrator 22.1.0, SVG Export Plug-In . SVG Version: 6.00 Build 0)  -->
<svg version="1.1" id="Calque_1" xmlns="http://www.w3.org/2000/svg" xmlns:xlink="http://www.w3.org/1999/xlink" x="0px" y="0px"
	 viewBox="0 0 76 49" style="enable-background:new 0 0 76 49;" xml:space="preserve">
<style type="text/css">
	.st0{fill:#D0021B;}
</style>
<title>shipped</title>
<desc>Created with Sketch.</desc>
<g id="Pages">
	<g id="BOOK-FOR-2018" transform="translate(-765.000000, -1393.000000)">
		<g id="_x31_-solutions-et-services-for" transform="translate(127.000000, 914.000000)">
			<g id="pictos" transform="translate(192.000000, 211.000000)">
				<g id="icon_x2F_shipped" transform="translate(447.000000, 269.000000)">
					<g id="shipped">
						<path d="M69,19.7l-1.8-7.3c0.5-0.2,0.9-0.7,0.9-1.3V9.9c0-2.8-2.3-5.1-5.1-5.1h-8.5V2.4c0-1.5-1.2-2.7-2.6-2.7H7.3
							c-1.5,0-2.6,1.2-2.6,2.7v21.1c0,0.8,0.6,1.4,1.4,1.4s1.4-0.6,1.4-1.4V2.6h44.1v20.9c0,0.8,0.6,1.4,1.4,1.4
							c0.8,0,1.4-0.6,1.4-1.4v-1.1h13.4c1.4,0,2.7,0.8,3.2,2.1h-3.2c-0.8,0-1.4,0.6-1.4,1.4v2.5c0,2.1,1.7,3.9,3.9,3.9h1.1V37h-2.6
							c-1.1-3-3.9-5-7.1-5s-6,2-7.1,5h-0.1v-8.5c0-0.8-0.6-1.4-1.4-1.4c-0.8,0-1.4,0.6-1.4,1.4V37H28c-1.1-3-3.9-5-7.1-5
							c-3.2,0-6,2-7.1,5H7.5v-2.1h4.8c0.8,0,1.4-0.6,1.4-1.4S13.1,32,12.3,32H1.2c-0.8,0-1.4,0.6-1.4,1.4s0.6,1.4,1.4,1.4h3.5v2.3
							c0,1.5,1.2,2.7,2.6,2.7h6c0.1,4.1,3.5,7.4,7.6,7.4c4.1,0,7.5-3.3,7.6-7.4h25.6c0.1,4.1,3.5,7.4,7.6,7.4s7.5-3.3,7.6-7.4h3.5
							c0.8,0,1.4-0.6,1.4-1.4V26C74.2,22.9,72,20.2,69,19.7z M71.4,27.4v2.1h-1.1c-0.6,0-1.1-0.5-1.1-1.1v-1.1H71.4z M66.1,19.6
							H54.5v-7.1h9.9L66.1,19.6z M54.5,9.7V7.5H63c1.2,0,2.2,0.9,2.3,2.1H54.5z M66.5,39.6c0,2.6-2.1,4.8-4.8,4.8s-4.8-2.1-4.8-4.8
							c0-2.6,2.1-4.8,4.8-4.8S66.5,37,66.5,39.6z M25.7,39.6c0,2.6-2.1,4.8-4.8,4.8s-4.8-2.1-4.8-4.8c0-2.6,2.1-4.8,4.8-4.8
							S25.7,37,25.7,39.6z"/>
						<path id="Shape_1_" d="M21.5,37c-1.4,0-2.5,1.1-2.5,2.5s1.1,2.5,2.5,2.5s2.5-1.1,2.5-2.5S22.9,37,21.5,37z"/>
						<path id="Shape_2_" d="M61.5,37c-1.4,0-2.5,1.1-2.5,2.5s1.1,2.5,2.5,2.5s2.5-1.1,2.5-2.5S62.9,37,61.5,37z"/>
						<path id="Shape_3_" d="M48.8,32H31.2c-0.7,0-1.2,0.4-1.2,1s0.5,1,1.2,1h17.6c0.7,0,1.2-0.4,1.2-1S49.5,32,48.8,32z"/>
						<path id="Shape_4_" d="M17.9,27H3.1C2.5,27,2,27.4,2,28s0.5,1,1.1,1h14.7c0.6,0,1.1-0.4,1.1-1S18.5,27,17.9,27z"/>
						<path class="st0" d="M40.8,10.1c-0.6-0.5-1.5-0.5-2,0l-10.3,9.8l-5.3-5c-0.6-0.5-1.5-0.5-2,0c-0.3,0.3-0.4,0.6-0.4,1
							s0.2,0.7,0.4,1l6.3,6c0.3,0.3,0.6,0.4,1,0.4c0.4,0,0.7-0.1,1-0.4l11.3-10.8c0.3-0.3,0.4-0.6,0.4-1S41.1,10.4,40.8,10.1z"/>
					</g>
				</g>
			</g>
		</g>
	</g>
</g>
</svg>
