<?xml version="1.0" encoding="UTF-8"?>
<svg width="49px" height="45px" viewBox="0 0 49 45" version="1.1" xmlns="http://www.w3.org/2000/svg" xmlns:xlink="http://www.w3.org/1999/xlink">
    <!-- Generator: Sketch 49.1 (51147) - http://www.bohemiancoding.com/sketch -->
    <title>icon-chain</title>
    <desc>Created with Sketch.</desc>
    <defs>
        <polygon id="path-1" points="0.259929731 0.160199759 30.5656987 0.160199759 30.5656987 31.1970365 0.259929731 31.1970365"></polygon>
    </defs>
    <g id="Pages" stroke="none" stroke-width="1" fill="none" fill-rule="evenodd">
        <g id="Enterprise-security" transform="translate(-793.000000, -6051.000000)">
            <g id="Conference" transform="translate(351.000000, 5821.000000)">
                <g id="icon/chain" transform="translate(442.000000, 230.000000)">
                    <g id="Page-1">
                        <g id="Group-3" transform="translate(18.712453, 0.000000)">
                            <mask id="mask-2" fill="white">
                                <use xlink:href="#path-1"></use>
                            </mask>
                            <g id="Clip-2"></g>
                            <path d="M27.6386639,5.36135904 L25.2327771,3.0148912 C23.2922106,1.17451381 20.7769653,0.160199759 18.1534551,0.160199759 C15.4763592,0.160199759 12.9622074,1.17398052 11.0746799,3.0148912 L6.0441892,7.92114214 C5.70463108,8.23044926 5.51708127,8.64534744 5.50942618,9.09650921 C5.5006775,9.57326881 5.69041448,10.0260304 6.0441892,10.3705346 C6.36843713,10.7091726 6.80477752,10.8926237 7.27939338,10.8926237 C7.75728999,10.8926237 8.21058094,10.7070394 8.55560699,10.3705346 L13.5860976,5.46428365 C14.8606709,4.27771753 16.4813637,3.6265727 18.1534551,3.6265727 C19.8835064,3.6265727 21.5058397,4.27931739 22.7213593,5.46428365 L25.1266994,7.81075149 C27.630462,10.2526779 27.630462,14.2256746 25.1266994,16.6670677 L15.7224158,25.8396238 C14.5068961,27.0251234 12.8944052,27.6778681 11.1818512,27.6778681 C9.46929719,27.6778681 7.85680622,27.0251234 6.64183337,25.8396238 L3.30749293,22.6414948 C2.98160462,22.301257 2.54526423,22.1178059 2.07119517,22.1178059 C1.59329856,22.1178059 1.14000761,22.3033901 0.794981562,22.6398949 C0.455423442,22.9492021 0.267873628,23.3641002 0.260218533,23.815262 C0.251469854,24.2925549 0.441753631,24.7447833 0.794981562,25.0892874 L4.13041558,28.3423451 C6.01794317,30.1832558 8.53209491,31.1970365 11.2091908,31.1970365 C13.8343414,31.1970365 16.3495867,30.1827225 18.2907,28.3396786 L27.6375704,19.1703223 C31.5422153,15.3626449 31.5422153,9.16850311 27.6386639,5.36135904" id="Fill-1" fill="#C5143A" mask="url(#mask-2)"></path>
                        </g>
                        <path d="M27.5478205,21.9131213 C27.8753966,22.2571084 28.3154735,22.4426234 28.7941536,22.4426234 C29.2761426,22.4426234 29.7327637,22.2544041 30.0812958,21.9131213 C30.4232101,21.5994224 30.612366,21.1786332 30.6200866,20.7210655 C30.6289102,20.2375364 30.436997,19.7783461 30.0812958,19.4289505 L26.716748,16.1297033 C24.8218806,14.2713077 22.2861995,13.2480002 19.5773553,13.2480002 C16.8679596,13.2480002 14.33283,14.2713077 12.4379626,16.1297033 L2.95204459,25.4324986 C1.04945654,27.3520114 0,29.8399682 0,32.4350154 C0,35.0295217 1.04945654,37.5174786 2.95480196,39.4396957 L5.3785337,41.8167762 C7.28277617,43.6838256 9.81845729,44.7120008 12.5184779,44.7120008 C15.1446009,44.7120008 17.7266059,43.6567826 19.6027231,41.8167762 L24.6762913,36.8414034 C25.0187571,36.5277044 25.207913,36.1063744 25.2156336,35.6488066 C25.2244572,35.1652776 25.032544,34.7060873 24.6762913,34.3566917 C24.3492667,34.0132454 23.9091898,33.8271895 23.4305097,33.8271895 C22.9485207,33.8271895 22.4918996,34.0154089 22.1433675,34.3566917 L17.0697994,39.3326054 C15.8444224,40.5349376 14.2181232,41.1964096 12.4909042,41.1964096 C10.7631336,41.1964096 9.13738591,40.5349376 7.91200891,39.3326054 L5.48496833,36.9533614 C4.25793691,35.6920755 3.58458618,34.0895067 3.58458618,32.4350154 C3.58458618,30.7231929 4.25959133,29.1190016 5.48496833,27.9166694 L15.0260338,18.6133333 C16.2514108,17.4120828 17.87771,16.75007 19.604929,16.75007 C21.3321481,16.75007 22.9584473,17.4120828 24.1838243,18.6138742 L27.5478205,21.9131213 Z" id="Fill-4" fill="#252525"></path>
                    </g>
                </g>
            </g>
        </g>
    </g>
</svg>