<?xml version="1.0" encoding="UTF-8"?>
<svg width="36px" height="43px" viewBox="0 0 36 43" version="1.1" xmlns="http://www.w3.org/2000/svg" xmlns:xlink="http://www.w3.org/1999/xlink">
    <!-- Generator: Sketch 49.1 (51147) - http://www.bohemiancoding.com/sketch -->
    <title>icon/security</title>
    <desc>Created with Sketch.</desc>
    <defs></defs>
    <g id="Pages" stroke="none" stroke-width="1" fill="none" fill-rule="evenodd">
        <g id="Why-attend" transform="translate(-922.000000, -2639.000000)">
            <g id="Top-3-sector" transform="translate(0.000000, 2435.000000)">
                <g id="Group-15" transform="translate(662.000000, 35.000000)">
                    <g id="Group-13" transform="translate(0.000000, 140.000000)">
                        <g id="20%" transform="translate(191.000000, 0.000000)">
                            <g id="icon/security" transform="translate(69.000000, 29.000000)">
                                <g id="Page-1">
                                    <path d="M27.6257382,22.0342328 C27.7434445,27.9475121 30.3433885,31.9066064 34.453355,32.6525133 C35.0906599,32.7702197 35.5185647,33.3821625 35.4008583,34.0279214 C35.2421824,34.7751289 34.5541532,35.0768733 34.0254502,34.9760751 C29.4966834,34.1456277 27.0137954,30.8075806 25.9401316,26.9993585 C24.346219,29.5914987 21.8386192,31.2354853 18.9531886,31.2354853 L18.8523904,31.2354853 C18.7685002,31.2270313 10.5661256,30.6482544 5.80129576,36.3683913 C5.38184507,36.8632781 4.65219595,36.9387142 4.13194702,36.5192635 C3.6292565,36.1004631 3.56162414,35.3532556 3.98172515,34.850565 C9.3825593,28.3669628 18.1311953,28.8111253 18.9870048,28.8703036 C22.5181943,28.8364875 25.3782628,24.9950995 25.3782628,20.2809939 C25.3782628,15.5506306 22.4167458,11.6923345 18.7854083,11.6923345 C15.1534205,11.6923345 12.1932041,15.5421765 12.1932041,20.2809939 C12.1932041,20.9352069 11.6645011,21.4639099 11.0102881,21.4639099 C10.3554248,21.4639099 9.82737213,20.9352069 9.82737213,20.2809939 C9.82737213,14.2422045 13.8456448,9.31869874 18.7854083,9.31869874 C23.7258222,9.31869874 27.7434445,14.2422045 27.7434445,20.2809939 C27.7434445,20.885133 27.6933705,21.4639099 27.6257382,22.0342328 Z M2.66432481,21.4639749 C2.01011178,21.4639749 1.47360508,20.935272 1.47360508,20.2810589 C1.47360508,9.10025922 9.24027122,-0.000195093347 18.7855384,-0.000195093347 C28.3308055,-0.000195093347 36.0974717,9.10025922 36.0883673,20.2810589 C36.0883673,20.935272 35.5603146,21.4639749 34.9061016,21.4639749 C34.2518886,21.4639749 33.7238359,20.935272 33.7238359,20.2810589 C33.7238359,10.4008815 27.0217292,2.36498658 18.7855384,2.36498658 C10.5486973,2.36498658 3.84659049,10.4008815 3.84659049,20.2810589 C3.84659049,20.935272 3.31853783,21.4639749 2.66432481,21.4639749 Z M25.9732975,33.4750269 C25.0420519,34.2801121 23.3486417,35.2952478 20.5802671,35.513102 C14.5076615,35.9826267 9.97044058,37.0393823 7.57079242,40.6629161 C7.11817585,41.3086751 6.34625651,41.2924173 5.92745613,40.9984766 C5.38184507,40.6382043 5.23097288,39.9001011 5.59189557,39.35449 C8.51894608,34.9343251 13.6271402,33.6766233 20.396229,33.1479204 C22.5259981,32.9794898 23.7596383,32.2582947 24.4216551,31.6879718 C24.9165419,31.2607174 25.6630991,31.3107914 26.0910038,31.8056781 C26.5189086,32.3005649 26.4688346,33.0471221 25.9732975,33.4750269 Z M34.0590063,37.508972 C34.7047653,37.6097702 35.1495781,38.2139093 35.0487799,38.8512142 C34.9232698,39.5392434 34.3529469,39.933332 33.707188,39.8494419 C29.8150757,39.2706649 26.6279007,36.6199967 26.4932863,36.5113947 C25.9983995,36.0912937 25.9314175,35.3453868 26.3508682,34.842046 C26.7703189,34.3471592 27.5168761,34.2801771 28.0202169,34.6996278 C28.0618368,34.7327937 30.8471195,37.0316436 34.0590063,37.508972 Z M35.0319368,28.0397913 C35.6776958,28.0983193 36.1563248,28.6855503 36.0977968,29.3482173 C36.0048023,30.0609583 35.3844055,30.471955 34.7978248,30.4049729 C29.1862898,29.8431041 29.5133964,21.010578 29.5550163,20.2640208 C29.5387585,12.9753333 24.7154006,7.04579622 18.7858635,7.04579622 C12.847222,7.04579622 8.01541015,12.9922414 8.01541015,20.297837 C7.66359182,23.3341397 5.155992,25.8501936 1.57407815,27.0916376 C0.95368131,27.3016881 0.281909886,26.9830356 0.0640556489,26.3619885 C-0.145344543,25.7415916 0.173307923,25.0704705 0.794355077,24.8526163 C5.17224978,23.3256857 5.61706261,20.5332496 5.65022848,20.239309 C5.67559061,11.6499992 11.5550538,4.67151019 18.7858635,4.67151019 C26.0238267,4.67151019 31.9201979,11.6753613 31.9201979,20.2900332 L31.9201979,20.3570153 C31.9201979,20.4239973 31.6021958,27.6957767 35.0319368,28.0397913 Z M20.3706718,37.5007131 C24.8077448,37.5007131 28.6075129,38.7675192 30.041449,40.7301583 C30.4277338,41.2582109 30.3100275,41.9963141 29.7819749,42.3825989 C29.1440196,42.8189577 28.4566407,42.566637 28.1295342,42.1218241 C27.3068906,40.9987368 24.3798401,39.866545 20.3706718,39.866545 C16.3615035,39.866545 13.4253487,40.9987368 12.6118094,42.1218241 C12.2268252,42.6511774 11.4880717,42.7682334 10.9593688,42.3825989 C10.4313161,41.9963141 10.3136098,41.2582109 10.6998946,40.7301583 C12.1338307,38.7675192 15.9251447,37.5007131 20.3706718,37.5007131 Z" id="Fill-4" fill="#252525"></path>
                                    <path d="M18.9697065,26.5718439 C21.5111225,26.5048619 23.5745598,23.93028 23.5745598,20.2813841 C23.5745598,16.8087225 21.4272323,13.9824702 18.7856684,13.9824702 C16.1428039,13.9824702 13.9961268,16.8087225 13.9961268,20.2813841 C13.9961268,20.9355971 14.5241794,21.4643001 15.1790428,21.4643001 C15.8332558,21.4643001 16.3613084,20.9355971 16.3613084,20.2813841 C16.3613084,18.0332584 17.6359183,16.3561059 18.7772144,16.3561059 C19.9178602,16.3561059 21.19247,18.0332584 21.19247,20.2813841 C21.19247,22.5210557 20.0433702,24.1312261 19.0035227,24.2066622 C17.9298589,24.1813001 6.31270045,24.0889559 0.852687988,31.7470201 C0.475507517,32.275723 0.60101757,33.0222803 1.12907023,33.3994607 C1.57388306,33.7265672 2.32889431,33.7265672 2.78151088,33.1224282 C7.73037877,26.1862094 18.8695586,26.5633899 18.9697065,26.5718439" id="Path" fill="#C5143A"></path>
                                </g>
                            </g>
                        </g>
                    </g>
                </g>
            </g>
        </g>
    </g>
</svg>