<?xml version="1.0" encoding="utf-8"?>
<!-- Generator: Adobe Illustrator 22.1.0, SVG Export Plug-In . SVG Version: 6.00 Build 0)  -->
<svg version="1.1" id="Calque_1" xmlns="http://www.w3.org/2000/svg" xmlns:xlink="http://www.w3.org/1999/xlink" x="0px" y="0px"
	 viewBox="0 0 87 87" style="enable-background:new 0 0 87 87;" xml:space="preserve">
<style type="text/css">
	.st0{fill:#252525;}
	.st1{fill:#C5143A;}
</style>
<title>icon/smartphone</title>
<desc>Created with Sketch.</desc>
<g id="Pages">
	<g id="BOOK-FOR-2018" transform="translate(-995.000000, -2080.000000)">
		<g id="_x33_--TRUSTECH-2018-OFFERS" transform="translate(0.000000, 1641.000000)">
			<g id="BLOC-MILIEU" transform="translate(137.000000, 398.000000)">
				<g id="BLOC-SPONSORING" transform="translate(639.000000, 0.000000)">
					<g id="picto-sponsoring" transform="translate(174.000000, 0.000000)">
						<g id="icon_x2F_smartphone" transform="translate(45.000000, 41.000000)">
							<g id="smartphone">
								<path id="Shape" class="st0" d="M19.6,11.2h47.8V49c0,0.8,0.6,1.4,1.4,1.4h0c0.8,0,1.4-0.6,1.4-1.4V7c0-3.9-3.1-7-7-7H23.8
									c-3.9,0-7,3.2-7,7v5.6c0,0.8,0.6,1.4,1.4,1.4h0c0.8,0,1.4-0.6,1.4-1.4V11.2z M19.6,7c0-2.3,1.9-4.2,4.2-4.2h39.3
									c2.3,0,4.2,1.9,4.2,4.2v1.4H19.6V7z"/>
								<path id="Rectangle-path" class="st0" d="M18.3,36.6L18.3,36.6c0.8,0,1.5,0.7,1.5,1.5v30.7c0,0.8-0.7,1.5-1.5,1.5h0
									c-0.8,0-1.5-0.7-1.5-1.5V38C16.8,37.2,17.5,36.6,18.3,36.6z"/>
								<path id="Shape_1_" class="st0" d="M16.8,80.1c0,3.8,3.2,6.9,7,6.9h39.3c3.9,0,7-3.1,7-6.9v-5.4c0-0.8-0.7-1.5-1.5-1.5H18.3
									c-0.8,0-1.5,0.7-1.5,1.5V80.1z M19.6,75.9h47.8v4.2c0,2.3-1.9,4.2-4.2,4.2H23.8c-2.3,0-4.2-1.9-4.2-4.2V75.9z"/>
								<path id="Rectangle-path_1_" class="st0" d="M38,78.2h11c0.8,0,1.5,0.7,1.5,1.5v0c0,0.8-0.7,1.5-1.5,1.5H38
									c-0.8,0-1.5-0.7-1.5-1.5v0C36.6,78.9,37.2,78.2,38,78.2z"/>
								<path id="Shape_2_" class="st1" d="M25.6,42.4c0,10.1,8.2,18.3,18.3,18.3s18.3-8.2,18.3-18.3s-8.2-18.3-18.3-18.3
									S25.6,32.3,25.6,42.4z M59.3,42.4c0,8.5-6.9,15.5-15.5,15.5s-15.5-6.9-15.5-15.5s6.9-15.5,15.5-15.5S59.3,33.9,59.3,42.4z"
									/>
								<path id="Shape_3_" class="st1" d="M42.1,30.6v1.5c-3.1,0-5.6,2.6-5.6,5.7s2.5,5.7,5.6,5.7h2.8c1.5,0,2.8,1.3,2.8,2.8
									s-1.2,2.8-2.8,2.8h-2.8c-1.2,0-2.2-0.8-2.6-1.9c-0.2-0.6-0.7-0.9-1.3-0.9h0c-1,0-1.6,1-1.3,1.9c0.8,2.2,2.8,3.8,5.2,3.8v1.5
									c0,0.8,0.6,1.4,1.4,1.4l0,0c0.8,0,1.4-0.6,1.4-1.4V52c3.1,0,5.6-2.6,5.6-5.7c0-3.1-2.5-5.7-5.6-5.7h-2.8
									c-1.5,0-2.8-1.3-2.8-2.8s1.2-2.8,2.8-2.8h2.8c1.2,0,2.2,0.8,2.6,1.9c0.2,0.6,0.7,0.9,1.3,0.9h0c1,0,1.6-1,1.3-1.9
									c-0.8-2.2-2.8-3.8-5.2-3.8v-1.5c0-0.8-0.6-1.4-1.4-1.4l0,0C42.7,29.2,42.1,29.9,42.1,30.6z"/>
								<path id="Shape_4_" class="st0" d="M84.2,67.3V46c0-0.8-0.6-1.4-1.4-1.4l0,0c-0.8,0-1.4,0.6-1.4,1.4v21.3h-2.8V51.7
									c0-0.8-0.6-1.4-1.4-1.4h0c-0.8,0-1.4,0.6-1.4,1.4v15.7H73v-10c0-0.8-0.6-1.4-1.4-1.4l0,0c-0.8,0-1.4,0.6-1.4,1.4v10h-2.8
									V54.5c0-0.8-0.6-1.4-1.4-1.4l0,0c-0.8,0-1.4,0.6-1.4,1.4v12.8h-2.8v-7.1c0-0.8-0.6-1.4-1.4-1.4h0c-0.8,0-1.4,0.6-1.4,1.4
									v7.1h-1.4c-0.8,0-1.4,0.6-1.4,1.4l0,0c0,0.8,0.6,1.4,1.4,1.4h27.9c0.8,0,1.4-0.6,1.4-1.4l0,0c0-0.8-0.6-1.4-1.4-1.4H84.2z"
									/>
								<path id="Shape_5_" class="st0" d="M16.9,29.2c0,2.3,1.9,4.2,4.2,4.2s4.2-1.9,4.2-4.2c0-0.6-0.2-1.2-0.4-1.8l5.6-5.6
									c0.6,0.3,1.2,0.4,1.8,0.4c2.3,0,4.2-1.9,4.2-4.2s-1.9-4.2-4.2-4.2s-4.2,1.9-4.2,4.2c0,0.6,0.2,1.2,0.4,1.8l-5.6,5.6
									c-0.6-0.3-1.2-0.4-1.8-0.4c-0.8,0-1.5,0.2-2.1,0.6l-3.8-3.2c0.2-0.5,0.3-1,0.3-1.5c0-2.3-1.9-4.2-4.2-4.2S7,18.5,7,20.8
									c0,1.2,0.5,2.3,1.4,3.1l-4,9.4c-0.1,0-0.1,0-0.2,0c-2.3,0-4.2,1.9-4.2,4.2s1.9,4.2,4.2,4.2s4.2-1.9,4.2-4.2
									c0-1.2-0.5-2.3-1.4-3.1l4-9.4c0.1,0,0.1,0,0.2,0c0.8,0,1.5-0.2,2.1-0.6l3.8,3.2C17,28.1,16.9,28.6,16.9,29.2z M32.3,16.7
									c0.8,0,1.4,0.6,1.4,1.4s-0.6,1.4-1.4,1.4s-1.4-0.6-1.4-1.4S31.6,16.7,32.3,16.7z M21.1,27.8c0.8,0,1.4,0.6,1.4,1.4
									s-0.6,1.4-1.4,1.4s-1.4-0.6-1.4-1.4S20.3,27.8,21.1,27.8z M4.2,38.9c-0.8,0-1.4-0.6-1.4-1.4s0.6-1.4,1.4-1.4
									s1.4,0.6,1.4,1.4S5,38.9,4.2,38.9z M11.2,22.2c-0.8,0-1.4-0.6-1.4-1.4s0.6-1.4,1.4-1.4c0.8,0,1.4,0.6,1.4,1.4
									S12,22.2,11.2,22.2z"/>
							</g>
						</g>
					</g>
				</g>
			</g>
		</g>
	</g>
</g>
</svg>
