<?xml version="1.0" encoding="UTF-8"?>
<svg width="57px" height="51px" viewBox="0 0 57 51" version="1.1" xmlns="http://www.w3.org/2000/svg" xmlns:xlink="http://www.w3.org/1999/xlink">
    <!-- Generator: Sketch 49.2 (51160) - http://www.bohemiancoding.com/sketch -->
    <title>Plane</title>
    <desc>Created with Sketch.</desc>
    <defs>
        <polygon id="path-1" points="0.000368487743 0.0001 56.3074 0.0001 56.3074 50.9030778 0.000368487743 50.9030778"></polygon>
    </defs>
    <g id="Pages" stroke="none" stroke-width="1" fill="none" fill-rule="evenodd">
        <g id="Plan-your-trip" transform="translate(-695.000000, -1195.000000)">
            <g id="Easy-access" transform="translate(-1.000000, 937.000000)">
                <g id="Transport" transform="translate(252.000000, 198.000000)">
                    <g id="Plane" transform="translate(444.000000, 60.000000)">
                        <mask id="mask-2" fill="white">
                            <use xlink:href="#path-1"></use>
                        </mask>
                        <g id="Clip-2"></g>
                        <path d="M16.7524,48.4583 L28.5404,29.5873 C28.7714,29.2193 28.7794,28.7663 28.5834,28.3813 C28.5234,28.2703 28.4464,28.1763 28.3604,28.0903 C28.1474,27.8763 27.8644,27.7483 27.5564,27.7483 L11.5344,27.0553 C11.1404,27.0383 10.7644,27.2093 10.5244,27.5173 C10.4994,27.5603 7.4964,31.4353 5.7094,33.2233 C5.0334,33.8993 3.7844,33.7283 2.8344,33.4283 L6.2134,25.9433 C6.3584,25.6263 6.3584,25.2683 6.2134,24.9513 L2.8344,17.4663 C3.7844,17.1663 5.0334,16.9953 5.7094,17.6713 C7.4964,19.4593 10.4994,23.3343 10.5244,23.3773 C10.7644,23.6853 11.1404,23.8563 11.5344,23.8393 L27.5564,23.1463 C27.9844,23.1293 28.3774,22.8893 28.5744,22.5043 C28.7714,22.1193 28.7624,21.6663 28.5314,21.2983 L16.7274,2.4443 C18.3774,2.5043 20.6704,2.9323 22.0474,4.6513 C23.3484,6.2773 25.0414,8.4163 26.8294,10.6993 C30.0714,14.8313 33.7504,19.5193 36.1964,22.4443 C36.4274,22.7273 36.7784,22.8893 37.1464,22.8813 L51.2864,22.6843 C51.7054,22.6753 52.3214,23.0003 52.8524,23.5313 C53.4594,24.1383 53.8954,24.9163 53.8954,25.4473 C53.8864,25.9693 53.4594,26.7563 52.8524,27.3633 C52.3214,27.8763 51.7054,28.2193 51.2864,28.2103 L37.1634,28.0133 C36.7954,28.0053 36.4444,28.1673 36.2134,28.4503 C33.7754,31.3843 30.0884,36.0633 26.8464,40.1943 C26.7514,40.3163 26.6564,40.4383 26.5614,40.5603 C26.4934,40.6273 26.4344,40.7033 26.3844,40.7853 C24.7754,42.8413 23.2604,44.7683 22.0734,46.2513 C20.6874,47.9793 18.3864,48.3983 16.7524,48.4583 Z M51.2524,30.6403 C52.3304,30.6573 53.5274,30.0923 54.5454,29.0913 C55.6484,28.0053 56.3074,26.6453 56.3074,25.4473 C56.3074,24.2673 55.6664,22.9233 54.5884,21.8463 L54.5544,21.8123 C53.5444,20.8193 52.3384,20.2463 51.2604,20.2633 L37.6934,20.4513 C35.5824,17.8913 32.6644,14.1963 29.9044,10.6873 L32.0734,10.6913 C32.7404,10.7083 33.2884,10.1603 33.2884,9.4933 C33.3054,8.8263 32.7574,8.2783 32.0904,8.2783 L28.0024,8.2643 C26.4884,6.3333 25.0744,4.5373 23.9464,3.1293 C20.9574,-0.6127 15.4644,-0.0127 14.5484,0.1093 C14.5484,0.1093 12.8244,0.7293 13.9434,2.5213 C15.0624,4.3133 25.3754,20.8283 25.3754,20.8283 L12.0564,21.4013 C11.1584,20.2633 8.9344,17.4743 7.4194,15.9603 C4.9564,13.4973 0.8244,15.6613 0.6444,15.7553 C0.0714,16.0543 -0.1506,16.7393 0.1064,17.3203 L3.7754,25.4563 L0.1064,33.5913 C-0.1506,34.1723 0.0884,34.8573 0.6444,35.1563 C0.8244,35.2503 4.9644,37.4063 7.4284,34.9423 C8.9514,33.4193 11.1754,30.6313 12.0654,29.5023 L25.3834,30.0753 C25.3834,30.0753 14.9354,46.7743 13.9544,48.3553 C12.9734,49.9373 14.3904,50.7683 14.3904,50.7683 C14.3994,50.7713 14.4074,50.7743 14.4174,50.7763 C14.6734,50.8113 20.7384,51.7773 23.9384,47.7733 C25.0704,46.3593 26.4924,44.5553 28.0134,42.6133 L32.0904,42.5993 C32.7494,42.5903 33.2884,42.0513 33.2884,41.3843 C33.2794,40.7253 32.7404,40.1873 32.0734,40.1873 L29.9134,40.1943 C32.6694,36.6903 35.5854,33.0003 37.6854,30.4513 L51.2524,30.6403 Z" id="Fill-1" fill="#000000" mask="url(#mask-2)"></path>
                    </g>
                </g>
            </g>
        </g>
    </g>
</svg>