<?xml version="1.0" encoding="UTF-8"?>
<svg width="320px" height="333px" viewBox="0 0 320 333" version="1.1" xmlns="http://www.w3.org/2000/svg" xmlns:xlink="http://www.w3.org/1999/xlink">
    <!-- Generator: Sketch 49.1 (51147) - http://www.bohemiancoding.com/sketch -->
    <title>Page 1</title>
    <desc>Created with Sketch.</desc>
    <defs>
        <polygon id="path-1" points="0 0.374526061 11.72868 0.374526061 11.72868 12.6956897 0 12.6956897"></polygon>
        <polygon id="path-3" points="0.100987013 0.00355384615 11.6172468 0.00355384615 11.6172468 10.9465569 0.100987013 10.9465569"></polygon>
    </defs>
    <g id="Symbols" stroke="none" stroke-width="1" fill="none" fill-rule="evenodd" opacity="0.252830616">
        <g id="footer/cta" transform="translate(-200.000000, -142.000000)">
            <g id="Get-tickets">
                <g id="Visitor">
                    <g id="image">
                        <g id="Page-1" transform="translate(200.000000, 142.000000)">
                            <path d="M236,180.5 C236,176.357358 239.358139,173 243.499219,173 C247.641861,173 251,176.357358 251,180.5 C251,184.641861 247.641861,188 243.499219,188 C239.358139,188 236,184.641861 236,180.5" id="Fill-1" fill="#8D8D8D"></path>
                            <path d="M282,52 C282,48.6862778 284.686278,46 288,46 C291.313722,46 294,48.6862778 294,52 C294,55.3137222 291.313722,58 288,58 C284.686278,58 282,55.3137222 282,52" id="Fill-3" fill="#8D8D8D"></path>
                            <path d="M309,222.500628 C309,219.463287 311.46203,217 314.499372,217 C317.53797,217 320,219.463287 320,222.500628 C320,225.53797 317.53797,228 314.499372,228 C311.46203,228 309,225.53797 309,222.500628" id="Fill-5" fill="#8D8D8D"></path>
                            <path d="M177,327.5 C177,324.462312 179.46203,322 182.500628,322 C185.53797,322 188,324.462312 188,327.5 C188,330.537688 185.53797,333 182.500628,333 C179.46203,333 177,330.537688 177,327.5" id="Fill-7" fill="#8D8D8D"></path>
                            <path d="M32,265 C32,262.238554 34.2370799,260 36.9993977,260 C39.7605108,260 42,262.238554 42,265 C42,267.761446 39.7605108,270 36.9993977,270 C34.2370799,270 32,267.761446 32,265" id="Fill-9" fill="#8D8D8D"></path>
                            <g id="Group-13" transform="translate(0.000000, 92.000000)">
                                <mask id="mask-2" fill="white">
                                    <use xlink:href="#path-1"></use>
                                </mask>
                                <g id="Clip-12"></g>
                                <path d="M-0.00012,6.53510788 C-0.00012,3.13273212 2.62548,0.374526061 5.86428,0.374526061 C9.10308,0.374526061 11.72868,3.13273212 11.72868,6.53510788 C11.72868,9.93748364 9.10308,12.6956897 5.86428,12.6956897 C2.62548,12.6956897 -0.00012,9.93748364 -0.00012,6.53510788" id="Fill-11" fill="#8D8D8D" mask="url(#mask-2)"></path>
                            </g>
                            <path d="M121,37 C121,33.6861 123.686306,31 127.00046,31 C130.313694,31 133,33.6861 133,37 C133,40.3139 130.313694,43 127.00046,43 C123.686306,43 121,40.3139 121,37" id="Fill-14" fill="#8D8D8D"></path>
                            <path d="M54,207 C54,203.6861 56.6863061,201 60.0004603,201 C63.3136939,201 66,203.6861 66,207 C66,210.3139 63.3136939,213 60.0004603,213 C56.6863061,213 54,210.3139 54,207" id="Fill-16" fill="#8D8D8D"></path>
                            <g id="Group-20" transform="translate(138.000000, 0.000000)">
                                <mask id="mask-4" fill="white">
                                    <use xlink:href="#path-3"></use>
                                </mask>
                                <g id="Clip-19"></g>
                                <path d="M0.625536466,5.47481846 C0.625536466,2.72815612 2.9689476,0.50154 5.85968347,0.50154 C8.75041935,0.50154 11.0926973,2.72815612 11.0926973,5.47481846 C11.0926973,8.2214808 8.75041935,10.4480969 5.85968347,10.4480969 C2.9689476,10.4480969 0.625536466,8.2214808 0.625536466,5.47481846" id="Fill-18" fill="#8D8D8D" mask="url(#mask-4)"></path>
                            </g>
                            <path d="M144,6 L288,52" id="Stroke-21" stroke="#8E8E8E"></path>
                            <path d="M125,35 L143,6" id="Stroke-23" stroke="#8E8E8E"></path>
                            <path d="M287,52 L125,36" id="Stroke-25" stroke="#8E8E8E"></path>
                            <path d="M242,180 L287,52" id="Stroke-27" stroke="#8E8E8E"></path>
                            <path d="M314,222 L287,52" id="Stroke-29" stroke="#8E8E8E"></path>
                            <path d="M242,180 L314,223" id="Stroke-31" stroke="#8E8E8E"></path>
                            <path d="M182,328 L242,180" id="Stroke-33" stroke="#8E8E8E"></path>
                            <path d="M314,222 L182,327" id="Stroke-35" stroke="#8E8E8E"></path>
                            <path d="M60,208 L183,328" id="Stroke-37" stroke="#8E8E8E"></path>
                            <path d="M242,180 L60,208" id="Stroke-39" stroke="#8E8E8E"></path>
                            <path d="M125,36 L242,180" id="Stroke-41" stroke="#8E8E8E"></path>
                            <path d="M60,208 L126,36" id="Stroke-43" stroke="#8E8E8E"></path>
                            <path d="M144,6 L6,98" id="Stroke-45" stroke="#8E8E8E"></path>
                            <path d="M60,207 L6,98" id="Stroke-47" stroke="#8E8E8E"></path>
                            <path d="M37,265 L6,98" id="Stroke-49" stroke="#8E8E8E"></path>
                            <path d="M61,208 L37,265" id="Stroke-51" stroke="#8E8E8E"></path>
                            <path d="M125,36 L6,98" id="Stroke-53" stroke="#8E8E8E"></path>
                            <path d="M37,265 L183,329" id="Stroke-55" stroke="#8E8E8E"></path>
                        </g>
                    </g>
                </g>
            </g>
        </g>
    </g>
</svg>