<?xml version="1.0" encoding="utf-8"?>
<!-- Generator: Adobe Illustrator 22.1.0, SVG Export Plug-In . SVG Version: 6.00 Build 0)  -->
<svg version="1.1" id="Calque_1" xmlns="http://www.w3.org/2000/svg" xmlns:xlink="http://www.w3.org/1999/xlink" x="0px" y="0px"
	 viewBox="0 0 806 500" style="enable-background:new 0 0 806 500;" xml:space="preserve">
<style type="text/css">
	.st0{fill:#252525;fill-opacity:3.000000e-02;}
	.st1{fill:#C5143A;}
	.st2{opacity:0.2455;fill:#252525;enable-background:new    ;}
	.st3{fill:#FFFFFF;}
	.st4{enable-background:new    ;}
	.st5{fill:#ECECEC;}
	.st6{fill:#252525;}
</style>
<title>Group</title>
<desc>Created with Sketch.</desc>
<g id="Pages">
	<g id="Why-attend" transform="translate(-326.000000, -1029.000000)">
		<g id="_x35_-objectives" transform="translate(0.000000, 941.000000)">
			<g id="Group" transform="translate(325.000000, 69.000000)">
				<circle id="Oval-2" class="st0" cx="398.5" cy="292.5" r="155.5"/>
				<circle id="Oval-2_1_" class="st1" cx="399" cy="292" r="118"/>
				<path class="st2" d="M494.8,427l-60.4-83l0.8-0.6l60.3,83.1L494.8,427z M301.3,427l-0.8-0.6l60.3-83.1l0.8,0.6L301.3,427z
					 M457.7,274.9l-0.3-1l97.6-31.7l0.3,1L457.7,274.9z M338.3,274.9l-97.6-31.7l0.3-1l97.6,31.7L338.3,274.9z M398.5,231.7h-1V129
					h1V231.7z"/>
				<g id="Oval-2_2_">
					<g>
						<circle id="path-1_2_" cx="398.5" cy="292.5" r="79.5"/>
					</g>
					<g>
						<circle id="path-1_1_" class="st3" cx="398.5" cy="292.5" r="79.5"/>
					</g>
				</g>
				<g class="st4">
					<path class="st5" d="M371.7,29.6h-0.2L360.9,59h-5.4l-10.6-29.4h-0.2l0.8,17.5v6.3l4.3,0.8V59h-16.5v-4.8l4.2-0.8V24.8
						l-4.2-0.8v-4.8h4.2h10.4L358,48.5h0.2l10.2-29.3h14.7V24l-4.3,0.8v28.6l4.3,0.8V59h-16.5v-4.8l4.2-0.8v-6.3L371.7,29.6z"/>
					<path class="st5" d="M400.4,59.6c-4.3,0-7.7-1.4-10.2-4.1c-2.6-2.7-3.8-6.2-3.8-10.4V44c0-4.4,1.2-8,3.6-10.9
						c2.4-2.8,5.7-4.3,9.7-4.2c4,0,7.1,1.2,9.3,3.6c2.2,2.4,3.3,5.7,3.3,9.8v4.3h-17.7l-0.1,0.2c0.1,2,0.8,3.6,2,4.8
						c1.2,1.3,2.7,1.9,4.7,1.9c1.8,0,3.2-0.2,4.4-0.5c1.2-0.4,2.4-0.9,3.8-1.7l2.2,4.9c-1.2,1-2.8,1.8-4.7,2.4
						S402.8,59.6,400.4,59.6z M399.7,35c-1.5,0-2.6,0.6-3.5,1.7c-0.9,1.1-1.4,2.6-1.6,4.5l0.1,0.1h9.8v-0.7c0-1.7-0.4-3-1.2-4.1
						S401.3,35,399.7,35z"/>
					<path class="st5" d="M430.2,59.6c-4.3,0-7.7-1.4-10.2-4.1c-2.6-2.7-3.8-6.2-3.8-10.4V44c0-4.4,1.2-8,3.6-10.9
						c2.4-2.8,5.7-4.3,9.7-4.2c4,0,7.1,1.2,9.3,3.6c2.2,2.4,3.3,5.7,3.3,9.8v4.3h-17.7l-0.1,0.2c0.1,2,0.8,3.6,2,4.8
						c1.2,1.3,2.7,1.9,4.7,1.9c1.8,0,3.2-0.2,4.4-0.5c1.2-0.4,2.4-0.9,3.8-1.7l2.2,4.9c-1.2,1-2.8,1.8-4.7,2.4
						S432.6,59.6,430.2,59.6z M429.5,35c-1.5,0-2.6,0.6-3.5,1.7c-0.9,1.1-1.4,2.6-1.6,4.5l0.1,0.1h9.8v-0.7c0-1.7-0.4-3-1.2-4.1
						S431.1,35,429.5,35z"/>
					<path class="st5" d="M457.6,22.2v7.2h5.2V35h-5.2v15.1c0,1.1,0.2,2,0.7,2.5s1.1,0.7,1.9,0.7c0.5,0,1,0,1.4-0.1
						c0.4,0,0.9-0.1,1.4-0.2l0.7,5.8c-0.9,0.3-1.8,0.5-2.7,0.6s-1.8,0.2-2.8,0.2c-2.8,0-4.9-0.8-6.4-2.3s-2.2-3.9-2.2-7.2V35h-4.3
						v-5.6h4.3v-7.2H457.6z"/>
				</g>
				<g class="st4">
					<path class="st5" d="M515.7,485.6c-1.3,1.3-3.2,2.4-5.7,3.5c-2.5,1-5.6,1.5-9.4,1.5c-5.4,0-9.8-1.8-13.1-5.4
						c-3.4-3.6-5.1-8.3-5.1-14v-1.4c0-6,1.7-10.8,5-14.5s7.7-5.6,13-5.6c3.1,0,6,0.5,8.5,1.5c2.6,1,4.7,2.3,6.4,4v8h-5.9l-1.1-5.3
						c-0.7-0.6-1.7-1.1-2.9-1.5c-1.2-0.4-2.6-0.6-4.1-0.6c-3.5,0-6.2,1.3-8.1,3.9s-2.9,5.9-2.9,10.1v1.4c0,4,0.9,7.3,2.8,9.7
						c1.9,2.4,4.6,3.6,8.2,3.6c1.6,0,2.9-0.1,3.9-0.4s1.8-0.6,2.3-1v-6.8l-5.7-0.4v-5.6h13.7v15.3H515.7z"/>
					<path class="st5" d="M534,490.6c-4.3,0-7.7-1.4-10.2-4.1c-2.6-2.7-3.8-6.2-3.8-10.4V475c0-4.4,1.2-8,3.6-10.9
						c2.4-2.8,5.7-4.3,9.7-4.2c4,0,7.1,1.2,9.3,3.6s3.3,5.7,3.3,9.8v4.3h-17.7l-0.1,0.2c0.1,2,0.8,3.6,2,4.8
						c1.2,1.3,2.7,1.9,4.7,1.9c1.8,0,3.2-0.2,4.4-0.5c1.2-0.4,2.4-0.9,3.8-1.7l2.2,4.9c-1.2,1-2.8,1.8-4.7,2.4
						S536.4,490.6,534,490.6z M533.3,466c-1.5,0-2.6,0.6-3.5,1.7s-1.4,2.6-1.6,4.5l0.1,0.1h9.8v-0.7c0-1.7-0.4-3-1.2-4.1
						S534.9,466,533.3,466z"/>
					<path class="st5" d="M561.5,453.2v7.2h5.2v5.6h-5.2v15.1c0,1.1,0.2,2,0.7,2.5s1.1,0.7,1.9,0.7c0.5,0,1,0,1.4-0.1
						c0.4,0,0.9-0.1,1.4-0.2l0.7,5.8c-0.9,0.3-1.8,0.5-2.7,0.6s-1.8,0.2-2.8,0.2c-2.8,0-4.9-0.8-6.4-2.3s-2.2-3.9-2.2-7.2V466h-4.3
						v-5.6h4.3v-7.2L561.5,453.2L561.5,453.2z"/>
				</g>
				<g class="st4">
					<path class="st5" d="M238.3,457.6h-0.2L227.5,487h-5.4l-10.6-29.4h-0.2l0.8,17.5v6.3l4.3,0.8v4.8h-16.5v-4.8l4.2-0.8v-28.6
						l-4.2-0.8v-4.8h4.2h10.4l10.1,29.3h0.2l10.2-29.3h14.7v4.8l-4.3,0.8v28.6l4.3,0.8v4.8h-16.5v-4.8l4.2-0.8v-6.3L238.3,457.6z"/>
					<path class="st5" d="M267,487.6c-4.3,0-7.7-1.4-10.2-4.1c-2.6-2.7-3.8-6.2-3.8-10.4V472c0-4.4,1.2-8,3.6-10.9
						c2.4-2.8,5.7-4.3,9.7-4.2c4,0,7.1,1.2,9.3,3.6c2.2,2.4,3.3,5.7,3.3,9.8v4.3h-17.7l-0.1,0.2c0.1,2,0.8,3.6,2,4.8
						c1.2,1.3,2.7,1.9,4.7,1.9c1.8,0,3.2-0.2,4.4-0.5c1.2-0.4,2.4-0.9,3.8-1.7l2.2,4.9c-1.2,1-2.8,1.8-4.7,2.4
						S269.4,487.6,267,487.6z M266.3,463c-1.5,0-2.6,0.6-3.5,1.7s-1.4,2.6-1.6,4.5l0.1,0.1h9.8v-0.7c0-1.7-0.4-3-1.2-4.1
						S267.9,463,266.3,463z"/>
					<path class="st5" d="M296.8,487.6c-4.3,0-7.7-1.4-10.2-4.1c-2.6-2.7-3.8-6.2-3.8-10.4V472c0-4.4,1.2-8,3.6-10.9
						c2.4-2.8,5.7-4.3,9.7-4.2c4,0,7.1,1.2,9.3,3.6c2.2,2.4,3.3,5.7,3.3,9.8v4.3H291l-0.1,0.2c0.1,2,0.8,3.6,2,4.8
						c1.2,1.3,2.7,1.9,4.7,1.9c1.8,0,3.2-0.2,4.4-0.5c1.2-0.4,2.4-0.9,3.8-1.7l2.2,4.9c-1.2,1-2.8,1.8-4.7,2.4
						S299.2,487.6,296.8,487.6z M296.1,463c-1.5,0-2.6,0.6-3.5,1.7s-1.4,2.6-1.6,4.5l0.1,0.1h9.8v-0.7c0-1.7-0.4-3-1.2-4.1
						S297.7,463,296.1,463z"/>
					<path class="st5" d="M324.3,450.2v7.2h5.2v5.6h-5.2v15.1c0,1.1,0.2,2,0.7,2.5s1.1,0.7,1.9,0.7c0.5,0,1,0,1.4-0.1
						c0.4,0,0.9-0.1,1.4-0.2l0.7,5.8c-0.9,0.3-1.8,0.5-2.7,0.6s-1.8,0.2-2.8,0.2c-2.8,0-4.9-0.8-6.4-2.3s-2.2-3.9-2.2-7.2V463H312
						v-5.6h4.3v-7.2L324.3,450.2L324.3,450.2z"/>
				</g>
				<g class="st4">
					<path class="st5" d="M595.4,192.2c4.9,0,8.9,1.6,12,4.7c3.2,3.1,4.7,7.1,4.7,12v6.6c0,4.9-1.6,8.9-4.7,12
						c-3.2,3.1-7.2,4.6-12,4.6h-17.9v-4.8l4.2-0.8v-28.6l-4.2-0.8v-4.8h4.2L595.4,192.2L595.4,192.2z M589.8,198.3v27.5h5.3
						c2.9,0,5.1-1,6.7-2.9c1.6-1.9,2.4-4.5,2.4-7.6v-6.6c0-3.1-0.8-5.6-2.4-7.5c-1.6-1.9-3.9-2.9-6.7-2.9H589.8z"/>
					<path class="st5" d="M616.1,227.2l3.9-0.8V208l-4.3-0.8v-4.8h12.2v24l3.8,0.8v4.8H616L616.1,227.2L616.1,227.2z M627.9,195.3
						h-8v-6h8V195.3z"/>
					<path class="st5" d="M658.5,212.6h-5.4l-0.8-3.7c-0.5-0.4-1.2-0.8-2.1-1.1c-0.8-0.3-1.7-0.4-2.7-0.4c-1.4,0-2.5,0.3-3.3,0.9
						s-1.2,1.4-1.2,2.4c0,0.9,0.4,1.6,1.2,2.2c0.8,0.6,2.4,1.1,4.7,1.6c3.7,0.7,6.4,1.8,8.1,3.2c1.8,1.4,2.7,3.4,2.7,5.8
						c0,2.7-1.1,4.8-3.4,6.5c-2.3,1.7-5.3,2.5-9,2.5c-2.3,0-4.4-0.3-6.3-1c-1.9-0.7-3.6-1.6-5.1-2.9l-0.1-6.6h5.6l1.1,3.9
						c0.5,0.4,1.1,0.7,1.9,0.9s1.7,0.3,2.6,0.3c1.6,0,2.9-0.3,3.7-0.9c0.8-0.6,1.3-1.4,1.3-2.4c0-0.9-0.4-1.6-1.3-2.3
						c-0.9-0.6-2.4-1.2-4.7-1.7c-3.5-0.7-6.1-1.8-7.9-3.2s-2.7-3.3-2.7-5.7c0-2.5,1-4.6,3.1-6.4c2-1.8,4.9-2.7,8.7-2.7
						c2.3,0,4.5,0.3,6.5,0.9c2.1,0.6,3.7,1.4,4.8,2.4L658.5,212.6z"/>
					<path class="st5" d="M677.1,226.4c1.4,0,2.6-0.4,3.4-1.2c0.9-0.8,1.3-1.9,1.3-3.3h7.2l0.1,0.2c0.1,3-1,5.5-3.4,7.5
						c-2.3,2-5.2,3-8.6,3c-4.4,0-7.8-1.4-10.2-4.2s-3.6-6.4-3.6-10.7v-0.8c0-4.4,1.2-7.9,3.7-10.7s5.9-4.2,10.5-4.2
						c2.4,0,4.5,0.4,6.4,1.1c1.9,0.7,3.5,1.7,4.7,3l0.1,7.9h-6.5l-1.3-4.6c-0.4-0.3-0.9-0.6-1.5-0.9c-0.6-0.2-1.2-0.3-2-0.3
						c-2.3,0-3.9,0.8-4.8,2.5s-1.4,3.8-1.4,6.3v0.8c0,2.6,0.4,4.8,1.3,6.4C673.4,225.6,674.9,226.4,677.1,226.4z"/>
					<path class="st5" d="M692.7,216.9c0-4.4,1.2-8,3.7-10.8s5.9-4.2,10.2-4.2c4.4,0,7.8,1.4,10.3,4.2s3.7,6.4,3.7,10.9v0.6
						c0,4.4-1.2,8.1-3.7,10.9c-2.5,2.8-5.9,4.2-10.2,4.2c-4.4,0-7.8-1.4-10.3-4.2s-3.7-6.4-3.7-10.9V216.9z M700.7,217.5
						c0,2.7,0.5,4.9,1.4,6.5s2.5,2.4,4.6,2.4s3.6-0.8,4.5-2.5s1.4-3.8,1.4-6.5v-0.6c0-2.6-0.5-4.8-1.4-6.4c-1-1.7-2.5-2.5-4.6-2.5
						s-3.6,0.8-4.5,2.5s-1.4,3.8-1.4,6.4V217.5z"/>
					<path class="st5" d="M736.2,207.2l-2.8,0.5l3.9,13.2l0.5,2.8h0.2l0.6-2.8l3.9-13.2l-2.8-0.5v-4.8H753v4.8l-2.6,0.4l-8.7,24.4
						h-7.6l-8.8-24.4l-2.6-0.4v-4.8h13.4L736.2,207.2L736.2,207.2z"/>
					<path class="st5" d="M769.4,232.6c-4.3,0-7.7-1.4-10.2-4.1c-2.6-2.7-3.8-6.2-3.8-10.4V217c0-4.4,1.2-8,3.6-10.9
						c2.4-2.8,5.7-4.3,9.7-4.2c4,0,7.1,1.2,9.3,3.6c2.2,2.4,3.3,5.7,3.3,9.8v4.3h-17.7l-0.1,0.2c0.1,2,0.8,3.6,2,4.8
						c1.2,1.3,2.7,1.9,4.7,1.9c1.8,0,3.2-0.2,4.4-0.5c1.2-0.4,2.4-0.9,3.8-1.7l2.2,4.9c-1.2,1-2.8,1.8-4.7,2.4
						S771.8,232.6,769.4,232.6z M768.7,208c-1.5,0-2.6,0.6-3.5,1.7c-0.9,1.1-1.4,2.6-1.6,4.5l0.1,0.1h9.8v-0.7c0-1.7-0.4-3-1.2-4.1
						S770.3,208,768.7,208z"/>
					<path class="st5" d="M785.6,227.2l3.8-0.8V208l-4.2-0.8v-4.8h11.7l0.4,4.3c0.7-1.5,1.6-2.7,2.7-3.6c1.1-0.9,2.4-1.3,3.8-1.3
						c0.4,0,0.9,0,1.3,0.1c0.5,0.1,0.9,0.1,1.2,0.2l-0.8,7.3l-3.3-0.1c-1.2,0-2.1,0.2-2.9,0.7c-0.8,0.5-1.3,1.1-1.8,1.9v14.4
						l3.8,0.8v4.8h-15.6v-4.7H785.6z"/>
				</g>
				<g class="st4">
					<path class="st5" d="M20.8,192.2c4.6,0,8.2,1.2,10.8,3.5s4,5.4,4,9.2s-1.3,6.9-4,9.2c-2.6,2.3-6.2,3.5-10.8,3.5h-6.7v8.8
						l4.3,0.8v4.8H1.8v-4.8l4.2-0.8v-28.6L1.8,197v-4.8H6H20.8z M14.1,211.4h6.7c2.2,0,3.9-0.6,5-1.8s1.7-2.8,1.7-4.6
						c0-1.9-0.6-3.5-1.7-4.7s-2.8-1.9-5-1.9h-6.7C14.1,198.4,14.1,211.4,14.1,211.4z"/>
					<path class="st5" d="M38.9,227.2l3.8-0.8V208l-4.2-0.8v-4.8h11.7l0.4,4.3c0.7-1.5,1.6-2.7,2.7-3.6c1.1-0.9,2.4-1.3,3.8-1.3
						c0.4,0,0.9,0,1.3,0.1c0.5,0.1,0.9,0.1,1.2,0.2l-0.8,7.3l-3.3-0.1c-1.2,0-2.1,0.2-2.9,0.7c-0.8,0.5-1.3,1.1-1.8,1.9v14.4
						l3.8,0.8v4.8H38.9V227.2z"/>
					<path class="st5" d="M75.5,232.6c-4.3,0-7.7-1.4-10.2-4.1c-2.6-2.7-3.8-6.2-3.8-10.4V217c0-4.4,1.2-8,3.6-10.9
						c2.4-2.8,5.7-4.3,9.7-4.2c4,0,7.1,1.2,9.3,3.6c2.2,2.4,3.3,5.7,3.3,9.8v4.3H69.7l-0.1,0.2c0.1,2,0.8,3.6,2,4.8
						c1.2,1.3,2.7,1.9,4.7,1.9c1.8,0,3.2-0.2,4.4-0.5c1.2-0.4,2.4-0.9,3.8-1.7l2.2,4.9c-1.2,1-2.8,1.8-4.7,2.4
						S77.9,232.6,75.5,232.6z M74.8,208c-1.5,0-2.6,0.6-3.5,1.7c-0.9,1.1-1.4,2.6-1.6,4.5l0.1,0.1h9.8v-0.7c0-1.7-0.4-3-1.2-4.1
						S76.4,208,74.8,208z"/>
					<path class="st5" d="M90.5,207.2v-4.8h11.6l0.4,3.4c0.9-1.3,1.9-2.3,3.1-3s2.6-1,4.3-1c3.7,0,6.5,1.4,8.5,4.3
						c2,2.9,3,6.6,3,11.3v0.6c0,4.4-1,7.9-3,10.6c-2,2.7-4.8,4-8.5,4c-1.5,0-2.9-0.3-4.1-0.9s-2.2-1.4-3.1-2.5v8.6l3.9,0.8v4.8H90.9
						v-4.8l3.9-0.8V208L90.5,207.2z M113.5,217.5c0-2.8-0.5-5-1.4-6.8c-0.9-1.7-2.4-2.6-4.3-2.6c-1.2,0-2.2,0.2-3.1,0.7
						s-1.5,1.2-2,2.1v13c0.5,0.8,1.2,1.5,2,1.9s1.9,0.7,3.1,0.7c1.9,0,3.3-0.8,4.3-2.3c0.9-1.5,1.4-3.6,1.4-6.2V217.5z"/>
					<path class="st5" d="M143.9,232c-0.2-0.5-0.4-1-0.6-1.5s-0.3-1-0.4-1.6c-0.9,1.1-2.1,2-3.5,2.7s-2.9,1-4.7,1
						c-2.9,0-5.2-0.8-6.9-2.4c-1.7-1.6-2.6-3.7-2.6-6.4c0-2.8,1.1-4.9,3.3-6.4c2.2-1.5,5.5-2.3,9.8-2.3h4.1v-2.9
						c0-1.4-0.4-2.5-1.2-3.3s-2-1.2-3.6-1.2c-0.9,0-1.7,0.1-2.4,0.3s-1.3,0.5-1.7,0.8L133,212h-6v-6.6c1.5-1,3.1-1.8,5-2.5
						s3.9-1,6.2-1c3.7,0,6.6,0.9,8.9,2.7c2.3,1.8,3.4,4.4,3.4,7.7v12.2c0,0.5,0,0.9,0,1.3c0,0.4,0,0.8,0.1,1.1l2.4,0.3v4.8
						L143.9,232L143.9,232z M137,226.7c1.2,0,2.3-0.3,3.3-0.8s1.8-1.2,2.3-2v-4.5h-4.1c-1.7,0-3,0.4-3.9,1.2s-1.3,1.7-1.3,2.9
						c0,1,0.3,1.8,1,2.4C134.9,226.4,135.8,226.7,137,226.7z"/>
					<path class="st5" d="M156.4,227.2l3.8-0.8V208l-4.2-0.8v-4.8h11.7l0.4,4.3c0.7-1.5,1.6-2.7,2.7-3.6c1.1-0.9,2.4-1.3,3.8-1.3
						c0.4,0,0.9,0,1.3,0.1c0.5,0.1,0.9,0.1,1.2,0.2l-0.8,7.3l-3.3-0.1c-1.2,0-2.1,0.2-2.9,0.7c-0.8,0.5-1.3,1.1-1.8,1.9v14.4
						l3.8,0.8v4.8h-15.6L156.4,227.2L156.4,227.2z"/>
					<path class="st5" d="M193,232.6c-4.3,0-7.7-1.4-10.2-4.1c-2.6-2.7-3.8-6.2-3.8-10.4V217c0-4.4,1.2-8,3.6-10.9
						c2.4-2.8,5.7-4.3,9.7-4.2c4,0,7.1,1.2,9.3,3.6c2.2,2.4,3.3,5.7,3.3,9.8v4.3h-17.7l-0.1,0.2c0.1,2,0.8,3.6,2,4.8
						c1.2,1.3,2.7,1.9,4.7,1.9c1.8,0,3.2-0.2,4.4-0.5c1.2-0.4,2.4-0.9,3.8-1.7l2.2,4.9c-1.2,1-2.8,1.8-4.7,2.4
						S195.4,232.6,193,232.6z M192.3,208c-1.5,0-2.6,0.6-3.5,1.7c-0.9,1.1-1.4,2.6-1.6,4.5l0.1,0.1h9.8v-0.7c0-1.7-0.4-3-1.2-4.1
						S193.9,208,192.3,208z"/>
				</g>
				<g class="st4">
					<path class="st6" d="M385,43.9L385,43.9l-5.4,14.7h-2.7L371.6,44h-0.1l0.4,8.7v3.1l2.1,0.4v2.4h-8.2v-2.4l2.1-0.4V41.6
						l-2.1-0.4v-2.4h2.1h5.2l5.1,14.7h0.1l5.1-14.7h7.4v2.4l-2.1,0.4v14.3l2.1,0.4v2.4h-8.2v-2.4l2.1-0.4v-3.1L385,43.9z"/>
					<path class="st6" d="M399.4,58.9c-2.1,0-3.8-0.7-5.1-2.1c-1.3-1.4-1.9-3.1-1.9-5.2v-0.5c0-2.2,0.6-4,1.8-5.4
						c1.2-1.4,2.8-2.1,4.9-2.1c2,0,3.5,0.6,4.6,1.8s1.7,2.8,1.7,4.9v2.2h-8.8v0.1c0.1,1,0.4,1.8,1,2.4c0.6,0.6,1.4,0.9,2.4,0.9
						c0.9,0,1.6-0.1,2.2-0.3s1.2-0.5,1.9-0.8l1.1,2.5c-0.6,0.5-1.4,0.9-2.4,1.2S400.6,58.9,399.4,58.9z M399,46.7
						c-0.7,0-1.3,0.3-1.8,0.8c-0.4,0.6-0.7,1.3-0.8,2.2v0.1h4.9v-0.4c0-0.8-0.2-1.5-0.6-2S399.8,46.7,399,46.7z"/>
					<path class="st6" d="M414.3,58.9c-2.1,0-3.8-0.7-5.1-2.1c-1.3-1.4-1.9-3.1-1.9-5.2v-0.5c0-2.2,0.6-4,1.8-5.4
						c1.2-1.4,2.8-2.1,4.9-2.1c2,0,3.5,0.6,4.6,1.8s1.7,2.8,1.7,4.9v2.2h-8.8v0.1c0.1,1,0.4,1.8,1,2.4c0.6,0.6,1.4,0.9,2.4,0.9
						c0.9,0,1.6-0.1,2.2-0.3s1.2-0.5,1.9-0.8l1.1,2.5c-0.6,0.5-1.4,0.9-2.4,1.2S415.5,58.9,414.3,58.9z M413.9,46.7
						c-0.7,0-1.3,0.3-1.8,0.8c-0.4,0.6-0.7,1.3-0.8,2.2v0.1h4.9v-0.4c0-0.8-0.2-1.5-0.6-2S414.7,46.7,413.9,46.7z"/>
					<path class="st6" d="M428,40.2v3.6h2.6v2.8H428v7.5c0,0.6,0.1,1,0.4,1.2c0.2,0.2,0.6,0.4,1,0.4c0.3,0,0.5,0,0.7,0
						s0.4-0.1,0.7-0.1l0.3,2.9c-0.4,0.1-0.9,0.2-1.3,0.3s-0.9,0.1-1.4,0.1c-1.4,0-2.4-0.4-3.2-1.1c-0.7-0.8-1.1-2-1.1-3.6v-7.5h-2.2
						v-2.8h2.2v-3.6h3.9V40.2z"/>
				</g>
				<g class="st4">
					<path class="st6" d="M353.4,71.6c1.2,0,2.1,0.3,2.8,0.9c0.7,0.6,1,1.4,1,2.4s-0.3,1.8-1,2.4s-1.6,0.9-2.8,0.9h-2.6v3.9l1.3,0.1
						V83h-3.5v-0.7l1.3-0.1v-9.8l-1.3-0.1v-0.7h1.3C349.9,71.6,353.4,71.6,353.4,71.6z M350.8,77.5h2.6c0.9,0,1.6-0.2,2.1-0.7
						s0.7-1.1,0.7-1.8c0-0.7-0.2-1.3-0.7-1.8s-1.2-0.7-2.1-0.7h-2.6V77.5z"/>
					<path class="st6" d="M364.5,83c-0.1-0.3-0.1-0.5-0.1-0.7s0-0.4,0-0.6c-0.3,0.4-0.7,0.8-1.2,1.1c-0.5,0.3-1.1,0.4-1.8,0.4
						c-0.8,0-1.5-0.2-1.9-0.6s-0.7-1-0.7-1.7c0-0.8,0.3-1.4,1-1.9s1.6-0.7,2.7-0.7h1.9v-1.1c0-0.6-0.2-1.1-0.6-1.4s-0.9-0.5-1.6-0.5
						c-0.5,0-0.9,0.1-1.3,0.2s-0.7,0.3-1,0.5l-0.1,1.1H359v-1.6c0.4-0.3,0.9-0.5,1.4-0.7s1.1-0.3,1.7-0.3c0.9,0,1.7,0.2,2.2,0.7
						c0.6,0.5,0.9,1.2,0.9,2v4.2c0,0.2,0,0.3,0,0.5s0,0.3,0.1,0.5l0.8,0.1V83H364.5z M361.4,82.3c0.7,0,1.3-0.2,1.8-0.5
						s0.9-0.7,1.1-1.2V79h-1.9c-0.8,0-1.5,0.2-2,0.5s-0.8,0.8-0.8,1.3s0.2,0.8,0.5,1.1S360.9,82.3,361.4,82.3z"/>
					<path class="st6" d="M369.5,74.5l0.1,1.4V76c0.2-0.5,0.6-0.9,1-1.2s0.9-0.4,1.5-0.4c0.1,0,0.2,0,0.3,0c0.1,0,0.2,0,0.3,0.1
						l-0.1,0.9h-0.7c-0.6,0-1.1,0.2-1.4,0.5c-0.4,0.3-0.6,0.8-0.8,1.4v5l1.3,0.1V83h-3.5v-0.7l1.3-0.1v-6.9l-1.3-0.1v-0.7h1.3
						C368.8,74.5,369.5,74.5,369.5,74.5z"/>
					<path class="st6" d="M376.3,72.4v2.2h1.9v0.8h-1.9v5.5c0,0.6,0.1,0.9,0.3,1.2c0.2,0.2,0.5,0.3,0.8,0.3c0.2,0,0.3,0,0.4,0
						s0.3,0,0.5-0.1l0.1,0.7c-0.2,0.1-0.3,0.1-0.6,0.2c-0.2,0-0.4,0.1-0.7,0.1c-0.6,0-1.1-0.2-1.4-0.6s-0.5-1-0.5-1.8v-5.5h-1.5
						v-0.8h1.5v-2.2C375.2,72.4,376.3,72.4,376.3,72.4z"/>
					<path class="st6" d="M379.7,82.3l1.3-0.1v-6.9l-1.3-0.1v-0.7h2.1l0.1,1.5c0.3-0.5,0.6-0.9,1.1-1.2s1-0.4,1.6-0.4
						c0.9,0,1.6,0.3,2.1,0.8c0.5,0.6,0.7,1.4,0.7,2.6v4.4l1.3,0.1V83h-3.5v-0.7l1.3-0.1v-4.4c0-1-0.2-1.7-0.5-2.1
						c-0.4-0.4-0.9-0.6-1.5-0.6c-0.7,0-1.2,0.2-1.6,0.5s-0.7,0.8-0.9,1.4v5.1l1.3,0.1V83h-3.5v-0.7H379.7z"/>
					<path class="st6" d="M393.8,83.2c-1.1,0-1.9-0.4-2.6-1.2c-0.7-0.8-1-1.8-1-3v-0.4c0-1.2,0.3-2.2,1-3s1.5-1.2,2.5-1.2
						s1.9,0.3,2.4,1s0.9,1.5,0.9,2.6v0.8h-6V79c0,0.9,0.3,1.7,0.8,2.4s1.2,1,2,1c0.6,0,1.1-0.1,1.5-0.2c0.4-0.2,0.8-0.4,1.1-0.7
						l0.4,0.6c-0.3,0.3-0.7,0.6-1.2,0.8S394.5,83.2,393.8,83.2z M393.7,75.2c-0.7,0-1.3,0.3-1.7,0.8c-0.5,0.5-0.7,1.2-0.8,2l0,0h5
						v-0.2c0-0.7-0.2-1.3-0.6-1.8C395,75.4,394.5,75.2,393.7,75.2z"/>
					<path class="st6" d="M400.8,74.5l0.1,1.4V76c0.2-0.5,0.6-0.9,1-1.2s0.9-0.4,1.5-0.4c0.1,0,0.2,0,0.3,0c0.1,0,0.2,0,0.3,0.1
						l-0.1,0.9h-0.7c-0.6,0-1.1,0.2-1.4,0.5c-0.4,0.3-0.6,0.8-0.8,1.4v5l1.3,0.1V83h-3.5v-0.7l1.3-0.1v-6.9l-1.3-0.1v-0.7h1.3
						C400.1,74.5,400.8,74.5,400.8,74.5z"/>
					<path class="st6" d="M411.3,77.2h-0.8l-0.1-1.2c-0.2-0.2-0.5-0.4-0.9-0.6c-0.4-0.1-0.8-0.2-1.2-0.2c-0.7,0-1.2,0.1-1.5,0.4
						s-0.5,0.6-0.5,1s0.1,0.7,0.4,1s0.9,0.5,1.8,0.7c1,0.2,1.8,0.5,2.3,0.9s0.8,0.9,0.8,1.6s-0.3,1.3-0.9,1.7s-1.3,0.7-2.3,0.7
						c-0.6,0-1.2-0.1-1.7-0.3c-0.5-0.2-1-0.4-1.3-0.7v-1.7h0.8l0.1,1.2c0.2,0.2,0.6,0.4,0.9,0.5s0.8,0.2,1.2,0.2
						c0.7,0,1.2-0.1,1.6-0.4s0.6-0.7,0.6-1.1s-0.2-0.7-0.5-1s-0.9-0.5-1.8-0.7c-1-0.2-1.8-0.5-2.2-0.9c-0.5-0.4-0.7-0.9-0.7-1.5
						s0.3-1.2,0.8-1.6s1.3-0.7,2.2-0.7c0.6,0,1.2,0.1,1.7,0.3c0.5,0.2,0.9,0.4,1.3,0.8L411.3,77.2z"/>
					<path class="st6" d="M422.9,83c-0.1-0.3-0.1-0.5-0.1-0.7s0-0.4,0-0.6c-0.3,0.4-0.7,0.8-1.2,1.1c-0.5,0.3-1.1,0.4-1.8,0.4
						c-0.8,0-1.5-0.2-1.9-0.6s-0.7-1-0.7-1.7c0-0.8,0.3-1.4,1-1.9s1.6-0.7,2.7-0.7h1.9v-1.1c0-0.6-0.2-1.1-0.6-1.4s-0.9-0.5-1.6-0.5
						c-0.5,0-0.9,0.1-1.3,0.2s-0.7,0.3-1,0.5l-0.1,1.1h-0.8v-1.6c0.4-0.3,0.9-0.5,1.4-0.7s1.1-0.3,1.7-0.3c0.9,0,1.7,0.2,2.2,0.7
						c0.6,0.5,0.9,1.2,0.9,2v4.2c0,0.2,0,0.3,0,0.5s0,0.3,0.1,0.5l0.8,0.1V83H422.9z M419.8,82.3c0.7,0,1.3-0.2,1.8-0.5
						s0.9-0.7,1.1-1.2V79h-1.9c-0.8,0-1.5,0.2-2,0.5s-0.8,0.8-0.8,1.3s0.2,0.8,0.5,1.1S419.3,82.3,419.8,82.3z"/>
					<path class="st6" d="M425.7,82.3l1.3-0.1v-6.9l-1.3-0.1v-0.7h2.1l0.1,1.5c0.3-0.5,0.6-0.9,1.1-1.2s1-0.4,1.6-0.4
						c0.9,0,1.6,0.3,2.1,0.8c0.5,0.6,0.7,1.4,0.7,2.6v4.4l1.3,0.1V83h-3.5v-0.7l1.3-0.1v-4.4c0-1-0.2-1.7-0.5-2.1
						c-0.4-0.4-0.9-0.6-1.5-0.6c-0.7,0-1.2,0.2-1.6,0.5s-0.7,0.8-0.9,1.4v5.1l1.3,0.1V83h-3.5v-0.7H425.7z"/>
					<path class="st6" d="M442,81.8c-0.3,0.4-0.6,0.8-1.1,1c-0.4,0.2-1,0.4-1.6,0.4c-1,0-1.8-0.4-2.4-1.1s-0.9-1.8-0.9-3v-0.2
						c0-1.3,0.3-2.4,0.9-3.2s1.4-1.2,2.4-1.2c0.6,0,1.1,0.1,1.5,0.4c0.4,0.2,0.8,0.6,1.1,1.1v-4.2l-1.3-0.1V71h1.3h0.9v11.4l1.3,0.1
						V83H442L442,81.8z M437.1,79c0,1,0.2,1.8,0.6,2.4s1,0.9,1.8,0.9c0.6,0,1.1-0.1,1.5-0.4s0.7-0.6,0.9-1.1v-4
						c-0.2-0.5-0.5-0.9-0.9-1.2c-0.4-0.3-0.9-0.5-1.5-0.5c-0.8,0-1.4,0.3-1.9,1s-0.6,1.6-0.6,2.6V79H437.1z"/>
				</g>
				<g class="st4">
					<path class="st6" d="M365.4,96.2h-0.7l-0.1-1.7c-0.3-0.4-0.7-0.6-1.2-0.9s-1-0.3-1.7-0.3c-1.3,0-2.3,0.5-3,1.4
						s-1.1,2.1-1.1,3.6v0.2c0,1.5,0.4,2.7,1.1,3.6s1.7,1.4,2.9,1.4c0.6,0,1.2-0.1,1.7-0.3s0.9-0.5,1.2-0.9l0.1-1.7h0.7v2
						c-0.4,0.5-0.9,0.9-1.6,1.2s-1.4,0.5-2.3,0.5c-1.5,0-2.7-0.5-3.6-1.6s-1.4-2.5-1.4-4.2v-0.1c0-1.7,0.5-3.1,1.4-4.2
						s2.1-1.6,3.6-1.6c0.8,0,1.6,0.2,2.3,0.5s1.2,0.7,1.5,1.2v1.9H365.4z"/>
					<path class="st6" d="M373.3,102.6c-0.3,0.5-0.6,0.9-1.1,1.1s-1,0.4-1.6,0.4c-0.9,0-1.6-0.3-2.1-0.9s-0.8-1.5-0.8-2.8v-4.1
						l-1-0.1v-0.7h1h0.9v4.9c0,1,0.2,1.8,0.5,2.2s0.9,0.7,1.5,0.7c0.7,0,1.3-0.2,1.7-0.5c0.4-0.3,0.7-0.7,0.9-1.3v-5.2l-1.2-0.1
						v-0.7h1.2h0.9v7.7l1.1,0.1v0.7h-2L373.3,102.6z"/>
					<path class="st6" d="M382.9,98.2h-0.8L382,97c-0.2-0.2-0.5-0.4-0.9-0.6c-0.4-0.1-0.8-0.2-1.2-0.2c-0.7,0-1.2,0.1-1.5,0.4
						s-0.5,0.6-0.5,1s0.1,0.7,0.4,1s0.9,0.5,1.8,0.7c1,0.2,1.8,0.5,2.3,0.9s0.8,0.9,0.8,1.6s-0.3,1.3-0.9,1.7s-1.3,0.7-2.3,0.7
						c-0.6,0-1.2-0.1-1.7-0.3c-0.5-0.2-1-0.4-1.3-0.7v-1.7h0.8l0.1,1.2c0.2,0.2,0.6,0.4,0.9,0.5s0.8,0.2,1.2,0.2
						c0.7,0,1.2-0.1,1.6-0.4s0.6-0.7,0.6-1.1s-0.2-0.7-0.5-1s-0.9-0.5-1.8-0.7c-1-0.2-1.8-0.5-2.2-0.9c-0.5-0.4-0.7-0.9-0.7-1.5
						s0.3-1.2,0.8-1.6s1.3-0.7,2.2-0.7c0.6,0,1.2,0.1,1.7,0.3c0.5,0.2,0.9,0.4,1.3,0.8L382.9,98.2z"/>
					<path class="st6" d="M386.9,93.4v2.2h1.9v0.8h-1.9v5.5c0,0.6,0.1,0.9,0.3,1.2c0.2,0.2,0.5,0.3,0.8,0.3c0.2,0,0.3,0,0.4,0
						s0.3,0,0.5-0.1l0.1,0.7c-0.2,0.1-0.3,0.1-0.6,0.2c-0.2,0-0.4,0.1-0.7,0.1c-0.6,0-1.1-0.2-1.4-0.6s-0.5-1-0.5-1.8v-5.5h-1.5
						v-0.8h1.5v-2.2C385.8,93.4,386.9,93.4,386.9,93.4z"/>
					<path class="st6" d="M390.3,99.6c0-1.2,0.3-2.3,1-3.1c0.7-0.8,1.6-1.2,2.7-1.2s2,0.4,2.7,1.2c0.7,0.8,1,1.8,1,3.1v0.3
						c0,1.2-0.3,2.3-1,3.1s-1.6,1.2-2.7,1.2s-2-0.4-2.7-1.2c-0.7-0.8-1-1.8-1-3.1V99.6z M391.2,99.9c0,1,0.2,1.8,0.7,2.5
						s1.2,1,2.1,1s1.6-0.3,2-1c0.5-0.7,0.7-1.5,0.7-2.5v-0.3c0-1-0.2-1.8-0.7-2.5s-1.2-1-2.1-1s-1.6,0.3-2.1,1s-0.7,1.5-0.7,2.5v0.3
						H391.2z"/>
					<path class="st6" d="M399.1,96.2v-0.7h2.1l0.1,1.4c0.3-0.5,0.6-0.9,1.1-1.1s1-0.4,1.6-0.4s1.2,0.2,1.6,0.5s0.7,0.8,0.9,1.4
						c0.3-0.6,0.6-1.1,1.1-1.4s1-0.5,1.7-0.5c0.9,0,1.6,0.3,2.1,0.9s0.7,1.5,0.7,2.8v4.1l1.3,0.1v0.7H410v-0.7l1.3-0.1v-4.1
						c0-1-0.2-1.8-0.6-2.2s-0.9-0.6-1.5-0.6c-0.7,0-1.3,0.2-1.7,0.7c-0.4,0.5-0.6,1.1-0.7,1.8v0.1V99v4.3l1.3,0.1v0.7h-3.5v-0.7
						l1.3-0.1v-4.2c0-1-0.2-1.8-0.6-2.2c-0.4-0.4-0.9-0.7-1.5-0.7c-0.7,0-1.2,0.2-1.6,0.5s-0.7,0.8-0.8,1.4v5.1l1.3,0.1v0.7h-3.5
						v-0.7l1.3-0.1v-6.9L399.1,96.2z"/>
					<path class="st6" d="M418.3,104.2c-1.1,0-1.9-0.4-2.6-1.2c-0.7-0.8-1-1.8-1-3v-0.4c0-1.2,0.3-2.2,1-3s1.5-1.2,2.5-1.2
						s1.9,0.3,2.4,1s0.9,1.5,0.9,2.6v0.8h-6v0.2c0,0.9,0.3,1.7,0.8,2.4s1.2,1,2,1c0.6,0,1.1-0.1,1.5-0.2c0.4-0.2,0.8-0.4,1.1-0.7
						l0.4,0.6c-0.3,0.3-0.7,0.6-1.2,0.8S418.9,104.2,418.3,104.2z M418.1,96.2c-0.7,0-1.3,0.3-1.7,0.8c-0.5,0.5-0.7,1.2-0.8,2l0,0h5
						v-0.2c0-0.7-0.2-1.3-0.6-1.8C419.5,96.4,418.9,96.2,418.1,96.2z"/>
					<path class="st6" d="M425.2,95.5l0.1,1.4V97c0.2-0.5,0.6-0.9,1-1.2s0.9-0.4,1.5-0.4c0.1,0,0.2,0,0.3,0c0.1,0,0.2,0,0.3,0.1
						l-0.1,0.9h-0.7c-0.6,0-1.1,0.2-1.4,0.5c-0.4,0.3-0.6,0.8-0.8,1.4v5l1.3,0.1v0.7h-3.5v-0.7l1.3-0.1v-6.9l-1.3-0.1v-0.7h1.3h0.7
						V95.5z"/>
					<path class="st6" d="M435.7,98.2h-0.8l-0.1-1.2c-0.2-0.2-0.5-0.4-0.9-0.6c-0.4-0.1-0.8-0.2-1.2-0.2c-0.7,0-1.2,0.1-1.5,0.4
						s-0.5,0.6-0.5,1s0.1,0.7,0.4,1s0.9,0.5,1.8,0.7c1,0.2,1.8,0.5,2.3,0.9s0.8,0.9,0.8,1.6s-0.3,1.3-0.9,1.7s-1.3,0.7-2.3,0.7
						c-0.6,0-1.2-0.1-1.7-0.3c-0.5-0.2-1-0.4-1.3-0.7v-1.7h0.8l0.1,1.2c0.2,0.2,0.6,0.4,0.9,0.5s0.8,0.2,1.2,0.2
						c0.7,0,1.2-0.1,1.6-0.4s0.6-0.7,0.6-1.1s-0.2-0.7-0.5-1s-0.9-0.5-1.8-0.7c-1-0.2-1.8-0.5-2.2-0.9c-0.5-0.4-0.7-0.9-0.7-1.5
						s0.3-1.2,0.8-1.6s1.3-0.7,2.2-0.7c0.6,0,1.2,0.1,1.7,0.3c0.5,0.2,0.9,0.4,1.3,0.8L435.7,98.2z"/>
				</g>
				<g class="st4">
					<path class="st6" d="M585.7,215.1c2.4,0,4.4,0.8,6,2.3c1.6,1.6,2.4,3.5,2.4,6v3.3c0,2.4-0.8,4.4-2.4,6c-1.6,1.5-3.6,2.3-6,2.3
						h-9v-2.4l2.1-0.4v-14.3l-2.1-0.4v-2.4h2.1L585.7,215.1L585.7,215.1z M582.9,218.2V232h2.6c1.4,0,2.6-0.5,3.4-1.4
						c0.8-1,1.2-2.2,1.2-3.8v-3.3c0-1.5-0.4-2.8-1.2-3.8s-1.9-1.4-3.4-1.4h-2.6V218.2z"/>
					<path class="st6" d="M596,232.6l1.9-0.4V223l-2.1-0.4v-2.4h6.1v12l1.9,0.4v2.4H596V232.6z M601.9,216.7h-4v-3h4V216.7z"/>
					<path class="st6" d="M617.2,225.3h-2.7l-0.4-1.8c-0.3-0.2-0.6-0.4-1-0.5s-0.9-0.2-1.4-0.2c-0.7,0-1.3,0.2-1.7,0.5
						s-0.6,0.7-0.6,1.2c0,0.4,0.2,0.8,0.6,1.1c0.4,0.3,1.2,0.6,2.4,0.8c1.8,0.4,3.2,0.9,4.1,1.6c0.9,0.7,1.3,1.7,1.3,2.9
						c0,1.3-0.6,2.4-1.7,3.3s-2.7,1.3-4.5,1.3c-1.1,0-2.2-0.2-3.1-0.5s-1.8-0.8-2.5-1.4v-3.3h2.8l0.5,1.9c0.2,0.2,0.6,0.3,1,0.4
						s0.8,0.1,1.3,0.1c0.8,0,1.4-0.1,1.9-0.4s0.6-0.7,0.6-1.2c0-0.4-0.2-0.8-0.6-1.1c-0.4-0.3-1.2-0.6-2.4-0.8
						c-1.7-0.4-3.1-0.9-3.9-1.6s-1.3-1.6-1.3-2.9c0-1.2,0.5-2.3,1.5-3.2s2.5-1.3,4.4-1.3c1.1,0,2.2,0.2,3.3,0.5s1.8,0.7,2.4,1.2
						L617.2,225.3z"/>
					<path class="st6" d="M626.5,232.2c0.7,0,1.3-0.2,1.7-0.6c0.4-0.4,0.6-1,0.6-1.7h3.6v0.1c0,1.5-0.5,2.7-1.7,3.8
						c-1.2,1-2.6,1.5-4.3,1.5c-2.2,0-3.9-0.7-5.1-2.1c-1.2-1.4-1.8-3.2-1.8-5.4v-0.4c0-2.2,0.6-4,1.8-5.4s3-2.1,5.2-2.1
						c1.2,0,2.3,0.2,3.2,0.5c0.9,0.4,1.7,0.9,2.4,1.5l0.1,4H629l-0.7-2.3c-0.2-0.2-0.4-0.3-0.7-0.4c-0.3-0.1-0.6-0.2-1-0.2
						c-1.1,0-1.9,0.4-2.4,1.2s-0.7,1.9-0.7,3.2v0.4c0,1.3,0.2,2.4,0.6,3.2C624.7,231.8,625.5,232.2,626.5,232.2z"/>
					<path class="st6" d="M634.3,227.5c0-2.2,0.6-4,1.9-5.4s2.9-2.1,5.1-2.1c2.2,0,3.9,0.7,5.1,2.1s1.9,3.2,1.9,5.4v0.3
						c0,2.2-0.6,4-1.9,5.4s-2.9,2.1-5.1,2.1c-2.2,0-3.9-0.7-5.1-2.1s-1.9-3.2-1.9-5.4V227.5z M638.3,227.8c0,1.3,0.2,2.4,0.7,3.2
						s1.2,1.2,2.3,1.2c1,0,1.8-0.4,2.3-1.2s0.7-1.9,0.7-3.2v-0.3c0-1.3-0.2-2.4-0.7-3.2s-1.2-1.2-2.3-1.2s-1.8,0.4-2.3,1.2
						s-0.7,1.9-0.7,3.2V227.8z"/>
					<path class="st6" d="M656.1,222.6l-1.4,0.3l2,6.6l0.3,1.4h0.1l0.3-1.4l1.9-6.6l-1.4-0.3v-2.4h6.7v2.4l-1.3,0.2l-4.4,12.2h-3.8
						l-4.4-12.2l-1.3-0.2v-2.4h6.7L656.1,222.6L656.1,222.6z"/>
					<path class="st6" d="M672.7,235.3c-2.1,0-3.8-0.7-5.1-2.1c-1.3-1.4-1.9-3.1-1.9-5.2v-0.5c0-2.2,0.6-4,1.8-5.4s2.8-2.1,4.9-2.1
						c2,0,3.5,0.6,4.6,1.8s1.7,2.8,1.7,4.9v2.2h-8.8v0.1c0.1,1,0.4,1.8,1,2.4s1.4,0.9,2.4,0.9c0.9,0,1.6-0.1,2.2-0.3
						c0.6-0.2,1.2-0.5,1.9-0.8l1.1,2.5c-0.6,0.5-1.4,0.9-2.4,1.2S673.9,235.3,672.7,235.3z M672.3,223c-0.7,0-1.3,0.3-1.8,0.8
						c-0.4,0.6-0.7,1.3-0.8,2.2v0.1h4.9v-0.4c0-0.8-0.2-1.5-0.6-2S673.1,223,672.3,223z"/>
					<path class="st6" d="M680.8,232.6l1.9-0.4V223l-2.1-0.4v-2.4h5.8l0.2,2.2c0.3-0.8,0.8-1.4,1.3-1.8s1.2-0.6,1.9-0.6
						c0.2,0,0.4,0,0.7,0s0.4,0.1,0.6,0.1l-0.4,3.6h-1.6c-0.6,0-1.1,0.1-1.4,0.3s-0.7,0.6-0.9,1v7.2l1.9,0.4v2.4h-7.8v-2.4H680.8z"/>
				</g>
				<g class="st4">
					<path class="st6" d="M592.5,245.6v0.7l-1.3,0.1V257h-0.9l-6.5-9.8l0,0v9l1.3,0.1v0.7h-3.5v-0.7l1.3-0.1v-9.8l-1.3-0.1v-0.7h1.3
						h0.9l6.5,9.8l0,0v-9l-1.3-0.1v-0.7h2.2H592.5z"/>
					<path class="st6" d="M597.5,257.2c-1.1,0-1.9-0.4-2.6-1.2c-0.7-0.8-1-1.8-1-3v-0.4c0-1.2,0.3-2.2,1-3s1.5-1.2,2.5-1.2
						s1.9,0.3,2.4,1s0.9,1.5,0.9,2.6v0.8h-6v0.2c0,0.9,0.3,1.7,0.8,2.4s1.2,1,2,1c0.6,0,1.1-0.1,1.5-0.2c0.4-0.2,0.8-0.4,1.1-0.7
						l0.4,0.6c-0.3,0.3-0.7,0.6-1.2,0.8S598.2,257.2,597.5,257.2z M597.4,249.2c-0.7,0-1.3,0.3-1.7,0.8c-0.5,0.5-0.7,1.2-0.8,2l0,0
						h5v-0.2c0-0.7-0.2-1.3-0.6-1.8C598.7,249.4,598.1,249.2,597.4,249.2z"/>
					<path class="st6" d="M604.9,249.2l-1.1,0.1l1.4,4.9l0.3,1.5l0,0l0.4-1.5l1.8-5.7h0.8l1.8,5.7l0.4,1.5l0,0l0.4-1.5l1.3-4.9
						l-1.1-0.1v-0.7h2.8v0.7l-0.8,0.1l-2.2,7.7h-0.8l-1.9-5.8l-0.4-1.5l0,0l-0.4,1.5l-1.9,5.8h-0.8l-2.2-7.7l-0.8-0.1v-0.7h2.8v0.7
						H604.9z"/>
					<path class="st6" d="M624.1,245.6c1.2,0,2.1,0.3,2.8,0.9c0.7,0.6,1,1.4,1,2.4s-0.3,1.8-1,2.4c-0.7,0.6-1.6,0.9-2.8,0.9h-2.6
						v3.9l1.3,0.1v0.7h-3.5v-0.7l1.3-0.1v-9.8l-1.3-0.1v-0.7h1.3h3.5V245.6z M621.5,251.5h2.6c0.9,0,1.6-0.2,2.1-0.7
						s0.7-1.1,0.7-1.8s-0.2-1.3-0.7-1.8s-1.2-0.7-2.1-0.7h-2.6V251.5z"/>
					<path class="st6" d="M631.5,248.5l0.1,1.4v0.1c0.2-0.5,0.6-0.9,1-1.2s0.9-0.4,1.5-0.4c0.1,0,0.2,0,0.3,0s0.2,0,0.3,0.1
						l-0.1,0.9h-0.7c-0.6,0-1.1,0.2-1.4,0.5c-0.4,0.3-0.6,0.8-0.8,1.4v5l1.3,0.1v0.7h-3.5v-0.7l1.3-0.1v-6.9l-1.3-0.1v-0.7h1.3
						L631.5,248.5L631.5,248.5z"/>
					<path class="st6" d="M635.7,252.6c0-1.2,0.3-2.3,1-3.1s1.6-1.2,2.7-1.2c1.1,0,2,0.4,2.7,1.2s1,1.8,1,3.1v0.3
						c0,1.2-0.3,2.3-1,3.1s-1.6,1.2-2.7,1.2c-1.1,0-2-0.4-2.7-1.2c-0.7-0.8-1-1.8-1-3.1V252.6z M636.6,252.9c0,1,0.2,1.8,0.7,2.5
						c0.5,0.7,1.2,1,2.1,1c0.9,0,1.6-0.3,2-1c0.5-0.7,0.7-1.5,0.7-2.5v-0.3c0-1-0.2-1.8-0.7-2.5s-1.2-1-2.1-1s-1.6,0.3-2.1,1
						s-0.7,1.5-0.7,2.5L636.6,252.9L636.6,252.9z"/>
					<path class="st6" d="M650.6,255.8c-0.3,0.4-0.6,0.8-1.1,1c-0.4,0.2-1,0.4-1.6,0.4c-1,0-1.8-0.4-2.4-1.1s-0.9-1.8-0.9-3v-0.2
						c0-1.3,0.3-2.4,0.9-3.2s1.4-1.2,2.4-1.2c0.6,0,1.1,0.1,1.5,0.4c0.4,0.2,0.8,0.6,1.1,1.1v-4.2l-1.3-0.1V245h1.3h0.9v11.4
						l1.3,0.1v0.7h-2.1L650.6,255.8z M645.6,253c0,1,0.2,1.8,0.6,2.4c0.4,0.6,1,0.9,1.8,0.9c0.6,0,1.1-0.1,1.5-0.4
						c0.4-0.3,0.7-0.6,0.9-1.1v-4c-0.2-0.5-0.5-0.9-0.9-1.2s-0.9-0.5-1.5-0.5c-0.8,0-1.4,0.3-1.9,1s-0.6,1.6-0.6,2.6v0.3H645.6z"/>
					<path class="st6" d="M660.4,255.6c-0.3,0.5-0.6,0.9-1.1,1.1s-1,0.4-1.6,0.4c-0.9,0-1.6-0.3-2.1-0.9s-0.8-1.5-0.8-2.8v-4.1
						l-1-0.1v-0.7h1h0.9v4.9c0,1,0.2,1.8,0.5,2.2s0.8,0.7,1.5,0.7s1.3-0.2,1.7-0.5c0.4-0.3,0.7-0.7,0.9-1.3v-5.2l-1.2-0.1v-0.7h1.2
						h0.9v7.7l1.1,0.1v0.7h-2L660.4,255.6z"/>
					<path class="st6" d="M667.4,256.4c0.6,0,1.2-0.2,1.6-0.5c0.5-0.4,0.7-0.8,0.7-1.5h0.8l0,0c0,0.8-0.3,1.4-0.9,2
						s-1.4,0.8-2.3,0.8c-1.1,0-2-0.4-2.7-1.2c-0.6-0.8-0.9-1.8-0.9-3v-0.3c0-1.2,0.3-2.2,0.9-3c0.6-0.8,1.5-1.2,2.7-1.2
						c0.7,0,1.2,0.1,1.8,0.4c0.5,0.2,1,0.6,1.3,1v1.8h-0.8l-0.1-1.5c-0.2-0.3-0.6-0.5-0.9-0.7c-0.4-0.2-0.8-0.2-1.3-0.2
						c-0.9,0-1.6,0.3-2,1c-0.4,0.6-0.7,1.5-0.7,2.4v0.3c0,1,0.2,1.8,0.6,2.5C665.8,256.1,666.5,256.4,667.4,256.4z"/>
					<path class="st6" d="M674.5,246.4v2.2h1.9v0.8h-1.9v5.5c0,0.6,0.1,0.9,0.3,1.2c0.2,0.2,0.5,0.3,0.8,0.3c0.2,0,0.3,0,0.4,0
						c0.1,0,0.3,0,0.5-0.1l0.1,0.7c-0.2,0.1-0.3,0.1-0.6,0.2c-0.2,0-0.4,0.1-0.7,0.1c-0.6,0-1.1-0.2-1.4-0.6c-0.3-0.4-0.5-1-0.5-1.8
						v-5.5h-1.5v-0.8h1.5v-2.2L674.5,246.4L674.5,246.4z"/>
					<path class="st6" d="M684.2,251.2h-0.8l-0.1-1.2c-0.2-0.2-0.5-0.4-0.9-0.6c-0.4-0.1-0.8-0.2-1.2-0.2c-0.7,0-1.2,0.1-1.5,0.4
						c-0.3,0.3-0.5,0.6-0.5,1s0.1,0.7,0.4,1c0.3,0.3,0.9,0.5,1.8,0.7c1,0.2,1.8,0.5,2.3,0.9s0.8,0.9,0.8,1.6c0,0.7-0.3,1.3-0.9,1.7
						s-1.3,0.7-2.3,0.7c-0.6,0-1.2-0.1-1.7-0.3c-0.5-0.2-1-0.4-1.3-0.7v-1.7h0.8l0.1,1.2c0.2,0.2,0.6,0.4,0.9,0.5s0.8,0.2,1.2,0.2
						c0.7,0,1.2-0.1,1.6-0.4s0.6-0.7,0.6-1.1c0-0.4-0.2-0.7-0.5-1s-0.9-0.5-1.8-0.7c-1-0.2-1.8-0.5-2.2-0.9
						c-0.5-0.4-0.7-0.9-0.7-1.5s0.3-1.2,0.8-1.6s1.3-0.7,2.2-0.7c0.6,0,1.2,0.1,1.7,0.3s0.9,0.4,1.3,0.8L684.2,251.2z"/>
				</g>
				<g class="st4">
					<path class="st6" d="M252,476.3L252,476.3l-5.4,14.7h-2.7l-5.3-14.7h-0.1l0.4,8.7v3.1l2.1,0.4v2.4h-8.2v-2.4l2.1-0.4v-14.3
						l-2.1-0.4V471h2.1h5.2l5.1,14.7h0.1l5.1-14.7h7.4v2.4l-2.1,0.4v14.3l2.1,0.4v2.4h-8.2v-2.4l2.1-0.4V485L252,476.3z"/>
					<path class="st6" d="M266.3,491.3c-2.1,0-3.8-0.7-5.1-2.1c-1.3-1.4-1.9-3.1-1.9-5.2v-0.5c0-2.2,0.6-4,1.8-5.4
						c1.2-1.4,2.8-2.1,4.9-2.1c2,0,3.5,0.6,4.6,1.8c1.1,1.2,1.7,2.8,1.7,4.9v2.2h-8.8v0.1c0.1,1,0.4,1.8,1,2.4s1.4,0.9,2.4,0.9
						c0.9,0,1.6-0.1,2.2-0.3c0.6-0.2,1.2-0.5,1.9-0.8l1.1,2.5c-0.6,0.5-1.4,0.9-2.4,1.2S267.5,491.3,266.3,491.3z M266,479
						c-0.7,0-1.3,0.3-1.8,0.8c-0.4,0.6-0.7,1.3-0.8,2.2v0.1h4.9v-0.4c0-0.8-0.2-1.5-0.6-2S266.8,479,266,479z"/>
					<path class="st6" d="M281.2,491.3c-2.1,0-3.8-0.7-5.1-2.1c-1.3-1.4-1.9-3.1-1.9-5.2v-0.5c0-2.2,0.6-4,1.8-5.4
						c1.2-1.4,2.8-2.1,4.9-2.1c2,0,3.5,0.6,4.6,1.8c1.1,1.2,1.7,2.8,1.7,4.9v2.2h-8.8v0.1c0.1,1,0.4,1.8,1,2.4s1.4,0.9,2.4,0.9
						c0.9,0,1.6-0.1,2.2-0.3c0.6-0.2,1.2-0.5,1.9-0.8l1.1,2.5c-0.6,0.5-1.4,0.9-2.4,1.2S282.4,491.3,281.2,491.3z M280.9,479
						c-0.7,0-1.3,0.3-1.8,0.8c-0.4,0.6-0.7,1.3-0.8,2.2v0.1h4.9v-0.4c0-0.8-0.2-1.5-0.6-2S281.7,479,280.9,479z"/>
					<path class="st6" d="M295,472.6v3.6h2.6v2.8H295v7.5c0,0.6,0.1,1,0.4,1.2c0.2,0.2,0.6,0.4,1,0.4c0.3,0,0.5,0,0.7,0
						s0.4-0.1,0.7-0.1l0.3,2.9c-0.4,0.1-0.9,0.2-1.3,0.3s-0.9,0.1-1.4,0.1c-1.4,0-2.4-0.4-3.2-1.1c-0.7-0.8-1.1-2-1.1-3.6V479h-2.2
						v-2.8h2.2v-3.6H295z"/>
				</g>
				<g class="st4">
					<path class="st6" d="M222.3,503.6v0.7l-1.3,0.1V515h-0.9l-6.5-9.8l0,0v9l1.3,0.1v0.7h-3.5v-0.7l1.3-0.1v-9.8l-1.3-0.1v-0.7h1.3
						h0.9l6.5,9.8l0,0v-9l-1.3-0.1v-0.7h2.2H222.3z"/>
					<path class="st6" d="M227.3,515.2c-1.1,0-1.9-0.4-2.6-1.2c-0.7-0.8-1-1.8-1-3v-0.4c0-1.2,0.3-2.2,1-3s1.5-1.2,2.5-1.2
						s1.9,0.3,2.4,1s0.9,1.5,0.9,2.6v0.8h-6v0.2c0,0.9,0.3,1.7,0.8,2.4s1.2,1,2,1c0.6,0,1.1-0.1,1.5-0.2c0.4-0.2,0.8-0.4,1.1-0.7
						l0.4,0.6c-0.3,0.3-0.7,0.6-1.2,0.8S228,515.2,227.3,515.2z M227.2,507.2c-0.7,0-1.3,0.3-1.7,0.8c-0.5,0.5-0.7,1.2-0.8,2l0,0h5
						v-0.2c0-0.7-0.2-1.3-0.6-1.8C228.5,507.4,227.9,507.2,227.2,507.2z"/>
					<path class="st6" d="M234.7,507.2l-1.1,0.1l1.4,4.9l0.3,1.5l0,0l0.4-1.5l1.8-5.7h0.8l1.8,5.7l0.4,1.5l0,0l0.4-1.5l1.3-4.9
						l-1.1-0.1v-0.7h2.8v0.7l-0.8,0.1L241,515h-0.8l-1.9-5.8l-0.4-1.5l0,0l-0.4,1.5l-1.9,5.8h-0.8l-2.2-7.7l-0.8-0.1v-0.7h2.8
						L234.7,507.2L234.7,507.2z"/>
					<path class="st6" d="M257.1,507h-0.8l-0.1-1.6c-0.3-0.4-0.7-0.6-1.1-0.8s-1.1-0.3-1.7-0.3c-0.9,0-1.7,0.2-2.2,0.6
						s-0.8,0.9-0.8,1.5s0.2,1.1,0.7,1.4c0.5,0.4,1.3,0.7,2.4,1c1.2,0.3,2.2,0.7,2.8,1.3c0.6,0.5,1,1.2,1,2.1c0,0.9-0.4,1.6-1.1,2.2
						c-0.7,0.5-1.7,0.8-2.8,0.8c-0.8,0-1.6-0.1-2.3-0.4s-1.3-0.7-1.7-1.2v-2h0.8l0.1,1.7c0.3,0.4,0.8,0.7,1.3,0.9s1.1,0.3,1.8,0.3
						c0.9,0,1.6-0.2,2.2-0.6s0.8-0.9,0.8-1.6c0-0.6-0.2-1.1-0.7-1.5c-0.5-0.4-1.3-0.7-2.4-1c-1.2-0.3-2.2-0.7-2.8-1.2s-1-1.2-1-2
						c0-0.9,0.4-1.6,1.1-2.1c0.7-0.5,1.7-0.8,2.8-0.8c0.8,0,1.6,0.1,2.2,0.4c0.6,0.3,1.2,0.7,1.5,1.2V507z"/>
					<path class="st6" d="M265,513.6c-0.3,0.5-0.6,0.9-1.1,1.1s-1,0.4-1.6,0.4c-0.9,0-1.6-0.3-2.1-0.9c-0.5-0.6-0.8-1.5-0.8-2.8
						v-4.1l-1-0.1v-0.7h1h0.9v4.9c0,1,0.2,1.8,0.5,2.2s0.9,0.7,1.5,0.7c0.7,0,1.3-0.2,1.7-0.5c0.4-0.3,0.7-0.7,0.9-1.3v-5.2
						l-1.2-0.1v-0.7h1.2h0.9v7.7l1.1,0.1v0.7h-2L265,513.6z"/>
					<path class="st6" d="M268.2,507.2v-0.7h2.1l0.1,1.3c0.3-0.5,0.7-0.8,1.1-1.1s1-0.4,1.6-0.4c1,0,1.8,0.4,2.4,1.2
						c0.6,0.8,0.9,1.9,0.9,3.2v0.2c0,1.3-0.3,2.3-0.9,3c-0.6,0.8-1.4,1.1-2.4,1.1c-0.6,0-1.1-0.1-1.6-0.3s-0.8-0.5-1.1-1v3.6
						l1.3,0.1v0.7h-3.5v-0.7l1.3-0.1v-10.1L268.2,507.2z M275.3,510.8c0-1.1-0.2-1.9-0.6-2.6s-1.1-1-1.9-1c-0.6,0-1.1,0.1-1.5,0.4
						s-0.7,0.7-0.9,1.2v4.1c0.2,0.5,0.5,0.8,0.9,1.1s0.9,0.4,1.5,0.4c0.8,0,1.4-0.3,1.9-0.9c0.4-0.6,0.6-1.4,0.6-2.4V510.8z"/>
					<path class="st6" d="M277.5,507.2v-0.7h2.1l0.1,1.3c0.3-0.5,0.7-0.8,1.1-1.1s1-0.4,1.6-0.4c1,0,1.8,0.4,2.4,1.2
						c0.6,0.8,0.9,1.9,0.9,3.2v0.2c0,1.3-0.3,2.3-0.9,3c-0.6,0.8-1.4,1.1-2.4,1.1c-0.6,0-1.1-0.1-1.6-0.3s-0.8-0.5-1.1-1v3.6
						l1.3,0.1v0.7h-3.5v-0.7l1.3-0.1v-10.1L277.5,507.2z M284.7,510.8c0-1.1-0.2-1.9-0.6-2.6s-1.1-1-1.9-1c-0.6,0-1.1,0.1-1.5,0.4
						s-0.7,0.7-0.9,1.2v4.1c0.2,0.5,0.5,0.8,0.9,1.1s0.9,0.4,1.5,0.4c0.8,0,1.4-0.3,1.9-0.9c0.4-0.6,0.6-1.4,0.6-2.4V510.8z"/>
					<path class="st6" d="M286.9,503.5v-0.7h2.2v11.4l1.3,0.1v0.7h-3.5v-0.7l1.3-0.1v-10.6L286.9,503.5z"/>
					<path class="st6" d="M291.8,514.3l1.3-0.1v-6.9l-1.3-0.1v-0.7h2.2v7.7l1.3,0.1v0.7h-3.5V514.3z M294,504.1h-1v-1.3h0.9v1.3H294
						z"/>
					<path class="st6" d="M300.5,515.2c-1.1,0-1.9-0.4-2.6-1.2s-1-1.8-1-3v-0.4c0-1.2,0.3-2.2,1-3s1.5-1.2,2.5-1.2s1.9,0.3,2.4,1
						s0.9,1.5,0.9,2.6v0.8h-6v0.2c0,0.9,0.3,1.7,0.8,2.4s1.2,1,2,1c0.6,0,1.1-0.1,1.5-0.2c0.4-0.2,0.8-0.4,1.1-0.7l0.4,0.6
						c-0.3,0.3-0.7,0.6-1.2,0.8S301.2,515.2,300.5,515.2z M300.4,507.2c-0.7,0-1.3,0.3-1.7,0.8c-0.5,0.5-0.7,1.2-0.8,2l0,0h5v-0.2
						c0-0.7-0.2-1.3-0.6-1.8C301.7,507.4,301.2,507.2,300.4,507.2z"/>
					<path class="st6" d="M307.4,506.5l0.1,1.4v0.1c0.2-0.5,0.6-0.9,1-1.2s0.9-0.4,1.5-0.4c0.1,0,0.2,0,0.3,0c0.1,0,0.2,0,0.3,0.1
						l-0.1,0.9h-0.7c-0.6,0-1.1,0.2-1.4,0.5c-0.4,0.3-0.6,0.8-0.8,1.4v5l1.3,0.1v0.7h-3.5v-0.7l1.3-0.1v-6.9l-1.3-0.1v-0.7h1.3
						L307.4,506.5L307.4,506.5z"/>
					<path class="st6" d="M318,509.2h-0.8l-0.1-1.2c-0.2-0.2-0.5-0.4-0.9-0.6c-0.4-0.1-0.8-0.2-1.2-0.2c-0.7,0-1.2,0.1-1.5,0.4
						s-0.5,0.6-0.5,1s0.1,0.7,0.4,1s0.9,0.5,1.8,0.7c1,0.2,1.8,0.5,2.3,0.9s0.8,0.9,0.8,1.6s-0.3,1.3-0.9,1.7s-1.3,0.7-2.3,0.7
						c-0.6,0-1.2-0.1-1.7-0.3s-1-0.4-1.3-0.7v-1.7h0.8l0.1,1.2c0.2,0.2,0.6,0.4,0.9,0.5s0.8,0.2,1.2,0.2c0.7,0,1.2-0.1,1.6-0.4
						s0.6-0.7,0.6-1.1c0-0.4-0.2-0.7-0.5-1s-0.9-0.5-1.8-0.7c-1-0.2-1.8-0.5-2.2-0.9c-0.5-0.4-0.7-0.9-0.7-1.5s0.3-1.2,0.8-1.6
						s1.3-0.7,2.2-0.7c0.6,0,1.2,0.1,1.7,0.3c0.5,0.2,0.9,0.4,1.3,0.8L318,509.2z"/>
				</g>
				<g class="st4">
					<path class="st6" d="M114.2,214.1c2.3,0,4.1,0.6,5.4,1.8s2,2.7,2,4.6c0,1.9-0.7,3.4-2,4.6c-1.3,1.2-3.1,1.7-5.4,1.7h-3.4v4.4
						l2.1,0.4v2.4h-8.2v-2.4l2.1-0.4v-14.3l-2.1-0.4v-2.4h2.1L114.2,214.1L114.2,214.1z M110.9,223.7h3.4c1.1,0,2-0.3,2.5-0.9
						c0.6-0.6,0.9-1.4,0.9-2.3c0-1-0.3-1.7-0.9-2.4c-0.6-0.6-1.4-0.9-2.5-0.9h-3.4V223.7z"/>
					<path class="st6" d="M123.3,231.6l1.9-0.4V222l-2.1-0.4v-2.4h5.8l0.2,2.2c0.3-0.8,0.8-1.4,1.3-1.8s1.2-0.6,1.9-0.6
						c0.2,0,0.4,0,0.7,0s0.4,0.1,0.6,0.1l-0.4,3.6h-1.6c-0.6,0-1.1,0.1-1.4,0.3s-0.7,0.6-0.9,1v7.2l1.9,0.4v2.4h-7.8v-2.4H123.3z"/>
					<path class="st6" d="M141.6,234.3c-2.1,0-3.8-0.7-5.1-2.1c-1.3-1.4-1.9-3.1-1.9-5.2v-0.5c0-2.2,0.6-4,1.8-5.4s2.8-2.1,4.9-2.1
						c2,0,3.5,0.6,4.6,1.8s1.7,2.8,1.7,4.9v2.2h-8.8v0.1c0.1,1,0.4,1.8,1,2.4c0.6,0.6,1.4,0.9,2.4,0.9c0.9,0,1.6-0.1,2.2-0.3
						c0.6-0.2,1.2-0.5,1.9-0.8l1.1,2.5c-0.6,0.5-1.4,0.9-2.4,1.2S142.8,234.3,141.6,234.3z M141.2,222c-0.7,0-1.3,0.3-1.8,0.8
						c-0.4,0.6-0.7,1.3-0.8,2.2v0.1h4.9v-0.4c0-0.8-0.2-1.5-0.6-2S142,222,141.2,222z"/>
					<path class="st6" d="M149.1,221.6v-2.4h5.8l0.2,1.7c0.4-0.6,1-1.1,1.6-1.5c0.6-0.3,1.3-0.5,2.1-0.5c1.8,0,3.3,0.7,4.3,2.1
						s1.5,3.3,1.5,5.6v0.3c0,2.2-0.5,3.9-1.5,5.3s-2.4,2-4.2,2c-0.8,0-1.5-0.1-2.1-0.4s-1.1-0.7-1.5-1.3v4.3l1.9,0.4v2.4h-7.8v-2.4
						l1.9-0.4V222L149.1,221.6z M160.6,226.7c0-1.4-0.2-2.5-0.7-3.4s-1.2-1.3-2.1-1.3c-0.6,0-1.1,0.1-1.5,0.4s-0.8,0.6-1,1.1v6.5
						c0.2,0.4,0.6,0.7,1,1s0.9,0.3,1.6,0.3c1,0,1.7-0.4,2.1-1.1s0.7-1.8,0.7-3.1v-0.4H160.6z"/>
					<path class="st6" d="M175.8,234c-0.1-0.2-0.2-0.5-0.3-0.8s-0.1-0.5-0.2-0.8c-0.5,0.5-1.1,1-1.7,1.3c-0.7,0.3-1.5,0.5-2.3,0.5
						c-1.4,0-2.6-0.4-3.5-1.2s-1.3-1.9-1.3-3.2c0-1.4,0.6-2.5,1.7-3.2c1.1-0.8,2.7-1.1,4.9-1.1h2v-1.4c0-0.7-0.2-1.3-0.6-1.7
						s-1-0.6-1.8-0.6c-0.5,0-0.9,0.1-1.2,0.2s-0.6,0.2-0.9,0.4l-0.3,1.6h-3v-3.3c0.7-0.5,1.6-0.9,2.5-1.2s2-0.5,3.1-0.5
						c1.8,0,3.3,0.4,4.5,1.3c1.1,0.9,1.7,2.2,1.7,3.8v6.1c0,0.2,0,0.4,0,0.6c0,0.2,0,0.4,0,0.6l1.2,0.2v2.4L175.8,234L175.8,234z
						 M172.3,231.3c0.6,0,1.1-0.1,1.6-0.4s0.9-0.6,1.1-1v-2.3h-2c-0.8,0-1.5,0.2-1.9,0.6s-0.7,0.9-0.7,1.4s0.2,0.9,0.5,1.2
						C171.3,231.2,171.8,231.3,172.3,231.3z"/>
					<path class="st6" d="M182.1,231.6l1.9-0.4V222l-2.1-0.4v-2.4h5.8l0.2,2.2c0.3-0.8,0.8-1.4,1.3-1.8s1.2-0.6,1.9-0.6
						c0.2,0,0.4,0,0.7,0s0.4,0.1,0.6,0.1l-0.4,3.6h-1.6c-0.6,0-1.1,0.1-1.4,0.3s-0.7,0.6-0.9,1v7.2l1.9,0.4v2.4h-7.8L182.1,231.6
						L182.1,231.6z"/>
					<path class="st6" d="M200.4,234.3c-2.1,0-3.8-0.7-5.1-2.1c-1.3-1.4-1.9-3.1-1.9-5.2v-0.5c0-2.2,0.6-4,1.8-5.4s2.8-2.1,4.9-2.1
						c2,0,3.5,0.6,4.6,1.8s1.7,2.8,1.7,4.9v2.2h-8.8v0.1c0.1,1,0.4,1.8,1,2.4c0.6,0.6,1.4,0.9,2.4,0.9c0.9,0,1.6-0.1,2.2-0.3
						c0.6-0.2,1.2-0.5,1.9-0.8l1.1,2.5c-0.6,0.5-1.4,0.9-2.4,1.2S201.6,234.3,200.4,234.3z M200,222c-0.7,0-1.3,0.3-1.8,0.8
						c-0.4,0.6-0.7,1.3-0.8,2.2v0.1h4.9v-0.4c0-0.8-0.2-1.5-0.6-2S200.8,222,200,222z"/>
				</g>
				<g class="st4">
					<path class="st6" d="M51.3,244.6c1.2,0,2.1,0.3,2.8,0.9c0.7,0.6,1,1.4,1,2.4s-0.3,1.8-1,2.4c-0.7,0.6-1.6,0.9-2.8,0.9h-2.6v3.9
						l1.3,0.1v0.7h-3.5v-0.7l1.3-0.1v-9.8l-1.3-0.1v-0.7h1.3h3.5V244.6z M48.7,250.5h2.6c0.9,0,1.6-0.2,2.1-0.7s0.7-1.1,0.7-1.8
						s-0.2-1.3-0.7-1.8s-1.2-0.7-2.1-0.7h-2.6V250.5z"/>
					<path class="st6" d="M62.9,254.6c-0.3,0.5-0.6,0.9-1.1,1.1s-1,0.4-1.6,0.4c-0.9,0-1.6-0.3-2.1-0.9c-0.5-0.6-0.8-1.5-0.8-2.8
						v-4.1l-1-0.1v-0.7h1h0.9v4.9c0,1,0.2,1.8,0.5,2.2s0.9,0.7,1.5,0.7c0.7,0,1.3-0.2,1.7-0.5s0.7-0.7,0.9-1.3v-5.2l-1.2-0.1v-0.7
						h1.2h0.9v7.7l1.1,0.1v0.7h-2L62.9,254.6z"/>
					<path class="st6" d="M68.3,247.5l0.1,1.4v0.1c0.2-0.5,0.6-0.9,1-1.2s0.9-0.4,1.5-0.4c0.1,0,0.2,0,0.3,0c0.1,0,0.2,0,0.3,0.1
						l-0.1,0.9h-0.7c-0.6,0-1.1,0.2-1.4,0.5c-0.4,0.3-0.6,0.8-0.8,1.4v5l1.3,0.1v0.7h-3.5v-0.7l1.3-0.1v-6.9l-1.3-0.1v-0.7h1.3h0.7
						V247.5z"/>
					<path class="st6" d="M76.2,255.4c0.6,0,1.2-0.2,1.6-0.5c0.5-0.4,0.7-0.8,0.7-1.5h0.8l0,0c0,0.8-0.3,1.4-0.9,2s-1.4,0.8-2.3,0.8
						c-1.1,0-2-0.4-2.7-1.2c-0.6-0.8-0.9-1.8-0.9-3v-0.3c0-1.2,0.3-2.2,0.9-3s1.5-1.2,2.7-1.2c0.7,0,1.2,0.1,1.8,0.4
						c0.5,0.2,1,0.6,1.3,1v1.8h-0.8l-0.1-1.5c-0.2-0.3-0.6-0.5-0.9-0.7c-0.4-0.2-0.8-0.2-1.3-0.2c-0.9,0-1.6,0.3-2,1
						c-0.4,0.6-0.7,1.5-0.7,2.4v0.3c0,1,0.2,1.8,0.6,2.5C74.6,255.1,75.3,255.4,76.2,255.4z"/>
					<path class="st6" d="M80.9,244.5v-0.7h2.2v5.2c0.3-0.5,0.7-0.9,1.1-1.2s1-0.4,1.6-0.4c0.9,0,1.6,0.3,2.1,0.8s0.7,1.4,0.7,2.6
						v4.4l1.3,0.1v0.7h-3.5v-0.7l1.3-0.1v-4.4c0-0.9-0.2-1.6-0.5-2c-0.4-0.4-0.9-0.6-1.5-0.6s-1.2,0.2-1.6,0.5s-0.7,0.8-0.9,1.3v5.2
						l1.3,0.1v0.7H81v-0.7l1.3-0.1v-10.6L80.9,244.5z"/>
					<path class="st6" d="M97.1,256c-0.1-0.3-0.1-0.5-0.1-0.7s0-0.4,0-0.6c-0.3,0.4-0.7,0.8-1.2,1.1s-1.1,0.4-1.8,0.4
						c-0.8,0-1.5-0.2-1.9-0.6s-0.7-1-0.7-1.7c0-0.8,0.3-1.4,1-1.9s1.6-0.7,2.7-0.7H97v-1.1c0-0.6-0.2-1.1-0.6-1.4
						c-0.4-0.3-0.9-0.5-1.6-0.5c-0.5,0-0.9,0.1-1.3,0.2c-0.4,0.1-0.7,0.3-1,0.5l-0.1,1.1h-0.8v-1.6c0.4-0.3,0.9-0.5,1.4-0.7
						s1.1-0.3,1.7-0.3c0.9,0,1.7,0.2,2.2,0.7c0.6,0.5,0.9,1.2,0.9,2v4.2c0,0.2,0,0.3,0,0.5s0,0.3,0.1,0.5l0.8,0.1v0.7h-1.6V256z
						 M94,255.3c0.7,0,1.3-0.2,1.8-0.5s0.9-0.7,1.1-1.2V252H95c-0.8,0-1.5,0.2-2,0.5s-0.8,0.8-0.8,1.3s0.2,0.8,0.5,1.1
						C93,255.2,93.5,255.3,94,255.3z"/>
					<path class="st6" d="M106.2,250.2h-0.8l-0.1-1.2c-0.2-0.2-0.5-0.4-0.9-0.6c-0.4-0.1-0.8-0.2-1.2-0.2c-0.7,0-1.2,0.1-1.5,0.4
						c-0.3,0.3-0.5,0.6-0.5,1s0.1,0.7,0.4,1s0.9,0.5,1.8,0.7c1,0.2,1.8,0.5,2.3,0.9s0.8,0.9,0.8,1.6c0,0.7-0.3,1.3-0.9,1.7
						s-1.3,0.7-2.3,0.7c-0.6,0-1.2-0.1-1.7-0.3s-1-0.4-1.3-0.7v-1.7h0.8l0.1,1.2c0.2,0.2,0.6,0.4,0.9,0.5s0.8,0.2,1.2,0.2
						c0.7,0,1.2-0.1,1.6-0.4s0.6-0.7,0.6-1.1c0-0.4-0.2-0.7-0.5-1s-0.9-0.5-1.8-0.7c-1-0.2-1.8-0.5-2.2-0.9
						c-0.5-0.4-0.7-0.9-0.7-1.5s0.3-1.2,0.8-1.6s1.3-0.7,2.2-0.7c0.6,0,1.2,0.1,1.7,0.3s0.9,0.4,1.3,0.8L106.2,250.2z"/>
					<path class="st6" d="M111.8,256.2c-1.1,0-1.9-0.4-2.6-1.2s-1-1.8-1-3v-0.4c0-1.2,0.3-2.2,1-3s1.5-1.2,2.5-1.2s1.9,0.3,2.4,1
						s0.9,1.5,0.9,2.6v0.8h-6v0.2c0,0.9,0.3,1.7,0.8,2.4s1.2,1,2,1c0.6,0,1.1-0.1,1.5-0.2c0.4-0.2,0.8-0.4,1.1-0.7l0.4,0.6
						c-0.3,0.3-0.7,0.6-1.2,0.8S112.5,256.2,111.8,256.2z M111.7,248.2c-0.7,0-1.3,0.3-1.7,0.8c-0.5,0.5-0.7,1.2-0.8,2l0,0h5v-0.2
						c0-0.7-0.2-1.3-0.6-1.8C113,248.4,112.4,248.2,111.7,248.2z"/>
					<path class="st6" d="M122.8,250.2H122V249c-0.2-0.2-0.5-0.4-0.9-0.6c-0.4-0.1-0.8-0.2-1.2-0.2c-0.7,0-1.2,0.1-1.5,0.4
						c-0.3,0.3-0.5,0.6-0.5,1s0.1,0.7,0.4,1s0.9,0.5,1.8,0.7c1,0.2,1.8,0.5,2.3,0.9s0.8,0.9,0.8,1.6c0,0.7-0.3,1.3-0.9,1.7
						s-1.3,0.7-2.3,0.7c-0.6,0-1.2-0.1-1.7-0.3s-1-0.4-1.3-0.7v-1.7h0.8l0.1,1.2c0.2,0.2,0.6,0.4,0.9,0.5s0.8,0.2,1.2,0.2
						c0.7,0,1.2-0.1,1.6-0.4s0.6-0.7,0.6-1.1c0-0.4-0.2-0.7-0.5-1s-0.9-0.5-1.8-0.7c-1-0.2-1.8-0.5-2.2-0.9
						c-0.5-0.4-0.7-0.9-0.7-1.5s0.3-1.2,0.8-1.6s1.3-0.7,2.2-0.7c0.6,0,1.2,0.1,1.7,0.3s0.9,0.4,1.3,0.8L122.8,250.2z"/>
					<path class="st6" d="M128.6,251.6c0-1.2,0.3-2.3,1-3.1s1.6-1.2,2.7-1.2c1.1,0,2,0.4,2.7,1.2s1,1.8,1,3.1v0.3
						c0,1.2-0.3,2.3-1,3.1s-1.6,1.2-2.7,1.2c-1.1,0-2-0.4-2.7-1.2s-1-1.8-1-3.1V251.6z M129.5,251.9c0,1,0.2,1.8,0.7,2.5
						s1.2,1,2.1,1c0.9,0,1.6-0.3,2-1c0.5-0.7,0.7-1.5,0.7-2.5v-0.3c0-1-0.2-1.8-0.7-2.5s-1.2-1-2.1-1s-1.6,0.3-2.1,1
						s-0.7,1.5-0.7,2.5v0.3H129.5z"/>
					<path class="st6" d="M139.6,247.5l0.1,1.4v0.1c0.2-0.5,0.6-0.9,1-1.2s0.9-0.4,1.5-0.4c0.1,0,0.2,0,0.3,0s0.2,0,0.3,0.1
						l-0.1,0.9H142c-0.6,0-1.1,0.2-1.4,0.5c-0.4,0.3-0.6,0.8-0.8,1.4v5l1.3,0.1v0.7h-3.5v-0.7l1.3-0.1v-6.9l-1.3-0.1v-0.7h1.3h0.7
						V247.5z"/>
					<path class="st6" d="M152.5,244.6c1.2,0,2.1,0.3,2.8,0.9c0.7,0.6,1,1.4,1,2.4s-0.3,1.8-1,2.4c-0.7,0.6-1.6,0.9-2.8,0.9h-2.6
						v3.9l1.3,0.1v0.7h-3.5v-0.7l1.3-0.1v-9.8l-1.3-0.1v-0.7h1.3h3.5V244.6z M149.9,250.5h2.6c0.9,0,1.6-0.2,2.1-0.7
						s0.7-1.1,0.7-1.8s-0.2-1.3-0.7-1.8s-1.2-0.7-2.1-0.7h-2.6V250.5z"/>
					<path class="st6" d="M159.9,247.5l0.1,1.4v0.1c0.2-0.5,0.6-0.9,1-1.2s0.9-0.4,1.5-0.4c0.1,0,0.2,0,0.3,0s0.2,0,0.3,0.1
						l-0.1,0.9h-0.7c-0.6,0-1.1,0.2-1.4,0.5c-0.4,0.3-0.6,0.8-0.8,1.4v5l1.3,0.1v0.7h-3.5v-0.7l1.3-0.1v-6.9l-1.3-0.1v-0.7h1.3h0.7
						V247.5z"/>
					<path class="st6" d="M164.2,251.6c0-1.2,0.3-2.3,1-3.1s1.6-1.2,2.7-1.2c1.1,0,2,0.4,2.7,1.2s1,1.8,1,3.1v0.3
						c0,1.2-0.3,2.3-1,3.1s-1.6,1.2-2.7,1.2c-1.1,0-2-0.4-2.7-1.2s-1-1.8-1-3.1V251.6z M165.1,251.9c0,1,0.2,1.8,0.7,2.5
						s1.2,1,2.1,1c0.9,0,1.6-0.3,2-1c0.5-0.7,0.7-1.5,0.7-2.5v-0.3c0-1-0.2-1.8-0.7-2.5s-1.2-1-2.1-1s-1.6,0.3-2.1,1
						s-0.7,1.5-0.7,2.5v0.3H165.1z"/>
					<path class="st6" d="M175.6,256.7c0,0.9-0.2,1.5-0.6,2c-0.4,0.5-1,0.7-1.7,0.7c-0.2,0-0.3,0-0.4,0c-0.1,0-0.3-0.1-0.4-0.1
						l0.1-0.8c0.1,0,0.2,0.1,0.3,0.1s0.3,0,0.4,0c0.5,0,0.8-0.2,1.1-0.5s0.4-0.8,0.4-1.4v-8.4l-1.3-0.1v-0.7h2.2v9.2H175.6z
						 M175.5,245.1h-0.9v-1.3h0.9V245.1z"/>
					<path class="st6" d="M181.3,256.2c-1.1,0-1.9-0.4-2.6-1.2c-0.7-0.8-1-1.8-1-3v-0.4c0-1.2,0.3-2.2,1-3s1.5-1.2,2.5-1.2
						s1.9,0.3,2.4,1s0.9,1.5,0.9,2.6v0.8h-6v0.2c0,0.9,0.3,1.7,0.8,2.4s1.2,1,2,1c0.6,0,1.1-0.1,1.5-0.2c0.4-0.2,0.8-0.4,1.1-0.7
						l0.4,0.6c-0.3,0.3-0.7,0.6-1.2,0.8S182,256.2,181.3,256.2z M181.2,248.2c-0.7,0-1.3,0.3-1.7,0.8c-0.5,0.5-0.7,1.2-0.8,2l0,0h5
						v-0.2c0-0.7-0.2-1.3-0.6-1.8C182.5,248.4,181.9,248.2,181.2,248.2z"/>
					<path class="st6" d="M189.8,255.4c0.6,0,1.2-0.2,1.6-0.5c0.5-0.4,0.7-0.8,0.7-1.5h0.8l0,0c0,0.8-0.3,1.4-0.9,2
						s-1.4,0.8-2.3,0.8c-1.1,0-2-0.4-2.7-1.2c-0.6-0.8-0.9-1.8-0.9-3v-0.3c0-1.2,0.3-2.2,0.9-3c0.6-0.8,1.5-1.2,2.7-1.2
						c0.7,0,1.2,0.1,1.8,0.4c0.5,0.2,1,0.6,1.3,1v1.8H192l-0.1-1.5c-0.2-0.3-0.6-0.5-0.9-0.7c-0.4-0.2-0.8-0.2-1.3-0.2
						c-0.9,0-1.6,0.3-2,1c-0.4,0.6-0.7,1.5-0.7,2.4v0.3c0,1,0.2,1.8,0.6,2.5C188.2,255.1,188.9,255.4,189.8,255.4z"/>
					<path class="st6" d="M196.9,245.4v2.2h1.9v0.8h-1.9v5.5c0,0.6,0.1,0.9,0.3,1.2c0.2,0.2,0.5,0.3,0.8,0.3c0.2,0,0.3,0,0.4,0
						c0.1,0,0.3,0,0.5-0.1l0.1,0.7c-0.2,0.1-0.3,0.1-0.6,0.2c-0.2,0-0.4,0.1-0.7,0.1c-0.6,0-1.1-0.2-1.4-0.6c-0.3-0.4-0.5-1-0.5-1.8
						v-5.5h-1.5v-0.8h1.5v-2.2L196.9,245.4L196.9,245.4z"/>
					<path class="st6" d="M206.6,250.2h-0.8l-0.1-1.2c-0.2-0.2-0.5-0.4-0.9-0.6c-0.4-0.1-0.8-0.2-1.2-0.2c-0.7,0-1.2,0.1-1.5,0.4
						c-0.3,0.3-0.5,0.6-0.5,1s0.1,0.7,0.4,1c0.3,0.3,0.9,0.5,1.8,0.7c1,0.2,1.8,0.5,2.3,0.9s0.8,0.9,0.8,1.6c0,0.7-0.3,1.3-0.9,1.7
						s-1.3,0.7-2.3,0.7c-0.6,0-1.2-0.1-1.7-0.3s-1-0.4-1.3-0.7v-1.7h0.8l0.1,1.2c0.2,0.2,0.6,0.4,0.9,0.5s0.8,0.2,1.2,0.2
						c0.7,0,1.2-0.1,1.6-0.4s0.6-0.7,0.6-1.1c0-0.4-0.2-0.7-0.5-1s-0.9-0.5-1.8-0.7c-1-0.2-1.8-0.5-2.2-0.9
						c-0.5-0.4-0.7-0.9-0.7-1.5s0.3-1.2,0.8-1.6s1.3-0.7,2.2-0.7c0.6,0,1.2,0.1,1.7,0.3s0.9,0.4,1.3,0.8L206.6,250.2z"/>
				</g>
				<g class="st4">
					<path class="st6" d="M520.3,489.8c-0.6,0.6-1.6,1.2-2.8,1.7s-2.8,0.8-4.7,0.8c-2.7,0-4.9-0.9-6.6-2.7c-1.7-1.8-2.5-4.1-2.5-7
						v-0.7c0-3,0.8-5.4,2.5-7.3s3.8-2.8,6.5-2.8c1.6,0,3,0.2,4.3,0.7s2.4,1.2,3.2,2v4h-3l-0.6-2.7c-0.4-0.3-0.8-0.6-1.4-0.7
						s-1.3-0.3-2.1-0.3c-1.7,0-3.1,0.6-4.1,1.9s-1.4,3-1.4,5v0.7c0,2,0.5,3.6,1.4,4.8c0.9,1.2,2.3,1.8,4.1,1.8
						c0.8,0,1.5-0.1,1.9-0.2s0.9-0.3,1.2-0.5v-3.4l-2.8-0.2v-2.8h6.8L520.3,489.8L520.3,489.8z"/>
					<path class="st6" d="M529.4,492.3c-2.1,0-3.8-0.7-5.1-2.1s-1.9-3.1-1.9-5.2v-0.5c0-2.2,0.6-4,1.8-5.4s2.8-2.1,4.9-2.1
						c2,0,3.5,0.6,4.6,1.8c1.1,1.2,1.7,2.8,1.7,4.9v2.2h-8.8v0.1c0.1,1,0.4,1.8,1,2.4s1.4,0.9,2.4,0.9c0.9,0,1.6-0.1,2.2-0.3
						c0.6-0.2,1.2-0.5,1.9-0.8l1.1,2.5c-0.6,0.5-1.4,0.9-2.4,1.2S530.6,492.3,529.4,492.3z M529.1,480c-0.7,0-1.3,0.3-1.8,0.8
						c-0.4,0.6-0.7,1.3-0.8,2.2v0.1h4.9v-0.4c0-0.8-0.2-1.5-0.6-2S529.9,480,529.1,480z"/>
					<path class="st6" d="M543.2,473.6v3.6h2.6v2.8h-2.6v7.5c0,0.6,0.1,1,0.4,1.2c0.2,0.2,0.6,0.4,1,0.4c0.3,0,0.5,0,0.7,0
						s0.4-0.1,0.7-0.1l0.3,2.9c-0.4,0.1-0.9,0.2-1.3,0.3s-0.9,0.1-1.4,0.1c-1.4,0-2.4-0.4-3.2-1.1s-1.1-2-1.1-3.6V480H537v-2.8h2.2
						v-3.6H543.2z"/>
				</g>
				<g class="st4">
					<path class="st6" d="M480.5,503.3v-0.7h3.5v0.7l-1.3,0.1v9.8l1.3,0.1v0.7h-3.5v-0.7l1.3-0.1v-9.8L480.5,503.3z"/>
					<path class="st6" d="M485.3,513.3l1.3-0.1v-6.9l-1.3-0.1v-0.7h2.1l0.1,1.5c0.3-0.5,0.6-0.9,1.1-1.2s1-0.4,1.6-0.4
						c0.9,0,1.6,0.3,2.1,0.8c0.5,0.6,0.7,1.4,0.7,2.6v4.4l1.3,0.1v0.7h-3.5v-0.7l1.3-0.1v-4.4c0-1-0.2-1.7-0.5-2.1
						c-0.4-0.4-0.9-0.6-1.5-0.6c-0.7,0-1.2,0.2-1.6,0.5s-0.7,0.8-0.9,1.4v5.1l1.3,0.1v0.7h-3.5v-0.6H485.3z"/>
					<path class="st6" d="M495.6,506.3v-0.8h1.4v-1.2c0-0.8,0.2-1.5,0.6-2s1-0.7,1.8-0.7c0.2,0,0.3,0,0.5,0s0.4,0.1,0.5,0.1
						l-0.1,0.8c-0.1,0-0.3-0.1-0.4-0.1s-0.3,0-0.5,0c-0.5,0-0.9,0.2-1.2,0.5s-0.4,0.8-0.4,1.4v1.2h2v0.8h-2v6.9l1.3,0.1v0.7h-3.5
						v-0.7l1.3-0.1v-6.9L495.6,506.3L495.6,506.3z"/>
					<path class="st6" d="M501.4,509.6c0-1.2,0.3-2.3,1-3.1c0.7-0.8,1.6-1.2,2.7-1.2s2,0.4,2.7,1.2c0.7,0.8,1,1.8,1,3.1v0.3
						c0,1.2-0.3,2.3-1,3.1s-1.6,1.2-2.7,1.2s-2-0.4-2.7-1.2s-1-1.8-1-3.1V509.6z M502.3,509.9c0,1,0.2,1.8,0.7,2.5
						c0.5,0.7,1.2,1,2.1,1s1.6-0.3,2-1c0.5-0.7,0.7-1.5,0.7-2.5v-0.3c0-1-0.2-1.8-0.7-2.5s-1.2-1-2.1-1s-1.6,0.3-2.1,1
						s-0.7,1.5-0.7,2.5v0.3H502.3z"/>
					<path class="st6" d="M512.4,505.5l0.1,1.4v0.1c0.2-0.5,0.6-0.9,1-1.2s0.9-0.4,1.5-0.4c0.1,0,0.2,0,0.3,0s0.2,0,0.3,0.1
						l-0.1,0.9h-0.7c-0.6,0-1.1,0.2-1.4,0.5c-0.4,0.3-0.6,0.8-0.8,1.4v5l1.3,0.1v0.7h-3.5v-0.7l1.3-0.1v-6.9l-1.3-0.1v-0.7h1.3
						L512.4,505.5L512.4,505.5z"/>
					<path class="st6" d="M516.6,506.2v-0.7h2.1l0.1,1.4c0.3-0.5,0.6-0.9,1.1-1.1s1-0.4,1.6-0.4s1.2,0.2,1.6,0.5
						c0.4,0.3,0.7,0.8,0.9,1.4c0.3-0.6,0.6-1.1,1.1-1.4s1-0.5,1.7-0.5c0.9,0,1.6,0.3,2.1,0.9s0.7,1.5,0.7,2.8v4.1l1.3,0.1v0.7h-3.5
						v-0.7l1.3-0.1v-4.1c0-1-0.2-1.8-0.6-2.2s-0.9-0.6-1.5-0.6c-0.7,0-1.3,0.2-1.7,0.7s-0.6,1.1-0.7,1.8v0.1v0.1v4.3l1.3,0.1v0.7
						H522v-0.7l1.3-0.1v-4.2c0-1-0.2-1.8-0.6-2.2c-0.4-0.4-0.9-0.7-1.5-0.7c-0.7,0-1.2,0.2-1.6,0.5c-0.4,0.3-0.7,0.8-0.8,1.4v5.1
						l1.3,0.1v0.7h-3.5v-0.7l1.3-0.1v-6.9L516.6,506.2z"/>
					<path class="st6" d="M538,514c-0.1-0.3-0.1-0.5-0.1-0.7s0-0.4,0-0.6c-0.3,0.4-0.7,0.8-1.2,1.1s-1.1,0.4-1.8,0.4
						c-0.8,0-1.5-0.2-1.9-0.6s-0.7-1-0.7-1.7c0-0.8,0.3-1.4,1-1.9s1.6-0.7,2.7-0.7h1.9v-1.1c0-0.6-0.2-1.1-0.6-1.4
						c-0.4-0.3-0.9-0.5-1.6-0.5c-0.5,0-0.9,0.1-1.3,0.2c-0.4,0.1-0.7,0.3-1,0.5l-0.1,1.1h-0.8v-1.6c0.4-0.3,0.9-0.5,1.4-0.7
						s1.1-0.3,1.7-0.3c0.9,0,1.7,0.2,2.2,0.7c0.6,0.5,0.9,1.2,0.9,2v4.2c0,0.2,0,0.3,0,0.5s0,0.3,0.1,0.5l0.8,0.1v0.7H538V514z
						 M534.9,513.3c0.7,0,1.3-0.2,1.8-0.5s0.9-0.7,1.1-1.2V510h-1.9c-0.8,0-1.5,0.2-2,0.5s-0.8,0.8-0.8,1.3s0.2,0.8,0.5,1.1
						C533.9,513.2,534.3,513.3,534.9,513.3z"/>
					<path class="st6" d="M543.1,503.4v2.2h1.9v0.8h-1.9v5.5c0,0.6,0.1,0.9,0.3,1.2c0.2,0.2,0.5,0.3,0.8,0.3c0.2,0,0.3,0,0.4,0
						c0.1,0,0.3,0,0.5-0.1l0.1,0.7c-0.2,0.1-0.3,0.1-0.6,0.2c-0.2,0-0.4,0.1-0.7,0.1c-0.6,0-1.1-0.2-1.4-0.6c-0.3-0.4-0.5-1-0.5-1.8
						v-5.5h-1.5v-0.8h1.5v-2.2L543.1,503.4L543.1,503.4z"/>
					<path class="st6" d="M546.6,513.3l1.3-0.1v-6.9l-1.3-0.1v-0.7h2.2v7.7l1.3,0.1v0.7h-3.5V513.3z M548.8,503.1h-0.9v-1.3h0.9
						V503.1z"/>
					<path class="st6" d="M551.7,509.6c0-1.2,0.3-2.3,1-3.1c0.7-0.8,1.6-1.2,2.7-1.2c1.1,0,2,0.4,2.7,1.2c0.7,0.8,1,1.8,1,3.1v0.3
						c0,1.2-0.3,2.3-1,3.1s-1.6,1.2-2.7,1.2c-1.1,0-2-0.4-2.7-1.2s-1-1.8-1-3.1V509.6z M552.6,509.9c0,1,0.2,1.8,0.7,2.5
						c0.5,0.7,1.2,1,2.1,1c0.9,0,1.6-0.3,2-1c0.5-0.7,0.7-1.5,0.7-2.5v-0.3c0-1-0.2-1.8-0.7-2.5s-1.2-1-2.1-1s-1.6,0.3-2.1,1
						s-0.7,1.5-0.7,2.5L552.6,509.9L552.6,509.9z"/>
					<path class="st6" d="M560.5,513.3l1.3-0.1v-6.9l-1.3-0.1v-0.7h2.1l0.1,1.5c0.3-0.5,0.6-0.9,1.1-1.2s1-0.4,1.6-0.4
						c0.9,0,1.6,0.3,2.1,0.8c0.5,0.6,0.7,1.4,0.7,2.6v4.4l1.3,0.1v0.7H566v-0.7l1.3-0.1v-4.4c0-1-0.2-1.7-0.5-2.1
						c-0.4-0.4-0.9-0.6-1.5-0.6c-0.7,0-1.2,0.2-1.6,0.5s-0.7,0.8-0.9,1.4v5.1l1.3,0.1v0.7h-3.5L560.5,513.3L560.5,513.3z"/>
				</g>
				<g id="Group-8" transform="translate(395.000000, 123.000000)">
					<circle id="Oval-3" class="st6" cx="3" cy="3" r="3"/>
				</g>
				<g id="Group-8_1_" transform="translate(552.000000, 239.000000)">
					<circle id="Oval-3_1_" class="st6" cx="3" cy="3" r="3"/>
				</g>
				<g id="Group-8_2_" transform="translate(494.000000, 426.000000)">
					<circle id="Oval-3_2_" class="st6" cx="3" cy="3" r="3"/>
				</g>
				<g id="Group-8_3_" transform="translate(297.000000, 425.000000)">
					<circle id="Oval-3_3_" class="st6" cx="3" cy="3" r="3"/>
				</g>
				<g id="Group-8_4_" transform="translate(235.000000, 239.000000)">
					<circle id="Oval-3_4_" class="st6" cx="3" cy="3" r="3"/>
				</g>
			</g>
		</g>
	</g>
</g>
</svg>
