<?xml version="1.0" encoding="UTF-8"?>
<svg width="76px" height="33px" viewBox="0 0 76 33" version="1.1" xmlns="http://www.w3.org/2000/svg" xmlns:xlink="http://www.w3.org/1999/xlink">
    <!-- Generator: Sketch 49.2 (51160) - http://www.bohemiancoding.com/sketch -->
    <title>train</title>
    <desc>Created with Sketch.</desc>
    <defs></defs>
    <g id="Pages" stroke="none" stroke-width="1" fill="none" fill-rule="evenodd">
        <g id="Plan-your-trip" transform="translate(-685.000000, -1823.000000)" fill="#000000">
            <g id="Easy-access" transform="translate(-1.000000, 937.000000)">
                <g id="Transport" transform="translate(252.000000, 198.000000)">
                    <g id="train" transform="translate(434.000000, 688.000000)">
                        <path d="M31.3258548,14.2034523 L38.7754639,14.2034523 L38.7754639,7.87503155 L31.3258548,7.87503155 L31.3258548,14.2034523 Z M41.0037592,7.95169953 L41.9097798,7.95169953 C46.971657,7.87313851 53.7816099,11.0335628 58.4472821,14.0179348 L58.8558983,14.2791738 L41.0037592,14.2791738 L41.0037592,7.95169953 Z M61.9692106,16.5233685 C63.2704815,17.6516182 64.0753028,18.4675169 64.0753028,19.0477326 L64.0753028,20.0207533 L59.0554329,20.0207533 C58.4892893,20.0207533 57.9030968,20.4485795 57.9030968,21.1632008 C57.9030968,21.8039936 58.4090936,22.3056483 59.0554329,22.3056483 L64.0753028,22.3056483 L64.0753028,22.5990689 C64.0753028,24.3018552 62.6785608,25.6875578 60.9610359,25.6875578 L57.2376633,25.6875578 L57.1947014,25.6392854 C56.6715198,25.0458185 55.9335283,24.7050719 55.1688048,24.7050719 C54.4050361,24.7050719 53.6670446,25.0458185 53.1429083,25.6392854 L53.0999463,25.6875578 L51.5991408,25.6875578 L51.5561788,25.6392854 C51.0320425,25.0458185 50.294051,24.7050719 49.5302822,24.7050719 C48.7655588,24.7050719 48.0275673,25.0458185 47.5043857,25.6392854 L47.4614237,25.6875578 L37.8818545,25.6875578 L37.8388925,25.6392854 C37.315711,25.0458185 36.5767647,24.7050719 35.812996,24.7050719 C35.0492273,24.7050719 34.310281,25.0458185 33.7870995,25.6392854 L33.7441375,25.6875578 L32.3187541,25.6875578 L32.2757921,25.6392854 C31.7106033,24.9975461 30.971657,24.6293505 30.2498956,24.6293505 C29.4870816,24.6293505 28.7481353,24.970097 28.223999,25.5626174 L28.1810371,25.6118364 L17.6878095,25.6118364 L17.6448475,25.5626174 C17.1207113,24.970097 16.381765,24.6293505 15.618951,24.6293505 C14.7883525,24.6293505 14.0169461,25.0107973 13.604511,25.6241411 L13.561549,25.6875578 L12.1247091,25.6875578 L12.0817471,25.6392854 C11.5156036,24.9975461 10.777612,24.6293505 10.0558506,24.6293505 C9.22620681,24.6293505 8.45384569,25.0107973 8.04141059,25.6241411 L7.99844859,25.6875578 L4.30562683,25.6875578 L4.30562683,16.4883473 L61.9291127,16.4883473 L61.9692106,16.5233685 Z M4.22829524,14.2034523 L10.0463035,14.2034523 L10.0463035,7.80025661 L4.22829524,7.80025661 L4.22829524,14.2034523 Z M12.1991766,13.9081387 L12.2774629,7.87503155 L19.647831,7.87503155 L19.647831,14.2034523 L12.1991766,14.2034523 L12.1991766,13.9081387 Z M29.2503133,14.1371961 L29.2503133,14.2791738 L21.8007041,14.2791738 L21.8007041,7.95169953 L29.1739364,7.95169953 L29.1739364,13.8579732 C29.2503133,13.9611437 29.2503133,14.0652607 29.2503133,14.1371961 Z M16.2376037,5.59013658 L32.3741273,5.59013658 L32.3741273,2.13345206 L16.2376037,2.13345206 L16.2376037,5.59013658 Z M45.1863476,0 L2,0 L2,2.20917351 L14.0093084,2.20917351 L14.0093084,5.66585804 L2,5.66585804 L2,27.9724528 L7.42275792,27.9724528 L7.45044454,28.0775163 C7.69771466,28.9946925 8.46530223,29.7254045 9.40760189,29.9402642 C9.40760189,29.9402642 9.92505519,30.0746698 10.5494361,29.9402642 C11.4334984,29.750014 12.2621875,28.9786017 12.5075482,28.0036879 L12.5352348,27.8967314 L12.9849036,27.8967314 L13.013545,28.0017949 C13.3152336,29.1224724 14.3787816,29.9364781 15.5425741,29.9364781 C16.7636494,29.9364781 17.7794618,29.1603332 18.0706486,28.0046344 L18.0973805,27.8967314 L27.6168029,27.8967314 L27.6454442,28.0017949 C27.9471329,29.1224724 29.0097261,29.9364781 30.1735187,29.9364781 C31.3945939,29.9364781 32.4113611,29.1593867 32.7025479,28.0036879 L32.7292798,27.8967314 L33.1799033,27.8967314 L33.20759,28.0017949 C33.5092786,29.1224724 34.5728265,29.9364781 35.7366191,29.9364781 C36.9576944,29.9364781 37.9744615,29.1603332 38.2646936,28.0046344 L38.2923802,27.8967314 L46.8227221,27.8967314 L46.849454,28.0036879 C47.1406408,29.1593867 48.157408,29.9364781 49.3775285,29.9364781 C50.5413211,29.9364781 51.604869,29.1224724 51.9065577,28.0017949 L51.935199,27.8967314 L52.3848678,27.8967314 L52.4125544,28.0036879 C52.7037413,29.1593867 53.7195537,29.9364781 54.9406289,29.9364781 C56.1044215,29.9364781 57.1679694,29.1224724 57.4696581,28.0017949 L57.4973447,27.8967314 L60.6555284,27.8967314 C63.6027209,27.8967314 66,25.5200241 66,22.5990689 L66,19.0477326 C66,14.5707014 49.8128767,5.74157949 41.6042723,5.74157949 L34.6787995,5.74157949 L34.6787995,2.28489497 L45.1863476,2.28489497 C45.8326869,2.28489497 46.3386837,1.7822938 46.3386837,1.14244749 C46.3386837,0.580215666 45.9071544,0 45.1863476,0 Z" id="Fill-1"></path>
                        <path d="M0,32 C0,32.4913007 0.431557789,33 1.15241206,33 L74.8485427,33 C75.4147236,33 76,32.6255178 76,32 C75.9303015,31.3968517 75.4471859,31 74.771206,31 L1.15241206,31 C0.586231156,31 0,31.3744822 0,32" id="Fill-3"></path>
                    </g>
                </g>
            </g>
        </g>
    </g>
</svg>